<svg version="1.1" xmlns="http://www.w3.org/2000/svg" viewBox="-44.000001 -11.80635468624789 88.000002 28.005029255144663" fill="none" stroke="black" stroke-width="0.6%" vector-effect="non-scaling-stroke">
    <path d="M -9.19239 -10.24888 A 13 1.90334 360 0 1 13 -8.90302 A 13 1.90334 360 0 1 -13 -8.90302 A 13 1.90334 360 0 1 -9.19239 -10.24888 Z" />
    <path d="M -7.77817 -10.04182 A 11 1.61052 360 0 1 11 -8.90302 A 11 1.61052 360 0 1 -11 -8.90302 A 11 1.61052 360 0 1 -7.77817 -10.04182 Z" />
    <path d="M 19.48697 0.98922 A 39 5.71002 180 0 0 13 0.55189" />
    <path d="M -13 0.55189 A 39 5.71002 180 0 0 -19.48697 0.98922" />
    <path d="M -27.57716 -7.99449 A 39 5.71002 360 0 1 -12.62027 -9.35968" />
    <path d="M 12.62027 -9.35968 A 39 5.71002 360 0 1 39 -3.9569 A 39 5.71002 360 0 1 -39 -3.9569 A 39 5.71002 360 0 1 -27.57716 -7.99449" />
    <path d="M -29.02673 -8.20672 A 41.05 6.01016 360 0 1 -11.75673 -9.71529" />
    <path d="M 11.75673 -9.71529 A 41.05 6.01016 360 0 1 41.05 -3.9569 L 41.05 5.93534" />
    <path d="M 41.05 -3.9569 A 41.05 6.01016 360 0 1 -41.05 -3.9569 L -41.05 5.93534 A 41.05 6.01016 180 0 0 41.05 5.93534" />
    <path d="M -41.05 -3.9569 A 41.05 6.01016 360 0 1 -29.02673 -8.20672" />
    <path d="M -41.05 4.06096 A 43 6.29566 180 0 0 -43 5.93534 L -43 8.90302" />
    <path d="M -43 5.93534 A 43 6.29566 180 0 0 43 5.93534 L 43 8.90302 A 43 6.29566 360 0 1 -43 8.90302" />
    <path d="M 43 5.93534 A 43 6.29566 180 0 0 41.05 4.06096" />
    <path d="M -13 -8.90302 L -13 1.42656" />
    <path d="M 13 -8.90302 L 13 1.42656" />
</svg>