<svg version="1.1" xmlns="http://www.w3.org/2000/svg" viewBox="-44.000001000000005 -15.946827865506256 88.000002 32.180808974841916" fill="none" stroke="black" stroke-width="0.6%" vector-effect="non-scaling-stroke">
    <path d="M 27.81624 13.73064 A 43 6.3321 360 0 1 -43 8.90188" />
    <path d="M 43 8.90188 A 43 6.3321 360 0 1 32.86889 12.98451" />
    <path d="M 30.39299 13.38121 L 32.86889 13.01691 L 32.86889 -1.81956 L 31.38494 -2.03826 A 41.05 6.04494 360 0 1 26.43315 -1.30967 L 27.91709 -1.09097 L 32.86889 -1.81956" />
    <path d="M 27.91709 13.7455 L 30.39299 13.38121" />
    <path d="M 27.81624 13.73064 L 27.91709 13.7455 L 27.91709 -1.09097" />
    <path d="M -41.05 4.04935 A 43 6.3321 180 0 0 -43 5.93459 A 43 6.3321 180 0 0 27.81624 10.76334 L 27.81624 13.73064" />
    <path d="M 32.86889 10.01721 A 43 6.3321 180 0 0 43 5.93459 A 43 6.3321 180 0 0 41.05 4.04935" />
    <path d="M 30.39299 10.41391 L 30.39299 13.38121" />
    <path d="M 26.43315 -1.30967 L 26.43315 10.5595 L 27.81624 10.76334" />
    <path d="M -41.05 5.93459 A 41.05 6.04494 180 0 0 26.43315 10.5595" />
    <path d="M 32.86889 9.55588 A 41.05 6.04494 180 0 0 41.05 5.93459" />
    <path d="M -29.0147 -13.17808 A 41.05 6.04494 360 0 1 41.05 -8.90188 L 41.05 5.93459" />
    <path d="M 41.05 -8.90188 A 41.05 6.04494 360 0 1 -41.05 -8.90188 L -41.05 5.93459" />
    <path d="M -41.05 -8.90188 A 41.05 6.04494 360 0 1 -29.0147 -13.17808" />
    <path d="M -7.77495 -10.04776 A 11 1.61984 360 0 1 11 -8.90188 A 11 1.61984 360 0 1 -11 -8.90188 A 11 1.61984 360 0 1 -7.77495 -10.04776 Z" />
    <path d="M -27.56573 -12.96453 A 39 5.74306 360 0 1 39 -8.90188 A 39 5.74306 360 0 1 -39 -8.90188 A 39 5.74306 360 0 1 -27.56573 -12.96453 Z" />
    <path d="M -9.18858 -10.2561 A 13 1.91435 360 0 1 13 -8.90188 L 13 -3.48727" />
    <path d="M 13 -8.90188 A 13 1.91435 360 0 1 -13 -8.90188 L -13 -3.48727" />
    <path d="M -13 -8.90188 A 13 1.91435 360 0 1 -9.18858 -10.2561" />
    <path d="M 18.90012 -3.87828 L 17.31899 -4.11131 L 13.1207 -3.49359" />
    <path d="M -43 5.93459 L -43 8.90188" />
    <path d="M 43 5.93459 L 43 8.90188" />
</svg>