<svg version="1.1" xmlns="http://www.w3.org/2000/svg" viewBox="-42.050001 -7.419911380931916 84.100002 14.839822761863832" fill="none" stroke="black" stroke-width="0.6%" vector-effect="non-scaling-stroke">
    <path d="M -41.05 3.74201 A 41.05 2.6779 180 0 0 41.05 3.74201" />
    <path d="M -29.02673 -5.63557 A 41.05 2.6779 360 0 1 41.05 -3.74201 A 41.05 2.6779 360 0 1 -41.05 -3.74201 A 41.05 2.6779 360 0 1 -29.02673 -5.63557 Z" />
    <path d="M -24.60331 -5.71603 A 39 2.54417 360 0 1 24.60331 -5.71603 L 5.918 -4.4971" />
    <path d="M 30.26016 -5.34701 A 39 2.54417 360 0 1 39 -3.74201 A 39 2.54417 360 0 1 30.26016 -2.13701 L 11.57485 -3.35595" />
    <path d="M 30.26016 -5.34701 L 30.26016 -2.13701" />
    <path d="M 24.60331 -1.76799 A 39 2.54417 360 0 1 -24.60331 -1.76799 L -5.918 -2.98693 L -5.918 -1.22731" />
    <path d="M -30.26016 -5.34701 L -30.26016 -2.13701 A 39 2.54417 360 0 1 -39 -3.74201 A 39 2.54417 360 0 1 -30.26016 -5.34701 L -11.57485 -4.12807" />
    <path d="M -11.57485 -3.35595 L -30.26016 -2.13701" />
    <path d="M -5.918 -4.4971 L -24.60331 -5.71603" />
    <path d="M -5.918 -4.4971 A 13 0.84806 360 0 1 5.918 -4.4971" />
    <path d="M 11.57485 -4.12807 L 30.26016 -5.34701" />
    <path d="M 11.57485 -4.12807 A 13 0.84806 360 0 1 13 -3.74201 L 13 -3.26298" />
    <path d="M 13 -3.74201 A 13 0.84806 360 0 1 11.57485 -3.35595" />
    <path d="M 5.918 -2.98693 L 24.60331 -1.76799" />
    <path d="M 5.918 -2.98693 A 13 0.84806 360 0 1 -5.918 -2.98693" />
    <path d="M -11.57485 -3.35595 A 13 0.84806 360 0 1 -13 -3.74201 L -13 -3.26298" />
    <path d="M -13 -3.74201 A 13 0.84806 360 0 1 -11.57485 -4.12807" />
    <path d="M 22.45064 -5.04513 A 1.75 0.11416 360 0 1 19.4632 -5.12586 A 1.75 0.11416 360 0 1 22.9632 -5.12586 A 1.75 0.11416 360 0 1 22.45064 -5.04513 Z" />
    <path d="M 22.45064 -2.27744 A 1.75 0.11416 360 0 1 19.4632 -2.35817 A 1.75 0.11416 360 0 1 22.9632 -2.35817 A 1.75 0.11416 360 0 1 22.45064 -2.27744 Z" />
    <path d="M -19.97577 -2.27744 A 1.75 0.11416 360 0 1 -22.9632 -2.35817 A 1.75 0.11416 360 0 1 -19.4632 -2.35817 A 1.75 0.11416 360 0 1 -19.97577 -2.27744 Z" />
    <path d="M -19.97577 -5.04513 A 1.75 0.11416 360 0 1 -22.9632 -5.12586 A 1.75 0.11416 360 0 1 -19.4632 -5.12586 A 1.75 0.11416 360 0 1 -19.97577 -5.04513 Z" />
    <path d="M -7.77817 -4.24942 A 11 0.71759 360 0 1 11 -3.74201 A 11 0.71759 360 0 1 -11 -3.74201 A 11 0.71759 360 0 1 -7.77817 -4.24942 Z" />
    <path d="M 5.918 -2.98693 L 5.918 -1.22731" />
    <path d="M -41.05 -3.74201 L -41.05 3.74201" />
    <path d="M 41.05 -3.74201 L 41.05 3.74201" />
</svg>