<svg viewBox="0 0 800 800" xmlns="http://www.w3.org/2000/svg"><path d="M654.0801807478704,294.7287134897449 L654.1215673921373,284.6546431202566 M654.1215673921373,284.6546431202566 L671.1587461850797,295.3627882029186 M671.1587461850797,295.3627882029186 L686.3707402441266,306.95919291203893 M686.3707402441266,306.95919291203893 L699.6185569081537,319.3413876956844 M699.6185569081537,319.3413876956844 L710.7801664746324,332.3995966402559 M710.7801664746324,332.3995966402559 L719.7516751446244,346.0176867600471 M719.7516751446244,346.0176867600471 L726.4483866756351,360.0740844641897 M726.4483866756351,360.0740844641897 L730.8057213009369,374.4428566508839 M730.8057213009369,374.4428566508839 L732.7798550983125,388.99477044229667 M732.7798550983125,388.99477044229667 L732.3483454533449,403.5984707194089 M732.3483454533449,403.5984707194089 L729.5104920994077,418.12161868729714 M729.5104920994077,418.12161868729714 L724.2874433517,432.43207868512104 M724.2874433517,432.43207868512104 L716.7222820413516,446.3991777099352 M716.7222820413516,446.3991777099352 L706.8796809629254,459.89490179114006 M706.8796809629254,459.89490179114006 L694.8455388993622,472.79511424277877 M694.8455388993622,472.79511424277877 L680.7262576388166,484.98073414932463 M680.7262576388166,484.98073414932463 L664.6479494292242,496.33893369450544 M664.6479494292242,496.33893369450544 L646.7552779177962,506.7642086992731 M646.7552779177962,506.7642086992731 L627.2102402026026,516.1594489357707 M627.2102402026026,516.1594489357707 L606.1906905274761,524.4369236652356 M606.1906905274761,524.4369236652356 L583.888667832775,531.519141025052 M583.888667832775,531.519141025052 L560.5086676105618,537.3396909395572 M560.5086676105618,537.3396909395572 L536.2656332691113,541.8438869204492 M536.2656332691113,541.8438869204492 L511.38291765976413,544.9893718486388 M511.38291765976413,544.9893718486388 L486.09011269761595,546.7465123979973 M486.09011269761595,546.7465123979973 L460.62085723065127,547.0987730429399 M460.62085723065127,547.0987730429399 L435.21047907412657,546.0428237185374 M435.21047907412657,546.0428237185374 L410.0937148962573,543.5886140965824 M410.0937148962573,543.5886140965824 L385.5024740594523,539.7592727681515 M385.5024740594523,539.7592727681515 L361.6635039188768,534.5908223104502 M361.6635039188768,534.5908223104502 L338.79624110693044,528.1318532947412 M338.79624110693044,528.1318532947412 L317.1106171700733,520.4430011933887 M317.1106171700733,520.4430011933887 L296.80515618719187,511.5963050741657 M296.80515618719187,511.5963050741657 L278.06502935658807,501.6744689845922 M278.06502935658807,501.6744689845922 L261.06033426760166,490.7700472949699 M261.06033426760166,490.7700472949699 L245.94460158342685,478.98446147030995 M245.94460158342685,478.98446147030995 L232.85334400324317,466.42701832432056 M232.85334400324317,466.42701832432056 L221.90293205080653,453.2138274560234 M221.90293205080653,453.2138274560234 L213.18962655083823,439.46662262922837 M213.18962655083823,439.46662262922837 L206.78879147969718,425.31164363738066 M206.78879147969718,425.31164363738066 L202.7543132585116,410.8783861232791 M202.7543132585116,410.8783861232791 L201.11834738975608,396.2984133534577 M201.11834738975608,396.2984133534577 L201.89111533238204,381.70409438393256 M201.89111533238204,381.70409438393256 L205.06098438159736,367.22742904611323 M205.06098438159736,367.22742904611323 L210.5948066221178,352.9988731795162 M210.5948066221178,352.9988731795162 L218.4382677878972,339.14613992169205 M218.4382677878972,339.14613992169205 L228.51663682568136,325.79311022742496 M228.51663682568136,325.79311022742496 L240.7354937557221,313.0587639504439 M240.7354937557221,313.0587639504439 L254.98176002831602,301.0561874475651 M254.98176002831602,301.0561874475651 L271.1247336863508,289.8915933914071 M271.1247336863508,289.8915933914071 L289.0174129650625,279.6634886947036 M289.0174129650625,279.6634886947036 L308.4977996536071,270.4618573107586 M308.4977996536071,270.4618573107586 L329.39037555958834,262.3674324471262 M329.39037555958834,262.3674324471262 L351.5076898411058,255.45108939740206 M351.5076898411058,255.45108939740206 L374.6519228431285,249.77324289481064 M374.6519228431285,249.77324289481064 L398.6166522482858,245.38342107165718 M398.6166522482858,245.38342107165718 L423.18858419184176,242.31984710331 M423.18858419184176,242.31984710331 L448.1493596510261,240.6091930530077 M448.1493596510261,240.6091930530077 L473.277341356109,240.26631459742384 M473.277341356109,240.26631459742384 L498.3495366787115,241.29420238816994 M498.3495366787115,241.29420238816994 L523.1434322414668,243.68392108261708 M523.1434322414668,243.68392108261708 L547.4387888511102,247.41467356752008 M547.4387888511102,247.41467356752008 L571.0195536108599,252.45400049446022 M571.0195536108599,252.45400049446022 L593.6756224711827,258.75797873653363 M593.6756224711827,258.75797873653363 L615.2046963351303,266.2715752398316 M615.2046963351303,266.2715752398316 L635.4139090116488,274.929085466532 M635.4139090116488,274.929085466532 L654.1215673921373,284.6546431202566 M654.0801807478704,294.7287134897449 L635.37667588439,285.0009711899254 M635.37667588439,285.0009711899254 L615.1719434216742,276.34151467400176 M615.1719434216742,276.34151467400176 L593.6476364881992,268.8262278545552 M593.6476364881992,268.8262278545552 L570.9965790454947,262.52083056861295 M570.9965790454947,262.52083056861295 L547.4210260753398,257.48036871492104 M547.4210260753398,257.48036871492104 L523.131035958287,253.7487756921987 M523.131035958287,253.7487756921987 L498.34261474442894,251.35851845140866 M498.34261474442894,251.35851845140866 L473.2759539531851,250.33039898176605 M473.2759539531851,250.33039898176605 L448.15351884108566,250.6733547221142 M448.15351884108566,250.6733547221142 L423.1982538209775,252.38439431925323 M423.1982538209775,252.38439431925323 L398.6317482130515,255.44865861205395 M398.6317482130515,255.44865861205395 L374.67231373784983,259.83946928683474 M374.67231373784983,259.83946928683474 L351.5331979592699,265.51859422202034 M351.5331979592699,265.51859422202034 L329.4207782577266,272.436493713415 M329.4207782577266,272.436493713415 L308.5328310666157,280.5327389427501 M308.5328310666157,280.5327389427501 L289.0567660872689,289.73643813553264 M289.0567660872689,289.73643813553264 L271.1680627813408,299.9668393667831 M271.1680627813408,299.9668393667831 L255.02868338087956,311.13393789104384 M255.02868338087956,311.13393789104384 L240.78559675018073,323.1392041181792 M240.78559675018073,323.1392041181792 L228.569475321166,335.8764010220958 M228.569475321166,335.8764010220958 L218.4933718036091,349.2324164276667 M218.4933718036091,349.2324164276667 L210.65168427708318,363.0882434402322 M210.65168427708318,363.0882434402322 L205.11912609518248,377.3199730833416 M205.11912609518248,377.3199730833416 L201.94999822495404,391.7998634722233 M201.94999822495404,391.7998634722233 L201.17743989337686,406.39742954992005 M201.17743989337686,406.39742954992005 L202.8130798525463,420.9806420720734 M202.8130798525463,420.9806420720734 L206.84669755098847,435.4171026382714 M206.84669755098847,435.4171026382714 L213.2461433211144,449.57521896484076 M213.2461433211144,449.57521896484076 L221.95754150704667,463.3254669916605 M221.95754150704667,463.3254669916605 L232.9055438163818,476.54157935881204 M232.9055438163818,476.54157935881204 L245.99390993778917,489.10179584683266 M245.99390993778917,489.10179584683266 L261.10629454837556,500.8899817384642 M261.10629454837556,500.8899817384642 L278.10721464764293,511.7968066757345 M278.10721464764293,511.7968066757345 L296.8431735354767,521.7208274361365 M296.8431735354767,521.7208274361365 L317.1441115342097,530.5694698677098 M317.1441115342097,530.5694698677098 L338.82489897092813,538.2600123060099 M338.82489897092813,538.2600123060099 L361.6870565103783,544.7204003834809 M361.6870565103783,544.7204003834809 L385.5207001130524,549.889985782482 M385.5207001130524,549.889985782482 L410.1064429630504,553.7201676596202 M410.1064429630504,553.7201676596202 L435.21758930481695,556.1749158349375 M435.21758930481695,556.1749158349375 L460.62228263646034,557.2310968412653 M460.62228263646034,557.2310968412653 L486.0858398431701,556.8787589105474 M486.0858398431701,556.8787589105474 L511.3729868075355,555.1212328093176 M511.3729868075355,555.1212328093176 L536.250137965114,551.9750575477007 M536.250137965114,551.9750575477007 L560.4877536953179,547.4698727024311 M560.4877536953179,547.4698727024311 L583.8625319180724,541.6480443390645 M583.8625319180724,541.6480443390645 L606.1595779488523,534.5642705181679 M606.1595779488523,534.5642705181679 L627.1744424838015,526.2849754009561 M627.1744424838015,526.2849754009561 L646.7151297617478,516.8876673315914 M646.7151297617478,516.8876673315914 L664.6038253072943,506.4600957670512 M664.6038253072943,506.4600957670512 L680.6785680001782,495.09939172825784 M680.6785680001782,495.09939172825784 L694.7947260541263,482.9110820726625 M694.7947260541263,482.9110820726625 L706.8262147063448,470.0080189710557 M706.8262147063448,470.0080189710557 L716.6666550412165,456.5093091583014 M716.6666550412165,456.5093091583014 L724.2301663890876,442.5391163622317 M724.2301663890876,442.5391163622317 L729.4520891852743,428.2254825759114 M729.4520891852743,428.2254825759114 L732.2893489066615,413.6991095501012 M732.2893489066615,413.6991095501012 L732.7208005941102,399.0921621634276 M732.7208005941102,399.0921621634276 L730.7471429865982,384.5370086238339 M730.7471429865982,384.5370086238339 L726.3908123603946,370.1650333945248 M726.3908123603946,370.1650333945248 L719.6956216177132,356.10549836999786 M719.6956216177132,356.10549836999786 L710.7261350080992,342.48436506867233 M710.7261350080992,342.48436506867233 L699.5670289428543,329.42323464701053 M699.5670289428543,329.42323464701053 L686.3221733152769,317.0382665453772 M686.3221733152769,317.0382665453772 L671.1135701117771,305.4392617945657 M671.1135701117771,305.4392617945657 L654.0801807478704,294.7287134897449 M645.8906348697664,289.4046617000086 L662.655827302907,299.97788639518285 M662.655827302907,299.97788639518285 L677.5597609067544,311.4506778047362 M677.5597609067544,311.4506778047362 L690.4575928583707,323.715103638744 M690.4575928583707,323.715103638744 L701.223013473108,336.65538947850183 M701.223013473108,336.65538947850183 L709.7494667584378,350.1489985436191 M709.7494667584378,350.1489985436191 L715.9512792801851,364.0676899729157 M715.9512792801851,364.0676899729157 L719.7646939047564,378.27871275001945 M719.7646939047564,378.27871275001945 L721.1485673728287,392.6460045680854 M721.1485673728287,392.6460045680854 L720.0849874886736,407.0315014726383 M720.0849874886736,407.0315014726383 L716.5795585972244,421.2964400080569 M716.5795585972244,421.2964400080569 L710.6615886686507,435.3026861227513 M710.6615886686507,435.3026861227513 L702.3839274395968,448.91412452750626 M702.3839274395968,448.91412452750626 L691.8226875835041,461.997986645266 M691.8226875835041,461.997986645266 L679.0765786016523,474.42621870088254 M679.0765786016523,474.42621870088254 L664.2660785771286,486.07675141437073 M664.2660785771286,486.07675141437073 L647.5324394147502,496.8348223512829 M647.5324394147502,496.8348223512829 L629.0363221338155,506.5941501584617 M629.0363221338155,506.5941501584617 L608.9562609336682,515.258052397272 M608.9562609336682,515.258052397272 L587.4869463128846,522.740487217084 M587.4869463128846,522.740487217084 L564.837352925728,528.9670184506514 M564.837352925728,528.9670184506514 L541.2285461561729,533.87558203094 M541.2285461561729,533.87558203094 L516.891512096381,537.417163165662 M516.891512096381,537.417163165662 L492.0647480557016,539.5563801462866 M492.0647480557016,539.5563801462866 L466.99185533899555,540.271834757564 M466.99185533899555,540.271834757564 L441.9189626222895,539.5563801462866 M441.9189626222895,539.5563801462866 L417.0921985816101,537.417163165662 M417.0921985816101,537.417163165662 L392.75516452181824,533.87558203094 M392.75516452181824,533.87558203094 L369.1463577522631,528.9670184506514 M369.1463577522631,528.9670184506514 L346.49676436510657,522.740487217084 M346.49676436510657,522.740487217084 L325.0274497443228,515.258052397272 M325.0274497443228,515.258052397272 L304.9473885441755,506.5941501584617 M304.9473885441755,506.5941501584617 L286.4512712632401,496.83482235128247 M286.4512712632401,496.83482235128247 L269.7176321008626,486.0767514143706 M269.7176321008626,486.0767514143706 L254.90713207633883,474.42621870088243 M254.90713207633883,474.42621870088243 L242.16102309448692,461.997986645266 M242.16102309448692,461.997986645266 L231.5997832383942,448.91412452750615 M231.5997832383942,448.91412452750615 L223.32212200934046,435.3026861227512 M223.32212200934046,435.3026861227512 L217.40415208076672,421.2964400080569 M217.40415208076672,421.2964400080569 L213.89872318931745,407.0315014726382 M213.89872318931745,407.0315014726382 L212.83514330516238,392.6460045680854 M212.83514330516238,392.6460045680854 L214.21901677323473,378.27871275001945 M214.21901677323473,378.27871275001945 L218.03243139780602,364.0676899729157 M218.03243139780602,364.0676899729157 L224.23424391955322,350.1489985436191 M224.23424391955322,350.1489985436191 L232.760697204883,336.6553894785017 M232.760697204883,336.6553894785017 L243.52611781962042,323.71510363874387 M243.52611781962042,323.71510363874387 L256.4239497712366,311.45067780473613 M256.4239497712366,311.45067780473613 L271.32788337508396,299.97788639518285 M271.32788337508396,299.97788639518285 L288.09307580822497,289.40466170000843 M288.09307580822497,289.40466170000843 L306.5576529271643,279.8301817529393 M306.5576529271643,279.8301817529393 L326.5442916610674,271.34402522308073 M326.5442916610674,271.34402522308073 L347.8618907376006,264.02540278630494 M347.8618907376006,264.02540278630494 L370.30730597360713,257.94245538754626 M370.30730597360713,257.94245538754626 L393.66731807939505,253.15172888255643 M393.66731807939505,253.15172888255643 L417.7205021204934,249.69770883542478 M417.7205021204934,249.69770883542478 L442.23926931497203,247.61241189857745 M442.23926931497203,247.61241189857745 L466.9918553389955,246.91516379638534 M466.9918553389955,246.91516379638534 L491.744441363019,247.61241189857753 M491.744441363019,247.61241189857753 L516.2632085574977,249.69770883542478 M516.2632085574977,249.69770883542478 L540.3163925985962,253.15172888255643 M540.3163925985962,253.15172888255643 L563.676404704384,257.94245538754626 M563.676404704384,257.94245538754626 L586.1218199403904,264.02540278630494 M586.1218199403904,264.02540278630494 L607.4394190169238,271.3440252230808 M607.4394190169238,271.3440252230808 L627.4260577508268,279.8301817529393 M627.4260577508268,279.8301817529393 L645.8906348697664,289.4046617000086 M292.91549139269193,307.2679359500766 L277.9355687580244,317.19102087264093 M277.9355687580244,317.19102087264093 L264.6402254582338,327.8916528309717 M264.6402254582338,327.8916528309717 L253.15046399996052,339.27542821298175 M253.15046399996052,339.27542821298175 L243.57172588053007,351.24166451533335 M243.57172588053007,351.24166451533335 L235.99274274010665,363.68415528406183 M235.99274274010665,363.68415528406183 L230.484761775761,376.4921252078706 M230.484761775761,376.4921252078706 L227.10076902098822,389.5511585333952 M227.10076902098822,389.5511585333952 L225.8748471202295,402.7442085267951 M225.8748471202295,402.7442085267951 L226.8217948886182,415.95260098135805 M226.8217948886182,415.95260098135805 L229.93684730740793,429.0571098789469 M229.93684730740793,429.0571098789469 L235.1955944533477,441.9390529995588 M235.1955944533477,441.9390529995588 L242.5540145166483,454.4813541582466 M242.5540145166483,454.4813541582466 L251.9487933668747,466.5696483672946 M251.9487933668747,466.5696483672946 L263.2978165905165,478.09333909378006 M263.2978165905165,478.09333909378006 L276.5007043544897,488.94671192597895 M276.5007043544897,488.94671192597895 L291.4397805017468,499.02986942065326 M405.875516419811,432.9750453332432 L291.4397805017468,499.02986942065326 M406.0377545594373,372.5936218598278 L398.586695564993,378.47726928557546 M398.586695564993,378.47726928557546 L392.8219522647708,384.96379262981975 M392.8219522647708,384.96379262981975 L388.887184440938,391.8936609605492 M388.887184440938,391.8936609605492 L386.8812256913632,399.0961397623371 M386.8812256913632,399.0961397623371 L386.8554866400943,406.3934493932496 M386.8554866400943,406.3934493932496 L388.81249768207755,413.60513181347187 M388.81249768207755,413.60513181347187 L392.7056602513411,420.55250258295047 M392.7056602513411,420.55250258295047 L398.4402309842322,427.0631065251327 M398.4402309842322,427.0631065251327 L405.875516419811,432.9750453332432 M292.91549139269193,307.2679359500766 L406.0377545594373,372.5936218598278 M632.3250240782908,302.26340815924476 L615.0205429338503,293.7057855624774 M615.0205429338503,293.7057855624774 L596.4011580746669,286.1319206012355 M596.4011580746669,286.1319206012355 L576.6334446462319,279.60802571819147 M576.6334446462319,279.60802571819147 L555.8936141939386,274.19106062769106 M555.8936141939386,274.19106062769106 L534.3661410898403,269.9282074517962 M534.3661410898403,269.9282074517962 L512.2420884296367,266.85656637521447 M512.2420884296367,266.85656637521447 L489.71752625571725,265.0028501033514 M489.71752625571725,265.0028501033514 L466.9918553389955,264.3831512644522 M466.9918553389955,264.3831512644522 L444.26618442227385,265.0028501033514 M444.26618442227385,265.0028501033514 L421.7416222483543,266.85656637521447 M421.7416222483543,266.85656637521447 L399.61756958815084,269.9282074517962 M399.61756958815084,269.9282074517962 L378.09009648405254,274.19106062769106 M378.09009648405254,274.19106062769106 L357.3502660317593,279.6080257181914 M357.3502660317593,279.6080257181914 L337.5825526033241,286.1319206012354 M337.5825526033241,286.1319206012354 L318.96316774414083,293.7057855624774 M318.96316774414083,293.7057855624774 L301.65868659970033,302.26340815924476 M414.7810943454003,367.56015033545293 L301.65868659970033,302.26340815924476 M519.2026163325909,367.560150335453 L508.9952715603035,363.2769265990161 M508.9952715603035,363.2769265990161 L497.75452685380503,359.96934923257226 M497.75452685380503,359.96934923257226 L485.7572670054959,357.7183302310917 M485.7572670054959,357.7183302310917 L473.2986673249068,356.5788982505743 M473.2986673249068,356.5788982505743 L460.6850433530844,356.5788982505743 M460.6850433530844,356.5788982505743 L448.2264436724952,357.7183302310917 M448.2264436724952,357.7183302310917 L436.229183824186,359.96934923257226 M436.229183824186,359.96934923257226 L424.9884391176876,363.276926599016 M424.9884391176876,363.276926599016 L414.7810943454003,367.56015033545293 M632.3250240782908,302.26340815924476 L519.2026163325909,367.560150335453 M642.5439301762443,499.0298694206533 L657.4830063235014,488.94671192597895 M657.4830063235014,488.94671192597895 L670.6858940874746,478.09333909378006 M670.6858940874746,478.09333909378006 L682.0349173111164,466.5696483672946 M682.0349173111164,466.5696483672946 L691.4296961613427,454.4813541582466 M691.4296961613427,454.4813541582466 L698.7881162246434,441.9390529995588 M698.7881162246434,441.9390529995588 L704.0468633705832,429.05710987894696 M704.0468633705832,429.05710987894696 L707.1619157893729,415.95260098135816 M707.1619157893729,415.95260098135816 L708.1088635577615,402.7442085267951 M708.1088635577615,402.7442085267951 L706.8829416570029,389.5511585333952 M706.8829416570029,389.5511585333952 L703.4989489022302,376.49212520787063 M703.4989489022302,376.49212520787063 L697.9909679378844,363.6841552840619 M697.9909679378844,363.6841552840619 L690.4119847974611,351.24166451533335 M690.4119847974611,351.24166451533335 L680.8332466780306,339.27542821298175 M680.8332466780306,339.27542821298175 L669.3434852197573,327.8916528309717 M669.3434852197573,327.8916528309717 L656.0481419199667,317.19102087264093 M656.0481419199667,317.19102087264093 L641.0682192852992,307.26793595007666 M527.9459561185538,372.5936218598279 L641.0682192852992,307.26793595007666 M528.10819425818,432.9750453332432 L535.5434796937589,427.06310652513275 M535.5434796937589,427.06310652513275 L541.27805042665,420.5525025829505 M541.27805042665,420.5525025829505 L545.1712129959135,413.60513181347187 M545.1712129959135,413.60513181347187 L547.1282240378968,406.3934493932496 M547.1282240378968,406.3934493932496 L547.1024849866278,399.0961397623371 M547.1024849866278,399.0961397623371 L545.096526237053,391.8936609605492 M545.096526237053,391.8936609605492 L541.1617584132202,384.96379262981975 M541.1617584132202,384.96379262981975 L535.397015112998,378.47726928557546 M535.397015112998,378.47726928557546 L527.9459561185538,372.5936218598279 M642.5439301762443,499.0298694206533 L528.10819425818,432.9750453332432 M300.1829728675235,504.1218700508404 L317.52829046701817,512.8395668594313 M317.52829046701817,512.8395668594313 L336.24012266517644,520.5661763065683 M336.24012266517644,520.5661763065683 L356.14856913560664,527.2299920628246 M356.14856913560664,527.2299920628246 L377.0723574090544,532.7690209184365 M377.0723574090544,532.7690209184365 L398.82039609326176,537.1316903911518 M398.82039609326176,537.1316903911518 L421.1936886690226,540.2773096531819 M421.1936886690226,540.2773096531819 L443.9872000009132,542.176504626755 M443.9872000009132,542.176504626755 L466.99185533899555,542.8115469995562 M466.99185533899555,542.8115469995562 L489.9965106770779,542.176504626755 M489.9965106770779,542.176504626755 L512.7900220089685,540.2773096531819 M512.7900220089685,540.2773096531819 L535.1633145847294,537.1316903911518 M535.1633145847294,537.1316903911518 L556.9113532689366,532.7690209184365 M556.9113532689366,532.7690209184365 L577.8351415423845,527.2299920628246 M577.8351415423845,527.2299920628246 L597.7435880128146,520.5661763065683 M597.7435880128146,520.5661763065683 L616.4554202109729,512.8395668594313 M616.4554202109729,512.8395668594313 L633.8007378104676,504.1218700508404 M519.3648545760617,438.03759666641815 L633.8007378104676,504.1218700508404 M414.6188561019294,438.03759666641815 L424.84197426076497,442.34911187494197 M424.84197426076497,442.34911187494197 L436.1128914682068,445.6807699398215 M436.1128914682068,445.6807699398215 L448.1517566360917,447.94929149283195 M448.1517566360917,447.94929149283195 L460.6593041957381,449.09792717602454 M460.6593041957381,449.09792717602454 L473.324406482253,449.09792717602454 M473.324406482253,449.09792717602454 L485.8319540418994,447.94929149283195 M485.8319540418994,447.94929149283195 L497.8708192097844,445.6807699398215 M497.8708192097844,445.6807699398215 L509.1417364172261,442.34911187494197 M509.1417364172261,442.34911187494197 L519.3648545760617,438.03759666641815 M300.1829728675235,504.1218700508404 L414.6188561019294,438.03759666641815 M434.17691795566344,421.68992145850257 L442.29760137209666,425.43446711751676 M442.29760137209666,425.43446711751676 L451.6602039805362,428.04100749748244 M451.6602039805362,428.04100749748244 L461.794126522911,429.3780262277239 M461.794126522911,429.3780262277239 L472.18958415508007,429.3780262277239 M472.18958415508007,429.3780262277239 L482.3235066974549,428.04100749748244 M482.3235066974549,428.04100749748244 L491.6861093058944,425.43446711751676 M491.6861093058944,425.43446711751676 L499.8067927223278,421.6899214585025 M499.8067927223278,421.6899214585025 L506.2779515364301,416.9961518293741 M506.2779515364301,416.9961518293741 L510.77549948136163,411.58953803497315 M510.77549948136163,411.58953803497315 L513.0750373247652,405.7419998515182 M513.0750373247652,405.7419998515182 L513.0628774498941,399.74720822313054 M513.0628774498941,399.74720822313054 L510.7414282606486,393.90576220935765 M510.7414282606486,393.90576220935765 L506.22871718612555,388.51012612761434 M506.22871718612555,388.51012612761434 L499.75214669837527,383.8300454917264 M499.75214669837527,383.8300454917264 L491.6368749259203,380.09918883313264 M491.6368749259203,380.09918883313264 L482.28943543974464,377.50362618514674 M482.28943543974464,377.50362618514674 L472.17742426374383,376.17269964199977 M472.17742426374383,376.17269964199977 L461.8062864142472,376.17269964199977 M461.8062864142472,376.17269964199977 L451.69427523824646,377.50362618514674 M451.69427523824646,377.50362618514674 L442.3468357520707,380.09918883313264 M442.3468357520707,380.09918883313264 L434.23156397961554,383.8300454917266 M434.23156397961554,383.8300454917266 L427.75499349186555,388.51012612761434 M427.75499349186555,388.51012612761434 L423.2422824173425,393.90576220935765 M423.2422824173425,393.90576220935765 L420.92083322809697,399.74720822313054 M420.92083322809697,399.74720822313054 L420.908673353226,405.74199985151813 M420.908673353226,405.74199985151813 L423.20821119662946,411.58953803497315 M423.20821119662946,411.58953803497315 L427.705759141561,416.9961518293741 M427.705759141561,416.9961518293741 L434.17691795566344,421.68992145850257 M645.8906348697664,289.4046617000086 L646.2078629258641,208.642778684613 M646.2078629258641,208.642778684613 L663.0029464326977,219.1969143768068 M663.0029464326977,219.1969143768068 L677.9335103332509,230.649012503991 M677.9335103332509,230.649012503991 L690.8544508045841,242.8913399960308 M690.8544508045841,242.8913399960308 L701.6392281914627,255.80833525449123 M701.6392281914627,255.80833525449123 L710.1810899154771,269.27768577202664 M710.1810899154771,269.27768577202664 L716.3942016005225,283.17138432831 M716.3942016005225,283.17138432831 L720.2146829668056,297.3569206177665 M720.2146829668056,297.3569206177665 L721.6013070068236,311.69847784496216 M721.6013070068236,311.69847784496216 L720.536118671369,326.0582399417386 M720.536118671369,326.0582399417386 L717.0247212735055,340.2976913474319 M717.0247212735055,340.2976913474319 L711.0964643308123,354.27894354740437 M711.0964643308123,354.27894354740437 L702.8042818331556,367.86612200456716 M702.8042818331556,367.86612200456716 L692.2244133036252,380.92669183804946 M692.2244133036252,380.92669183804946 L679.4557368486431,393.33282361272114 M679.4557368486431,393.33282361272114 L664.6189397247853,404.9626609446804 M664.6189397247853,404.9626609446804 L647.8555220288852,415.7016407008045 M647.8555220288852,415.7016407008045 L629.326429701701,425.44366536961354 M629.326429701701,425.44366536961354 L609.2105159156824,434.0922191431348 M609.2105159156824,434.0922191431348 L587.7028211071188,441.5614079781468 M587.7028211071188,441.5614079781468 L565.0126973826834,447.77692320948796 M565.0126973826834,447.77692320948796 L541.3616109859713,452.6768068213217 M541.3616109859713,452.6768068213217 L516.9809681372222,456.21212760967546 M516.9809681372222,456.21212760967546 L492.109700911374,458.3475641125585 M492.109700911374,458.3475641125585 L466.99185533899555,459.06175451450605 M466.99185533899555,459.06175451450605 L441.8740097666171,458.34756411255836 M441.8740097666171,458.34756411255836 L417.00274254076885,456.21212760967546 M417.00274254076885,456.21212760967546 L392.62209969201984,452.6768068213217 M392.62209969201984,452.6768068213217 L368.9710132953078,447.7769232094879 M368.9710132953078,447.7769232094879 L346.2808895708724,441.5614079781468 M346.2808895708724,441.5614079781468 L324.7731947623087,434.0922191431348 M324.7731947623087,434.0922191431348 L304.65728097628994,425.44366536961354 M304.65728097628994,425.44366536961354 L286.12818864910514,415.70164070080403 M286.12818864910514,415.70164070080403 L269.36477095320595,404.9626609446804 M269.36477095320595,404.9626609446804 L254.52797382934804,393.3328236127211 M254.52797382934804,393.3328236127211 L241.75929737436596,380.92669183804935 M241.75929737436596,380.92669183804935 L231.17942884483546,367.86612200456716 M231.17942884483546,367.86612200456716 L222.8872463471788,354.27894354740437 M222.8872463471788,354.27894354740437 L216.9589894044856,340.2976913474319 M216.9589894044856,340.2976913474319 L213.44759200662207,326.0582399417386 M213.44759200662207,326.0582399417386 L212.38240367116754,311.6984778449621 M212.38240367116754,311.6984778449621 L213.76902771118546,297.3569206177665 M213.76902771118546,297.3569206177665 L217.5895090774687,283.17138432831 M217.5895090774687,283.17138432831 L223.80262076251398,269.27768577202664 M223.80262076251398,269.27768577202664 L232.34448248652834,255.80833525449123 M232.34448248652834,255.80833525449123 L243.12925987340708,242.89133999603072 M243.12925987340708,242.89133999603072 L256.0502003447401,230.64901250399092 M256.0502003447401,230.64901250399092 L270.9807642452933,219.19691437680672 M270.9807642452933,219.19691437680672 L287.7758477521271,208.64277868461284 M287.7758477521271,208.64277868461284 L306.2732874708012,199.0855997034526 M306.2732874708012,199.0855997034526 L326.2954456726024,190.61478955495232 M326.2954456726024,190.61478955495232 L347.650883943381,183.3094111867968 M347.650883943381,183.3094111867968 L370.1361014365922,177.23747811417158 M370.1361014365922,177.23747811417158 L393.53750598082587,172.4554302045119 M393.53750598082587,172.4554302045119 L417.63328660865074,169.0076694848342 M417.63328660865074,169.0076694848342 L442.1954586736024,166.92615239888093 M442.1954586736024,166.92615239888093 L466.9918553389955,166.23016829446158 M466.9918553389955,166.23016829446158 L491.78825200438865,166.92615239888102 M491.78825200438865,166.92615239888102 L516.3504240693403,169.0076694848342 M516.3504240693403,169.0076694848342 L540.4462046971652,172.4554302045119 M540.4462046971652,172.4554302045119 L563.8476092413989,177.23747811417158 M563.8476092413989,177.23747811417158 L586.33282673461,183.3094111867968 M586.33282673461,183.3094111867968 L607.6882650053886,190.6147895549524 M607.6882650053886,190.6147895549524 L627.7104232071898,199.0855997034526 M627.7104232071898,199.0855997034526 L646.2078629258641,208.642778684613 M295.4096919730116,410.3644399273712 L313.28297036963005,419.7426809301561 M313.28297036963005,419.7426809301561 L332.7056600515045,428.0488970345237 M332.7056600515045,428.0488970345237 L353.4834307136715,435.19810776389534 M353.4834307136715,435.19810776389534 L375.40767932405413,441.11701885572234 M375.40767932405413,441.11701885572234 L398.25769959384206,445.7448265370665 M398.25769959384206,445.7448265370665 L421.80292400613865,449.03394981227615 M421.80292400613865,449.03394981227615 L445.8054085322946,450.95051577922385 M445.8054085322946,450.95051577922385 L470.02233248463676,451.4747980120455 M470.02233248463676,451.4747980120455 L494.208570703379,450.6013805838438 M494.208570703379,450.6013805838438 L518.1193537705237,448.33925531857943 M518.1193537705237,448.33925531857943 L541.5128515787401,444.711752137358 M541.5128515787401,444.711752137358 L564.1526996644042,439.7561792153191 M564.1526996644042,439.7561792153191 L585.810590333116,433.5234981026762 M585.810590333116,433.5234981026762 L606.2686085343569,426.0776816775562 M606.2686085343569,426.0776816775562 L625.3215627557953,417.49505753549005 M625.3215627557953,417.49505753549005 L642.778994339742,407.86337353720137 M642.778994339742,407.86337353720137 L658.4672631911554,397.28092233116297 M658.4672631911554,397.28092233116297 L672.2311189075236,385.8553705946135 M672.2311189075236,385.8553705946135 L683.935327256126,373.702649333949 M683.935327256126,373.702649333949 L693.4659316396938,360.9457074381698 M693.4659316396938,360.9457074381698 L700.7312194002121,347.7131537975752 M700.7312194002121,347.7131537975752 L705.6626165159828,334.13796681047546 M705.6626165159828,334.13796681047546 L708.2151331212435,320.35606077768415 M708.2151331212435,320.35606077768415 L708.3677049432039,306.50495319277036 M708.3677049432039,306.50495319277036 L706.1231901854121,292.72233010568584 M706.1231901854121,292.72233010568584 L701.5082209584369,279.14470064103523 M701.5082209584369,279.14470064103523 L694.5727168107996,265.90604428520794 M694.5727168107996,265.90604428520794 L685.389254116915,253.13656485874247 M685.389254116915,253.13656485874247 L674.0521810204746,240.96139582266636 M674.0521810204746,240.96139582266636 L660.6766100289939,229.4994300432421 M660.6766100289939,229.4994300432421 L645.3971037106542,218.86228474220647 M645.3971037106542,218.86228474220647 L628.3663625194783,209.1532005754969 M628.3663625194783,209.1532005754969 L609.753608208587,200.46616836804506 M609.753608208587,200.46616836804506 L589.74289982088,192.88508994924544 M589.74289982088,192.88508994924544 L568.5314383291689,186.4830005129109 M568.5314383291689,186.4830005129109 L546.3275304041806,181.3214831151593 M546.3275304041806,181.3214831151593 L523.3487261883615,177.45009243701534 M523.3487261883615,177.45009243701534 L499.81978403788514,174.90595848614436 M499.81978403788514,174.90595848614436 L475.9704815224805,173.7134581176969 M475.9704815224805,173.7134581176969 L452.0335708166017,173.88402182201972 M452.0335708166017,173.88402182201972 L428.2426045831657,175.4160075566599 M428.2426045831657,175.4160075566599 L404.82982324493173,178.2947451981464 M404.82982324493173,178.2947451981464 L382.02392893362185,182.49263782385913 M382.02392893362185,182.49263782385913 L360.0480656320754,187.96942771068447 M360.0480656320754,187.96942771068447 L339.1176450456864,194.67248894553936 M339.1176450456864,194.67248894553936 L319.4384257514098,202.53733947768336 M319.4384257514098,202.53733947768336 L301.20447181632636,211.4881594419286 M301.20447181632636,211.4881594419286 L284.5962858690725,221.43844277662623 M284.5962858690725,221.43844277662623 L269.77914739545054,232.29182449217677 M269.77914739545054,232.29182449217677 L256.9013080812416,243.94284969200416 M256.9013080812416,243.94284969200416 L246.09264401640633,256.2780116187155 M246.09264401640633,256.2780116187155 L237.4631523143655,269.17673056346166 M237.4631523143655,269.17673056346166 L231.1018630043592,282.5125054481281 M231.1018630043592,282.5125054481281 L227.07571354672575,296.1540661496743 M227.07571354672575,296.1540661496743 L225.42890374501908,309.96667611426733 M225.42890374501908,309.96667611426733 L226.18213133346376,323.81341090185856 M226.18213133346376,323.81341090185856 L229.33227068295724,337.5564886046418 M229.33227068295724,337.5564886046418 L234.85229082121072,351.05867008044635 M234.85229082121072,351.05867008044635 L242.69125115103472,364.1846399948755 M242.69125115103472,364.1846399948755 L252.77474323948533,376.8023817834423 M252.77474323948533,376.8023817834423 L265.0053997530405,388.7845818692033 M265.0053997530405,388.7845818692033 L279.2638298191348,400.00993391578834 M279.2638298191348,400.00993391578834 L295.4096919730116,410.3644399273712 M295.4096919730116,410.3644399273712 L295.4672312632082,425.59723649975007 M295.4672312632082,425.59723649975007 L294.01381424161605,424.7462995167805 M294.01381424161605,424.7462995167805 L292.57318287432065,423.8882558018313 M292.57318287432065,423.8882558018313 L291.145460914284,423.0231593789554 M291.145460914284,423.0231593789554 L291.4397805017468,499.02986942065326 M292.62610325465613,231.58242019909397 L292.91549139269193,307.2679359500766 M292.62610325465613,231.58242019909397 L295.4961901274845,229.88843157032503 M295.4961901274845,229.88843157032503 L298.41573804411655,228.22291588537675 M298.41573804411655,228.22291588537675 L301.3838942391178,226.58634705901423 M301.3838942391178,226.58634705901423 L301.65868659970033,302.26340815924476 M632.5998164388732,226.58634705901423 L632.3250240782908,302.26340815924476 M632.5998164388732,226.58634705901423 L635.5679726338745,228.22291588537675 M635.5679726338745,228.22291588537675 L638.4875205505066,229.8884315703251 M638.4875205505066,229.8884315703251 L641.3576074233349,231.58242019909397 M641.3576074233349,231.58242019909397 L641.0682192852992,307.26793595007666 M642.838249763707,423.0231593789554 L642.5439301762443,499.0298694206533 M642.838249763707,423.0231593789554 L639.969896436375,424.7462995167805 M639.969896436375,424.7462995167805 L637.0503494746481,426.4409839366401 M637.0503494746481,426.4409839366401 L634.080461639498,428.10670463717815 M634.080461639498,428.10670463717815 L633.8007378104676,504.1218700508404 M299.9032490384931,428.10670463717804 L300.1829728675235,504.1218700508404 M299.9032490384931,428.10670463717804 L298.41206386853946,427.2774977928762 M298.41206386853946,427.2774977928762 L296.933361203343,426.4409839366401 M296.933361203343,426.4409839366401 L295.4672312632082,425.59723649975007 M414.5312859742457,362.13246128032097 L411.46246633296823,360.53477778069487 M411.46246633296823,360.53477778069487 L408.5405885526743,358.8485856549162 M408.5405885526743,358.8485856549162 L405.773349792324,357.07836549992385 M299.9032490384931,428.10670463717804 L414.5312859742457,362.13246128032097 M405.773349792324,357.07836549992385 L291.145460914284,423.0231593789554 M405.773349792324,357.07836549992385 L405.875516419811,432.9750453332432 M405.9361300817051,296.79808195599617 L406.0377545594373,372.5936218598278 M292.62610325465613,231.58242019909397 L405.9361300817051,296.79808195599617 M405.9361300817051,296.79808195599617 L408.7051013544703,295.0375379129849 M408.7051013544703,295.0375379129849 L411.62697917010564,293.36107312157986 M411.62697917010564,293.36107312157986 L414.6940663681665,291.7730657413925 M414.6940663681665,291.7730657413925 L301.3838942391178,226.58634705901423 M414.6940663681665,291.7730657413925 L414.7810943454003,367.56015033545293 M519.2896443098246,291.7730657413925 L519.2026163325909,367.560150335453 M632.5998164388732,226.58634705901423 L519.2896443098246,291.7730657413925 M523.8363128844499,294.18851597066646 L525.2786093235209,295.0375379129849 M525.2786093235209,295.0375379129849 L526.6826749240954,295.9075819845301 M526.6826749240954,295.9075819845301 L528.047580596286,296.79808195599617 M519.2896443098246,291.7730657413925 L520.8408439091157,292.5557471210919 M520.8408439091157,292.5557471210919 L522.3567315078853,293.36107312157986 M522.3567315078853,293.36107312157986 L523.8363128844499,294.18851597066646 M528.047580596286,296.79808195599617 L641.3576074233349,231.58242019909397 M528.047580596286,296.79808195599617 L527.9459561185538,372.5936218598279 M528.2103608856671,357.07836549992385 L528.10819425818,432.9750453332432 M642.838249763707,423.0231593789554 L528.2103608856671,357.07836549992385 M528.2103608856671,357.07836549992385 L525.4431221253167,358.8485856549163 M525.4431221253167,358.8485856549163 L522.5212443450229,360.53477778069487 M522.5212443450229,360.53477778069487 L519.4524247037455,362.13246128032097 M519.4524247037455,362.13246128032097 L634.080461639498,428.10670463717815 M519.4524247037455,362.13246128032097 L519.3648545760617,438.03759666641815 M414.5312859742457,362.13246128032097 L414.6188561019294,438.03759666641815 M523.8552715695679,278.99995277907425 L532.8835998686652,285.167515319656 M532.8835998686652,285.167515319656 L539.9168262914479,292.14409850719056 M539.9168262914479,292.14409850719056 L544.739963587652,299.7190105751182 M544.739963587652,299.7190105751182 L547.2045003075889,307.6630479608249 M547.2045003075889,307.6630479608249 L547.2331243924907,315.7353477824434 M547.2331243924907,315.7353477824434 L544.8223833767969,323.6906443969968 M544.8223833767969,323.6906443969968 L540.0431007972384,331.2867169094455 M540.0431007972384,331.2867169094455 L533.0384985686692,338.2918095127816 M533.0384985686692,338.2918095127816 L524.0201114426858,344.4917918116988 M524.0201114426858,344.4917918116988 L513.2614981052341,349.6968137622871 M513.2614981052341,349.6968137622871 L501.0899988081469,353.74725730805585 M501.0899988081469,353.74725730805585 L487.87672629377437,356.5187565761911 M487.87672629377437,356.5187565761911 L474.02514517201615,357.9261449740586 M474.02514517201615,357.9261449740586 L459.9585655059749,357.9261449740585 M459.9585655059749,357.9261449740585 L446.10698438421673,356.5187565761911 M446.10698438421673,356.5187565761911 L432.89371186984414,353.74725730805585 M432.89371186984414,353.74725730805585 L420.72221257275703,349.6968137622871 M420.72221257275703,349.6968137622871 L409.96359923530514,344.4917918116987 M409.96359923530514,344.4917918116987 L400.94521210932186,338.2918095127816 M400.94521210932186,338.2918095127816 L393.94060988075273,331.2867169094455 M393.94060988075273,331.2867169094455 L389.16132730119415,323.6906443969968 M389.16132730119415,323.6906443969968 L386.75058628550045,315.7353477824433 M386.75058628550045,315.7353477824433 L386.77921037040227,307.6630479608249 M386.77921037040227,307.6630479608249 L389.24374709033907,299.7190105751182 M389.24374709033907,299.7190105751182 L394.06688438654317,292.14409850719056 M394.06688438654317,292.14409850719056 L401.1001108093259,285.167515319656 M401.1001108093259,285.167515319656 L410.1284391084234,278.9999527790742 M410.1284391084234,278.9999527790742 L420.87711149471926,273.82735063118577 M420.87711149471926,273.82735063118577 L433.0199867156943,269.80541662939396 M433.0199867156943,269.80541662939396 L446.1894044724052,267.05507793350927 M446.1894044724052,267.05507793350927 L459.9871897089783,265.6589488645401 M459.9871897089783,265.6589488645401 L473.9965209690128,265.6589488645401 M473.9965209690128,265.6589488645401 L487.79430620558594,267.05507793350927 M487.79430620558594,267.05507793350927 L500.96372396229674,269.80541662939396 M500.96372396229674,269.80541662939396 L513.1065991832718,273.82735063118577 M513.1065991832718,273.82735063118577 L523.8552715695679,278.99995277907425 M523.8552715695679,278.99995277907425 L523.8363128844499,294.18851597066646 M434.17691795566344,421.68992145850257 L434.1531813550634,388.8406358661958 M434.1531813550634,388.8406358661958 L442.27973590279373,392.58247622142085 M442.27973590279373,392.58247622142085 L451.6491107696238,395.18713399309087 M451.6491107696238,395.18713399309087 L461.79036548679755,396.5231872114904 M461.79036548679755,396.5231872114904 L472.19334519119354,396.5231872114904 M472.19334519119354,396.5231872114904 L482.33459990836735,395.18713399309087 M482.33459990836735,395.18713399309087 L491.7039747751973,392.58247622142085 M491.7039747751973,392.58247622142085 L499.8305293229278,388.84063586619567 M499.8305293229278,388.84063586619567 L506.30636316188964,384.15025858137494 M506.30636316188964,384.15025858137494 L510.80715618728834,378.74755406381917 M510.80715618728834,378.74755406381917 L513.1083480760306,372.9042460619177 M513.1083480760306,372.9042460619177 L513.0961706178493,366.9137933971527 M513.0961706178493,366.9137933971527 L510.77303569921577,361.07657755538327 M510.77303569921577,361.07657755538327 L506.2570576181563,355.6848507332826 M506.2570576181563,355.6848507332826 L499.7758042801813,351.0081624202618 M499.7758042801813,351.0081624202618 L491.65466920170877,347.2800110440286 M491.65466920170877,347.2800110440286 L482.3004793831905,344.68633098716236 M482.3004793831905,344.68633098716236 L472.1811677164993,343.35636994632887 M472.1811677164993,343.35636994632887 L461.8025429614918,343.35636994632887 M461.8025429614918,343.35636994632887 L451.68323129480063,344.68633098716236 M451.68323129480063,344.68633098716236 L442.3290414762823,347.2800110440286 M442.3290414762823,347.2800110440286 L434.2079063978095,351.008162420262 M434.2079063978095,351.008162420262 L427.7266530598348,355.6848507332826 M427.7266530598348,355.6848507332826 L423.2106749787753,361.07657755538327 M423.2106749787753,361.07657755538327 L420.8875400601419,366.9137933971527 M420.8875400601419,366.9137933971527 L420.87536260196055,372.9042460619177 M420.87536260196055,372.9042460619177 L423.17655449070276,378.74755406381917 M423.17655449070276,378.74755406381917 L427.67734751610146,384.15025858137494 M427.67734751610146,384.15025858137494 L434.1531813550634,388.8406358661958 M417.713279633641,398.31849757920895 L409.5118787960437,392.6087578517062 M409.5118787960437,392.6087578517062 L403.2736955753882,386.1285019724155 M403.2736955753882,386.1285019724155 L399.2099475578569,379.0995290571153 M399.2099475578569,379.0995290571153 L397.45718904985875,371.76199702902323 M397.45718904985875,371.76199702902323 L398.0729113920526,364.366128459587 M398.0729113920526,364.366128459587 L401.0338694377406,357.16365487351453 M401.0338694377406,357.16365487351453 L406.2371930311245,350.3992604103287 M406.2371930311245,350.3992604103287 L413.50415766867576,344.3023218324198 M413.50415766867576,344.3023218324198 L422.58647520874956,339.0792344455936 M422.58647520874956,339.0792344455936 L433.1748634457015,334.906550201634 M433.1748634457015,334.906550201634 L444.9095768822333,331.9251422755695 M444.9095768822333,331.9251422755695 L457.39254358372403,330.2355693761895 M457.39254358372403,330.2355693761895 L470.20070495078414,329.89478223286727 M470.20070495078414,329.89478223286727 L482.9001617552901,330.9142668042771 M482.9001617552901,330.9142668042771 L495.06064799435575,333.25966194972636 M495.06064799435575,333.25966194972636 L506.2698662999561,336.8518891566179 M506.2698662999561,336.8518891566179 L516.1472995911315,341.56973807796584 M516.1472995911315,341.56973807796584 L524.3570152760745,347.25383424377617 M524.3570152760745,347.25383424377617 L530.6190199560192,353.71190988146043 M530.6190199560192,353.71190988146043 L534.7188787934828,360.7251614362162 M534.7188787934828,360.7251614362162 L536.5151605046656,368.0555542289297 M536.5151605046656,368.0555542289297 L535.9444957517183,375.4538298662073 M535.9444957517183,375.4538298662073 L533.0240444296087,382.66793174421315 M533.0240444296087,382.66793174421315 L527.8512060327816,389.4516052647014 M527.8512060327816,389.4516052647014 L520.6005878745666,395.5728699376168 M520.6005878745666,395.5728699376168 L511.51827040409376,400.8220450991661 M511.51827040409376,400.8220450991661 L500.913535790677,405.01905550017614 M500.913535790677,405.01905550017614 L489.14833717043234,408.01974256441247 M489.14833717043234,408.01974256441247 L476.6248636614752,409.72094381380373 M476.6248636614752,409.72094381380373 L463.77164456833697,410.06413804234114 M463.77164456833697,410.06413804234114 L451.0286644422945,409.03751418605356 M451.0286644422945,409.03751418605356 L438.8320673452023,406.67639761068483 M438.8320673452023,406.67639761068483 L427.5990276423603,403.0619901027581 M427.5990276423603,403.0619901027581 L417.713279633641,398.31849757920895 M417.713279633641,398.31849757920895 L417.65010725445177,340.07177114121936 M417.65010725445177,340.07177114121936 L409.43821122813836,334.3693758697019 M409.43821122813836,334.3693758697019 L403.1920563548371,327.89746001679595 M403.1920563548371,327.89746001679595 L399.1231285660232,320.87753867424135 M399.1231285660232,320.87753867424135 L397.3681538591305,313.54946150889236 M397.3681538591305,313.54946150889236 L397.98469340635813,306.1631291150705 M397.98469340635813,306.1631291150705 L400.94946840193205,298.9699482697904 M400.94946840193205,298.9699482697904 L406.1594734892552,292.21428665691906 M406.1594734892552,292.21428665691906 L413.4357527192239,286.1252236624673 M413.4357527192239,286.1252236624673 L422.52969866399496,280.90888641445224 M422.52969866399496,280.90888641445224 L433.1316331475303,276.74159701442767 M433.1316331475303,276.74159701442767 L444.8813514960998,273.76404493908507 M444.8813514960998,273.76404493908507 L457.38027473926684,272.0766576068668 M457.38027473926684,272.0766576068668 L470.2048061076703,271.7363113318201 M470.2048061076703,271.7363113318201 L482.92049471243706,272.7544770591317 M482.92049471243706,272.7544770591317 L495.0965274105684,275.09683855691094 M495.0965274105684,275.09683855691094 L506.32008206620947,278.68442060552405 M506.32008206620947,278.68442060552405 L516.2101564681113,283.3961710218004 M516.2101564681113,283.3961710218004 L524.4303886472385,289.0729230006226 M524.4303886472385,289.0729230006226 L530.700426018115,295.52265884464947 M530.700426018115,295.52265884464947 L534.8055571542955,302.52685899165056 M534.8055571542955,302.52685899165056 L536.6041665846033,309.84779699655434 M536.6041665846033,309.84779699655434 L536.0328000784173,317.2365364329524 M536.0328000784173,317.2365364329524 L533.1086355975099,324.4413454481216 M533.1086355975099,324.4413454481216 L527.9291938195947,331.2162859159862 M527.9291938195947,331.2162859159862 L520.6693029540088,337.3296747502334 M520.6693029540088,337.3296747502334 L511.57535707919567,342.5720994993524 M511.57535707919567,342.5720994993524 L500.9570343346771,346.763714801354 M500.9570343346771,346.763714801354 L489.1767526896094,349.7605458127634 M489.1767526896094,349.7605458127634 L476.6372188474574,351.45956137311225 M476.6372188474574,351.45956137311225 L463.76751430047847,351.80231470814647 M463.76751430047847,351.80231470814647 L451.00819085333745,350.7770097707827 M451.00819085333745,350.7770097707827 L438.7959547695498,348.418927007878 M438.7959547695498,348.418927007878 L427.54851767869957,344.80916489077333 M427.54851767869957,344.80916489077333 L417.65010725445177,340.07177114121936 M185.42227932006088,565.3084790369359 L185.21731913233816,532.3560727305318 M185.21731913233816,532.3560727305318 L193.266742180356,538.033530464715 M193.266742180356,538.033530464715 L199.37571991982674,544.4840413575789 M199.37571991982674,544.4840413575789 L203.33505335623022,551.4890354357271 M203.33505335623022,551.4890354357271 L205.00812133501768,558.8107545812599 M205.00812133501768,558.8107545812599 L204.33578980931978,566.2002255448992 M204.33578980931978,566.2002255448992 L201.33871762462056,573.4056981235916 M201.33871762462056,573.4056981235916 L196.11698081923774,580.1812072373506 M196.11698081923774,580.1812072373506 L188.84682775598023,586.2950994287963 M188.84682775598023,586.2950994287963 L179.77514806832272,591.5378936594948 M179.77514806832272,591.5378936594948 L169.2107572524708,595.7298174877228 M169.2107572524708,595.7298174877228 L157.51434852868744,598.7268348619151 M157.51434852868744,598.7268348619151 L145.08568632101804,600.4259577690794 M145.08568632101804,600.4259577690794 L132.35005900051488,600.7687305399171 M132.35005900051488,600.7687305399171 L119.74339580424981,599.7433623965734 M119.74339580424981,599.7433623965734 L107.69716253843598,597.3851302870879 M107.69716253843598,597.3851302870879 L96.62336026094721,593.7751281810126 M96.62336026094721,593.7751281810126 L86.90026570641442,589.0373991880726 M86.90026570641442,589.0373991880726 L78.85938391607363,583.3345623616134 M78.85938391607363,583.3345623616134 L72.77409378264213,576.8621084251271 M72.77409378264213,576.8621084251271 L68.85041204187428,569.841561122099 M68.85041204187428,569.841561122099 L67.22014490168749,562.512779097311 M67.22014490168749,562.512779097311 L67.9366459403397,555.1256894657446 M67.9366459403397,555.1256894657446 L70.97329103341235,547.9317208205944 M70.97329103341235,547.9317208205944 L76.22465957276904,541.1752845443733 M76.22465957276904,541.1752845443733 L83.51050134188887,535.0854583551655 M83.51050134188887,535.0854583551655 L92.58180777147709,529.8684728029598 M92.58180777147709,529.8684728029598 L103.1298137450654,525.7006150641644 M103.1298137450654,525.7006150641644 L114.7960389657589,522.7226705660836 M114.7960389657589,522.7226705660836 L127.18479537264477,521.0350516355799 M127.18479537264477,521.0350516355799 L139.8761841561751,520.6946601912828 M139.8761841561751,520.6946601912828 L152.44025073097663,521.7129654160274 M152.44025073097663,521.7129654160274 L164.45128222292055,524.0556442596107 M164.45128222292055,524.0556442596107 L175.50203177085697,527.6437033065109 M175.50203177085697,527.6437033065109 L185.21731913233816,532.3560727305318 M185.42227932006088,565.3084790369359 L175.71401506539672,560.5927444564168 M175.71401506539672,560.5927444564168 L164.67126753572893,557.0021221868852 M164.67126753572893,557.0021221868852 L152.66894613956345,554.6577693474884 M152.66894613956345,554.6577693474884 L140.11400369774947,553.6387363686367 M140.11400369774947,553.6387363686367 L127.43184548417798,553.9793710884788 M127.43184548417798,553.9793710884788 L115.05211499238169,555.6681960401759 M115.05211499238169,555.6681960401759 L103.39440657515587,558.6482682206519 M103.39440657515587,558.6482682206519 L92.85412053892219,562.819102862354 M92.85412053892219,562.819102862354 L83.78947542801353,568.039813099659 M83.78947542801353,568.039813099659 L76.50900965894033,574.1339849476705 M76.50900965894033,574.1339849476705 L71.26154752011018,580.8952398056657 M71.26154752011018,580.8952398056657 L68.22720409742777,588.0943358759913 M68.22720409742777,588.0943358759913 L67.51131871240739,595.486687145749 M67.51131871240739,595.486687145749 L69.14049128371016,602.8206858413696 M69.14049128371016,602.8206858413696 L73.06140235068199,609.8462272021159 M73.06140235068199,609.8462272021159 L79.14233741143113,616.3232825281659 M79.14233741143113,616.3232825281659 L87.17742626188743,622.0301713965677 M87.17742626188743,622.0301713965677 L96.89348662111621,626.7712651164404 M96.89348662111621,626.7712651164404 L107.95925354518096,630.3838300795909 M107.95925354518096,630.3838300795909 L119.99672562310332,632.7437359257648 M119.99672562310332,632.7437359257648 L132.59420273759622,633.7698317055384 M132.59420273759622,633.7698317055384 L145.32053504927546,633.4268156988319 M145.32053504927546,633.4268156988319 L157.74011311576075,631.7264869621413 M157.74011311576075,631.7264869621413 L169.42796088662328,628.727342223307 M169.42796088662328,628.727342223307 L179.98460765480615,624.5324418930793 M179.98460765480615,624.5324418930793 L189.04962520890317,619.2859234071767 M189.04962520890317,619.2859234071767 L196.31442486263438,613.1676859577564 M196.31442486263438,613.1676859577564 L201.5322982122822,606.3873585798628 M201.5322982122822,606.3873585798628 L204.52712622582706,599.1767587675707 M204.52712622582706,599.1767587675707 L205.19890638596326,591.7820262053954 M205.19890638596326,591.7820262053954 L203.52699537062645,584.4550902714137 M203.52699537062645,584.4550902714137 L199.57048468241388,577.445101876532 M199.57048468241388,577.445101876532 L193.46589673694234,570.9899892286498 M193.46589673694234,570.9899892286498 L185.42227932006088,565.3084790369359 M102.99167943591095,612.8998080695121 L96.53506142993416,608.1267590304258 M96.53506142993416,608.1267590304258 L92.07914947052217,602.6288428819284 M92.07914947052217,602.6288428819284 L89.84617992102983,596.6826036804296 M89.84617992102983,596.6826036804296 L89.94656032682377,590.5866200090237 M89.94656032682377,590.5866200090237 L92.37333413047742,584.646619278657 M92.37333413047742,584.646619278657 L97.00322160969375,579.1599675754293 M97.00322160969375,579.1599675754293 L103.6029307808364,574.4009576838529 M103.6029307808364,574.4009576838529 L111.84113396953461,570.6071921126633 M111.84113396953461,570.6071921126633 L121.3051519018573,567.9678715543428 M121.3051519018573,567.9678715543428 L131.52156673392392,566.6145157781538 M131.52156673392392,566.6145157781538 L141.97978172614694,566.6144999056846 M141.97978172614694,566.6144999056846 L152.1571135175343,567.9678788809645 M152.1571135175343,567.9678788809645 L161.5449540152036,570.6071948607802 M161.5449540152036,570.6071948607802 L169.67364433686544,574.4009576838529 M169.67364433686544,574.4009576838529 L176.1359679720037,579.1599697144516 M176.1359679720037,579.1599697144516 L180.6074614832477,584.6466290617327 M180.6074614832477,584.6466290617327 L182.86280227429484,590.5866212325428 M182.86280227429484,590.5866212325428 L182.7871521348901,596.6826049046 M182.7871521348901,596.6826049046 L180.3825692862726,602.6288526803759 M180.3825692862726,602.6288526803759 L175.76793836892693,608.1267611748649 M175.76793836892693,608.1267611748649 L169.17352960010817,612.8998080695121 M169.17352960010817,612.8998080695121 L160.92962082627537,616.7076106517354 M160.92962082627537,616.7076106517354 L151.45002138385357,619.3581880174235 M151.45002138385357,619.3581880174235 L141.211235239058,620.7177908247954 M141.211235239058,620.7177908247954 L130.72828994529993,620.7178067724199 M130.72828994529993,620.7178067724199 L120.52876722893694,619.3581806578541 M120.52876722893694,619.3581806578541 L111.12567014264658,616.707607892535 M111.12567014264658,616.707607892535 L102.99167943591095,612.8998080695121 M102.99167943591095,612.8998080695121 L102.72616477500088,579.9135196541268 M102.72616477500088,579.9135196541268 L110.86604555810732,583.7186147797768 M110.86604555810732,583.7186147797768 L120.27597349796866,586.3673053755838 M120.27597349796866,586.3673053755838 L130.4829236489045,587.7259661941323 M130.4829236489045,587.7259661941323 L140.97351818504973,587.7259502578296 M140.97351818504973,587.7259502578296 L151.21978907269215,586.3673127299277 M151.21978907269215,586.3673127299277 L160.7063310510913,583.7186175370177 M160.7063310510913,583.7186175370177 L168.95629033209087,579.9135196541268 M168.95629033209087,579.9135196541268 L175.55555355546355,575.1438643783877 M175.55555355546355,575.1438643783877 L180.173600019273,569.6498643684075 M180.173600019273,569.6498643684075 L182.5799898778246,563.7078459668679 M182.5799898778246,563.7078459668679 L182.65575030847276,557.6162005053492 M182.65575030847276,557.6162005053492 L180.39882015776806,551.6804378067111 M180.39882015776806,551.6804378067111 L175.92411981392013,546.1976871368485 M175.92411981392013,546.1976871368485 L169.45713432437213,541.44206696046 M169.45713432437213,541.44206696046 L161.32256150733406,537.6510090685508 M161.32256150733406,537.6510090685508 L151.92791228429567,535.0135754457418 M151.92791228429567,535.0135754457418 L141.74318535082125,533.6611618705356 M141.74318535082125,533.6611618705356 L131.2773571773796,533.6611777316817 M131.2773571773796,533.6611777316817 L121.05349028961518,535.0135681243461 M121.05349028961518,535.0135681243461 L111.58255266049127,537.6510063223934 M111.58255266049127,537.6510063223934 L103.3383074322337,541.4420669604601 M103.3383074322337,541.4420669604601 L96.73373622547257,546.1976849993503 M96.73373622547257,546.1976849993503 L92.10041107161788,551.680428030603 M92.10041107161788,551.680428030603 L89.6717979655304,557.616199282701 M89.6717979655304,557.616199282701 L89.57127120742638,563.7078447435683 M89.57127120742638,563.7078447435683 L91.805797429562,569.6498545769275 M91.805797429562,569.6498545769275 L96.26489338233063,575.1438622354729 M96.26489338233063,575.1438622354729 L102.72616477500088,579.9135196541268" stroke="black"  stroke-width="4"  fill="red"/></svg>