<svg version="1.1" xmlns="http://www.w3.org/2000/svg" viewBox="-44.00000099999999 -15.941022797294115 88.000002 32.168913780009106" fill="none" stroke="black" stroke-width="0.6%" vector-effect="non-scaling-stroke">
    <path d="M 43 8.90208 A 43 6.32581 360 0 1 -43 8.90208" />
    <path d="M -41.05 4.05136 A 43 6.32581 180 0 0 -43 5.93472 A 43 6.32581 180 1 0 43 5.93472 A 43 6.32581 180 0 0 41.05 4.05136" />
    <path d="M -41.05 5.93472 A 41.05 6.03894 180 1 0 41.05 5.93472" />
    <path d="M -29.0103 -13.17467 A 41.05 6.03894 360 0 1 41.05 -8.90208 A 41.05 6.03894 360 0 1 -41.05 -8.90208 A 41.05 6.03894 360 0 1 -29.0103 -13.17467 Z" />
    <path d="M -7.77377 -10.04699 A 11 1.61823 360 0 1 11 -8.90208 A 11 1.61823 360 0 1 -11 -8.90208 A 11 1.61823 360 0 1 -7.77377 -10.04699 Z" />
    <path d="M -27.56155 -12.9613 A 39 5.73736 360 0 1 39 -8.90208 A 39 5.73736 360 0 1 -39 -8.90208 A 39 5.73736 360 0 1 -27.56155 -12.9613 Z" />
    <path d="M -9.18718 -10.25515 A 13 1.91245 360 0 1 13 -8.90208 L 13 -4.74868" />
    <path d="M 13 -8.90208 A 13 1.91245 360 0 1 -13 -8.90208 L -13 -3.49284" />
    <path d="M -13 -8.90208 A 13 1.91245 360 0 1 -9.18718 -10.25515" />
    <path d="M 11.32423 -4.99548 A 13 1.91245 360 0 1 6.37168 -4.26773 L 11.97813 -3.44202" />
    <path d="M 6.37168 -4.26773 L 6.37168 -3.2418" />
    <path d="M 18.88376 -3.88213 L 11.32423 -4.99548" />
    <path d="M -43 5.93472 L -43 8.90208" />
    <path d="M 43 5.93472 L 43 8.90208" />
    <path d="M -41.05 -8.90208 L -41.05 5.93472" />
    <path d="M 41.05 -8.90208 L 41.05 5.93472" />
</svg>