<svg version="1.1" xmlns="http://www.w3.org/2000/svg" viewBox="-42.10000100000001 -7.419948505711444 84.20000200000003 14.839897011422885" fill="none" stroke="black" stroke-width="0.6%" vector-effect="non-scaling-stroke">
    <path d="M -41.1 3.74203 A 41.1 2.67792 180 0 0 41.1 3.74203" />
    <path d="M -29.06209 -5.6356 A 41.1 2.67792 360 0 1 41.1 -3.74203 A 41.1 2.67792 360 0 1 -41.1 -3.74203 A 41.1 2.67792 360 0 1 -29.06209 -5.6356 Z" />
    <path d="M -24.60331 -5.71367 A 39 2.54109 360 0 1 24.60331 -5.71367 L 5.918 -4.4962" />
    <path d="M 30.26016 -5.34509 A 39 2.54109 360 0 1 39 -3.74203 A 39 2.54109 360 0 1 30.26016 -2.13898 L 11.57485 -3.35644" />
    <path d="M 30.26016 -5.34509 L 30.26016 -2.13898" />
    <path d="M 24.60331 -1.7704 A 39 2.54109 360 0 1 -24.60331 -1.7704 L -5.918 -2.98786 L -5.918 -1.23037" />
    <path d="M -30.26016 -5.34509 L -30.26016 -2.13898 A 39 2.54109 360 0 1 -39 -3.74203 A 39 2.54109 360 0 1 -30.26016 -5.34509 L -11.57485 -4.12763" />
    <path d="M -11.57485 -3.35644 L -30.26016 -2.13898" />
    <path d="M -5.918 -4.4962 L -24.60331 -5.71367" />
    <path d="M -5.918 -4.4962 A 13 0.84703 360 0 1 5.918 -4.4962" />
    <path d="M 11.57485 -4.12763 L 30.26016 -5.34509" />
    <path d="M 11.57485 -4.12763 A 13 0.84703 360 0 1 13 -3.74203 L 13 -3.26358" />
    <path d="M 13 -3.74203 A 13 0.84703 360 0 1 11.57485 -3.35644" />
    <path d="M 5.918 -2.98786 L 24.60331 -1.7704" />
    <path d="M 5.918 -2.98786 A 13 0.84703 360 0 1 -5.918 -2.98786" />
    <path d="M -11.57485 -3.35644 A 13 0.84703 360 0 1 -13 -3.74203 L -13 -3.26358" />
    <path d="M -13 -3.74203 A 13 0.84703 360 0 1 -11.57485 -4.12763" />
    <path d="M 22.45064 -5.04357 A 1.75 0.11402 360 0 1 19.4632 -5.1242 A 1.75 0.11402 360 0 1 22.9632 -5.1242 A 1.75 0.11402 360 0 1 22.45064 -5.04357 Z" />
    <path d="M 22.45064 -2.27924 A 1.75 0.11402 360 0 1 19.4632 -2.35986 A 1.75 0.11402 360 0 1 22.9632 -2.35986 A 1.75 0.11402 360 0 1 22.45064 -2.27924 Z" />
    <path d="M -19.97577 -2.27924 A 1.75 0.11402 360 0 1 -22.9632 -2.35986 A 1.75 0.11402 360 0 1 -19.4632 -2.35986 A 1.75 0.11402 360 0 1 -19.97577 -2.27924 Z" />
    <path d="M -19.97577 -5.04357 A 1.75 0.11402 360 0 1 -22.9632 -5.1242 A 1.75 0.11402 360 0 1 -19.4632 -5.1242 A 1.75 0.11402 360 0 1 -19.97577 -5.04357 Z" />
    <path d="M -7.77817 -4.24883 A 11 0.71672 360 0 1 11 -3.74203 A 11 0.71672 360 0 1 -11 -3.74203 A 11 0.71672 360 0 1 -7.77817 -4.24883 Z" />
    <path d="M 5.918 -2.98786 L 5.918 -1.23037" />
    <path d="M -41.1 -3.74203 L -41.1 3.74203" />
    <path d="M 41.1 -3.74203 L 41.1 3.74203" />
</svg>