<svg viewBox="0 0 800 800" xmlns="http://www.w3.org/2000/svg"><path d="M637.3678930791089,318.56701777887554 L637.4204358468387,305.47504771012905 M637.4204358468387,305.47504771012905 L659.3599472116366,319.28779264442346 M659.3599472116366,319.28779264442346 L678.907112688571,334.2608251410924 M678.907112688571,334.2608251410924 L695.8777918682813,350.25763676506347 M695.8777918682813,350.25763676506347 L710.1107767053561,367.1319613043754 M710.1107767053561,367.1319613043754 L721.4695499956763,384.7289381805381 M721.4695499956763,384.7289381805381 L729.8435095676521,402.886529471001 M729.8435095676521,402.886529471001 L735.1492894295827,421.43691747023803 M735.1492894295827,421.43691747023803 L737.3316660708479,440.2080191027401 M737.3316660708479,440.2080191027401 L736.3643211359577,459.02504581220853 M736.3643211359577,459.02504581220853 L732.2502876757285,477.7120797636207 M732.2502876757285,477.7120797636207 L725.0221518197468,496.0937896543854 M725.0221518197468,496.0937896543854 L714.741974556204,513.9970481853458 M714.741974556204,513.9970481853458 L701.5009138946966,531.2526188026436 M701.5009138946966,531.2526188026436 L685.4185088532688,547.6968121768273 M685.4185088532688,547.6968121768273 L666.6418198946378,563.1731039847116 M666.6418198946378,563.1731039847116 L645.3440892566898,577.5337235909749 M645.3440892566898,577.5337235909749 L621.7232240071132,590.6411294201878 M621.7232240071132,590.6411294201878 L596.0000033214228,602.3694453485218 M596.0000033214228,602.3694453485218 L568.4160206483439,612.6057681714938 M568.4160206483439,612.6057681714938 L539.2313254445307,621.2513347078229 M539.2313254445307,621.2513347078229 L508.72194409480164,628.2225657907347 M508.72194409480164,628.2225657907347 L477.1771563822994,633.4519795675617 M477.1771563822994,633.4519795675617 L444.8966481218159,636.8888767926742 M444.8966481218159,636.8888767926742 L412.18752148315735,638.4999359789979 M412.18752148315735,638.4999359789979 L379.3611530616602,638.2695104942459 M379.3611530616602,638.2695104942459 L346.7301073582022,636.19982793084 M346.7301073582022,636.19982793084 L314.605002126674,632.3109797164038 M314.605002126674,632.3109797164038 L283.291326411932,626.6406947642788 M283.291326411932,626.6406947642788 L253.08646267667524,619.2439113546834 M253.08646267667524,619.2439113546834 L224.27662874477107,610.1922196494224 M224.27662874477107,610.1922196494224 L197.13412834922616,599.5730694646256 M197.13412834922616,599.5730694646256 L171.91462321565018,587.4888684553018 M171.91462321565018,587.4888684553018 L148.8547030723888,574.0558798580114 M148.8547030723888,574.0558798580114 L128.16961530314364,559.4030208793794 M128.16961530314364,559.4030208793794 L110.05125981090868,543.6705271128853 M110.05125981090868,543.6705271128853 L94.66647031608727,527.0085022637093 M94.66647031608727,527.0085022637093 L82.15550816981556,509.57541938618397 M82.15550816981556,509.57541938618397 L72.63092788612511,491.53649773381335 M72.63092788612511,491.53649773381335 L66.17664039240253,473.06211614440485 M66.17664039240253,473.06211614440485 L62.84737400589188,454.3260976796281 M62.84737400589188,454.3260976796281 L62.66833392915203,435.504087069504 M62.66833392915203,435.504087069504 L65.63517128668718,416.7718537700922 M65.63517128668718,416.7718537700922 L71.7142708390748,398.30365963287824 M71.7142708390748,398.30365963287824 L80.84333550570432,380.27068445961714 M80.84333550570432,380.27068445961714 L92.93206854124514,362.83944262688107 M92.93206854124514,362.83944262688107 L107.86328849383364,346.17030066568077 M107.86328849383364,346.17030066568077 L125.49411927327992,330.41608112333336 M125.49411927327992,330.41608112333336 L145.65749139447217,315.72073273852936 M145.65749139447217,315.72073273852936 L168.16379113034904,302.21812701102914 M168.16379113034904,302.21812701102914 L192.80265165356363,290.03090259878553 M192.80265165356363,290.03090259878553 L219.3449236098875,279.2694524313042 M219.3449236098875,279.2694524313042 L247.5448171199566,270.0310271867655 M247.5448171199566,270.0310271867655 L277.14207426154525,262.39895692085963 M277.14207426154525,262.39895692085963 L307.86431344458055,256.44193121959836 M307.86431344458055,256.44193121959836 L339.4294156212234,252.21350890542027 M339.4294156212234,252.21350890542027 L371.5479846313221,249.7516659202553 M371.5479846313221,249.7516659202553 L403.9258813018643,249.0784937545951 M403.9258813018643,249.0784937545951 L436.2666739126071,250.20003035439603 M436.2666739126071,250.20003035439603 L468.27430577080753,253.1062158094957 M468.27430577080753,253.1062158094957 L499.65558101650936,257.7709600586178 M499.65558101650936,257.7709600586178 L530.1226889843167,264.1523696184686 M530.1226889843167,264.1523696184686 L559.3957229090929,272.19304249599884 M559.3957229090929,272.19304249599884 L587.2050734763463,281.82059475955504 M587.2050734763463,281.82059475955504 L613.2939328956652,292.94813359825883 M613.2939328956652,292.94813359825883 L637.4204358468387,305.47504771012905 M637.3678930791089,318.56701777887554 L613.2467467997867,306.03729037751526 M613.2467467997867,306.03729037751526 L587.1636712104471,294.9072505376487 M587.1636712104471,294.9072505376487 L559.3604784044812,285.2775329013479 M559.3604784044812,285.2775329013479 L530.0939199319448,277.2350504925197 M530.0939199319448,277.2350504925197 L499.6335462985287,270.8522041207191 M499.6335462985287,270.8522041207191 L468.25920340754436,266.18640918879237 M468.25920340754436,266.18640918879237 L436.25863949252187,263.27956898134426 M436.25863949252187,263.27956898134426 L403.92498691555716,262.15777966965413 M403.92498691555716,262.15777966965413 L371.55423830633936,262.8311035210995 M371.55423830633936,262.8311035210995 L339.44276124669665,265.29350117484273 M339.44276124669665,265.29350117484273 L307.88463122555737,269.52287596583403 M307.88463122555737,269.52287596583403 L277.16918165698246,275.4812430648435 M277.16918165698246,275.4812430648435 L247.57847028685939,283.11503113226416 M247.57847028685939,283.11503113226416 L219.3848193433568,292.3555345573808 M219.3848193433568,292.3555345573808 L192.84842981407732,303.1194038880444 M192.84842981407732,303.1194038880444 L168.21503755849346,315.3093658692301 M168.21503755849346,315.3093658692301 L145.71374128564145,328.8150020216024 M145.71374128564145,328.8150020216024 L125.55486101703269,343.51364540006347 M125.55486101703269,343.51364540006347 L107.92796795193499,359.27139374266375 M107.92796795193499,359.27139374266375 L93.00009373676443,375.9442653669255 M93.00009373676443,375.9442653669255 L80.91408170327418,393.37940290219524 M80.91408170327418,393.37940290219524 L71.78708599451409,411.4164034415902 M71.78708599451409,411.4164034415902 L65.70938180668838,429.8887150174925 M65.70938180668838,429.8887150174925 L62.743250732582624,448.6251193730864 M62.743250732582624,448.6251193730864 L62.922298797074234,467.45131570515144 M62.922298797074234,467.45131570515144 L66.2508721286863,486.1914954676362 M66.2508721286863,486.1914954676362 L72.70376937574497,504.6699750662976 M72.70376937574497,504.6699750662976 L82.22627272871347,522.7128931719587 M82.22627272871347,522.7128931719587 L94.73448841158904,540.149833623206 M94.73448841158904,540.149833623206 L110.11588564291935,556.8155411477451 M110.11588564291935,556.8155411477451 L128.23023322642734,572.551508303523 M128.23023322642734,572.551508303523 L148.91073380650852,587.2075989578254 M148.91073380650852,587.2075989578254 L171.96552974839275,600.6435473473643 M171.96552974839275,600.6435473473643 L197.17942147383425,612.730408637492 M197.17942147383425,612.730408637492 L224.3158721539755,623.3518947628083 M224.3158721539755,623.3518947628083 L253.11927754103453,632.4055762666608 M253.11927754103453,632.4055762666608 L283.3173953939533,639.8039847662067 M283.3173953939533,639.8039847662067 L314.6240727520045,645.4755149345367 M314.6240727520045,645.4755149345367 L346.7419947284247,649.365216874842 M346.7419947284247,649.365216874842 L379.3657418307127,651.4353537064978 M379.3657418307127,651.4353537064978 L412.1847671085892,651.6658297626375 M412.1847671085892,651.6658297626375 L444.886577340891,650.0544169810544 M444.886577340891,650.0544169810544 L477.15986692184185,646.6167652950699 M477.15986692184185,646.6167652950699 L508.69760362659565,641.3862032262928 M508.69760362659565,641.3862032262928 L539.2001697774967,634.4134407367233 M539.2001697774967,634.4134407367233 L568.378351197776,625.7659739666635 M568.378351197776,625.7659739666635 L595.9561838954667,615.5273998171069 M595.9561838954667,615.5273998171069 L621.6736769485301,603.7965024799796 M621.6736769485301,603.7965024799796 L645.2892910062913,590.6862092512852 M645.2892910062913,590.6862092512852 L666.5822960160997,576.322423206572 M666.5822960160997,576.322423206572 L685.3548285996699,560.8427154821006 M685.3548285996699,560.8427154821006 L701.4336843891517,544.3948886026132 M701.4336843891517,544.3948886026132 L714.6718346605755,527.1355008177482 M714.6718346605755,527.1355008177482 L724.949765742572,509.22827710008835 M724.949765742572,509.22827710008835 L732.176338436318,490.8424910315487 M732.176338436318,490.8424910315487 L736.2895039247517,472.15130797801237 M736.2895039247517,472.15130797801237 L737.2566815873593,453.33009798780034 M737.2566815873593,453.33009798780034 L735.0748372680498,434.55481796922044 M735.0748372680498,434.55481796922044 L729.7702817141228,416.0002954986921 M729.7702817141228,416.0002954986921 L721.3982244893537,397.83865226163755 M721.3982244893537,397.83865226163755 L710.042011530943,380.23774380286613 M710.042011530943,380.23774380286613 L695.8122191054497,363.3596447568074 M695.8122191054497,363.3596447568074 L678.8453330027094,347.35925095004535 M678.8453330027094,347.35925095004535 L659.3025246552702,332.38286203333746 M659.3025246552702,332.38286203333746 L637.3678930791089,318.56701777887554 M632.3533039847803,308.39925713906223 L654.1396487834475,322.13914827132857 M654.1396487834475,322.13914827132857 L673.507290261156,337.0480251272615 M673.507290261156,337.0480251272615 L690.2680053662036,352.98562984268307 M690.2680053662036,352.98562984268307 L704.257654834928,369.80151371771586 M704.257654834928,369.80151371771586 L715.3377692997474,387.33644037265503 M715.3377692997474,387.33644037265503 L723.3970162493013,405.4237609825564 M723.3970162493013,405.4237609825564 L728.3525433750717,423.8909657819285 M728.3525433750717,423.8909657819285 L730.1508850674434,442.5612419878077 M730.1508850674434,442.5612419878077 L728.768764452393,461.2551756788529 M728.768764452393,461.2551756788529 L724.2134643685506,479.7924439329342 M724.2134643685506,479.7924439329342 L716.5230704833491,497.99354173760514 M716.5230704833491,497.99354173760514 L705.7662609577851,515.6815874593836 M705.7662609577851,515.6815874593836 L692.041944107629,532.6840485126942 M692.041944107629,532.6840485126942 L675.4783927957403,548.8345191906371 M675.4783927957403,548.8345191906371 L656.2321681274743,563.9743706296493 M656.2321681274743,563.9743706296493 L634.4868267613119,577.9544692020211 M634.4868267613119,577.9544692020211 L610.4511474736425,590.636702433661 M610.4511474736425,590.636702433661 L584.3571352140536,601.8954316268639 M584.3571352140536,601.8954316268639 L556.457790021042,611.6188455135866 M556.457790021042,611.6188455135866 L527.0246741740227,619.7102143955813 M527.0246741740227,619.7102143955813 L496.34506183924947,626.0888861020242 M496.34506183924947,626.0888861020242 L464.7191191297925,630.6911659769028 M464.7191191297925,630.6911659769028 L432.4567729752568,633.4710755380315 M432.4567729752568,633.4710755380315 L399.87458294048275,634.4008078337533 M399.87458294048275,634.4008078337533 L367.29239290570877,633.4710755380315 M367.29239290570877,633.4710755380315 L335.03004675117296,630.6911659769028 M335.03004675117296,630.6911659769028 L303.40410404171604,626.0888861020242 M303.40410404171604,626.0888861020242 L272.7244917069427,619.7102143955813 M272.7244917069427,619.7102143955813 L243.29137585992345,611.6188455135866 M243.29137585992345,611.6188455135866 L215.39203066691195,601.8954316268639 M215.39203066691195,601.8954316268639 L189.29801840732284,590.636702433661 M189.29801840732284,590.636702433661 L165.26233911965267,577.9544692020206 M165.26233911965267,577.9544692020206 L143.51699775349113,563.9743706296493 M143.51699775349113,563.9743706296493 L124.27077308522507,548.8345191906369 M124.27077308522507,548.8345191906369 L107.70722177333647,532.6840485126942 M107.70722177333647,532.6840485126942 L93.98290492318046,515.6815874593835 M93.98290492318046,515.6815874593835 L83.2260953976164,497.993541737605 M83.2260953976164,497.993541737605 L75.5357015124149,479.7924439329341 M75.5357015124149,479.7924439329341 L70.98040142857235,461.2551756788529 M70.98040142857235,461.2551756788529 L69.59828081352208,442.5612419878077 M69.59828081352208,442.5612419878077 L71.39662250589379,423.8909657819285 M71.39662250589379,423.8909657819285 L76.35214963166413,405.4237609825564 M76.35214963166413,405.4237609825564 L84.41139658121824,387.33644037265503 M84.41139658121824,387.33644037265503 L95.4915110460376,369.80151371771586 M95.4915110460376,369.80151371771586 L109.48116051476177,352.98562984268295 M109.48116051476177,352.98562984268295 L126.24187561980955,337.0480251272615 M126.24187561980955,337.0480251272615 L145.60951709751805,322.1391482713285 M145.60951709751805,322.1391482713285 L167.39586189618547,308.39925713906206 M167.39586189618547,308.39925713906206 L191.39055478617516,295.9572334505994 M191.39055478617516,295.9572334505994 L217.36316467775353,284.92948456478945 M217.36316467775353,284.92948456478945 L245.06535572705096,275.4189446473548 M245.06535572705096,275.4189446473548 L274.2331423439376,267.51416276369787 M274.2331423439376,267.51416276369787 L304.58944635102443,261.28862017657536 M304.58944635102443,261.28862017657536 L335.84652634667566,256.8001258161072 M335.84652634667566,256.8001258161072 L367.7086310178529,254.09028527864007 M367.7086310178529,254.09028527864007 L399.87458294048275,253.18421231674878 M399.87458294048275,253.18421231674878 L432.0405348631126,254.09028527864015 M432.0405348631126,254.09028527864015 L463.90263953428985,256.8001258161072 M463.90263953428985,256.8001258161072 L495.159719529941,261.28862017657536 M495.159719529941,261.28862017657536 L525.5160235370279,267.51416276369787 M525.5160235370279,267.51416276369787 L554.6838101539145,275.4189446473548 M554.6838101539145,275.4189446473548 L582.3860012032119,284.92948456478945 M582.3860012032119,284.92948456478945 L608.3586110947904,295.95723345059946 M608.3586110947904,295.95723345059946 L632.3533039847803,308.39925713906223 M177.3516770661786,584.157503925534 L200.53148855496735,596.368862427382 M200.53148855496735,596.368862427382 L225.72065519520356,607.1843260151022 M225.72065519520356,607.1843260151022 L252.66715446588537,616.4932485995973 M252.66715446588537,616.4932485995973 L281.1004564322693,624.2002002582867 M281.1004564322693,624.2002002582867 L310.7343370439726,630.2260141758766 M310.7343370439726,630.2260141758766 L341.26978542811474,634.5087398859021 M341.26978542811474,634.5087398859021 L372.39822582966434,637.0042749807255 M372.39822582966434,637.0042749807255 L403.80475911256667,637.6869357666644 M403.80475911256667,637.6869357666644 L435.17149802198276,636.5496707420959 M435.17149802198276,636.5496707420959 L466.1810165851322,633.6041872019507 M466.1810165851322,633.6041872019507 L496.5197001151545,628.8808605856264 M496.5197001151545,628.8808605856264 L525.8810210165432,622.4282660401009 M525.8810210165432,622.4282660401009 L553.9688986711117,614.3127555715434 M553.9688986711117,614.3127555715434 L580.5007283696516,604.6176222705785 M580.5007283696516,604.6176222705785 L605.2104038773693,593.4422456192922 M605.2104038773693,593.4422456192922 L627.8509230602499,580.9008750555979 M627.8509230602499,580.9008750555979 L648.1970926983156,567.1214903474895 M648.1970926983156,567.1214903474895 L666.047566075546,552.2442774879917 M666.047566075546,552.2442774879917 L681.2269524689418,536.4201840858736 M681.2269524689418,536.4201840858736 L693.587453376336,519.8092966757167 M693.587453376336,519.8092966757167 L703.0101160592922,502.5790728923219 M703.0101160592922,502.5790728923219 L709.4059943092627,484.90266134425167 M709.4059943092627,484.90266134425167 L712.7167267551386,466.9570350834912 M712.7167267551386,466.9570350834912 L712.914980236347,448.9212563891352 M712.914980236347,448.9212563891352 L710.0044463583777,430.97460876334645 M710.0044463583777,430.97460876334645 L704.0196494155446,413.29484494733555 M704.0196494155446,413.29484494733555 L695.0253160755249,396.0564254531301 M695.0253160755249,396.0564254531301 L683.1155580833201,379.4288959480495 M683.1155580833201,379.4288959480495 L668.4127249179614,363.57520121090465 M668.4127249179614,363.57520121090465 L651.0660976948429,348.650161097844 M651.0660976948429,348.650161097844 L631.2501849564103,334.7991224971948 M631.2501849564103,334.7991224971948 L609.1630211229976,322.15652548079447 M609.1630211229976,322.15652548079447 L585.0240700355237,310.84476587692063 M585.0240700355237,310.84476587692063 L559.0720409453738,300.9731022422674 M559.0720409453738,300.9731022422674 L531.5626896729107,292.63664295456215 M531.5626896729107,292.63664295456215 L502.7661775774651,285.91558351580994 M502.7661775774651,285.91558351580994 L472.96465610290375,280.8744559499691 M472.96465610290375,280.8744559499691 L442.4496268319305,277.56161254800304 M442.4496268319305,277.56161254800304 L411.51910208301143,276.0087979719319 M411.51910208301143,276.0087979719319 L380.4749527214944,276.23089755123226 M380.4749527214944,276.23089755123226 L349.6200879816839,278.22577293986774 M349.6200879816839,278.22577293986774 L319.2557148954348,281.9743200068357 M319.2557148954348,281.9743200068357 L289.67845076463385,287.4406007886714 M289.67845076463385,287.4406007886714 L261.17770308295025,294.57218998592384 M261.17770308295025,294.57218998592384 L234.03284943457473,303.3005561656273 M234.03284943457473,303.3005561656273 L208.51074594487193,313.54172875597135 M208.51074594487193,313.54172875597135 L184.86307949903556,325.19697324438823 M184.86307949903556,325.19697324438823 L163.32394631013057,338.1536399727979 M163.32394631013057,338.1536399727979 L144.10769675367962,352.2862416711086 M144.10769675367962,352.2862416711086 L127.40659491447462,367.4574551485623 M127.40659491447462,367.4574551485623 L113.38907075787012,383.51947328504974 M113.38907075787012,383.51947328504974 L102.19777062750347,400.31527999726785 M102.19777062750347,400.31527999726785 L93.94814641718898,417.6801500156098 M93.94814641718898,417.6801500156098 L88.72699635584081,435.44314958393943 M88.72699635584081,435.44314958393943 L86.59162889708853,453.428832802862 M86.59162889708853,453.428832802862 L87.5688719094581,471.45890657060914 M87.5688719094581,471.45890657060914 L91.65465658239225,489.3539630044434 M91.65465658239225,489.3539630044434 L98.81391171054594,506.93530270034285 M98.81391171054594,506.93530270034285 L108.98055873148513,524.026732933967 M108.98055873148513,524.026732933967 L122.05808523516424,540.4563578780314 M122.05808523516424,540.4563578780314 L137.92020549750066,556.0584068514825 M137.92020549750066,556.0584068514825 L156.4120739631117,570.6749323498211 M156.4120739631117,570.6749323498211 L177.3516770661786,584.157503925534 M632.3533039847803,308.39925713906223 L632.7655414128635,203.44929984033763 M632.7655414128635,203.44929984033763 L654.5907296212006,217.16438483915485 M654.5907296212006,217.16438483915485 L673.9929771333125,232.04637080275194 M673.9929771333125,232.04637080275194 L690.7837217283495,247.9552587527971 M690.7837217283495,247.9552587527971 L704.7985252961837,264.740876549064 M704.7985252961837,264.740876549064 L715.8986630061481,282.24427925436527 M715.8986630061481,282.24427925436527 L723.9725932030628,300.2991216597277 M723.9725932030628,300.2991216597277 L728.937303550091,318.73320680301447 M728.937303550091,318.73320680301447 L730.7392196069704,337.37004094300687 M730.7392196069704,337.37004094300687 L729.3550088116408,356.03053228629625 M729.3550088116408,356.03053228629625 L724.7919526618186,374.5346800499126 M724.7919526618186,374.5346800499126 L717.0881908157394,392.7032982963457 M717.0881908157394,392.7032982963457 L706.3125109213465,410.3598182491748 M706.3125109213465,410.3598182491748 L692.563986135357,427.3320110106991 M692.563986135357,427.3320110106991 L675.971108422784,443.4537624035678 M675.971108422784,443.4537624035678 L656.6907107096463,458.566720222389 M656.6907107096463,458.566720222389 L634.9066721796135,472.5220098312535 M634.9066721796135,472.5220098312535 L610.8281418641254,485.18175765808087 M610.8281418641254,485.18175765808087 L584.6875392178863,496.42054154148474 M584.6875392178863,496.42054154148474 L556.7383190229775,506.1267422889486 M556.7383190229775,506.1267422889486 L527.2525340577074,514.2037958910107 M527.2525340577074,514.2037958910107 L496.51797940486193,520.5711879902346 M496.51797940486193,520.5711879902346 L464.8353671333786,525.1653325535094 M464.8353671333786,525.1653325535094 L432.51518915015413,527.9403293889471 M432.51518915015413,527.9403293889471 L399.87458294048275,528.8684188463619 M399.87458294048275,528.8684188463619 L367.2339767308114,527.940329388947 M367.2339767308114,527.940329388947 L334.91379874758684,525.1653325535094 M334.91379874758684,525.1653325535094 L303.2311864761036,520.5711879902346 M303.2311864761036,520.5711879902346 L272.4966318232582,514.2037958910107 M272.4966318232582,514.2037958910107 L243.01084685798787,506.1267422889486 M243.01084685798787,506.1267422889486 L215.0616266630791,496.42054154148474 M215.0616266630791,496.42054154148474 L188.92102401684014,485.18175765808087 M188.92102401684014,485.18175765808087 L164.8424937013511,472.5220098312529 M164.8424937013511,472.5220098312529 L143.05845517131922,458.56672022238894 M143.05845517131922,458.56672022238894 L123.77805745818159,443.45376240356774 M123.77805745818159,443.45376240356774 L107.18517974560837,427.33201101069903 M107.18517974560837,427.33201101069903 L93.43665495961892,410.3598182491748 M93.43665495961892,410.3598182491748 L82.66097506522613,392.7032982963456 M82.66097506522613,392.7032982963456 L74.95721321914692,374.53468004991254 M74.95721321914692,374.53468004991254 L70.39415706932459,356.0305322862962 M70.39415706932459,356.0305322862962 L69.00994627399507,337.3700409430068 M69.00994627399507,337.3700409430068 L70.81186233087453,318.73320680301447 M70.81186233087453,318.73320680301447 L75.77657267790255,300.2991216597277 M75.77657267790255,300.2991216597277 L83.85050287481744,282.24427925436527 M83.85050287481744,282.24427925436527 L94.95064058478181,264.74087654906396 M94.95064058478181,264.74087654906396 L108.96544415261593,247.95525875279702 M108.96544415261593,247.95525875279702 L125.75618874765308,232.04637080275194 M125.75618874765308,232.04637080275194 L145.15843625976495,217.16438483915485 M145.15843625976495,217.16438483915485 L166.9836244681022,203.44929984033743 M166.9836244681022,203.44929984033743 L191.02102226181773,191.02975873357755 M191.02102226181773,191.02975873357755 L217.039789653692,180.0219524495013 M217.039789653692,180.0219524495013 L244.7911526845233,170.52862318125239 M244.7911526845233,170.52862318125239 L274.01066228059335,162.6381543994479 M274.01066228059335,162.6381543994479 L304.420755705227,156.42388963517072 M304.420755705227,156.42388963517072 L335.7331899074803,151.94352926222834 M335.7331899074803,151.94352926222834 L367.6516991488906,149.23860063586486 M367.6516991488906,149.23860063586486 L399.87458294048275,148.33417023736263 M399.87458294048275,148.33417023736263 L432.0974667320748,149.23860063586486 M432.0974667320748,149.23860063586486 L464.0159759734852,151.94352926222834 M464.0159759734852,151.94352926222834 L495.3284101757385,156.42388963517072 M495.3284101757385,156.42388963517072 L525.738503600372,162.6381543994479 M525.738503600372,162.6381543994479 L554.9580131964422,170.52862318125239 M554.9580131964422,170.52862318125239 L582.7093762272734,180.02195244950138 M582.7093762272734,180.02195244950138 L608.7281436191479,191.02975873357755 M608.7281436191479,191.02975873357755 L632.7655414128635,203.44929984033763 M183.03406395744545,567.6941251295116 L181.098856291125,566.615136967673 M181.098856291125,566.615136967673 L179.1798476084981,565.5266406016977 M179.1798476084981,565.5266406016977 L177.27715499455292,564.4287315797243 M182.6703194795763,468.84628385205093 L183.03406395744545,567.6941251295116 M182.6703194795763,468.84628385205093 L205.25575923643473,480.1523362747865 M205.25575923643473,480.1523362747865 L229.62060982087104,490.1730539150396 M229.62060982087104,490.1730539150396 L255.54363926391528,498.8154346814437 M255.54363926391528,498.8154346814437 L282.7888055550593,505.99907386540036 M282.7888055550593,505.99907386540036 L311.1072793286298,511.6570820766755 M311.1072793286298,511.6570820766755 L340.23993614211366,515.7366832279083 M340.23993614211366,515.7366832279083 L369.9197872485918,518.1997789821988 M369.9197872485918,518.1997789821988 L399.87458294048275,519.0233755816605 M399.87458294048275,519.0233755816605 L429.82937863237373,518.1997789821988 M429.82937863237373,518.1997789821988 L459.5092297388518,515.7366832279083 M459.5092297388518,515.7366832279083 L488.64188655233573,511.6570820766755 M488.64188655233573,511.6570820766755 L516.9603603259061,505.99907386540036 M516.9603603259061,505.99907386540036 L544.2055266170503,498.8154346814437 M544.2055266170503,498.8154346814437 L570.1285560600945,490.1730539150397 M570.1285560600945,490.1730539150397 L594.4934066445308,480.1523362747865 M594.4934066445308,480.1523362747865 L617.0788464013892,468.84628385205093 M617.0788464013892,468.84628385205093 L616.71510192352,567.6941251295116 M628.0806569033787,561.0792659225242 L624.3582054938927,563.3214671980395 M624.3582054938927,563.3214671980395 L620.5693182724674,565.5266406016979 M620.5693182724674,565.5266406016979 L616.71510192352,567.6941251295116 M628.4633812104516,462.2424345571039 L628.0806569033787,561.0792659225242 M628.4633812104516,462.2424345571039 L647.9155393939682,449.1655384208847 M647.9155393939682,449.1655384208847 L665.106933928733,435.0897722552335 M665.106933928733,435.0897722552335 L679.8843429514554,420.1446986521762 M679.8843429514554,420.1446986521762 L692.1170684665506,404.4674234936097 M692.1170684665506,404.4674234936097 L701.69819795187,388.2013833290759 M701.69819795187,388.2013833290759 L708.5453004722658,371.49490087712434 M708.5453004722658,371.49490087712434 L712.6010669734424,354.4998137242795 M712.6010669734424,354.4998137242795 L713.8337259545401,337.37004094300687 M713.8337259545401,337.37004094300687 L712.2370859988264,320.2602054286759 M712.2370859988264,320.2602054286759 L707.8304297374636,303.32421300742567 M707.8304297374636,303.32421300742567 L700.6581487870117,286.7138574662077 M700.6581487870117,286.7138574662077 L690.7892479330521,270.5775192073342 M690.7892479330521,270.5775192073342 L678.3165084799741,255.0588562274804 M678.3165084799741,255.0588562274804 L663.3554765279396,240.29560024473682 M663.3554765279396,240.29560024473682 L646.0434540904221,226.41831826274074 M646.0434540904221,226.41831826274074 L626.5380029632331,213.54943373385316 M626.5380029632331,213.54943373385316 L626.1616934861906,311.9680387439317 M614.7961348092281,305.4668503378161 L618.6481068896769,307.59645174420314 M618.6481068896769,307.59645174420314 L622.4369953453929,309.76372011562745 M622.4369953453929,309.76372011562745 L626.1616934861906,311.9680387439317 M615.1534644323078,207.05925392062952 L614.7961348092281,305.4668503378161 M615.1534644323078,207.05925392062952 L592.6213044772664,195.9612152451001 M592.6213044772664,195.9612152451001 L568.3770710581537,186.13898650191442 M568.3770710581537,186.13898650191442 L542.637657742343,177.6784305677177 M542.637657742343,177.6784305677177 L515.6325034923134,170.65341120662154 M515.6325034923134,170.65341120662154 L487.6018043661624,165.12511260749898 M487.6018043661624,165.12511260749898 L458.7943339696799,161.1416448753089 M458.7943339696799,161.1416448753089 L429.4653841797252,158.7376479365494 M429.4653841797252,158.7376479365494 L399.87458294048275,157.93399000398978 M399.87458294048275,157.93399000398978 L370.28378170124023,158.7376479365494 M370.28378170124023,158.7376479365494 L340.9548319112856,161.1416448753089 M340.9548319112856,161.1416448753089 L312.14736151480304,165.12511260749898 M312.14736151480304,165.12511260749898 L284.116662388652,170.65341120662154 M284.116662388652,170.65341120662154 L257.1115081386226,177.6784305677177 M257.1115081386226,177.6784305677177 L231.37209482281176,186.13898650191442 M231.37209482281176,186.13898650191442 L207.1278614036989,195.9612152451001 M207.1278614036989,195.9612152451001 L184.5957014486576,207.05925392062952 M184.5957014486576,207.05925392062952 L184.9530310717373,305.466850337816 M173.58747239477486,311.9680387439316 L177.31217053557245,309.76372011562745 M177.31217053557245,309.76372011562745 L181.10105899128854,307.59645174420314 M181.10105899128854,307.59645174420314 L184.9530310717373,305.466850337816 M173.2111629177323,213.54943373385316 L173.58747239477486,311.9680387439316 M173.2111629177323,213.54943373385316 L153.7057117905434,226.41831826274074 M153.7057117905434,226.41831826274074 L136.39368935302593,240.29560024473673 M136.39368935302593,240.29560024473673 L121.43265740099133,255.0588562274804 M121.43265740099133,255.0588562274804 L108.95991794791337,270.57751920733415 M108.95991794791337,270.57751920733415 L99.09101709395378,286.7138574662077 M99.09101709395378,286.7138574662077 L91.91873614350192,303.32421300742567 M91.91873614350192,303.32421300742567 L87.512079882139,320.2602054286758 M87.512079882139,320.2602054286758 L85.91543992642528,337.3700409430068 M85.91543992642528,337.3700409430068 L87.14809890752304,354.4998137242795 M87.14809890752304,354.4998137242795 L91.20386540869958,371.4949008771242 M91.20386540869958,371.4949008771242 L98.05096792909546,388.2013833290759 M98.05096792909546,388.2013833290759 L107.63209741441494,404.4674234936097 M107.63209741441494,404.4674234936097 L119.86482292951001,420.1446986521762 M119.86482292951001,420.1446986521762 L134.64223195223258,435.0897722552334 M134.64223195223258,435.0897722552334 L151.83362648699745,449.1655384208847 M151.83362648699745,449.1655384208847 L171.28578467051386,462.2424345571039 M171.28578467051386,462.2424345571039 L171.66850897758675,561.0792659225242 M177.27715499455292,564.4287315797243 L175.3909603870727,563.3214671980395 M175.3909603870727,563.3214671980395 L173.52135818065156,562.2049552140029 M173.52135818065156,562.2049552140029 L171.66850897758675,561.0792659225242 M177.27715499455292,564.4287315797243 L177.3516770661786,584.157503925534 M320.29461175893806,376.576034021384 L171.28578467051386,462.2424345571039 M320.29461175893806,376.576034021384 L310.61312615467153,368.90889828348 M310.61312615467153,368.90889828348 L303.1461648113827,360.4653688298317 M303.1461648113827,360.4653688298317 L298.07692117139885,351.4554120588773 M298.07692117139885,351.4554120588773 L295.5287554659342,342.10268455315696 M295.5287554659342,342.10268455315696 L295.56233752200245,332.63892045943413 M295.56233752200245,332.63892045943413 L298.17436590234234,323.2981528990927 M298.17436590234234,323.2981528990927 L303.29789242883396,314.31094024920657 M303.29789242883396,314.31094024920657 L310.8042202915061,305.8987031225734 M310.8042202915061,305.8987031225734 L320.5062858522236,298.2683315545207 M173.2111629177323,213.54943373385316 L320.5062858522236,298.2683315545207 M331.8910133915708,291.74054050271604 L184.5957014486576,207.05925392062952 M331.8910133915708,291.74054050271604 L345.182005498271,286.1857327595294 M345.182005498271,286.1857327595294 L359.81857191636993,281.8962197214048 M359.81857191636993,281.8962197214048 L375.44018403096385,278.97693181029547 M375.44018403096385,278.97693181029547 L391.6624985397117,277.4992325953431 M391.6624985397117,277.4992325953431 L408.08666734125376,277.4992325953431 M408.08666734125376,277.4992325953431 L424.3089818500016,278.97693181029547 M424.3089818500016,278.97693181029547 L439.9305939645955,281.8962197214048 M439.9305939645955,281.8962197214048 L454.56716038269445,286.1857327595294 M454.56716038269445,286.1857327595294 L467.85815248939457,291.74054050271604 M615.1534644323078,207.05925392062952 L467.85815248939457,291.74054050271604 M479.2428800287419,298.2683315545207 L626.5380029632331,213.54943373385316 M479.2428800287419,298.2683315545207 L488.94494558945934,305.89870312257347 M488.94494558945934,305.89870312257347 L496.4512734521315,314.3109402492066 M496.4512734521315,314.3109402492066 L501.5747999786231,323.2981528990928 M501.5747999786231,323.2981528990928 L504.18682835896306,332.63892045943413 M504.18682835896306,332.63892045943413 L504.22041041503127,342.10268455315696 M504.22041041503127,342.10268455315696 L501.6722447095666,351.4554120588773 M501.6722447095666,351.4554120588773 L496.6030010695828,360.4653688298318 M496.6030010695828,360.4653688298318 L489.136039726294,368.90889828348 M489.136039726294,368.90889828348 L479.45455412202745,376.576034021384 M628.4633812104516,462.2424345571039 L479.45455412202745,376.576034021384 M468.06982671871094,383.1416137899671 L617.0788464013892,468.84628385205093 M468.06982671871094,383.1416137899671 L454.7582548812863,388.7331858199722 M454.7582548812863,388.7331858199722 L440.0823220307685,393.05399131631395 M440.0823220307685,393.05399131631395 L424.4064269445117,395.9960234956558 M424.4064269445117,395.9960234956558 L408.12024953627764,397.48568276583313 M408.12024953627764,397.48568276583313 L391.62891634468787,397.48568276583313 M391.62891634468787,397.48568276583313 L375.34273893645377,395.9960234956558 M375.34273893645377,395.9960234956558 L359.666843850197,393.05399131631395 M359.666843850197,393.05399131631395 L344.99091099967916,388.7331858199722 M344.99091099967916,388.7331858199722 L331.6793391622545,383.1416137899671 M182.6703194795763,468.84628385205093 L331.6793391622545,383.1416137899671 M336.32571031054067,373.91294571983724 L325.749172804833,366.5687056847719 M325.749172804833,366.5687056847719 L317.70431300591144,358.23334703192654 M317.70431300591144,358.23334703192654 L312.4635348114071,349.1921496843916 M312.4635348114071,349.1921496843916 L310.2029739442492,339.7540078084933 M310.2029739442492,339.7540078084933 L310.99678505284925,330.24078556136294 M310.99678505284925,330.24078556136294 L314.81502905932257,320.97628174799837 M314.81502905932257,320.97628174799837 L321.5250684864901,312.27523319278816 M321.5250684864901,312.27523319278816 L330.896437323461,304.43269933235445 M330.896437323461,304.43269933235445 L342.60896339897135,297.7141815756057 M342.60896339897135,297.7141815756057 L356.26379491605576,292.3467949970279 M356.26379491605576,292.3467949970279 L371.39699146793606,288.51175396327676 M371.39699146793606,288.51175396327676 L387.49517673883,286.3384205571365 M387.49517673883,286.3384205571365 L404.01275776778266,285.9000592691215 M404.01275776778266,285.9000592691215 L420.39015317339727,287.2114413908374 M420.39015317339727,287.2114413908374 L436.07244608640525,290.22837248362504 M436.07244608640525,290.22837248362504 L450.5279284359678,294.8491178906179 M450.5279284359678,294.8491178906179 L463.2658756555759,300.91775032791935 M463.2658756555759,300.91775032791935 L473.8530542617103,308.2292567198389 M473.8530542617103,308.2292567198389 L481.928400029359,316.53630262070874 M481.928400029359,316.53630262070874 L487.21539174186665,325.5574318814414 M487.21539174186665,325.5574318814414 L489.5316523205776,334.98646062085885 M489.5316523205776,334.98646062085885 L488.79550455773267,344.5027554571761 M488.79550455773267,344.5027554571761 L485.0290998220284,353.78210261539414 M485.0290998220284,353.78210261539414 L478.3580744334236,362.5077606124478 M478.3580744334236,362.5077606124478 L469.0076253414485,370.38134639019785 M469.0076253414485,370.38134639019785 L457.295099353659,377.1331648193468 M457.295099353659,377.1331648193468 L443.61934822123186,382.5316033752456 M443.61934822123186,382.5316033752456 L428.44713764697656,386.391253953233 M428.44713764697656,386.391253953233 L412.2971129995863,388.5794307862451 M412.2971129995863,388.5794307862451 L395.7218684524239,389.020864679887 M395.7218684524239,389.020864679887 L379.28877318609267,387.70036938159916 M379.28877318609267,387.70036938159916 L363.5602667070695,384.6633700907401 M363.5602667070695,384.6633700907401 L349.0742984669809,380.0143118397787 M349.0742984669809,380.0143118397787 L336.32571031054067,373.91294571983724 M331.7932125086195,481.8461835026284 L327.8106060453283,479.76721481978365 M327.8106060453283,479.76721481978365 L324.01869413975857,477.57307480284277 M324.01869413975857,477.57307480284277 L320.4274658992082,475.26959371525805 M183.03406395744545,567.6941251295116 L331.7932125086195,481.8461835026284 M320.4274658992082,475.26959371525805 L171.66850897758675,561.0792659225242 M331.6793391622545,383.1416137899671 L331.7932125086195,481.8461835026284 M467.95595337234596,481.8461835026284 L616.71510192352,567.6941251295116 M468.06982671871094,383.1416137899671 L467.95595337234596,481.8461835026284 M479.3216999817573,475.26959371525805 L475.730471741207,477.57307480284277 M475.730471741207,477.57307480284277 L471.9385598356372,479.76721481978365 M471.9385598356372,479.76721481978365 L467.95595337234596,481.8461835026284 M628.0806569033787,561.0792659225242 L479.3216999817573,475.26959371525805 M479.45455412202745,376.576034021384 L479.3216999817573,475.26959371525805 M479.11073111692536,396.83019718328944 L626.1616934861906,311.9680387439317 M479.2428800287419,298.2683315545207 L479.11073111692536,396.83019718328944 M473.6454952430961,393.4345008220479 L475.5172574807003,394.5392902910144 M475.5172574807003,394.5392902910144 L477.33940468509167,395.6714346827234 M477.33940468509167,395.6714346827234 L479.11073111692536,396.83019718328944 M467.74498437238816,390.29139655546015 L469.7580784831983,391.30986068721097 M469.7580784831983,391.30986068721097 L471.7253455294488,392.3577910333326 M471.7253455294488,392.3577910333326 L473.6454952430961,393.4345008220479 M614.7961348092281,305.4668503378161 L467.74498437238816,390.29139655546015 M467.85815248939457,291.74054050271604 L467.74498437238816,390.29139655546015 M332.00418150857735,390.29139655546015 L184.9530310717373,305.466850337816 M331.8910133915708,291.74054050271604 L332.00418150857735,390.29139655546015 M320.63843476404014,396.83019718328944 L324.2319084002651,394.5392902910144 M324.2319084002651,394.5392902910144 L328.02382035151663,392.3577910333326 M328.02382035151663,392.3577910333326 L332.00418150857735,390.29139655546015 M173.58747239477486,311.9680387439316 L320.63843476404014,396.83019718328944 M320.5062858522236,298.2683315545207 L320.63843476404014,396.83019718328944 M320.29461175893806,376.576034021384 L320.4274658992082,475.26959371525805 M473.6454952430961,393.4345008220479 L473.6209404070917,413.1063649830455 M473.6209404070917,413.1063649830455 L459.68097806186654,406.3709817229726 M459.68097806186654,406.3709817229726 L443.93285044615783,401.13390989876825 M443.93285044615783,401.13390989876825 L426.85338054643336,397.5526154499409 M426.85338054643336,397.5526154499409 L408.95896827874765,395.73467530870676 M408.95896827874765,395.73467530870676 L390.7901976022178,395.7346753087067 M390.7901976022178,395.7346753087067 L372.8957853345321,397.5526154499409 M372.8957853345321,397.5526154499409 L355.8163154348076,401.13390989876825 M355.8163154348076,401.13390989876825 L340.06818781909897,406.3709817229726 M340.06818781909897,406.3709817229726 L326.1282254738735,413.1063649830457 M326.1282254738735,413.1063649830457 L314.41940245702807,421.1373046650027 M314.41940245702807,421.1373046650027 L305.29805054339516,430.2216801043751 M305.29805054339516,430.2216801043751 L299.04298220328656,440.08514116818515 M299.04298220328656,440.08514116818515 L295.8467950747468,450.42923430728433 M295.8467950747468,450.42923430728433 L295.8097467543449,460.9403256989502 M295.8097467543449,460.9403256989502 L298.93630578854237,471.29905036714507 M298.93630578854237,471.29905036714507 L305.134612712919,481.1900097315059 M305.134612712919,481.1900097315059 L314.218916165278,490.3114335646408 M314.218916165278,490.3114335646408 L325.91487226433463,498.38450318620795 M325.91487226433463,498.38450318620795 L339.867701241215,505.16201644330164 M339.867701241215,505.16201644330164 L355.6528771659489,510.43613682722315 M355.6528771659489,510.43613682722315 L372.7891085342808,514.0449297418932 M372.7891085342808,514.0449297418932 L390.7531491295672,515.877501541788 M390.7531491295672,515.877501541788 L408.9960167513983,515.877501541788 M408.9960167513983,515.877501541788 L426.9600573466847,514.0449297418932 M426.9600573466847,514.0449297418932 L444.0962887150166,510.4361368272232 M444.0962887150166,510.4361368272232 L459.88146463975045,505.16201644330164 M459.88146463975045,505.16201644330164 L473.83429361663167,498.3845031862076 M473.83429361663167,498.3845031862076 L485.5302497156875,490.3114335646408 M485.5302497156875,490.3114335646408 L494.6145531680465,481.1900097315059 M494.6145531680465,481.1900097315059 L500.8128600924231,471.29905036714507 M500.8128600924231,471.29905036714507 L503.9394191266205,460.9403256989502 M503.9394191266205,460.9403256989502 L503.90237080621864,450.42923430728433 M503.90237080621864,450.42923430728433 L500.7061836776789,440.08514116818515 M500.7061836776789,440.08514116818515 L494.4511153375703,430.2216801043751 M494.4511153375703,430.2216801043751 L485.3297634239374,421.1373046650027 M485.3297634239374,421.1373046650027 L473.6209404070917,413.1063649830455 M348.69448593220164,485.23268710302887 L360.4464903957612,490.73705269278133 M360.4464903957612,490.73705269278133 L373.9277374994668,494.7091653701245 M373.9277374994668,494.7091653701245 L388.54742262763915,496.97413380390094 M388.54742262763915,496.97413380390094 L403.66420284661183,497.43217772213467 M403.66420284661183,497.43217772213467 L418.6146643690103,496.06310858190363 M418.6146643690103,496.06310858190363 L432.742782741361,492.9272530872396 M432.742782741361,492.9272530872396 L445.42904934612477,488.1627303822787 M445.42904934612477,488.1627303822787 L456.1178927867358,481.97922448065304 M456.1178927867358,481.97922448065304 L464.34216574940694,474.6485726864211 M464.34216574940694,474.6485726864211 L469.7435556714825,466.49261182278997 M469.7435556714825,466.49261182278997 L472.0880403847309,457.8688541417563 M472.0880403847309,457.8688541417563 L471.2757710457564,449.15468444166623 M471.2757710457564,449.15468444166623 L467.34498424848044,440.7307828408709 M467.34498424848044,440.7307828408709 L460.4698378407642,432.9645229515644 M460.4698378407642,432.9645229515644 L450.9524220126831,426.194040180187 M450.9524220126831,426.194040180187 L439.20925817177294,420.71368780684503 M439.20925817177294,420.71368780684503 L425.7530044071289,416.76143626087185 M425.7530044071289,416.76143626087185 L411.1701437863374,414.5087426732572 M411.1701437863374,414.5087426732572 L396.09565191280467,414.05326490330356 M396.09565191280467,414.05326490330356 L381.18563052269445,415.41474776332194 M381.18563052269445,415.41474776332194 L367.0891115892494,418.53417629194877 M367.0891115892494,418.53417629194877 L354.4201399079782,423.2762717386453 M354.4201399079782,423.2762717386453 L343.731296425775,429.4352279669326 M343.731296425775,429.4352279669326 L335.48972848395033,436.74345253367284 M335.48972848395033,436.74345253367284 L330.0567391316642,444.8829864851503 M330.0567391316642,444.8829864851503 L327.67181435342496,453.4991579142816 M327.67181435342496,453.4991579142816 L328.441795428326,462.2158937484988 M328.441795428326,462.2158937484988 L332.3357577598131,470.65207016905487 M332.3357577598131,470.65207016905487 L339.18591080276235,478.43819113749805 M339.18591080276235,478.43819113749805 L348.69448593220164,485.23268710302887 M336.43885139579703,479.16959743701693 L325.881111270163,471.812216392461 M325.881111270163,471.812216392461 L317.8505294544321,463.461935408294 M317.8505294544321,463.461935408294 L312.6190291586166,454.40454258676783 M312.6190291586166,454.40454258676783 L310.36243847779554,444.9494836238885 M310.36243847779554,444.9494836238885 L311.15478689288926,435.419198791025 M311.15478689288926,435.419198791025 L314.96619546896176,426.1380679443167 M314.96619546896176,426.1380679443167 L321.6642687693997,417.42139411946636 M321.6642687693997,417.42139411946636 L331.0189552305644,409.56476884183604 M331.0189552305644,409.56476884183604 L342.71065447199186,402.8341733658677 M342.71065447199186,402.8341733658677 L356.3412238969557,397.457134033994 M356.3412238969557,397.457134033994 L371.44754554959854,393.6151938918118 M371.44754554959854,393.6151938918118 L387.5171513238757,391.4379499415817 M387.5171513238757,391.4379499415817 L404.00541223622525,390.99879982756545 M404.00541223622525,390.99879982756545 L420.3537350672724,392.31254169667704 M420.3537350672724,392.31254169667704 L436.00818304775083,395.33490077084775 M436.00818304775083,395.33490077084775 L450.437988060611,399.96395756056387 M450.437988060611,399.96395756056387 L463.1532944816045,406.043501779617 M463.1532944816045,406.043501779617 L473.72163789753023,413.36814879126183 M473.72163789753023,413.36814879126183 L481.78259735942856,421.69011668622414 M481.78259735942856,421.69011668622414 L487.06014696794955,430.72744118186097 M487.06014696794955,430.72744118186097 L489.3722394489625,440.1733868996716 M489.3722394489625,440.1733868996716 L488.63734949113956,449.70674435833445 M488.63734949113956,449.70674435833445 L484.8775959912752,459.00271872675233 M484.8775959912752,459.00271872675233 L478.2183981051026,467.74400228660477 M478.2183981051026,467.74400228660477 L468.88455705688773,475.63167985135146 M468.88455705688773,475.63167985135146 L457.19285790255896,482.39557639617107 M457.19285790255896,482.39557639617107 L443.54144319337854,487.803668074925 M443.54144319337854,487.803668074925 L428.3962461425432,491.67021805414646 M428.3962461425432,491.67021805414646 L412.2749851870807,493.86230560781934 M412.2749851870807,493.86230560781934 L395.729265646229,494.3045283640096 M395.729265646229,494.3045283640096 L379.32544086688466,492.9816732099262 M379.32544086688466,492.9816732099262 L363.6249435260293,489.9392456989405 M363.6249435260293,489.9392456989405 L349.16476094464815,485.28187572834617 M349.16476094464815,485.28187572834617 L336.43885139579703,479.16959743701693 M336.43885139579703,479.16959743701693 L336.32571031054067,373.91294571983724 M348.69448593220164,485.23268710302887 L348.68309865953324,472.103520556937 M348.68309865953324,472.103520556937 L360.4377162409378,477.6066648154913 M360.4377162409378,477.6066648154913 L373.9219626260458,481.5778964275605 M373.9219626260458,481.5778964275605 L388.5449013989722,483.8423625687856 M388.5449013989722,483.8423625687856 L403.66504636309446,484.30030491792974 M403.66504636309446,484.30030491792974 L418.6188354562694,482.9315393717457 M418.6188354562694,482.9315393717457 L432.75009762858707,479.79637936617615 M432.75009762858707,479.79637936617615 L445.43918595410355,475.0329136493914 M445.43918595410355,475.0329136493914 L456.1304052165552,468.85078004068134 M456.1304052165552,468.85078004068134 L464.35650427115536,461.52175586890945 M464.35650427115536,461.52175586890945 L469.75909124863335,453.3676068217205 M469.75909124863335,453.3676068217205 L472.1040925749626,444.74576596579453 M472.1040925749626,444.74576596579453 L471.2916379921626,436.0335343243051 M471.2916379921626,436.0335343243051 L467.3599734052795,427.61150731239456 M467.3599734052795,427.61150731239456 L460.4832960776661,419.8469766121046 M460.4832960776661,419.8469766121046 L450.9637638221806,413.07800205687573 M450.9637638221806,413.07800205687573 L439.21799079388813,407.5988710111979 M439.21799079388813,407.5988710111979 L425.7587488597017,403.64750052758245 M425.7587488597017,403.64750052758245 L411.1726509660867,401.39530923071976 M411.1726509660867,401.39530923071976 L396.0948131485282,400.9399330294797 M396.0948131485282,400.9399330294797 L381.18148216705947,402.3011122965626 M381.18148216705947,402.3011122965626 L367.08183348254124,405.4198453385048 M367.08183348254124,405.4198453385048 L354.4100477697082,410.16088380032176 M354.4100477697082,410.16088380032176 L343.7188284656275,416.3184677393108 M343.7188284656275,416.3184677393108 L335.47542674263343,423.62506468690367 M335.47542674263343,423.62506468690367 L330.04122628605865,431.76278682437 M330.04122628605865,431.76278682437 L327.6557669153805,440.3770414295176 M327.6557669153805,440.3770414295176 L328.4259144330554,449.0918392047538 M328.4259144330554,449.0918392047538 L332.32073818225626,457.5261410346073 M332.32073818225626,457.5261410346073 L339.17241103322,465.3105328110973 M339.17241103322,465.3105328110973 L348.68309865953324,472.103520556937" stroke="black"  stroke-width="4"  fill="red"/></svg>