<svg version="1.1" xmlns="http://www.w3.org/2000/svg" viewBox="-42.04982449426044 -7.41772498692159 84.10000199999999 14.835472983673851" fill="none" stroke="black" stroke-width="0.6%" vector-effect="non-scaling-stroke">
    <path d="M -41.04982 3.74204 A 41.05 2.67571 180 0 0 41.05018 3.74204" />
    <path d="M -29.0266 -5.63402 A 41.05 2.67571 360 0 1 41.05018 -3.74201 A 41.05 2.67571 360 0 1 -41.04982 -3.74201 A 41.05 2.67571 360 0 1 -29.0266 -5.63402 Z" />
    <path d="M -24.60318 -5.71442 A 39 2.54209 360 0 1 24.60344 -5.71443 L 5.91816 -4.49648" />
    <path d="M 30.2603 -5.3457 A 39 2.54209 360 0 1 39.00018 -3.74201 A 39 2.54209 360 0 1 30.26037 -2.13833 L 11.57504 -3.35627" />
    <path d="M 30.2603 -5.3457 L 30.2603 -2.13834" />
    <path d="M 24.60353 -1.76961 A 39 2.54209 360 0 1 -24.60308 -1.7696 L -5.91781 -2.98754 L -5.91781 -1.22936" />
    <path d="M -30.26002 -5.3457 L -30.26002 -2.13833" />
    <path d="M -30.25995 -2.13832 A 39 2.54209 360 0 1 -38.99982 -3.74201 A 39 2.54209 360 0 1 -30.26002 -5.3457 L -11.57469 -4.12776" />
    <path d="M -11.57467 -3.35627 L -30.25995 -2.13832" />
    <path d="M -5.91784 -4.49648 L -24.60318 -5.71442" />
    <path d="M -5.91784 -4.49648 A 13 0.84736 360 0 1 5.91816 -4.49648" />
    <path d="M 11.57502 -4.12776 L 30.2603 -5.3457" />
    <path d="M 11.57502 -4.12776 A 13 0.84736 360 0 1 13.00018 -3.74201 L 13.00018 -3.26338" />
    <path d="M 13.00018 -3.74201 A 13 0.84736 360 0 1 11.57504 -3.35627" />
    <path d="M 5.91819 -2.98755 L 24.60353 -1.76961" />
    <path d="M 5.91819 -2.98755 A 13 0.84736 360 0 1 -5.91781 -2.98754" />
    <path d="M -11.57467 -3.35627 A 13 0.84736 360 0 1 -12.99982 -3.74201 L -12.99982 -3.26337" />
    <path d="M -12.99982 -3.74201 A 13 0.84736 360 0 1 -11.57469 -4.12776" />
    <path d="M 22.45079 -5.04407 A 1.75 0.11407 360 0 1 19.46335 -5.12473 A 1.75 0.11407 360 0 1 22.96335 -5.12473 A 1.75 0.11407 360 0 1 22.45079 -5.04407 Z" />
    <path d="M 22.45085 -2.27864 A 1.75 0.11407 360 0 1 19.46341 -2.3593 A 1.75 0.11407 360 0 1 22.96341 -2.3593 A 1.75 0.11407 360 0 1 22.45085 -2.27864 Z" />
    <path d="M -19.97556 -2.27864 A 1.75 0.11407 360 0 1 -22.96299 -2.3593 A 1.75 0.11407 360 0 1 -19.46299 -2.3593 A 1.75 0.11407 360 0 1 -19.97556 -2.27864 Z" />
    <path d="M -19.97562 -5.04407 A 1.75 0.11407 360 0 1 -22.96306 -5.12473 A 1.75 0.11407 360 0 1 -19.46306 -5.12473 A 1.75 0.11407 360 0 1 -19.97562 -5.04407 Z" />
    <path d="M -7.77801 -4.24901 A 11 0.717 360 0 1 11.00018 -3.74201 A 11 0.717 360 0 1 -10.99982 -3.74201 A 11 0.717 360 0 1 -7.77801 -4.24901 Z" />
    <path d="M 5.91819 -2.98755 L 5.91819 -1.22936" />
    <path d="M -41.04982 -3.74201 L -41.04982 3.74204" />
    <path d="M 41.05018 -3.74201 L 41.05018 3.74204" />
</svg>