<svg viewBox="0 0 800 800" xmlns="http://www.w3.org/2000/svg"><path d="M637.6738900799168,314.90132589231507 L637.7264549706147,302.1063187774972 M637.7264549706147,302.1063187774972 L659.3652579446693,315.70665980093605 M659.3652579446693,315.70665980093605 L678.685906409224,330.4351732336884 M678.685906409224,330.4351732336884 L695.511866746509,346.1617132064134 M695.511866746509,346.1617132064134 L709.6881498751694,362.74685409034157 M709.6881498751694,362.74685409034157 L721.0828009995914,380.04309618337834 M721.0828009995914,380.04309618337834 L729.5882480078513,397.89602970843447 M729.5882480078513,397.89602970843447 L735.1224685847927,416.14570790373244 M735.1224685847927,416.14570790373244 L737.629802269847,434.6279929847724 M737.629802269847,434.6279929847724 L737.0817448536316,453.1760517231997 M737.0817448536316,453.1760517231997 L733.4774069323469,471.6218015306948 M733.4774069323469,471.6218015306948 L726.8436488348884,489.79741781813306 M726.8436488348884,489.79741781813306 L717.2351897671591,507.5369337080682 M717.2351897671591,507.5369337080682 L704.734170198326,524.6777595416488 M704.734170198326,524.6777595416488 L689.4496895786181,541.0622301724372 M689.4496895786181,541.0622301724372 L671.5168880834096,556.5391017530592 M671.5168880834096,556.5391017530592 L651.0959400067469,570.9650724542635 M651.0959400067469,570.9650724542635 L628.370581646614,584.2061421477948 M628.370581646614,584.2061421477948 L603.5465643970713,596.1389718047625 M603.5465643970713,596.1389718047625 L576.8497797033617,606.6521352205157 M576.8497797033617,606.6521352205157 L548.5241348956988,615.6472105161968 M548.5241348956988,615.6472105161968 L518.8293582844794,623.0398507139273 M518.8293582844794,623.0398507139273 L488.0384480062354,628.7605988830683 M488.0384480062354,628.7605988830683 L456.4350829729856,632.7556575395606 M456.4350829729856,632.7556575395606 L424.31086628848163,634.9873896008008 M424.31086628848163,634.9873896008008 L391.9625410379527,635.4347934100856 M391.9625410379527,635.4347934100856 L359.6889954522811,634.0936394749752 M359.6889954522811,634.0936394749752 L327.7883669505804,630.9765648048126 M327.7883669505804,630.9765648048126 L296.55520201040946,626.1129448631913 M296.55520201040946,626.1129448631913 L266.27749087962206,619.5485316763265 M266.27749087962206,619.5485316763265 L237.23393850764043,611.3450397927792 M237.23393850764043,611.3450397927792 L209.6911774999621,601.5794819067085 M209.6911774999621,601.5794819067085 L183.90135191640118,590.3433543399483 M183.90135191640118,590.3433543399483 L160.0996464154754,577.7416989313613 M160.0996464154754,577.7416989313613 L138.5021007691928,563.8920683466608 M138.5021007691928,563.8920683466608 L119.3037132112226,548.9232772872354 M119.3037132112226,548.9232772872354 L102.67659748373234,532.9741555813271 M102.67659748373234,532.9741555813271 L88.76855498425073,516.1921732277638 M88.76855498425073,516.1921732277638 L77.70184592061946,498.73194343818017 M77.70184592061946,498.73194343818017 L69.5721895580757,480.75380250129234 M69.5721895580757,480.75380250129234 L64.44802666747353,462.4222219375656 M64.44802666747353,462.4222219375656 L62.37019773015305,443.90429934207464 M62.37019773015305,443.90429934207464 L63.35168495044769,425.36815573754285 M63.35168495044769,425.36815573754285 L67.37771371044039,406.98144319707427 M67.37771371044039,406.98144319707427 L74.40618307214413,388.90985278034594 M74.40618307214413,388.90985278034594 L84.36810886183287,371.3155920602339 M84.36810886183287,371.3155920602339 L97.1685756855282,354.35600138078155 M97.1685756855282,354.35600138078155 L112.68766137985938,338.1821962314732 M112.68766137985938,338.1821962314732 L130.78174566077814,322.9378068121168 M130.78174566077814,322.9378068121168 L151.28482487635065,308.7577331037525 M151.28482487635065,308.7577331037525 L174.0101931016568,295.7670880550749 M174.0101931016568,295.7670880550749 L198.7520975293098,284.080159662943 M198.7520975293098,284.080159662943 L225.28761371684243,273.79948661600713 M225.28761371684243,273.79948661600713 L253.37866164616622,265.0150871345653 M253.37866164616622,265.0150871345653 L282.77399194133494,257.8036935535227 M282.77399194133494,257.8036935535227 L313.2114290444514,252.22821121123644 M313.2114290444514,252.22821121123644 L344.42006989282635,248.33718709843149 M344.42006989282635,248.33718709843149 L376.1225782015761,246.16449721819177 M376.1225782015761,246.16449721819177 L408.0374540070225,245.72900966273457 M408.0374540070225,245.72900966273457 L439.8814759138393,247.03452283799132 M439.8814759138393,247.03452283799132 L471.3720312200968,250.06968802707632 M471.3720312200968,250.06968802707632 L502.229395649368,254.80809096026763 M502.229395649368,254.80809096026763 L532.1791619114402,261.20850524359236 M532.1791619114402,261.20850524359236 L560.9544783058554,269.21514441729533 M560.9544783058554,269.21514441729533 L588.298406148464,278.7581113801567 M588.298406148464,278.7581113801567 L613.9659874236633,289.75395525303077 M613.9659874236633,289.75395525303077 L637.7264549706147,302.1063187774972 M637.6738900799168,314.90132589231507 L613.9186978861964,302.5461876639499 M613.9186978861964,302.5461876639499 L588.2568068995673,291.547871822592 M588.2568068995673,291.547871822592 L560.9189335023893,282.0027580008788 M560.9189335023893,282.0027580008788 L532.1499820748373,273.9943165093705 M532.1499820748373,273.9943165093705 L502.2068352706903,267.5924607634263 M502.2068352706903,267.5924607634263 L471.3562867865498,262.852990268963 M471.3562867865498,262.852990268963 L439.8726844129717,259.8171410758918 M439.8726844129717,259.8171410758918 L408.0356918761627,258.5113336468707 M408.0356918761627,258.5113336468707 L376.1278607601102,258.9469193611726 M376.1278607601102,258.9469193611726 L344.4323512219269,261.12009892178366 M344.4323512219269,261.12009892178366 L313.23060232491275,265.0119998109035 M313.23060232491275,265.0119998109035 L282.79989027571895,270.5887380868037 M282.79989027571895,270.5887380868037 L253.41105933065973,277.80175539624395 M253.41105933065973,277.80175539624395 L225.32622797351542,286.5881317034888 M225.32622797351542,286.5881317034888 L198.7965906847324,296.8711167843161 M198.7965906847324,296.8711167843161 L174.06017523004724,308.56067148615364 M174.06017523004724,308.56067148615364 L151.3398568602798,321.554233347479 M151.3398568602798,321.554233347479 L130.84134268639752,335.7374879634624 M130.84134268639752,335.7374879634624 L112.75129684666268,350.9852935829978 M112.75129684666268,350.9852935829978 L97.23568549326882,367.16271929386517 M97.23568549326882,367.16271929386517 L84.43809609114822,384.1261021045985 M84.43809609114822,384.1261021045985 L74.47842298841078,401.72429218121437 M74.47842298841078,401.72429218121437 L67.45155909881919,419.79991358954464 M67.45155909881919,419.79991358954464 L63.42647170513243,438.1907222450666 M63.42647170513243,438.1907222450666 L62.4452507103814,456.7309899792335 M62.4452507103814,456.7309899792335 L64.52266571219019,475.2530273617588 M64.52266571219019,475.2530273617588 L69.64573565880647,493.58867609980416 M69.64573565880647,493.58867609980416 L77.77362747973785,511.5708017438277 M77.77362747973785,511.5708017438277 L88.83791407700085,529.034896680719 M88.83791407700085,529.034896680719 L102.74289610544179,545.8205896097752 M102.74289610544179,545.8205896097752 L119.3663394111345,561.7732337182201 M119.3663394111345,561.7732337182201 L138.56047460399174,576.7453271047269 M138.56047460399174,576.7453271047269 L160.15322566193598,590.5980100376468 M160.15322566193598,590.5980100376468 L183.9496374875706,603.2024401815462 M183.9496374875706,603.2024401815462 L209.73371846024062,614.4410397461638 M209.73371846024062,614.4410397461638 L237.27033666253686,624.208744517503 M237.27033666253686,624.208744517503 L266.30740486322367,632.4140387415819 M266.30740486322367,632.4140387415819 L296.57835079505503,638.9798934095433 M296.57835079505503,638.9798934095433 L327.8045327802007,643.8445809262654 M327.8045327802007,643.8445809262654 L359.69802610711423,646.9623396093293 M359.69802610711423,646.9623396093293 L391.9643514360141,648.303787802051 M391.9643514360141,648.303787802051 L424.3054393655965,647.8562858326376 M424.3054393655965,647.8562858326376 L456.42246986624116,645.6240640846318 M456.42246986624116,645.6240640846318 L488.01876752777747,641.6281286404268 M488.01876752777747,641.6281286404268 L518.8027956653463,635.906124521478 M518.8027956653463,635.906124521478 L548.4909398511629,628.5118605746887 M548.4909398511629,628.5118605746887 L576.8102638323929,619.5148084285526 M576.8102638323929,619.5148084285526 L603.5010979619607,608.9993329509098 M603.5010979619607,608.9993329509098 L628.3195897512384,597.0638769537169 M628.3195897512384,597.0638769537169 L651.039898264599,583.8198904154988 M651.039898264599,583.8198904154988 L671.4563178031453,569.3907387742755 M671.4563178031453,569.3907387742755 L689.3851525352509,553.9104509619854 M689.3851525352509,553.9104509619854 L704.6662630755584,537.5223597403844 M704.6662630755584,537.5223597403844 L717.1645382989443,520.3777417498089 M717.1645382989443,520.3777417498089 L726.7709017607403,502.6342964823955 M726.7709017607403,502.6342964823955 L733.4032297949582,484.4546491881344 M733.4032297949582,484.4546491881344 L737.0068137476459,466.0048032568736 M737.0068137476459,466.0048032568736 L737.5547975524171,447.45262038704607 M737.5547975524171,447.45262038704607 L735.0480686728162,428.9662205242441 M735.0480686728162,428.9662205242441 L729.5151232681867,410.71247416666984 M729.5151232681867,410.71247416666984 L721.0116078026675,392.85555595268784 M721.0116078026675,392.85555595268784 L709.6195248831492,375.55544873582767 M709.6195248831492,375.55544873582767 L695.4464214340946,358.9665973040489 M695.4464214340946,358.9665973040489 L678.6242218887289,343.23653495932484 M678.6242218887289,343.23653495932484 L659.3078801263571,328.50471923159967 M659.3078801263571,328.50471923159967 L637.6738900799168,314.90132589231507 M627.2724044902554,308.13928452960465 L648.5657594694921,321.56826410186 M648.5657594694921,321.56826410186 L667.4951424801138,336.13977713760937 M667.4951424801138,336.13977713760937 L683.8765896542848,351.71673958176336 M683.8765896542848,351.71673958176336 L697.5496759349563,368.15210714569747 M697.5496759349563,368.15210714569747 L708.3790652928448,385.2902467119704 M708.3790652928448,385.2902467119704 L716.2559444916301,402.9682804495736 M716.2559444916301,402.9682804495736 L721.0993360368112,421.0176022105765 M721.0993360368112,421.0176022105765 L722.8569841592248,439.2654001999165 M722.8569841592248,439.2654001999165 L721.5061387029376,457.53632034371634 M721.5061387029376,457.53632034371634 L717.0539177076956,475.6541201365315 M717.0539177076956,475.6541201365315 L709.537545023749,493.4433564746241 M709.537545023749,493.4433564746241 L699.0241447361575,510.7311502703894 M699.0241447361575,510.7311502703894 L685.6103870251453,527.3488730721941 M685.6103870251453,527.3488730721941 L669.4216421457186,543.1338846657052 M669.4216421457186,543.1338846657052 L650.6109284781095,557.931145702514 M650.6109284781095,557.931145702514 L629.3576490898796,571.5948972082023 M629.3576490898796,571.5948972082023 L605.8658584306801,583.9901519710528 M605.8658584306801,583.9901519710528 L580.3623115525467,594.9941142943072 M580.3623115525467,594.9941142943072 L553.0942835114499,604.4975030184539 M553.0942835114499,604.4975030184539 L524.3271915707255,612.4057772821938 M524.3271915707255,612.4057772821938 L494.341809345908,618.6401099431555 M494.341809345908,618.6401099431555 L463.4315106753999,623.1382476525882 M463.4315106753999,623.1382476525882 L431.8992093426141,625.8552523471486 M431.8992093426141,625.8552523471486 L400.0543016803687,626.7639463016149 M400.0543016803687,626.7639463016149 L368.20939401812336,625.8552523471486 M368.20939401812336,625.8552523471486 L336.6770926853376,623.1382476525882 M336.6770926853376,623.1382476525882 L305.76679401482943,618.6401099431555 M305.76679401482943,618.6401099431555 L275.7814117900118,612.4057772821938 M275.7814117900118,612.4057772821938 L247.0143198492875,604.4975030184539 M247.0143198492875,604.4975030184539 L219.74629180819076,594.9941142943072 M219.74629180819076,594.9941142943072 L194.2427449300573,583.9901519710527 M194.2427449300573,583.9901519710527 L170.75095427085682,571.5948972082017 M170.75095427085682,571.5948972082017 L149.4976748826279,557.931145702514 M149.4976748826279,557.931145702514 L130.6869612150188,543.1338846657052 M130.6869612150188,543.1338846657052 L114.49821633559213,527.348873072194 M114.49821633559213,527.348873072194 L101.0844586245799,510.73115027038926 M101.0844586245799,510.73115027038926 L90.57105833698853,493.443356474624 M90.57105833698853,493.443356474624 L83.05468565304187,475.6541201365315 M83.05468565304187,475.6541201365315 L78.60246465779983,457.5363203437162 M78.60246465779983,457.5363203437162 L77.25161920151265,439.26540019991637 M77.25161920151265,439.26540019991637 L79.00926732392622,421.0176022105765 M79.00926732392622,421.0176022105765 L83.8526588691073,402.9682804495736 M83.8526588691073,402.9682804495736 L91.72953806789263,385.2902467119704 M91.72953806789263,385.2902467119704 L102.55892742578112,368.15210714569747 M102.55892742578112,368.15210714569747 L116.23201370645268,351.71673958176325 M116.23201370645268,351.71673958176325 L132.61346088062362,336.1397771376093 M132.61346088062362,336.1397771376093 L151.5428438912452,321.56826410186 M151.5428438912452,321.56826410186 L172.8361988704823,308.13928452960437 M172.8361988704823,308.13928452960437 L196.28793058802935,295.9788037556696 M196.28793058802935,295.9788037556696 L221.67282223779563,285.20059502825603 M221.67282223779563,285.20059502825603 L248.74815741524193,275.90526327905286 M248.74815741524193,275.90526327905286 L277.2559240980678,268.1793538510315 M277.2559240980678,268.1793538510315 L306.9253139408317,262.0946852445719 M306.9253139408317,262.0946852445719 L337.47509666539963,257.70775826700935 M337.47509666539963,257.70775826700935 L368.61621333360193,255.0592370471973 M368.61621333360193,255.0592370471973 L400.05430168036867,254.17366705402333 M400.05430168036867,254.17366705402333 L431.4923900271355,255.0592370471974 M431.4923900271355,255.0592370471974 L462.63350669533776,257.70775826700935 M462.63350669533776,257.70775826700935 L493.18328941990563,262.0946852445719 M493.18328941990563,262.0946852445719 L522.8526792626697,268.1793538510316 M522.8526792626697,268.1793538510316 L551.3604459454955,275.90526327905286 M551.3604459454955,275.90526327905286 L578.4357811229418,285.2005950282561 M578.4357811229418,285.2005950282561 L603.820672772708,295.9788037556696 M603.820672772708,295.9788037556696 L627.2724044902554,308.13928452960465 M178.96111555765813,330.82730563136425 L159.93521940445038,343.4305471740973 M159.93521940445038,343.4305471740973 L143.04889581572547,357.02134583027566 M143.04889581572547,357.02134583027566 L128.45582923844364,371.4798002249817 M128.45582923844364,371.4798002249817 L116.28994018923754,386.6780342069384 M116.28994018923754,386.6780342069384 L106.66392611070711,402.48115569337506 M106.66392611070711,402.48115569337506 L99.66827757518246,418.7484697274171 M99.66827757518246,418.7484697274171 L95.37029177741107,435.3346576518932 M95.37029177741107,435.3346576518932 L93.81325684841892,452.09105921952215 M93.81325684841892,452.09105921952215 L95.0159686609739,468.8669471409824 M95.0159686609739,468.8669471409824 L98.97237519771613,485.510893275077 M98.97237519771613,485.510893275077 L105.65147358391732,501.87216015485944 M105.65147358391732,501.87216015485944 L114.99735202337206,517.8020501274017 M114.99735202337206,517.8020501274017 L126.92959567682703,533.1553090126317 M126.92959567682703,533.1553090126317 L141.34391159549818,547.7914689188516 M141.34391159549818,547.7914689188516 L158.1128080475048,561.5762627027377 M158.1128080475048,561.5762627027377 L177.086825359503,574.3828113124175 M322.4308622341839,490.4870360033379 L177.086825359503,574.3828113124175 M322.63691977345826,413.7970075829372 L313.1733812681496,421.26978749338207 M313.1733812681496,421.26978749338207 L305.85162066532115,429.50827593906615 M305.85162066532115,429.50827593906615 L300.8540992609065,438.3098537863863 M300.8540992609065,438.3098537863863 L298.3063449241315,447.4576723079162 M298.3063449241315,447.4576723079162 L298.2736539330985,456.725934809769 M298.2736539330985,456.725934809769 L300.7592401249314,465.8854427834298 M300.7592401249314,465.8854427834298 L305.7039189832149,474.7092503571774 M305.7039189832149,474.7092503571774 L312.9873576169173,482.9783234037868 M312.9873576169173,482.9783234037868 L322.4308622341839,490.4870360033379 M178.96111555765813,330.82730563136425 L322.63691977345826,413.7970075829372 M610.0428160292216,324.47108949017706 L588.0645141869055,313.6021122053653 M588.0645141869055,313.6021122053653 L564.416162228959,303.9825986908213 M564.416162228959,303.9825986908213 L539.3093260958148,295.6966449121293 M539.3093260958148,295.6966449121293 L512.9678108527875,288.81659500860724 M512.9678108527875,288.81659500860724 L485.62591612419453,283.4023746672252 M485.62591612419453,283.4023746672252 L457.52630982669706,279.50110457603506 M457.52630982669706,279.50110457603506 L428.91801916532313,277.1467123574559 M428.91801916532313,277.1467123574559 L400.05430168036867,276.3596371473428 M400.05430168036867,276.3596371473428 L371.1905841954142,277.1467123574559 M371.1905841954142,277.1467123574559 L342.58229353404033,279.50110457603506 M342.58229353404033,279.50110457603506 L314.4826872365429,283.4023746672252 M314.4826872365429,283.4023746672252 L287.14079250795004,288.8165950086072 M287.14079250795004,288.8165950086072 L260.7992772649227,295.6966449121293 M260.7992772649227,295.6966449121293 L235.69244113177842,303.9825986908213 M235.69244113177842,303.9825986908213 L212.04408917383188,313.6021122053653 M212.04408917383188,313.6021122053653 L190.0657873315158,324.47108949017706 M333.74177517604636,407.4040302059209 L190.0657873315158,324.47108949017706 M466.3668281846911,407.4040302059209 L453.40255017246113,401.96393735645535 M453.40255017246113,401.96393735645535 L439.12575804967565,397.7630062149938 M439.12575804967565,397.7630062149938 L423.88812127652386,394.90400254684727 M423.88812127652386,394.90400254684727 L408.0645399725249,393.45681786748196 M408.0645399725249,393.45681786748196 L392.0440633882125,393.45681786748196 M392.0440633882125,393.45681786748196 L376.22048208421353,394.90400254684727 M376.22048208421353,394.90400254684727 L360.9828453110618,397.7630062149938 M360.9828453110618,397.7630062149938 L346.7060531882763,401.96393735645535 M346.7060531882763,401.96393735645535 L333.74177517604636,407.4040302059209 M610.0428160292216,324.47108949017706 L466.3668281846911,407.4040302059209 M623.0217780012345,574.3828113124175 L641.9957953132326,561.5762627027378 M641.9957953132326,561.5762627027378 L658.7646917652393,547.7914689188517 M658.7646917652393,547.7914689188517 L673.1790076839104,533.1553090126318 M673.1790076839104,533.1553090126318 L685.1112513373654,517.8020501274017 M685.1112513373654,517.8020501274017 L694.45712977682,501.87216015485944 M694.45712977682,501.87216015485944 L701.1362281630213,485.51089327507714 M701.1362281630213,485.51089327507714 L705.0926346997636,468.86694714098246 M705.0926346997636,468.86694714098246 L706.2953465123185,452.0910592195222 M706.2953465123185,452.0910592195222 L704.7383115833263,435.33465765189334 M704.7383115833263,435.33465765189334 L700.4403257855549,418.7484697274171 M700.4403257855549,418.7484697274171 L693.4446772500304,402.4811556933751 M693.4446772500304,402.4811556933751 L683.8186631714998,386.6780342069384 M683.8186631714998,386.6780342069384 L671.6527741222937,371.4798002249817 M671.6527741222937,371.4798002249817 L657.059707545012,357.02134583027566 M657.059707545012,357.02134583027566 L640.173383956287,343.4305471740973 M640.173383956287,343.4305471740973 L621.1474878030793,330.82730563136425 M477.4716835872792,413.79700758293734 L621.1474878030793,330.82730563136425 M477.6777411265535,490.4870360033379 L487.12124574382017,482.9783234037868 M487.12124574382017,482.9783234037868 L494.4046843775225,474.7092503571774 M494.4046843775225,474.7092503571774 L499.34936323580604,465.88544278342994 M499.34936323580604,465.88544278342994 L501.8349494276389,456.725934809769 M501.8349494276389,456.725934809769 L501.80225843660594,447.45767230791625 M501.80225843660594,447.45767230791625 L499.25450409983097,438.3098537863864 M499.25450409983097,438.3098537863864 L494.2569826954163,429.5082759390662 M494.2569826954163,429.5082759390662 L486.9352220925878,421.26978749338207 M486.9352220925878,421.26978749338207 L477.4716835872792,413.79700758293734 M623.0217780012345,574.3828113124175 L477.6777411265535,490.4870360033379 M188.19149352473207,580.8501261020015 L210.2216614662312,591.9224125363487 M210.2216614662312,591.9224125363487 L233.98743015014318,601.7359257662108 M233.98743015014318,601.7359257662108 L259.27301034676645,610.1995920784273 M259.27301034676645,610.1995920784273 L285.8481691463871,617.2346743259551 M285.8481691463871,617.2346743259551 L313.4702026930814,622.7756706557063 M313.4702026930814,622.7756706557063 L341.8863668838523,626.7708999286806 M341.8863668838523,626.7708999286806 L370.83624801100126,629.1830543318198 M370.83624801100126,629.1830543318198 L400.0543016803687,629.9896172582423 M400.0543016803687,629.9896172582423 L429.2723553497362,629.1830543318198 M429.2723553497362,629.1830543318198 L458.2222364768852,626.7708999286806 M458.2222364768852,626.7708999286806 L486.638400667656,622.7756706557063 M486.638400667656,622.7756706557063 L514.2604342143504,617.2346743259551 M514.2604342143504,617.2346743259551 L540.835593013971,610.1995920784273 M540.835593013971,610.1995920784273 L566.1211732105942,601.7359257662108 M566.1211732105942,601.7359257662108 L589.8869418945062,591.9224125363487 M589.8869418945062,591.9224125363487 L611.9171098360054,580.8501261020015 M466.57288585585763,496.9169474444264 L611.9171098360054,580.8501261020015 M333.53571750487976,496.91694744442634 L346.52002918629285,502.39297309695604 M346.52002918629285,502.39297309695604 L360.8351431938858,506.62448896698453 M360.8351431938858,506.62448896698453 L376.125622595733,509.5057225048004 M376.125622595733,509.5057225048004 L392.01137226245146,510.9645967432906 M392.01137226245146,510.9645967432906 L408.09723109828593,510.9645967432906 M408.09723109828593,510.9645967432906 L423.98298076500447,509.5057225048004 M423.98298076500447,509.5057225048004 L439.27346016685163,506.62448896698453 M439.27346016685163,506.62448896698453 L453.5885741744446,502.39297309695604 M453.5885741744446,502.39297309695604 L466.57288585585763,496.9169474444264 M188.19149352473207,580.8501261020015 L333.53571750487976,496.91694744442634 M368.9412839495137,470.05416838173295 L377.28822487796583,473.8338926606495 M377.28822487796583,473.8338926606495 L386.9611772326023,476.349764758067 M386.9611772326023,476.349764758067 L397.3969383718912,477.45488580966094 M397.3969383718912,477.45488580966094 L407.98753722838285,477.0847035110974 M407.98753722838285,477.0847035110974 L418.1159085268262,475.26084339072315 M418.1159085268262,475.26084339072315 L427.1921247676189,472.0898213693707 M427.1921247676189,472.0898213693707 L434.6879751184758,467.7567371846968 M434.6879751184758,467.7567371846968 L440.1678293079781,462.5143294563238 M440.1678293079781,462.5143294563238 L443.31395563554986,456.6680764877044 M443.31395563554986,456.6680764877044 L443.9448189246449,450.5582588262726 M443.9448189246449,450.5582588262726 L442.025325406512,444.5400677349272 M442.025325406512,444.5400677349272 L437.6685110363508,438.9629330965153 M437.6685110363508,438.9629330965153 L431.1286250662987,434.1502902477698 M431.1286250662987,434.1502902477698 L422.7861163373649,430.3809479785078 M422.7861163373649,430.3809479785078 L413.1254452258602,427.8730795014555 M413.1254452258602,427.8730795014555 L402.70700089701194,426.77175014646764 M402.70700089701194,426.77175014646764 L392.13478734334564,427.14064357843677 M392.13478734334564,427.14064357843677 L382.0216579775831,428.9584295381461 M382.0216579775831,428.9584295381461 L372.95404855644017,432.11998362205605 M372.95404855644017,432.11998362205605 L365.45819819862135,436.44237508662326 M365.45819819862135,436.44237508662326 L359.9697371815596,441.67531488573235 M359.9697371815596,441.67531488573235 L356.8083689262443,447.5154937006822 M356.8083689262443,447.5154937006822 L356.15912034784355,453.624022497986 M356.15912034784355,453.624022497986 L358.06129706595794,459.64600527766333 M358.06129706595794,459.64600527766333 L362.40583019130895,465.23114352567273 M362.40583019130895,465.23114352567273 L368.9412839495137,470.05416838173295 M627.2724044902554,308.13928452960465 L627.6753136506962,205.5641753743413 M627.6753136506962,205.5641753743413 L649.0066330759356,218.96891013591028 M649.0066330759356,218.96891013591028 L667.9698390422567,233.51414077681517 M667.9698390422567,233.51414077681517 L684.3806361875262,249.06303626964421 M684.3806361875262,249.06303626964421 L698.0783073706439,265.46882262732504 M698.0783073706439,265.46882262732504 L708.9272668799573,282.57615158006035 M708.9272668799573,282.57615158006035 L716.8184970679146,300.2224420424733 M716.8184970679146,300.2224420424733 L721.6708640328782,318.2393935917527 M721.6708640328782,318.2393935917527 L723.4320056376997,336.45450625518095 M723.4320056376997,336.45450625518095 L722.0791172985394,354.69274079757855 M722.0791172985394,354.69274079757855 L717.6193157445725,372.77816956317116 M717.6193157445725,372.77816956317116 L710.0898775951266,390.5356613030066 M710.0898775951266,390.5356613030066 L699.5580339446961,407.7926427070909 M699.5580339446961,407.7926427070909 L686.1206160843666,424.38078213969914 M686.1206160843666,424.38078213969914 L669.9032084133697,440.1377243192041 M669.9032084133697,440.1377243192041 L651.0590949817389,454.9087002950401 M651.0590949817389,454.9087002950401 L629.7679940839995,468.5482042240234 M629.7679940839995,468.5482042240234 L606.2343220465787,480.92148239048066 M606.2343220465787,480.92148239048066 L580.685239047048,491.9059507341049 M580.685239047048,491.9059507341049 L553.3684645948481,501.3925158245522 M553.3684645948481,501.3925158245522 L524.5498953530102,509.28679874003933 M524.5498953530102,509.28679874003933 L494.51081406610126,515.5101070330879 M494.51081406610126,515.5101070330879 L463.5451281742903,520.000293519888 M463.5451281742903,520.000293519888 L431.95630365375774,522.7124966558106 M431.95630365375774,522.7124966558106 L400.0543016803687,523.6195849467491 M400.0543016803687,523.6195849467491 L368.1522997069797,522.7124966558105 M368.1522997069797,522.7124966558105 L336.56347518644714,520.000293519888 M336.56347518644714,520.000293519888 L305.5977892946362,515.5101070330879 M305.5977892946362,515.5101070330879 L275.55870800772715,509.28679874003933 M275.55870800772715,509.28679874003933 L246.74013876588927,501.3925158245522 M246.74013876588927,501.3925158245522 L219.4233643136895,491.9059507341049 M219.4233643136895,491.9059507341049 L193.87428131415874,480.92148239048055 M193.87428131415874,480.92148239048055 L170.340609276737,468.54820422402287 M170.340609276737,468.54820422402287 L149.04950837899858,454.90870029504 M149.04950837899858,454.90870029504 L130.20539494736772,440.1377243192041 M130.20539494736772,440.1377243192041 L113.9879872763708,424.3807821396991 M113.9879872763708,424.3807821396991 L100.55056941604118,407.7926427070908 M100.55056941604118,407.7926427070908 L90.01872576561084,390.5356613030065 M90.01872576561084,390.5356613030065 L82.48928761616503,372.77816956317116 M82.48928761616503,372.77816956317116 L78.02948606219803,354.6927407975785 M78.02948606219803,354.6927407975785 L76.67659772303773,336.45450625518095 M76.67659772303773,336.45450625518095 L78.43773932785928,318.2393935917527 M78.43773932785928,318.2393935917527 L83.29010629282277,300.2224420424733 M83.29010629282277,300.2224420424733 L91.18133648078003,282.5761515800603 M91.18133648078003,282.5761515800603 L102.03029599009352,265.46882262732504 M102.03029599009352,265.46882262732504 L115.72796717321114,249.06303626964404 M115.72796717321114,249.06303626964404 L132.13876431848075,233.51414077681517 M132.13876431848075,233.51414077681517 L151.1019702848018,218.96891013591028 M151.1019702848018,218.96891013591028 L172.43328971004152,205.56417537434112 M172.43328971004152,205.56417537434112 L195.9267599882692,193.42566843757217 M195.9267599882692,193.42566843757217 L221.35676466859837,182.6669510430027 M221.35676466859837,182.6669510430027 L248.4801591450004,173.3884404937723 M248.4801591450004,173.3884404937723 L277.0384783994721,165.67652028521005 M277.0384783994721,165.67652028521005 L306.76044049208036,159.60287430266726 M306.76044049208036,159.60287430266726 L337.3643248468972,155.22389725362115 M337.3643248468972,155.22389725362115 L368.5605697409457,152.58017679629222 M368.5605697409457,152.58017679629222 L400.05430168036867,151.696212197949 M400.05430168036867,151.696212197949 L431.5480336197917,152.58017679629222 M431.5480336197917,152.58017679629222 L462.7442785138402,155.22389725362115 M462.7442785138402,155.22389725362115 L493.348162868657,159.60287430266726 M493.348162868657,159.60287430266726 L523.0701249612653,165.67652028521005 M523.0701249612653,165.67652028521005 L551.6284442157371,173.3884404937723 M551.6284442157371,173.3884404937723 L578.7518386921391,182.6669510430028 M578.7518386921391,182.6669510430028 L604.1818433724682,193.42566843757217 M604.1818433724682,193.42566843757217 L627.6753136506962,205.5641753743413 M182.1289824675052,461.7694624280438 L204.8297097666205,473.6807014758215 M204.8297097666205,473.6807014758215 L229.4983336250722,484.2303691130941 M229.4983336250722,484.2303691130941 L255.8880364663065,493.310532224193 M255.8880364663065,493.310532224193 L283.73387302175706,500.82810027307943 M283.73387302175706,500.82810027307943 L312.7555257601741,506.70584680819877 M312.7555257601741,506.70584680819877 L342.660152472705,510.8833395359924 M342.660152472705,510.8833395359924 L373.1455420939281,513.3175567176975 M373.1455420939281,513.3175567176975 L403.90328974751696,513.9834439562304 M403.90328974751696,513.9834439562304 L434.62206366305026,512.8741225202898 M434.62206366305026,512.8741225202898 L464.9909838952922,510.0010128633105 M464.9909838952922,510.0010128633105 L494.70290369715923,505.3937461567639 M494.70290369715923,505.3937461567639 L523.457618197846,499.0997072559112 M523.457618197846,499.0997072559112 L550.9651553734265,491.1836220732834 M550.9651553734265,491.1836220732834 L576.9487428251036,481.72674211902154 M576.9487428251036,481.72674211902154 L601.1477682319496,470.8260105444096 M601.1477682319496,470.8260105444096 L623.3203313698413,458.5928753005828 M623.3203313698413,458.5928753005828 L643.2458931547749,445.15217720067943 M643.2458931547749,445.15217720067943 L660.7272711240655,430.6406629469534 M660.7272711240655,430.6406629469534 L675.5927052138694,415.20557570897364 M675.5927052138694,415.20557570897364 L687.6974599379979,399.0030720204767 M687.6974599379979,399.0030720204767 L696.9250516836917,382.19649714371064 M696.9250516836917,382.19649714371064 L703.1883850601771,364.95474602283326 M703.1883850601771,364.95474602283326 L706.4303187500504,347.4504424714703 M706.4303187500504,347.4504424714703 L706.6240991660992,329.8582465072803 M706.6240991660992,329.8582465072803 L703.7733564928857,312.35303223021793 M703.7733564928857,312.35303223021793 L697.9119159898834,295.1081789354927 M697.9119159898834,295.1081789354927 L689.1031801304798,278.2938530423095 M689.1031801304798,278.2938530423095 L677.4393276659586,262.0754255227839 M677.4393276659586,262.0754255227839 L663.0401895212115,246.61182752047858 M663.0401895212115,246.61182752047858 L646.0519692960396,232.05406404269775 M646.0519692960396,232.05406404269775 L626.6455739777996,218.54389935094423 M626.6455739777996,218.54389935094423 L605.0149473572329,206.21245868842246 M605.0149473572329,206.21245868842246 L581.3750168128222,195.17911915193844 M581.3750168128222,195.17911915193844 L555.9595544621993,185.55044387483093 M555.9595544621993,185.55044387483093 L529.0190238973018,177.41919435172883 M529.0190238973018,177.41919435172883 L500.8179939801946,170.86358679636476 M500.8179939801946,170.86358679636476 L471.6327736424551,165.94656026644108 M471.6327736424551,165.94656026644108 L441.74882691807136,162.71527332794244 M441.74882691807136,162.71527332794244 L411.4579927094611,161.20068685603127 M411.4579927094611,161.20068685603127 L381.0558879439339,161.41731863745602 M381.0558879439339,161.41731863745602 L350.8391462436608,163.36308312545185 M350.8391462436608,163.36308312545185 L321.1027345636626,167.01934789764073 M321.1027345636626,167.01934789764073 L292.13712589998056,172.35106229343407 M292.13712589998056,172.35106229343407 L264.2257338821947,179.30709525708428 M264.2257338821947,179.30709525708428 L237.64215142776933,187.82060698028891 M237.64215142776933,187.82060698028891 L212.6477110824893,197.80969925629134 M212.6477110824893,197.80969925629134 L189.48889227601495,209.17807379860534 M189.48889227601495,209.17807379860534 L168.39495014881476,221.81585985651387 M168.39495014881476,221.81585985651387 L149.5758050329102,235.6006649230836 M149.5758050329102,235.6006649230836 L133.21975036926278,250.39855146338627 M133.21975036926278,250.39855146338627 L119.4917408816471,266.0653553297482 M119.4917408816471,266.0653553297482 L108.53148314319725,282.44792906776 M108.53148314319725,282.44792906776 L100.4520535784145,299.3856045328542 M100.4520535784145,299.3856045328542 L95.33846899280712,316.71165644948053 M95.33846899280712,316.71165644948053 L93.24686725123036,334.2549568523094 M93.24686725123036,334.2549568523094 L94.20353640279956,351.84159895685775 M94.20353640279956,351.84159895685775 L98.20450660760503,369.29658691477255 M98.20450660760503,369.29658691477255 L105.21544601466002,386.44561424058173 M105.21544601466002,386.44561424058173 L115.17165532372474,403.1168178637638 M115.17165532372474,403.1168178637638 L127.97862889864604,419.14252445864895 M127.97862889864604,419.14252445864895 L143.51270116240556,434.3610339315254 M143.51270116240556,434.3610339315254 L161.62223459333745,448.61827594339417 M161.62223459333745,448.61827594339417 L182.1289824675052,461.7694624280438 M182.1289824675052,461.7694624280438 L182.20206272210376,481.1165320209338 M182.20206272210376,481.1165320209338 L180.35608781325348,480.0357628430318 M180.35608781325348,480.0357628430318 L178.5263518755134,478.94596745398525 M178.5263518755134,478.94596745398525 L176.71301208666526,477.84721446936993 M176.71301208666526,477.84721446936993 L177.086825359503,574.3828113124175 M178.59356568463696,234.6996554359186 L178.96111555765813,330.82730563136425 M178.59356568463696,234.6996554359186 L182.23884317537272,232.54813219232835 M182.23884317537272,232.54813219232835 L185.946940795824,230.43277223779617 M185.946940795824,230.43277223779617 L189.71677545450936,228.35417748818844 M189.71677545450936,228.35417748818844 L190.0657873315158,324.47108949017706 M610.3918279062281,228.35417748818853 L610.0428160292216,324.47108949017706 M610.3918279062281,228.35417748818853 L614.1616625649135,230.43277223779617 M614.1616625649135,230.43277223779617 L617.8697601853647,232.54813219232835 M617.8697601853647,232.54813219232835 L621.5150376761004,234.6996554359186 M621.5150376761004,234.6996554359186 L621.1474878030793,330.82730563136425 M623.3955912740722,477.84721446936993 L623.0217780012345,574.3828113124175 M623.3955912740722,477.84721446936993 L619.752515547484,480.03576284303193 M619.752515547484,480.03576284303193 L616.0444191398511,482.18816980607517 M616.0444191398511,482.18816980607517 L612.2723851369869,484.30379014949 M612.2723851369869,484.30379014949 L611.9171098360054,580.8501261020015 M187.8362182237505,484.30379014949 L188.19149352473207,580.8501261020015 M187.8362182237505,484.30379014949 L185.9422742508301,483.25062027044766 M185.9422742508301,483.25062027044766 L184.06418422088632,482.18816980607517 M184.06418422088632,482.18816980607517 L182.20206272210376,481.1165320209338 M333.4244952912498,400.5103598690757 L329.5268086855296,398.4811531040667 M329.5268086855296,398.4811531040667 L325.8157519213522,396.3395321450121 M325.8157519213522,396.3395321450121 L322.3011011070875,394.09118776710085 M187.8362182237505,484.30379014949 L333.4244952912498,400.5103598690757 M322.3011011070875,394.09118776710085 L176.71301208666526,477.84721446936993 M322.3011011070875,394.09118776710085 L322.4308622341839,490.4870360033379 M322.50784722701644,317.52961647176716 L322.63691977345826,413.7970075829372 M178.59356568463696,234.6996554359186 L322.50784722701644,317.52961647176716 M322.50784722701644,317.52961647176716 L326.0246984933191,315.2935616567735 M326.0246984933191,315.2935616567735 L329.73575530238344,313.16429531784297 M329.73575530238344,313.16429531784297 L333.63124154395393,311.1473781252234 M333.63124154395393,311.1473781252234 L189.71677545450936,228.35417748818844 M333.63124154395393,311.1473781252234 L333.74177517604636,407.4040302059209 M466.4773618167835,311.14737812522344 L466.3668281846911,407.4040302059209 M610.3918279062281,228.35417748818853 L466.4773618167835,311.14737812522344 M472.25205413353007,314.2152247587604 L474.08390486741837,315.2935616567735 M474.08390486741837,315.2935616567735 L475.8671988776959,316.3985986157512 M475.8671988776959,316.3985986157512 L477.600756133721,317.52961647176716 M466.4773618167835,311.14737812522344 L468.4475297014099,312.14145633339433 M468.4475297014099,312.14145633339433 L470.37284805835395,313.16429531784297 M470.37284805835395,313.16429531784297 L472.25205413353007,314.2152247587604 M477.600756133721,317.52961647176716 L621.5150376761004,234.6996554359186 M477.600756133721,317.52961647176716 L477.4716835872792,413.79700758293734 M477.80750225364994,394.09118776710085 L477.6777411265535,490.4870360033379 M623.3955912740722,477.84721446936993 L477.80750225364994,394.09118776710085 M477.80750225364994,394.09118776710085 L474.29285143938523,396.3395321450121 M474.29285143938523,396.3395321450121 L470.58179467520785,398.4811531040667 M470.58179467520785,398.4811531040667 L466.6841080694876,400.5103598690757 M466.6841080694876,400.5103598690757 L612.2723851369869,484.30379014949 M466.6841080694876,400.5103598690757 L466.57288585585763,496.9169474444264 M333.4244952912498,400.5103598690757 L333.53571750487976,496.91694744442634 M472.2761334284005,294.92433567693706 L483.74295077084565,302.75771421148016 M483.74295077084565,302.75771421148016 L492.675803016169,311.61862427539876 M492.675803016169,311.61862427539876 L498.8016363444316,321.2394677129036 M498.8016363444316,321.2394677129036 L501.9318273903299,331.32913466404455 M501.9318273903299,331.32913466404455 L501.96818264263015,341.5817068481117 M501.96818264263015,341.5817068481117 L498.90631714869767,351.6856740679542 M498.90631714869767,351.6856740679542 L492.8361833927944,361.3333932397222 M492.8361833927944,361.3333932397222 L483.9396865386074,370.2305129155099 M483.9396865386074,370.2305129155099 L472.48549541139175,378.1050675609346 M472.48549541139175,378.1050675609346 L458.8210550065289,384.7159299480258 M458.8210550065289,384.7159299480258 L443.3621179143375,389.86037028698195 M443.3621179143375,389.86037028698195 L426.58003186265836,393.38043234272317 M426.58003186265836,393.38043234272317 L408.9872344625968,395.1679466148654 M408.9872344625968,395.1679466148654 L391.12136889814064,395.1679466148654 M391.12136889814064,395.1679466148654 L373.5285714980791,393.38043234272317 M373.5285714980791,393.38043234272317 L356.74648544639996,389.8603702869819 M356.74648544639996,389.8603702869819 L341.2875483542086,384.7159299480258 M341.2875483542086,384.7159299480258 L327.62310794934547,378.1050675609345 M327.62310794934547,378.1050675609345 L316.16891682213,370.2305129155098 M316.16891682213,370.2305129155098 L307.27241996794305,361.3333932397222 M307.27241996794305,361.3333932397222 L301.2022862120398,351.6856740679542 M301.2022862120398,351.6856740679542 L298.14042071810724,341.5817068481117 M298.14042071810724,341.5817068481117 L298.17677597040756,331.32913466404455 M298.17677597040756,331.32913466404455 L301.3069670163058,321.2394677129036 M301.3069670163058,321.2394677129036 L307.43280034456836,311.61862427539876 M307.43280034456836,311.61862427539876 L316.3656525898918,302.75771421148016 M316.3656525898918,302.75771421148016 L327.83246993233706,294.92433567693683 M327.83246993233706,294.92433567693683 L341.48428440387795,288.35464945707434 M341.48428440387795,288.35464945707434 L356.9068662549328,283.2464188927818 M356.9068662549328,283.2464188927818 L373.6332526821583,279.7532327335322 M373.6332526821583,279.7532327335322 L391.1577243004409,277.9800188571661 M391.1577243004409,277.9800188571661 L408.95087906029653,277.9800188571661 M408.95087906029653,277.9800188571661 L426.47535067857916,279.7532327335322 M426.47535067857916,279.7532327335322 L443.2017371058046,283.2464188927818 M443.2017371058046,283.2464188927818 L458.6243189568595,288.35464945707434 M458.6243189568595,288.35464945707434 L472.2761334284005,294.92433567693706 M472.2761334284005,294.92433567693706 L472.25205413353007,314.2152247587604 M368.9412839495137,470.05416838173295 L368.9343641021469,457.2245173832381 M368.9343641021469,457.2245173832381 L377.2831608109483,461.00340231920524 M377.2831608109483,461.00340231920524 L386.9582645551563,463.5187158524954 M386.9582645551563,463.5187158524954 L397.3963471960801,464.62359158023816 M397.3963471960801,464.62359158023816 L407.98930208936724,464.2534914556873 M407.98930208936724,464.2534914556873 L418.1199263340955,462.43003623126555 M418.1199263340955,462.43003623126555 L427.19816091749567,459.2597182970694 M427.19816091749567,459.2597182970694 L434.69567738186726,454.92759647187404 M434.69567738186726,454.92759647187404 L440.1767486284666,449.6863534464985 M440.1767486284666,449.6863534464985 L443.3235725544782,443.84139983617894 M443.3235725544782,443.84139983617894 L443.95457402242874,437.73294067423853 M443.95457402242874,437.73294067423853 L442.03465193164953,431.71608827167597 M442.03465193164953,431.71608827167597 L437.676867802316,426.1401947113759 M437.676867802316,426.1401947113759 L431.135527710438,421.32862320374534 M431.135527710438,421.32862320374534 L422.79116517167625,417.56012027589816 M422.79116517167625,417.56012027589816 L413.12834813075204,415.05281036179144 M413.12834813075204,415.05281036179144 L402.70758999920065,413.951726330095 M402.70758999920065,413.951726330095 L392.1330285827151,414.3205375882417 M392.1330285827151,414.3205375882417 L382.0176530471225,416.13791865289517 M382.0176530471225,416.13791865289517 L372.9480291099006,419.29876865104757 M372.9480291099006,419.29876865104757 L365.4505126385608,423.6201977577176 M365.4505126385608,423.6201977577176 L359.9608307378665,428.851972855231 M359.9608307378665,428.851972855231 L356.7987581076612,434.690852312781 M356.7987581076612,434.690852312781 L356.1493631764404,440.79802261078436 M356.1493631764404,440.79802261078436 L358.0519607682786,446.818666701117 M358.0519607682786,446.818666701117 L362.39745819264857,452.4025638698291 M362.39745819264857,452.4025638698291 L368.9343641021469,457.2245173832381 M338.05401835467757,475.0453676515368 L327.7351828477957,467.85447226513764 M327.7351828477957,467.85447226513764 L319.8863201371209,459.69314466221107 M319.8863201371209,459.69314466221107 L314.7732002493095,450.8407060215196 M314.7732002493095,450.8407060215196 L312.56767257343705,441.59959978241693 M312.56767257343705,441.59959978241693 L313.3420914227549,432.28496991335265 M313.3420914227549,432.28496991335265 L317.0672539743999,423.21385607787363 M317.0672539743999,423.21385607787363 L323.6137606868016,414.69442651288705 M323.6137606868016,414.69442651288705 L332.75676569190125,407.01558398462305 M332.75676569190125,407.01558398462305 L344.18390065000665,400.437291021032 M344.18390065000665,400.437291021032 L357.5060322887496,395.1819254106471 M357.5060322887496,395.1819254106471 L372.27052226413707,391.4269221729553 M372.27052226413707,391.4269221729553 L387.9764987962357,389.2989457392268 M387.9764987962357,389.2989457392268 L404.0916569763456,388.8697328834984 M404.0916569763456,388.8697328834984 L420.07004364807136,390.15374689450357 M420.07004364807136,390.15374689450357 L435.37025673717653,393.10771486094166 M435.37025673717653,393.10771486094166 L449.47353855243546,397.63202356684724 M449.47353855243546,397.63202356684724 L461.90111811174484,403.5739975126641 M461.90111811174484,403.5739975126641 L472.23031697357294,410.7328995844839 M472.23031697357294,410.7328995844839 L480.1088699333122,418.86655477771694 M480.1088699333122,418.86655477771694 L485.26699711220647,427.6993792063435 M485.26699711220647,427.6993792063435 L487.52677067211295,436.9315784184044 M487.52677067211295,436.9315784184044 L486.8085100879163,446.24921138470563 M486.8085100879163,446.24921138470563 L483.13383374147674,455.33483285695536 M483.13383374147674,455.33483285695536 L476.62532275546073,463.8783152783614 M476.62532275546073,463.8783152783614 L467.5026914652606,471.587507430603 M467.5026914652606,471.587507430603 L456.07555659228285,478.1983479136053 M456.07555659228285,478.1983479136053 L442.7330513644608,483.4840632063794 M442.7330513644608,483.4840632063794 L427.9305656783967,487.2631194002188 M427.9305656783967,487.2631194002188 L412.17410283849085,489.40560355060177 M412.17410283849085,489.40560355060177 L396.0027862259032,489.83781951957104 M396.0027862259032,489.83781951957104 L379.9701535253894,488.544898442524 M379.9701535253894,488.544898442524 L364.62493309860866,485.57131615560564 M364.62493309860866,485.57131615560564 L350.4919611101747,481.0193349504074 M350.4919611101747,481.0193349504074 L338.05401835467757,475.0453676515368 M338.05401835467757,475.0453676515368 L337.9434374695698,372.17050407750037 M337.9434374695698,372.17050407750037 L327.60622993698615,364.99245234075676 M327.60622993698615,364.99245234075676 L319.74341233083555,356.8457094008788 M319.74341233083555,356.8457094008788 L314.62122448820804,348.00909975674176 M314.62122448820804,348.00909975674176 L312.4118164649076,338.78452779824624 M312.4118164649076,338.78452779824624 L313.1876649093386,329.486574416139 M313.1876649093386,329.486574416139 L316.9195082166268,320.43171137107544 M316.9195082166268,320.43171137107544 L323.4777102816237,311.92755350109627 M323.4777102816237,311.92755350109627 L332.6370201672905,304.26248352400137 M332.6370201672905,304.26248352400137 L344.0845106818383,297.6959949803376 M344.0845106818383,297.6959949803376 L357.43035540071634,292.45006369702105 M357.43035540071634,292.45006369702105 L372.2211121397478,288.7018034520719 M372.2211121397478,288.7018034520719 L387.95502146058243,286.5776490731321 M387.95502146058243,286.5776490731321 L404.0988362903796,286.14920719354575 M404.0988362903796,286.14920719354575 L420.10563767123386,287.43091485443017 M420.10563767123386,287.43091485443017 L435.43306560698727,290.37957766594286 M435.43306560698727,290.37957766594286 L449.56144372226254,294.8957630623015 M449.56144372226254,294.8957630623015 L462.01115175545635,300.8270721423762 M462.01115175545635,300.8270721423762 L472.3587595975389,307.973130945486 M472.3587595975389,307.973130945486 L480.25137332414886,316.09220180526864 M480.25137332414886,316.09220180526864 L485.41872894745643,324.90919747101765 M485.41872894745643,324.90919747101765 L487.68257628773733,334.1248625086023 M487.68257628773733,334.1248625086023 L486.9630863606162,343.4258189521621 M486.9630863606162,343.4258189521621 L483.2819092850685,352.49518946114256 M483.2819092850685,352.49518946114256 L476.76183843391084,361.02339990101615 M476.76183843391084,361.02339990101615 L467.6229749131751,368.71881914065654 M467.6229749131751,368.71881914065654 L456.17548448436327,375.3178548162516 M456.17548448436327,375.3178548162516 L442.8091935272732,380.5941354207607 M442.8091935272732,380.5941354207607 L427.9803055902241,384.3664483356801 M427.9803055902241,384.3664483356801 L412.19572993431404,386.505110258699 M412.19572993431404,386.505110258699 L395.9955564186548,386.93655521580615 M395.9955564186548,386.93655521580615 L379.9343155750318,385.64594059482687 M379.9343155750318,385.64594059482687 L364.5617198116729,382.6776636961749 M364.5617198116729,382.6776636961749 L350.4035456523698,378.13380612980933 M350.4035456523698,378.13380612980933 L337.9434374695698,372.17050407750037" stroke="black"  stroke-width="4"  fill="red"/></svg>