<svg viewBox="0 0 800 800" xmlns="http://www.w3.org/2000/svg"><path d="M638.3753317412995,301.8405949722918 L638.4122394345604,292.85676200702744 M638.4122394345604,292.85676200702744 L660.1134769954172,306.49360001743077 M660.1134769954172,306.49360001743077 L679.4898756956591,321.26163937811964 M679.4898756956591,321.26163937811964 L696.3643923742015,337.0303852817622 M696.3643923742015,337.0303852817622 L710.581590429367,353.66003822132797 M710.581590429367,353.66003822132797 L722.009133878119,371.00270289825414 M722.009133878119,371.00270289825414 L730.5391396605194,388.90355533245804 M730.5391396605194,388.90355533245804 L736.0893481404578,407.2022196274747 M736.0893481404578,407.2022196274747 L738.6039375299968,425.73411753682456 M738.6039375299968,425.73411753682456 L738.054320604178,444.3319680515902 M738.054320604178,444.3319680515902 L734.4396046062134,462.8272373631112 M734.4396046062134,462.8272373631112 L727.7867265923369,481.05165026850585 M727.7867265923369,481.05165026850585 L718.1505629192102,498.8387941805869 M718.1505629192102,498.8387941805869 L705.613490394222,516.0256427199483 M705.613490394222,516.0256427199483 L690.2849226838373,532.4541071714161 M690.2849226838373,532.4541071714161 L672.3003894292438,547.9725373002935 M672.3003894292438,547.9725373002935 L651.8205267525097,562.4372461674745 M651.8205267525097,562.4372461674745 L629.0296009063829,575.7138734776729 M629.0296009063829,575.7138734776729 L604.1339569099921,587.6787486435433 M604.1339569099921,587.6787486435433 L577.3601380950888,598.2201458877553 M577.3601380950888,598.2201458877553 L548.9527558064399,607.2393786914281 M548.9527558064399,607.2393786914281 L519.1722881541136,614.6518732593474 M519.1722881541136,614.6518732593474 L488.2925214832483,620.38798586903 M488.2925214832483,620.38798586903 L456.59795383333966,624.393774348209 M456.59795383333966,624.393774348209 L424.38103037707555,626.6315003846198 M424.38103037707555,626.6315003846198 L391.9393511500365,627.0801058330596 M391.9393511500365,627.0801058330596 L359.5726675450205,625.7353498248722 M359.5726675450205,625.7353498248722 L327.5799779693035,622.6099033596211 M327.5799779693035,622.6099033596211 L296.25667949091434,617.7332209113085 M296.25667949091434,617.7332209113085 L265.89159396676786,611.1511775594204 M265.89159396676786,611.1511775594204 L236.76423107434323,602.9256538284562 M236.76423107434323,602.9256538284562 L209.1419932027059,593.1338695161735 M209.1419932027059,593.1338695161735 L183.2777522616918,581.8675669753834 M183.2777522616918,581.8675669753834 L159.4073716843734,569.2320704695751 M159.4073716843734,569.2320704695751 L137.74751462873752,555.3452486886688 M137.74751462873752,555.3452486886688 L118.49374185187582,540.3362625884645 M118.49374185187582,540.3362625884645 L101.81866344330552,524.3443151177736 M101.81866344330552,524.3443151177736 L87.87050686157897,507.5172725551225 M87.87050686157897,507.5172725551225 L76.77188455828951,490.01016351781084 M76.77188455828951,490.01016351781084 L68.61879135955155,471.98375500124774 M68.61879135955155,471.98375500124774 L63.47986480903813,453.60296026077225 M63.47986480903813,453.60296026077225 L61.39606247000319,435.03532559567464 M61.39606247000319,435.03532559567464 L62.38040322102262,416.4494233953819 M62.38040322102262,416.4494233953819 L66.41806903184818,398.0133557544766 M66.41806903184818,398.0133557544766 L73.46683673592008,379.89325840511884 M73.46683673592008,379.89325840511884 L83.45752242027265,362.2517741613206 M83.45752242027265,362.2517741613206 L96.29493621271666,345.2466654697975 M96.29493621271666,345.2466654697975 L111.85880942196343,329.0294531497676 M111.85880942196343,329.0294531497676 L130.00510698030791,313.74415258639397 M130.00510698030791,313.74415258639397 L150.56734600379392,299.52602547362613 M150.56734600379392,299.52602547362613 L173.35828174652647,286.5005201786646 M173.35828174652647,286.5005201786646 L198.1715677715477,274.78223105194877 M198.1715677715477,274.78223105194877 L224.78363660773107,264.4739716052246 M224.78363660773107,264.4739716052246 L252.95572161991734,255.6660012966012 M252.95572161991734,255.6660012966012 L282.43584894659006,248.43525807328228 M282.43584894659006,248.43525807328228 L312.96108713250055,242.84481582075023 M312.96108713250055,242.84481582075023 L344.2597521304161,238.94335159646428 M344.2597521304161,238.94335159646428 L376.05370818089625,236.76483215937424 M376.05370818089625,236.76483215937424 L408.0606438791508,236.3281761486753 M408.0606438791508,236.3281761486753 L439.99652144222307,237.63719214603094 M439.99652144222307,237.63719214603094 L471.5779135299958,240.68050103195532 M471.5779135299958,240.68050103195532 L502.52428952810607,245.43161777260758 M502.52428952810607,245.43161777260758 L532.5604510899191,251.84920552364713 M532.5604510899191,251.84920552364713 L561.4187771753384,259.87732835779536 M561.4187771753384,259.87732835779536 L588.8415882581935,269.44590188555094 M588.8415882581935,269.44590188555094 L614.5832199269362,280.47125160148164 M614.5832199269362,280.47125160148164 L638.4122394345604,292.85676200702744 M638.3753317412995,301.8405949722918 L614.5500162519975,289.45313532170644 M614.5500162519975,289.45313532170644 L588.8123799412679,278.42604903516786 M588.8123799412679,278.42604903516786 L561.3938199027766,268.8559673288421 M561.3938199027766,268.8559673288421 L532.5399628888188,260.8265783584551 M532.5399628888188,260.8265783584551 L502.508449084783,254.4079779739398 M502.508449084783,254.4079779739398 L471.56685880436845,249.65611126728822 M471.56685880436845,249.65611126728822 L439.9903486175911,246.6123218659703 M439.9903486175911,246.6123218659703 L408.0594066245785,245.30309915425386 M408.0594066245785,245.30309915425386 L376.05741725260856,245.73982412190352 M376.05741725260856,245.73982412190352 L344.2683752873537,247.91868756128676 M344.2683752873537,247.91868756128676 L312.9745493735188,251.82076772431586 M312.9745493735188,251.82076772431586 L282.45403308769863,257.4120922752834 M282.45403308769863,257.4120922752834 L252.9784691872695,264.64397617475515 M252.9784691872695,264.64397617475515 L224.81074905386768,273.4533352125758 M224.81074905386768,273.4533352125758 L198.20280800503835,283.7632188745606 M198.20280800503835,283.7632188745606 L173.39337598776874,295.48335299795895 M173.39337598776874,295.48335299795895 L150.60598593399024,308.51090737086184 M150.60598593399024,308.51090737086184 L130.04695219553366,322.7312690914929 M130.04695219553366,322.7312690914929 L111.90349017829465,338.0189695591854 M111.90349017829465,338.0189695591854 L96.342056436174,354.23872535101265 M96.342056436174,354.23872535101265 L83.50666299320449,371.2464980457812 M83.50666299320449,371.2464980457812 L73.5175590103438,388.8907426972916 M73.5175590103438,388.8907426972916 L66.46991857533885,407.0136718567016 M66.46991857533885,407.0136718567016 L62.43291374109759,425.4526170604027 M62.43291374109759,425.4526170604027 L61.44875992581785,444.0414165069825 M61.44875992581785,444.0414165069825 L63.53227163449145,462.6119418580572 M63.53227163449145,462.6119418580572 L68.67043079748652,480.9955945414579 M68.67043079748652,480.9955945414579 L76.82228505466401,499.0248023670439 M76.82228505466401,499.0248023670439 L87.91920646228527,516.5346267237144 M87.91920646228527,516.5346267237144 L101.86521418060158,533.3642760193836 M101.86521418060158,533.3642760193836 L118.53771405121819,549.3586980311322 M118.53771405121819,549.3586980311322 L137.7885010890223,564.3700040680692 M137.7885010890223,564.3700040680692 L159.44499168905543,578.2589701733598 M159.44499168905543,578.2589701733598 L183.31165538174523,590.8964159774087 M183.31165538174523,590.8964159774087 L209.17186281796458,602.1644551394493 M209.17186281796458,602.1644551394493 L236.7897875961977,611.9577476766588 M236.7897875961977,611.9577476766588 L265.91259770818925,620.1845375844114 M265.91259770818925,620.1845375844114 L296.2729331307808,626.7675936032372 M296.2729331307808,626.7675936032372 L327.59132861205364,631.6450260429019 M327.59132861205364,631.6450260429019 L359.57900831083157,634.7709530400393 M359.57900831083157,634.7709530400393 L391.9406222993039,636.1159157697409 M391.9406222993039,636.1159157697409 L424.37721992833076,635.6672413619604 M424.37721992833076,635.6672413619604 L456.5890976920625,633.4291713113905 M456.5890976920625,633.4291713113905 L488.2787030723906,629.4227668724686 M488.2787030723906,629.4227668724686 L519.153637532077,623.6857719348322 M519.153637532077,623.6857719348322 L548.9294483086476,616.2721366536102 M548.9294483086476,616.2721366536102 L577.3323925080101,607.2515150771114 M577.3323925080101,607.2515150771114 L604.1020332099458,596.708493568935 M604.1020332099458,596.708493568935 L628.9937975760984,584.7417733542325 M628.9937975760984,584.7417733542325 L651.7811777394288,571.4630969123111 M651.7811777394288,571.4630969123111 L672.2578607650532,556.9961533837975 M672.2578607650532,556.9961533837975 L690.2396088130674,541.4753232994472 M690.2396088130674,541.4753232994472 L705.5658102719444,525.0443153293231 M705.5658102719444,525.0443153293231 L718.1009558975557,507.8548027460193 M718.1009558975557,507.8548027460193 L727.7356481762515,490.06489839335194 M727.7356481762515,490.06489839335194 L734.387522098496,471.83765365422175 M734.387522098496,471.83765365422175 L738.0017087162371,453.339506766412 M738.0017087162371,453.339506766412 L738.5512739657843,434.7387590026316 M738.5512739657843,434.7387590026316 L736.0371092412745,416.2039704154587 M736.0371092412745,416.2039704154587 L730.4877961151176,397.90244819620443 M730.4877961151176,397.90244819620443 L721.9591465475405,379.99879648140603 M721.9591465475405,379.99879648140603 L710.5334063364819,362.6534165220976 M710.5334063364819,362.6534165220976 L696.3184408566017,346.02115689351433 M696.3184408566017,346.02115689351433 L679.4465647721968,330.24993649806294 M679.4465647721968,330.24993649806294 L660.0731899681543,315.47957725320435 M660.0731899681543,315.47957725320435 L638.3753317412995,301.8405949722918 M181.84188795398063,562.7444552310267 L187.5328527929535,559.4601631922245 M170.70271632860292,556.2597368635728 L181.84188795398063,562.7444552310267 M176.3936700123939,552.9769110909693 L170.70271632860292,556.2597368635728 M178.2743917800251,308.8218970345169 L159.18935261004165,321.45612867631195 M159.18935261004165,321.45612867631195 L142.25052555211477,335.08034972180593 M142.25052555211477,335.08034972180593 L127.61207336771429,349.5743647801784 M127.61207336771429,349.5743647801784 L115.4083338135598,364.80998396647686 M115.4083338135598,364.80998396647686 L105.75235592919466,380.6519840697688 M105.75235592919466,380.6519840697688 L98.73491313704176,396.95932456338454 M98.73491313704176,396.95932456338454 L94.4235136133276,413.58632965376296 M94.4235136133276,413.58632965376296 L92.86158200269665,430.38397352542637 M92.86158200269665,430.38397352542637 L94.06797465196234,447.2011580125015 M94.06797465196234,447.2011580125015 L98.03662279927477,463.8860821457017 M98.03662279927477,463.8860821457017 L104.73642921225871,480.28763710581205 M104.73642921225871,480.28763710581205 L114.11131018152639,496.25675869459087 M114.11131018152639,496.25675869459087 L126.08060259216171,511.64783446682037 M126.08060259216171,511.64783446682037 L140.53969073829018,526.320049876494 M140.53969073829018,526.320049876494 L157.36068770843067,540.13880625045 M157.36068770843067,540.13880625045 L176.3936700123939,552.9769110909693 M172.682490379683,305.5947751368133 L178.2743917800251,308.8218970345169 M183.8216659183282,299.2243592034547 L172.682490379683,305.5947751368133 M189.41357818393098,302.4500529489412 L183.8216659183282,299.2243592034547 M610.695349416256,302.4500529489412 L588.6487446882891,291.55435435048236 M588.6487446882891,291.55435435048236 L564.9269095628201,281.9111935285531 M564.9269095628201,281.9111935285531 L539.742066861664,273.60487234645603 M539.742066861664,273.60487234645603 L513.3187162278616,266.7079120095927 M513.3187162278616,266.7079120095927 L485.8918841743104,261.28038483402366 M485.8918841743104,261.28038483402366 L457.70499125660956,257.3695267786764 M457.70499125660956,257.3695267786764 L429.0078368814399,255.00934844835174 M429.0078368814399,255.00934844835174 L400.0544638000935,254.22033896412512 M400.0544638000935,254.22033896412512 L371.1010907187471,255.00934844835174 M371.1010907187471,255.00934844835174 L342.4039363435776,257.3695267786764 M342.4039363435776,257.3695267786764 L314.21704342587674,261.28038483402366 M314.21704342587674,261.28038483402366 L286.79021137232553,266.70791200959263 M286.79021137232553,266.70791200959263 L260.36686073852303,273.604872346456 M260.36686073852303,273.604872346456 L235.18201803736702,281.9111935285531 M235.18201803736702,281.9111935285531 L211.46018291189802,291.55435435048236 M211.46018291189802,291.55435435048236 L189.41357818393098,302.4500529489412 M616.287261681859,299.2243592034547 L610.695349416256,302.4500529489412 M627.4264372205041,305.5947751368133 L616.287261681859,299.2243592034547 M621.834535820162,308.8218970345169 L627.4264372205041,305.5947751368133 M623.7152575877933,552.9769110909693 L642.7482398917564,540.13880625045 M642.7482398917564,540.13880625045 L659.569236861897,526.3200498764941 M659.569236861897,526.3200498764941 L674.0283250080254,511.64783446682037 M674.0283250080254,511.64783446682037 L685.9976174186606,496.25675869459087 M685.9976174186606,496.25675869459087 L695.3724983879283,480.28763710581205 M695.3724983879283,480.28763710581205 L702.0723048009124,463.8860821457018 M702.0723048009124,463.8860821457018 L706.0409529482247,447.20115801250154 M706.0409529482247,447.20115801250154 L707.2473455974905,430.3839735254264 M707.2473455974905,430.3839735254264 L705.6854139868594,413.58632965376296 M705.6854139868594,413.58632965376296 L701.3740144631454,396.95932456338454 M701.3740144631454,396.95932456338454 L694.3565716709925,380.6519840697689 M694.3565716709925,380.6519840697689 L684.7005937866275,364.80998396647686 M684.7005937866275,364.80998396647686 L672.4968542324727,349.5743647801784 M672.4968542324727,349.5743647801784 L657.8584020480723,335.08034972180604 M657.8584020480723,335.08034972180604 L640.9195749901455,321.45612867631206 M640.9195749901455,321.45612867631206 L621.834535820162,308.8218970345169 M629.4062112715842,556.2597368635728 L623.7152575877933,552.9769110909693 M618.2670396462065,562.7444552310267 L629.4062112715842,556.2597368635728 M612.5760748072337,559.4601631922245 L618.2670396462065,562.7444552310267 M187.5328527929535,559.4601631922245 L209.6315015929466,570.5597370792282 M209.6315015929466,570.5597370792282 L233.47115635298948,580.3974378330984 M233.47115635298948,580.3974378330984 L258.8353564703879,588.8819664123757 M258.8353564703879,588.8819664123757 L285.49315240105096,595.9343908015421 M285.49315240105096,595.9343908015421 L313.20108456169055,601.4890469905763 M313.20108456169055,601.4890469905763 L341.70562163409363,605.4941258701454 M341.70562163409363,605.4941258701454 L370.74553863610913,607.9122272319817 M370.74553863610913,607.9122272319817 L400.0544638000936,608.7207786988301 M400.0544638000936,608.7207786988301 L429.363388964078,607.9122272319817 M429.363388964078,607.9122272319817 L458.4033059660935,605.4941258701454 M458.4033059660935,605.4941258701454 L486.90784303849654,601.4890469905763 M486.90784303849654,601.4890469905763 L514.6157751991361,595.9343908015421 M514.6157751991361,595.9343908015421 L541.2735711297992,588.8819664123757 M541.2735711297992,588.8819664123757 L566.6377712471976,580.3974378330986 M566.6377712471976,580.3974378330986 L590.4774260072406,570.5597370792282 M590.4774260072406,570.5597370792282 L612.5760748072337,559.4601631922245 M176.42861501374378,562.0013005579001 L157.39858968010498,549.1612111561617 M157.39858968010498,549.1612111561617 L140.58020038441998,535.3403166458017 M140.58020038441998,535.3403166458017 L126.12334764071426,520.6658287967125 M126.12334764071426,520.6658287967125 L114.15589898563223,505.27236675742984 M114.15589898563223,505.27236675742984 L104.78245452414376,489.3007665848692 M104.78245452414376,489.3007665848692 L98.08366562484935,472.8966630651646 M98.08366562484935,472.8966630651646 L94.11560817332793,456.20914336995423 M94.11560817332793,456.20914336995423 L92.90937553093056,439.38933971381294 M92.90937553093056,439.38933971381294 L94.47103651269452,422.58907667754397 M94.47103651269452,422.58907667754397 L98.78173869711657,405.9594760383528 M98.78173869711657,405.9594760383528 L105.79806514593491,389.64958700653295 M105.79806514593491,389.64958700653295 L115.45251906122127,373.8051083481693 M115.45251906122127,373.8051083481693 L127.6543419125652,358.5671029296909 M127.6543419125652,358.5671029296909 L142.2905028853554,344.07081547155815 M142.2905028853554,344.07081547155815 L159.22668560500176,330.4444563325603 M159.22668560500176,330.4444563325603 L178.30875160545676,317.8082401740684 M322.2018576525791,477.8858338716457 L176.42861501374378,562.0013005579001 M322.40855793725024,400.99505454672607 L312.91708078996135,408.48739290003255 M312.91708078996135,408.48739290003255 L305.5737026851411,416.7474446207768 M305.5737026851411,416.7474446207768 L300.56142386770983,425.5720604322791 M300.56142386770983,425.5720604322791 L298.00614320466116,434.74382414760225 M298.00614320466116,434.74382414760225 L297.9733502422071,444.0363481043706 M297.9733502422071,444.0363481043706 L300.4662688422315,453.21983382487633 M300.4662688422315,453.21983382487633 L305.4255402843207,462.06674126865704 M305.4255402843207,462.06674126865704 L312.7304768841168,470.35746276303274 M312.7304768841168,470.35746276303274 L322.2018576525791,477.8858338716457 M178.30875160545676,317.8082401740684 L322.40855793725024,400.99505454672607 M189.44620502226323,311.4353945819604 L211.48938382576463,300.53798241910516 M211.48938382576463,300.53798241910516 L235.20753743723898,290.8933039532211 M235.20753743723898,290.8933039532211 L260.3884757182333,282.5856747170444 M260.3884757182333,282.5856747170444 L286.8077334528286,275.68762770361735 M286.8077334528286,275.68762770361735 L314.230320044538,270.25924501355945 M314.230320044538,270.25924501355945 L342.4128520349111,266.34777031228634 M342.4128520349111,266.34777031228634 L371.1055680089521,263.9872197603536 M371.1055680089521,263.9872197603536 L400.0544638000935,263.19808582877613 M400.0544638000935,263.19808582877613 L429.0033595912349,263.9872197603536 M429.0033595912349,263.9872197603536 L457.69607556527603,266.34777031228634 M457.69607556527603,266.34777031228634 L485.87860755564907,270.25924501355945 M485.87860755564907,270.25924501355945 L513.3011941473585,275.68762770361735 M513.3011941473585,275.68762770361735 L539.7204518819537,282.5856747170444 M539.7204518819537,282.5856747170444 L564.901390162948,290.8933039532212 M564.901390162948,290.8933039532212 L588.6195437744225,300.53798241910516 M588.6195437744225,300.53798241910516 L610.6627225779239,311.4353945819605 M333.54619558598984,394.5853453982674 L189.44620502226323,311.4353945819604 M466.56273201419725,394.5853453982674 L453.5601842873421,389.131015050237 M453.5601842873421,389.131015050237 L439.24124934366284,384.91908970768094 M439.24124934366284,384.91908970768094 L423.958634480165,382.05260389593155 M423.958634480165,382.05260389593155 L408.0883461138461,380.6016319040485 M408.0883461138461,380.6016319040485 L392.02058148634103,380.6016319040485 M392.02058148634103,380.6016319040485 L376.1502931200221,382.05260389593155 M376.1502931200221,382.05260389593155 L360.86767825652424,384.91908970768094 M360.86767825652424,384.91908970768094 L346.54874331284503,389.131015050237 M346.54874331284503,389.131015050237 L333.54619558598984,394.5853453982674 M610.6627225779239,311.4353945819605 L466.56273201419725,394.5853453982674 M621.8001759947304,317.8082401740685 L640.8822419951853,330.4444563325603 M640.8822419951853,330.4444563325603 L657.8184247148317,344.0708154715582 M657.8184247148317,344.0708154715582 L672.4545856876218,358.56710292969103 M672.4545856876218,358.56710292969103 L684.6564085389659,373.80510834816937 M684.6564085389659,373.80510834816937 L694.3108624542522,389.64958700653307 M694.3108624542522,389.64958700653307 L701.3271889030705,405.9594760383528 M701.3271889030705,405.9594760383528 L705.6378910874926,422.5890766775441 M705.6378910874926,422.5890766775441 L707.1995520692567,439.38933971381294 M707.1995520692567,439.38933971381294 L705.9933194268592,456.20914336995423 M705.9933194268592,456.20914336995423 L702.0252619753378,472.8966630651646 M702.0252619753378,472.8966630651646 L695.3264730760434,489.3007665848692 M695.3264730760434,489.3007665848692 L685.9530286145548,505.2723667574299 M685.9530286145548,505.2723667574299 L673.9855799594727,520.6658287967125 M673.9855799594727,520.6658287967125 L659.5287272157673,535.3403166458017 M659.5287272157673,535.3403166458017 L642.7103379200821,549.1612111561617 M642.7103379200821,549.1612111561617 L623.6803125864433,562.0013005579001 M477.70036966293685,400.99505454672607 L621.8001759947304,317.8082401740685 M477.907069947608,477.8858338716457 L487.3784507160703,470.35746276303274 M487.3784507160703,470.35746276303274 L494.6833873158664,462.06674126865704 M494.6833873158664,462.06674126865704 L499.64265875795564,453.21983382487633 M499.64265875795564,453.21983382487633 L502.13557735797997,444.0363481043706 M502.13557735797997,444.0363481043706 L502.102784395526,434.74382414760225 M502.102784395526,434.74382414760225 L499.5475037324773,425.57206043227916 M499.5475037324773,425.57206043227916 L494.53522491504606,416.7474446207768 M494.53522491504606,416.7474446207768 L487.1918468102258,408.48739290003255 M487.1918468102258,408.48739290003255 L477.70036966293685,400.99505454672607 M623.6803125864433,562.0013005579001 L477.907069947608,477.8858338716457 M612.5428627907288,568.4855541898282 L590.447656106445,579.5868416850594 M590.447656106445,579.5868416850594 L566.6117195177178,589.4260601242916 M566.6117195177178,589.4260601242916 L541.2514796255484,597.9118967952218 M541.2514796255484,597.9118967952218 L514.597849540201,604.9654078934509 M514.597849540201,604.9654078934509 L486.8942503046888,610.5209196233563 M486.8942503046888,610.5209196233563 L458.39417299409627,614.5266151682922 M458.39417299409627,614.5266151682922 L429.35880104371046,616.9450887636408 M429.35880104371046,616.9450887636408 L400.0544638000936,617.7537646818482 M400.0544638000936,617.7537646818482 L370.75012655647663,616.9450887636408 M370.75012655647663,616.9450887636408 L341.7147546060908,614.5266151682922 M341.7147546060908,614.5266151682922 L313.21467729549835,610.5209196233563 M313.21467729549835,610.5209196233563 L285.5110780599862,604.9654078934509 M285.5110780599862,604.9654078934509 L258.85744797463866,597.9118967952218 M258.85744797463866,597.9118967952218 L233.4972080824693,589.4260601242916 M233.4972080824693,589.4260601242916 L209.66127149374208,579.5868416850594 M209.66127149374208,579.5868416850594 L187.56606480945845,568.4855541898282 M466.7694324312161,484.3325799390448 L612.5428627907288,568.4855541898282 M333.339495168971,484.3325799390448 L346.36213905503797,489.8229431566871 M346.36213905503797,489.8229431566871 L360.7195154191316,494.0655384009213 M360.7195154191316,494.0655384009213 L376.0551377408209,496.95431598863945 M376.0551377408209,496.95431598863945 L391.98778838869373,498.4170100930276 M391.98778838869373,498.4170100930276 L408.12113921149347,498.4170100930276 M408.12113921149347,498.4170100930276 L424.0537898593663,496.95431598863945 M424.0537898593663,496.95431598863945 L439.38941218105555,494.0655384009213 M439.38941218105555,494.0655384009213 L453.7467885451492,489.82294315668713 M453.7467885451492,489.82294315668713 L466.7694324312161,484.3325799390448 M187.56606480945845,568.4855541898282 L333.339495168971,484.3325799390448 M427.8831522234639,423.3277954877244 L420.41228365092223,419.9530051033103 M420.41228365092223,419.9530051033103 L411.7606302112493,417.70759403274593 M411.7606302112493,417.70759403274593 L402.43015922717535,416.7215092732027 M402.43015922717535,416.7215092732027 L392.9619398446055,417.0518024404956 M392.9619398446055,417.0518024404956 L383.90497428453585,418.6793637145965 M383.90497428453585,418.6793637145965 L375.78458203420143,421.5100213633558 M375.78458203420143,421.5100213633558 L369.0721006360806,425.37991303229813 M369.0721006360806,425.37991303229813 L364.157634480245,430.064864208286 M364.157634480245,430.064864208286 L361.32738222232155,435.293250467361 M361.32738222232155,435.293250467361 L360.74686484254784,440.76163143039105 M360.74686484254784,440.76163143039105 L362.45108031943056,446.15229459991326 M362.45108031943056,446.15229459991326 L366.34216629371446,451.15169707004657 M366.34216629371446,451.15169707004657 L372.19483226400473,455.4687429983618 M372.19483226400473,455.4687429983618 L379.66924517881887,458.85183290486145 M379.66924517881887,458.85183290486145 L388.33071969453727,461.103642176175 M388.33071969453727,461.103642176175 L397.6750385918863,462.09275806908977 M397.6750385918863,462.09275806908977 L407.15796033660524,461.76143456340895 M407.15796033660524,461.76143456340895 L416.2271145732832,460.1290175242977 M416.2271145732832,460.1290175242977 L424.3543895302485,457.2907910769789 M424.3543895302485,457.2907910769789 L431.06687092392957,453.41235150018684 M431.06687092392957,453.41235150018684 L435.9744543680903,448.7198315303938 M435.9744543680903,448.7198315303938 L438.79251795255396,443.4865895084745 M438.79251795255396,443.4865895084745 L439.35833297880004,438.0171782098334 M439.35833297880004,438.0171782098334 L437.64026959528877,432.6295461680714 M437.64026959528877,432.6295461680714 L433.739362543889,427.6365418969898 M433.739362543889,427.6365418969898 L427.8831522234639,423.3277954877244 M187.5328527929535,559.4601631922245 L187.56606480945845,568.4855541898282 M333.2502696257329,406.99254266237426 L333.339495168971,484.3325799390448 M333.2502696257329,406.99254266237426 L338.62666955218646,403.8971139982844 M338.62666955218646,403.8971139982844 L338.61297556695587,390.9876843393679 M187.23347681441209,478.1045110528284 L338.61297556695587,390.9876843393679 M187.23347681441209,478.1045110528284 L187.51861589641993,555.5912756229222 M181.8272681644996,558.8753501510962 L187.51861589641993,555.5912756229222 M181.84188795398063,562.7444552310267 L181.8272681644996,558.8753501510962 M170.68735366864087,552.3910612985469 L181.8272681644996,558.8753501510962 M170.70271632860292,556.2597368635728 L170.68735366864087,552.3910612985469 M327.47415627722347,397.4603627393679 L322.09775967898395,400.5544119818925 M322.09775967898395,400.5544119818925 L322.2018576525791,477.8858338716457 M176.3936700123939,552.9769110909693 L176.42861501374378,562.0013005579001 M176.37869024313738,549.1084530376563 L170.68735366864087,552.3910612985469 M176.0786728691809,471.6303152542959 L176.37869024313738,549.1084530376563 M327.4579796889306,384.55237570114576 L176.0786728691809,471.6303152542959 M327.47415627722347,397.4603627393679 L327.4579796889306,384.55237570114576 M178.2743917800251,308.8218970345169 L178.30875160545676,317.8082401740684 M322.3050123620081,323.76668442109025 L322.40855793725024,400.99505454672607 M322.3050123620081,323.76668442109025 L327.65162410334216,326.84496272372434 M327.65162410334216,326.84496272372434 L327.63552653462517,313.95284416583235 M177.96467353593965,227.8193196648919 L327.63552653462517,313.95284416583235 M177.96467353593965,227.8193196648919 L178.25966288402606,304.9697554170407 M172.66739180601604,301.7428510233885 L178.25966288402606,304.9697554170407 M172.682490379683,305.5947751368133 L172.66739180601604,301.7428510233885 M183.8073102161863,295.37286458925803 L172.66739180601604,301.7428510233885 M183.8216659183282,299.2243592034547 L183.8073102161863,295.37286458925803 M338.8041374837877,320.4425007400747 L333.45752244181324,317.3655904120479 M333.45752244181324,317.3655904120479 L333.54619558598984,394.5853453982674 M189.41357818393098,302.4500529489412 L189.44620502226323,311.4353945819604 M189.39959216162157,298.5983408321455 L183.8073102161863,295.37286458925803 M189.11948112488597,221.45653093262882 L189.39959216162157,298.5983408321455 M338.79052251822696,307.5518247287954 L189.11948112488597,221.45653093262882 M338.8041374837877,320.4425007400747 L338.79052251822696,307.5518247287954 M610.695349416256,302.4500529489412 L610.6627225779239,311.4353945819605 M466.6514051583739,317.3655904120479 L466.56273201419725,394.5853453982674 M466.6514051583739,317.3655904120479 L461.3047901163994,320.4425007400747 M461.3047901163994,320.4425007400747 L461.3184050819601,307.5518247287954 M610.9894464753011,221.4565309326289 L461.3184050819601,307.5518247287954 M610.9894464753011,221.4565309326289 L610.7093354385656,298.5983408321455 M616.3016173840008,295.37286458925803 L610.7093354385656,298.5983408321455 M616.287261681859,299.2243592034547 L616.3016173840008,295.37286458925803 M627.4415357941712,301.7428510233885 L616.3016173840008,295.37286458925803 M627.4264372205041,305.5947751368133 L627.4415357941712,301.7428510233885 M472.45730349684493,326.84496272372434 L477.803915238179,323.76668442109025 M477.803915238179,323.76668442109025 L477.70036966293685,400.99505454672607 M621.834535820162,308.8218970345169 L621.8001759947304,317.8082401740685 M621.8492647161611,304.9697554170408 L627.4415357941712,301.7428510233885 M622.1442540642474,227.8193196648919 L621.8492647161611,304.9697554170408 M472.47340106556186,313.95284416583235 L622.1442540642474,227.8193196648919 M472.45730349684493,326.84496272372434 L472.47340106556186,313.95284416583235 M623.7152575877933,552.9769110909693 L623.6803125864433,562.0013005579001 M478.0111679212032,400.5544119818925 L477.907069947608,477.8858338716457 M478.0111679212032,400.5544119818925 L472.6347713229636,397.4603627393679 M472.6347713229636,397.4603627393679 L472.65094791125654,384.55237570114576 M624.0302547310062,471.6303152542959 L472.65094791125654,384.55237570114576 M624.0302547310062,471.6303152542959 L623.7302373570496,549.1084530376563 M629.4215739315464,552.3910612985469 L623.7302373570496,549.1084530376563 M629.4062112715842,556.2597368635728 L629.4215739315464,552.3910612985469 M618.2816594356875,558.8753501510962 L629.4215739315464,552.3910612985469 M618.2670396462065,562.7444552310267 L618.2816594356875,558.8753501510962 M461.48225804800063,403.8971139982844 L466.8586579744541,406.9925426623744 M466.8586579744541,406.9925426623744 L466.7694324312161,484.3325799390448 M612.5760748072337,559.4601631922245 L612.5428627907288,568.4855541898282 M612.5903117037672,555.5912756229222 L618.2816594356875,558.8753501510962 M612.875450785775,478.1045110528284 L612.5903117037672,555.5912756229222 M461.49595203323116,390.9876843393679 L612.875450785775,478.1045110528284 M461.48225804800063,403.8971139982844 L461.49595203323116,390.9876843393679 M466.8586579744541,406.9925426623744 L453.81861104892215,412.4755716184507 M453.81861104892215,412.4755716184507 L439.4420369974569,416.71250132680973 M439.4420369974569,416.71250132680973 L424.08590090200187,419.59742220839655 M424.08590090200187,419.59742220839655 L408.1319329499914,421.05816381441406 M408.1319329499914,421.05816381441406 L391.97699465019576,421.05816381441406 M391.97699465019576,421.05816381441406 L376.02302669818533,419.59742220839655 M376.02302669818533,419.59742220839655 L360.66689060273023,416.71250132680973 M360.66689060273023,416.71250132680973 L346.290316551265,412.4755716184507 M346.290316551265,412.4755716184507 L333.2502696257329,406.99254266237426 M461.3047901163994,320.4425007400747 L472.45730349684493,326.84496272372434 M333.45752244181324,317.3655904120479 L346.477419502218,311.9185940849134 M346.477419502218,311.9185940849134 L360.8154494001704,307.71233407347756 M360.8154494001704,307.71233407347756 L376.11843637693755,304.84970481909187 M376.11843637693755,304.84970481909187 L392.00987538631153,303.40068524736876 M392.00987538631153,303.40068524736876 L408.09905221387555,303.40068524736876 M408.09905221387555,303.40068524736876 L423.99049122324953,304.84970481909187 M423.99049122324953,304.84970481909187 L439.2934782000167,307.71233407347756 M439.2934782000167,307.71233407347756 L453.631508097969,311.91859408491354 M453.631508097969,311.91859408491354 L466.6514051583739,317.3655904120479 M327.65162410334216,326.84496272372434 L338.8041374837877,320.4425007400747 M322.09775967898395,400.5544119818925 L312.6137449680235,393.03610658751 M312.6137449680235,393.03610658751 L305.2990796332845,384.7564761456062 M305.2990796332845,384.7564761456062 L300.3332214289824,375.92141079216884 M300.3332214289824,375.92141079216884 L297.837015690762,366.7502253259526 M297.837015690762,366.7502253259526 L297.8698962909609,357.47015558431315 M297.8698962909609,357.47015558431315 L300.42863075211864,348.3106920448238 M300.42863075211864,348.3106920448238 L305.4476379918158,339.49791817450136 M305.4476379918158,339.49791817450136 L312.80084756513037,331.24895730107863 M312.80084756513037,331.24895730107863 L322.3050123620081,323.76668442109025 M338.62666955218646,403.8971139982844 L327.47415627722347,397.4603627393679 M472.6347713229636,397.4603627393679 L461.48225804800063,403.8971139982844 M477.803915238179,323.76668442109025 L487.3080800350568,331.24895730107863 M487.3080800350568,331.24895730107863 L494.66128960837136,339.49791817450136 M494.66128960837136,339.49791817450136 L499.6802968480685,348.3106920448238 M499.6802968480685,348.3106920448238 L502.23903130922616,357.47015558431315 M502.23903130922616,357.47015558431315 L502.2719119094251,366.7502253259526 M502.2719119094251,366.7502253259526 L499.77570617120466,375.92141079216884 M499.77570617120466,375.92141079216884 L494.80984796690257,384.75647614560626 M494.80984796690257,384.75647614560626 L487.49518263216356,393.0361065875101 M487.49518263216356,393.0361065875101 L478.0111679212032,400.5544119818925 M427.92029221802335,346.0694380465922 L433.7843249104059,350.3724041741181 M433.7843249104059,350.3724041741181 L437.69044754131846,355.35871235734504 M437.69044754131846,355.35871235734504 L439.4108143701889,360.7391216570353 M439.4108143701889,360.7391216570353 L438.84425362182236,366.2012033170683 M438.84425362182236,366.2012033170683 L436.02243513142605,371.4274347768147 M436.02243513142605,371.4274347768147 L431.1083030237584,376.1136706947653 M431.1083030237584,376.1136706947653 L424.38685821514895,379.9869179392625 M424.38685821514895,379.9869179392625 L416.2487260084467,382.8213455377246 M416.2487260084467,382.8213455377246 L407.16745324083854,384.4515779905594 M407.16745324083854,384.4515779905594 L397.6718587614437,384.78245813171117 M397.6718587614437,384.78245813171117 L388.31505278362107,383.7946658661093 M388.31505278362107,383.7946658661093 L379.6420057132549,381.5458702852147 M379.6420057132549,381.5458702852147 L372.1576095753186,378.1673089882506 M372.1576095753186,378.1673089882506 L366.2971307052035,373.8560433972191 M366.2971307052035,373.8560433972191 L362.40085539781086,368.86333705776434 M362.40085539781086,368.86333705776434 L360.6943734834899,363.47989665060294 M360.6943734834899,363.47989665060294 L361.2756758767746,358.01884531928425 M361.2756758767746,358.01884531928425 L364.10971561432757,352.79746958988073 M364.10971561432757,352.79746958988073 L369.0307488274253,348.1188024150789 M369.0307488274253,348.1188024150789 L375.75219364049826,344.2541030212283 M375.75219364049826,344.2541030212283 L383.88342474684157,341.42724417068064 M383.88342474684157,341.42724417068064 L392.95247626412754,339.8018674503675 M392.95247626412754,339.8018674503675 L402.4333290899367,339.47201764071013 M402.4333290899367,339.47201764071013 L411.7762501465277,340.45677879322045 M411.7762501465277,340.45677879322045 L420.43944989445004,342.6991762161764 M420.43944989445004,342.6991762161764 L427.92029221802335,346.0694380465922 M338.61297556695587,390.9876843393679 L327.4579796889306,384.55237570114576 M177.96467353593965,227.8193196648919 L158.8528340924949,240.43560778499608 M158.8528340924949,240.43560778499608 L141.89017078259974,254.04049662346267 M141.89017078259974,254.04049662346267 L127.23106537145856,268.51396501277145 M127.23106537145856,268.51396501277145 L115.0100483614325,283.7280081733116 M115.0100483614325,283.7280081733116 L105.34033308083758,299.5475973668738 M105.34033308083758,299.5475973668738 L98.31282719973291,315.83189404978344 M98.31282719973291,315.83189404978344 L93.99514147079213,332.4354301367791 M93.99514147079213,332.4354301367791 L92.43077001746082,349.2093913433121 M92.43077001746082,349.2093913433121 L93.63860458329589,366.0028929966907 M93.63860458329589,366.0028929966907 L97.61257689990634,382.66434762709025 M97.61257689990634,382.66434762709025 L104.32155485505768,399.0428579648078 M104.32155485505768,399.0428579648078 L113.7093842281214,414.9895675500321 M113.7093842281214,414.9895675500321 L125.69529603402333,430.3590659609994 M125.69529603402333,430.3590659609994 L140.1745339495908,445.0107331736032 M140.1745339495908,445.0107331736032 L157.01903642558574,458.8101556759785 M157.01903642558574,458.8101556759785 L176.0786728691809,471.6303152542959 M327.63552653462517,313.95284416583235 L338.79052251822696,307.5518247287954 M610.9894464753011,221.4565309326289 L588.9119604421426,210.57632588108265 M588.9119604421426,210.57632588108265 L565.1569401918443,200.94688710611325 M565.1569401918443,200.94688710611325 L539.9369031500787,192.65239289327096 M539.9369031500787,192.65239289327096 L513.4766592797412,185.7652578836152 M513.4766592797412,185.7652578836152 L486.0115588360244,180.3454659382451 M486.0115588360244,180.3454659382451 L457.7853567582976,176.440183347953 M457.7853567582976,176.440183347953 L429.04819489904077,174.08337049272836 M429.04819489904077,174.08337049272836 L400.0544638000935,173.29548620984036 M400.0544638000935,173.29548620984036 L371.0607327011464,174.08337049272836 M371.0607327011464,174.08337049272836 L342.3235708418895,176.440183347953 M342.3235708418895,176.440183347953 L314.0973687641627,180.3454659382451 M314.0973687641627,180.3454659382451 L286.63226832044603,185.7652578836152 M286.63226832044603,185.7652578836152 L260.17202445010844,192.65239289327096 M260.17202445010844,192.65239289327096 L234.9519874083427,200.94688710611325 M234.9519874083427,200.94688710611325 L211.19696715804452,210.57632588108265 M211.19696715804452,210.57632588108265 L189.11948112488597,221.45653093262882 M461.3184050819601,307.5518247287954 L472.47340106556186,313.95284416583235 M624.0302547310062,471.6303152542959 L643.0898911746012,458.8101556759785 M643.0898911746012,458.8101556759785 L659.9343936505963,445.0107331736032 M659.9343936505963,445.0107331736032 L674.4136315661638,430.3590659609995 M674.4136315661638,430.3590659609995 L686.3995433720656,414.9895675500321 M686.3995433720656,414.9895675500321 L695.7873727451295,399.0428579648079 M695.7873727451295,399.0428579648079 L702.4963507002808,382.66434762709025 M702.4963507002808,382.66434762709025 L706.4703230168911,366.00289299669083 M706.4703230168911,366.00289299669083 L707.6781575827263,349.2093913433121 M707.6781575827263,349.2093913433121 L706.1137861293951,332.4354301367791 M706.1137861293951,332.4354301367791 L701.7961004004542,315.83189404978356 M701.7961004004542,315.83189404978356 L694.7685945193496,299.5475973668739 M694.7685945193496,299.5475973668739 L685.0988792387545,283.7280081733116 M685.0988792387545,283.7280081733116 L672.8778622287286,268.51396501277145 M672.8778622287286,268.51396501277145 L658.2187568175873,254.0404966234628 M658.2187568175873,254.0404966234628 L641.2560935076922,240.43560778499608 M641.2560935076922,240.43560778499608 L622.1442540642474,227.8193196648919 M472.65094791125654,384.55237570114576 L461.49595203323116,390.9876843393679 M187.23347681441209,478.1045110528284 L209.36315298150348,489.1885896586306 M209.36315298150348,489.1885896586306 L233.23632355372587,499.01256671442655 M233.23632355372587,499.01256671442655 L258.63622143180953,507.48526681517757 M258.63622143180953,507.48526681517757 L285.33156864923143,514.5278645630002 M285.33156864923143,514.5278645630002 L313.0785582104142,520.0747844489589 M313.0785582104142,520.0747844489589 L341.62329603333836,524.07428706933 M341.62329603333836,524.07428706933 L370.70418261861505,526.4890224682883 M370.70418261861505,526.4890224682883 L400.0544638000936,527.2964485693058 M400.0544638000936,527.2964485693058 L429.4047449815721,526.4890224682883 M429.4047449815721,526.4890224682883 L458.4856315668488,524.07428706933 M458.4856315668488,524.07428706933 L487.0303693897729,520.0747844489589 M487.0303693897729,520.0747844489589 L514.7773589509557,514.5278645630002 M514.7773589509557,514.5278645630002 L541.4727061683775,507.48526681517757 M541.4727061683775,507.48526681517757 L566.8726040464612,499.01256671442655 M566.8726040464612,499.01256671442655 L590.7457746186835,489.1885896586306 M590.7457746186835,489.1885896586306 L612.875450785775,478.1045110528284 M628.2461546363345,217.91743371148414 L649.6309223752321,231.3633151507897 M649.6309223752321,231.3633151507897 L668.6416315500578,245.95318934463995 M668.6416315500578,245.95318934463995 L685.0935255725153,261.5498043853909 M685.0935255725153,261.5498043853909 L698.8254855547873,278.0059349963915 M698.8254855547873,278.0059349963915 L709.7015873740222,295.16575544968805 M709.7015873740222,295.16575544968805 L717.6125418575311,312.8661851856452 M717.6125418575311,312.8661851856452 L722.4770136997054,330.93840696518527 M722.4770136997054,330.93840696518527 L724.2425116341913,349.2093913433121 M724.2425116341913,349.2093913433121 L722.8861761126466,367.5035620651278 M722.8861761126466,367.5035620651278 L718.4151438926226,385.64445197812654 M718.4151438926226,385.64445197812654 L710.8667871279836,403.4563930248035 M710.8667871279836,403.4563930248035 L700.3085073565142,420.76628316567036 M700.3085073565142,420.76628316567036 L686.837380256397,437.40527525770375 M686.837380256397,437.40527525770375 L670.5793063661979,453.21051702504496 M670.5793063661979,453.21051702504496 L651.6879549302578,468.0267659371103 M651.6879549302578,468.0267659371103 L630.3434952771593,481.708071084721 M630.3434952771593,481.708071084721 L606.7508562281237,494.1192667200164 M606.7508562281237,494.1192667200164 L581.1377670077206,505.13739408231544 M581.1377670077206,505.13739408231544 L553.7525672561751,514.653026374014 M553.7525672561751,514.653026374014 L524.8618189045592,522.5714963440565 M524.8618189045592,522.5714963440565 L494.74750814856026,528.8138711897119 M494.74750814856026,528.8138711897119 L463.7042771972991,533.3178139400624 M463.7042771972991,533.3178139400624 L432.03635049783855,536.0383260692297 M432.03635049783855,536.0383260692297 L400.0544638000936,536.9481932464162 M400.0544638000936,536.9481932464162 L368.0725771023486,536.0383260692297 M368.0725771023486,536.0383260692297 L336.404650402888,533.3178139400624 M336.404650402888,533.3178139400624 L305.36141945162683,528.8138711897119 M305.36141945162683,528.8138711897119 L275.247108695628,522.5714963440564 M275.247108695628,522.5714963440564 L246.356360344012,514.653026374014 M246.356360344012,514.653026374014 L218.97116059246648,505.13739408231544 M218.97116059246648,505.13739408231544 L193.3580713720634,494.1192667200164 M193.3580713720634,494.1192667200164 L169.76543232302703,481.70807108472036 M169.76543232302703,481.70807108472036 L148.42097266992926,468.0267659371102 M148.42097266992926,468.0267659371102 L129.52962123398925,453.21051702504496 M129.52962123398925,453.21051702504496 L113.27154734379019,437.4052752577037 M113.27154734379019,437.4052752577037 L99.80042024367276,420.76628316567036 M99.80042024367276,420.76628316567036 L89.24214047220369,403.4563930248035 M89.24214047220369,403.4563930248035 L81.69378370756448,385.6444519781265 M81.69378370756448,385.6444519781265 L77.22275148754045,367.5035620651277 M77.22275148754045,367.5035620651277 L75.86641596599566,349.2093913433121 M75.86641596599566,349.2093913433121 L77.6319139004816,330.93840696518515 M77.6319139004816,330.93840696518515 L82.49638574265589,312.8661851856451 M82.49638574265589,312.8661851856451 L90.40734022616482,295.16575544968794 M90.40734022616482,295.16575544968794 L101.28344204539974,278.0059349963914 M101.28344204539974,278.0059349963914 L115.01540202767171,261.54980438539087 M115.01540202767171,261.54980438539087 L131.46729605012922,245.95318934463987 M131.46729605012922,245.95318934463987 L150.47800522495498,231.3633151507897 M150.47800522495498,231.3633151507897 L171.86277296385285,217.91743371148385 M171.86277296385285,217.91743371148385 L195.4151207233864,205.74166385144684 M195.4151207233864,205.74166385144684 L220.908866444121,194.94991683409128 M220.908866444121,194.94991683409128 L248.10025557773812,185.6429191408608 M248.10025557773812,185.6429191408608 L276.7301743881891,177.90732030532232 M276.7301743881891,177.90732030532232 L306.52665975543687,171.815025028501 M306.52665975543687,171.815025028501 L337.2072834734904,167.42260176739163 M337.2072834734904,167.42260176739163 L368.4817563115845,164.77076324614436 M368.4817563115845,164.77076324614436 L400.0544638000935,163.88408423025902 M400.0544638000935,163.88408423025902 L431.6271712886026,164.77076324614436 M431.6271712886026,164.77076324614436 L462.9016441266967,167.42260176739163 M462.9016441266967,167.42260176739163 L493.5822678447502,171.815025028501 M493.5822678447502,171.815025028501 L523.378753211998,177.9073203053224 M523.378753211998,177.9073203053224 L552.008672022449,185.6429191408608 M552.008672022449,185.6429191408608 L579.2000611560661,194.94991683409137 M579.2000611560661,194.94991683409137 L604.6938068768009,205.74166385144696 M604.6938068768009,205.74166385144696 L628.2461546363345,217.91743371148414 M612.5903117037672,555.5912756229222 L590.4901873833389,566.6901146123787 M590.4901873833389,566.6901146123787 L566.6489387665431,576.5271644918091 M566.6489387665431,576.5271644918091 L541.2830410314953,585.0111320827498 M541.2830410314953,585.0111320827498 L514.6234593402987,592.0630904255729 M514.6234593402987,592.0630904255729 L486.9136697972339,597.6173797070089 M486.9136697972339,597.6173797070089 L458.4072209714761,601.6221941231645 M458.4072209714761,601.6221941231645 L429.36535565501646,604.040135848729 M429.36535565501646,604.040135848729 L400.0544638000936,604.8486339432943 M400.0544638000936,604.8486339432943 L370.7435719451707,604.040135848729 M370.7435719451707,604.040135848729 L341.70170662871107,601.6221941231645 M341.70170662871107,601.6221941231645 L313.19525780295317,597.6173797070089 M313.19525780295317,597.6173797070089 L285.48546825988836,592.0630904255729 M285.48546825988836,592.0630904255729 L258.82588656869194,585.0111320827498 M258.82588656869194,585.0111320827498 L233.45998883364393,576.5271644918091 M233.45998883364393,576.5271644918091 L209.61874021684827,566.6901146123787 M209.61874021684827,566.6901146123787 L187.51861589641993,555.5912756229222 M627.9431648724042,295.05444413360465 L604.4222047126575,282.8621534776062 M604.4222047126575,282.8621534776062 L578.9623842149233,272.0557521049395 M578.9623842149233,272.0557521049395 L551.8071359176054,262.73610756504956 M551.8071359176054,262.73610756504956 L523.2152329012679,254.98999107630965 M523.2152329012679,254.98999107630965 L493.4582821398947,248.88940854984446 M493.4582821398947,248.88940854984446 L462.8183431323086,244.4910082137098 M462.8183431323086,244.4910082137098 L431.58532701169236,241.8355602864433 M431.58532701169236,241.8355602864433 L400.0544638000935,240.9476742702077 M400.0544638000935,240.9476742702077 L368.5236005884948,241.8355602864433 M368.5236005884948,241.8355602864433 L337.2905844678785,244.4910082137098 M337.2905844678785,244.4910082137098 L306.6506454602923,248.88940854984446 M306.6506454602923,248.88940854984446 L276.8936946989193,254.98999107630965 M276.8936946989193,254.98999107630965 L248.30179168258172,262.73610756504956 M248.30179168258172,262.73610756504956 L221.14654338526375,272.0557521049395 M221.14654338526375,272.0557521049395 L195.68672288752964,282.8621534776062 M195.68672288752964,282.8621534776062 L172.1657627277818,295.0544441336053 M172.1657627277818,295.0544441336053 L150.80954443053045,308.51855377084013 M150.80954443053045,308.51855377084013 L131.82427027107212,323.1281880918256 M131.82427027107212,323.1281880918256 L115.39444755271973,338.74590495141064 M115.39444755271973,338.74590495141064 L101.6809755152093,355.22427584844235 M101.6809755152093,355.22427584844235 L90.8195905197723,372.4072608943873 M90.8195905197723,372.4072608943873 L82.91942802175498,390.1315564239561 M82.91942802175498,390.1315564239561 L78.06170570886786,408.22811534163014 M78.06170570886786,408.22811534163014 L76.29883485934414,426.52367376221645 M76.29883485934414,426.52367376221645 L77.65363409264774,444.84241872320376 M77.65363409264774,444.84241872320376 L82.11896566684987,463.00764635662364 M82.11896566684987,463.00764635662364 L89.65749711182826,480.8434541415691 M89.65749711182826,480.8434541415691 L100.20190736246701,498.17651014456953 M100.20190736246701,498.17651014456953 L113.65524189766415,514.8377440667002 M113.65524189766415,514.8377440667002 L129.89176121711625,530.6640894107255 M129.89176121711625,530.6640894107255 L148.75799586203308,545.5001003527645 M148.75799586203308,545.5001003527645 L170.07401355639155,559.199635672181 M170.07401355639155,559.199635672181 L193.63515761217292,571.6273540722045 M193.63515761217292,571.6273540722045 L219.21400346105276,582.6601376781057 M219.21400346105276,582.6601376781057 L246.5625456936036,592.1884185525375 M246.5625456936036,592.1884185525375 L275.4145828890552,600.1174076941641 M275.4145828890552,600.1174076941641 L305.4885117184214,606.3680710332667 M305.4885117184214,606.3680710332667 L336.4900912427218,610.8779917815257 M336.4900912427218,610.8779917815257 L368.11551226541764,613.6021138844508 M368.11551226541764,613.6021138844508 L400.0544638000936,614.5131882535902 M400.0544638000936,614.5131882535902 L431.9934153347694,613.6021138844508 M431.9934153347694,613.6021138844508 L463.6188363574652,610.8779917815257 M463.6188363574652,610.8779917815257 L494.6204158817657,606.3680710332667 M494.6204158817657,606.3680710332667 L524.6943447111319,600.1174076941641 M524.6943447111319,600.1174076941641 L553.5463819065835,592.1884185525375 M553.5463819065835,592.1884185525375 L580.8949241391342,582.6601376781057 M580.8949241391342,582.6601376781057 L606.4737699880143,571.6273540722045 M606.4737699880143,571.6273540722045 L630.0349140437982,559.1996356721795 M630.0349140437982,559.1996356721795 L651.350931738154,545.5001003527645 M651.350931738154,545.5001003527645 L670.2171663830709,530.6640894107255 M670.2171663830709,530.6640894107255 L686.453685702523,514.8377440667005 M686.453685702523,514.8377440667005 L699.90702023772,498.17651014456953 M699.90702023772,498.17651014456953 L710.4514304883589,480.8434541415691 M710.4514304883589,480.8434541415691 L717.9899619333373,463.00764635662375 M717.9899619333373,463.00764635662375 L722.4552935075394,444.8424187232039 M722.4552935075394,444.8424187232039 L723.810092740843,426.52367376221645 M723.810092740843,426.52367376221645 L722.0472218913192,408.22811534163026 M722.0472218913192,408.22811534163026 L717.1894995784321,390.1315564239561 M717.1894995784321,390.1315564239561 L709.2893370804147,372.4072608943873 M709.2893370804147,372.4072608943873 L698.4279520849777,355.2242758484424 M698.4279520849777,355.2242758484424 L684.7144800474673,338.7459049514107 M684.7144800474673,338.7459049514107 L668.2846573291149,323.1281880918256 M668.2846573291149,323.1281880918256 L649.2993831696567,308.5185537708402 M649.2993831696567,308.5185537708402 L627.9431648724042,295.05444413360465 M176.37869024313738,549.1084530376563 L157.34444038514903,536.271199294776 M157.34444038514903,536.271199294776 L140.52232559295066,522.4533598800444 M140.52232559295066,522.4533598800444 L126.06227920581182,507.7821190260161 M126.06227920581182,507.7821190260161 L114.09219644050825,492.39206662470207 M114.09219644050825,492.39206662470207 L104.7166996904362,476.4240079968802 M104.7166996904362,476.4240079968802 L98.01645710568727,460.0235460066084 M98.01645710568727,460.0235460066084 L94.04755574936871,443.3397349997518 M94.04755574936871,443.3397349997518 L92.84109451314157,426.52367376221645 M92.84109451314157,426.52367376221645 L94.40314213596122,409.7271531373106 M94.40314213596122,409.7271531373106 L98.71484058827025,393.10126116503966 M98.71484058827025,393.10126116503966 L105.7327619218654,376.7950136278981 M105.7327619218654,376.7950136278981 L115.38939308294084,360.9540764675957 M115.38939308294084,360.9540764675957 L127.59395426529267,345.7194806303418 M127.59395426529267,345.7194806303418 L142.23338861689786,331.22644010268124 M142.23338861689786,331.22644010268124 L159.17334921518727,317.6031359893597 M159.17334921518727,317.6031359893597 L178.25966288402606,304.9697554170407 M189.39959216162157,298.5983408321455 L211.44766546860714,287.7033771033671 M211.44766546860714,287.7033771033671 L235.17107873531322,278.0608671294658 M235.17107873531322,278.0608671294658 L260.3575951296912,269.75510691166403 M260.3575951296912,269.75510691166403 L286.78270025099073,262.85861260029037 M286.78270025099073,262.85861260029037 L314.21135219020965,257.43145231534965 M314.21135219020965,257.43145231534965 L342.40011448951344,253.52085871088715 M342.40011448951344,253.52085871088715 L371.0991714565368,251.16084000915248 M371.0991714565368,251.16084000915248 L400.0544638000935,250.37188389462085 M400.0544638000935,250.37188389462085 L429.00975614365024,251.16084000915248 M429.00975614365024,251.16084000915248 L457.70881311067365,253.52085871088715 M457.70881311067365,253.52085871088715 L485.89757540997743,257.43145231534965 M485.89757540997743,257.43145231534965 L513.3262273491964,262.8586126002904 M513.3262273491964,262.8586126002904 L539.7513324704958,269.7551069116641 M539.7513324704958,269.7551069116641 L564.9378488648738,278.0608671294658 M564.9378488648738,278.0608671294658 L588.6612621315799,287.7033771033671 M588.6612621315799,287.7033771033671 L610.7093354385656,298.5983408321455 M621.8492647161611,304.9697554170408 L640.9355783849999,317.6031359893597 M640.9355783849999,317.6031359893597 L657.8755389832893,331.22644010268124 M657.8755389832893,331.22644010268124 L672.5149733348944,345.7194806303418 M672.5149733348944,345.7194806303418 L684.7195345172463,360.9540764675957 M684.7195345172463,360.9540764675957 L694.3761656783217,376.7950136278982 M694.3761656783217,376.7950136278982 L701.3940870119168,393.10126116503966 M701.3940870119168,393.10126116503966 L705.705785464226,409.7271531373106 M705.705785464226,409.7271531373106 L707.2678330870456,426.52367376221645 M707.2678330870456,426.52367376221645 L706.0613718508184,443.3397349997519 M706.0613718508184,443.3397349997519 L702.0924704944998,460.0235460066084 M702.0924704944998,460.0235460066084 L695.3922279097508,476.4240079968802 M695.3922279097508,476.4240079968802 L686.0167311596788,492.3920666247022 M686.0167311596788,492.3920666247022 L674.0466483943753,507.7821190260161 M674.0466483943753,507.7821190260161 L659.5866020072365,522.4533598800444 M659.5866020072365,522.4533598800444 L642.7644872150381,536.271199294776 M642.7644872150381,536.271199294776 L623.7302373570496,549.1084530376563 M427.92029221802335,346.0694380465922 L427.9249416888383,336.39764131103556 M427.9249416888383,336.39764131103556 L433.7899536473017,340.6998816532388 M433.7899536473017,340.6998816532388 L437.6967292064378,345.68534905923553 M437.6967292064378,345.68534905923553 L439.41738440033294,351.0648514522441 M439.41738440033294,351.0648514522441 L438.8507302984919,356.5260127818366 M438.8507302984919,356.5260127818366 L436.02844174116666,361.75136397383665 M436.02844174116666,361.75136397383665 L431.11348982150344,366.43681084569937 M431.11348982150344,366.43681084569937 L424.3909229025835,370.3094061231178 M424.3909229025835,370.3094061231178 L416.251431499666,373.1433567245716 M416.251431499666,373.1433567245716 L407.1686416381399,374.77331487277365 M407.1686416381399,374.77331487277365 L397.6714606849552,375.10413934343876 M397.6714606849552,375.10413934343876 L388.31309147509415,374.116513277351 M388.31309147509415,374.116513277351 L379.6385956606852,371.86809610632 M379.6385956606852,371.86809610632 L372.15294974443475,368.4901034374442 M372.15294974443475,368.4901034374442 L366.2914927949246,364.17956364495865 M366.2914927949246,364.17956364495865 L362.394567847505,359.18769809292843 M362.394567847505,359.18769809292843 L360.6878022045784,353.80516459727863 M360.6878022045784,353.80516459727863 L361.26920287383365,348.3450335947587 M361.26920287383365,348.3450335947587 L364.1037167592068,343.1245381253644 M364.1037167592068,343.1245381253644 L369.02557208870286,338.446659984591 M369.02557208870286,338.446659984591 L375.7481390120894,334.58261254420074 M375.7481390120894,334.58261254420074 L383.88072701024845,331.75623067860334 M383.88072701024845,331.75623067860334 L392.95129154055894,330.1311282551875 M392.95129154055894,330.1311282551875 L402.433725917656,329.8013341143756 M402.433725917656,329.8013341143756 L411.7782055698622,330.7859290722006 M411.7782055698622,330.7859290722006 L420.44285077363133,333.0279480954853 M420.44285077363133,333.0279480954853 L427.9249416888383,336.39764131103556 M627.9431648724042,295.05444413360465 L628.2461546363345,217.91743371148414 M427.8785166840264,432.97061226912274 L427.8831522234639,423.3277954877244 M427.8785166840264,432.97061226912274 L420.40889296072936,429.5952583540152 M420.40889296072936,429.5952583540152 L411.75868064588224,427.3494722665231 M411.75868064588224,427.3494722665231 L402.42976358821375,426.3632227978445 M402.42976358821375,426.3632227978445 L392.96312101911417,426.6935711363917 M392.96312101911417,426.6935711363917 L383.9076639391021,428.32140425544657 M383.9076639391021,428.32140425544657 L375.788624514344,431.1525346247294 M375.788624514344,431.1525346247294 L369.07726186245344,435.0230724170803 M369.07726186245344,435.0230724170803 L364.16361535659354,439.7088055691392 M364.16361535659354,439.7088055691392 L361.333835821948,444.938064211565 M361.333835821948,444.938064211565 L360.7534164198334,450.40735726517124 M360.7534164198334,450.40735726517124 L362.45734901525856,455.79891922505897 M362.45734901525856,455.79891922505897 L366.34778729467183,460.7991549509073 M366.34778729467183,460.7991549509073 L372.1994781169569,465.11692017404016 M372.1994781169569,465.11692017404016 L379.6726450011782,468.50057361192313 M379.6726450011782,468.50057361192313 L388.3326751186509,470.75275790069566 M388.3326751186509,470.75275790069566 L397.6754354740055,471.74203850299716 M397.6754354740055,471.74203850299716 L407.1567755048722,471.4106598259766 M407.1567755048722,471.4106598259766 L416.2244171989371,469.7779709415085 M416.2244171989371,469.7779709415085 L424.35033703628187,466.9392717730373 M424.35033703628187,466.9392717730373 L431.0616996837357,463.0601860721258 M431.0616996837357,463.0601860721258 L435.96846577196817,458.36688412563154 M435.96846577196817,458.36688412563154 L438.7860606957074,453.1327697199569 M438.7860606957074,453.1327697199569 L439.35178264467055,447.6624463306538 M439.35178264467055,447.6624463306538 L437.63400675820134,442.2739154987789 M437.63400675820134,442.2739154987789 L433.73375067509284,437.2800779725151 M433.73375067509284,437.2800779725151 L427.8785166840264,432.97061226912274 M376.9370096802916,462.38170505065426 L383.1394899643764,465.18955029155467 M383.1394899643764,465.18955029155467 L390.32661967346087,467.0584120495917 M390.32661967346087,467.0584120495917 L398.0801336358207,467.87930036832944 M398.0801336358207,467.87930036832944 L405.9486088509414,467.6043287971396 M405.9486088509414,467.6043287971396 L413.47388942307396,466.24954001062963 M413.47388942307396,466.24954001062963 L420.2179179623935,463.8939547524625 M420.2179179623935,463.8939547524625 L425.78834914801917,460.67491778537834 M425.78834914801917,460.67491778537834 L429.8614511703878,456.78001131836226 M429.8614511703878,456.78001131836226 L432.2009158436696,452.4360399508417 M432.2009158436696,452.4360399508417 L432.6715023425082,447.8957434603318 M432.6715023425082,447.8957434603318 L431.24672498401003,443.4230486357316 M431.24672498401003,443.4230486357316 L428.0102023175209,439.2777136357506 M428.0102023175209,439.2777136357506 L423.15060831559055,435.700271438343 M423.15060831559055,435.700271438343 L416.9505689181555,432.8981437361312 M416.9505689181555,432.8981437361312 L409.77020268959205,431.03368970016373 M409.77020268959205,431.03368970016373 L402.0262253748791,430.21488952796494 M402.0262253748791,430.21488952796494 L394.16787524125806,430.4891512989339 M394.16787524125806,430.4891512989339 L386.6509886468015,431.8405949490496 M386.6509886468015,431.8405949490496 L379.9117000247493,434.1909660630642 M379.9117000247493,434.1909660630642 L374.34126883701805,437.4041143772932 M374.34126883701805,437.4041143772932 L370.2634268949898,441.29380670170457 M370.2634268949898,441.29380670170457 L367.9155682455253,445.6344329344467 M367.9155682455253,445.6344329344467 L367.43485666927586,450.17401962635756 M367.43485666927586,450.17401962635756 L368.8500973832794,454.64880259541195 M368.8500973832794,454.64880259541195 L372.07985656873996,458.79854531355784 M372.07985656873996,458.79854531355784 L376.9370096802916,462.38170505065426 M376.9022653616422,375.43621102318656 L372.0378174167973,371.8584459793077 M372.0378174167973,371.8584459793077 L368.8032114085973,367.71495264770857 M368.8032114085973,367.71495264770857 L367.3858518218211,363.24691056683685 M367.3858518218211,363.24691056683685 L367.86729316411675,358.7141645061396 M367.86729316411675,358.7141645061396 L370.21868520149593,354.3800810926864 M370.21868520149593,354.3800810926864 L374.3026566548959,350.496253534559 M374.3026566548959,350.496253534559 L379.88145603824915,347.2879510962526 M379.88145603824915,347.2879510962526 L386.63086521549695,344.94112534773063 M386.63086521549695,344.94112534773063 L394.15903777081485,343.59172051237 M394.15903777081485,343.59172051237 L402.02918553065075,343.317872521277 M402.02918553065075,343.317872521277 L409.7847890962928,344.13543738936266 M409.7847890962928,344.13543738936266 L416.97593697093595,345.9970788277733 M416.97593697093595,345.9970788277733 L423.18528856128546,348.7949800951354 M423.18528856128546,348.7949800951354 L428.0521847356963,352.367027638068 M428.0521847356963,352.367027638068 L431.29357456111796,356.50611328137165 M431.29357456111796,356.50611328137165 L432.72049946682506,360.9720672319404 M432.72049946682506,360.9720672319404 L432.24921364565404,365.50552308642625 M432.24921364565404,365.50552308642625 L429.90624082316197,369.84295161198855 M429.90624082316197,369.84295161198855 L425.82702354124586,373.7319932773877 M425.82702354124586,373.7319932773877 L420.2482241600109,376.946184328649 M420.2482241600109,376.946184328649 L413.49406081368596,379.2982241859965 M413.49406081368596,379.2982241859965 L405.9574690419785,380.6509741350889 M405.9574690419785,380.6509741350889 L398.07716575690455,380.9255319215941 M398.07716575690455,380.9255319215941 L390.31199686916045,380.10587892111596 M390.31199686916045,380.10587892111596 L383.1140651778062,378.2398297904978 M383.1140651778062,378.2398297904978 L376.9022653616422,375.43621102318656 M376.9022653616422,375.43621102318656 L376.8983984339396,365.7594652258386 M376.8983984339396,365.7594652258386 L372.03313859925385,362.1823025941027 M372.03313859925385,362.1823025941027 L368.79799315708135,358.0395071152231 M368.79799315708135,358.0395071152231 L367.3803977482901,353.57221777066223 M367.3803977482901,353.57221777066223 L367.8619203124822,349.0402355831202 M367.8619203124822,349.0402355831202 L370.2137056051121,344.7068827859263 M370.2137056051121,344.7068827859263 L374.2983592529807,340.82371012706466 M374.2983592529807,340.82371012706466 L379.8780899880995,337.61594881121067 M379.8780899880995,337.61594881121067 L386.6286255481247,335.2695189611946 M386.6286255481247,335.2695189611946 L394.15805419140634,333.9203417929688 M394.15805419140634,333.9203417929688 L402.02951498558195,333.6465400071782 M402.02951498558195,333.6465400071782 L409.78641251215805,334.4639669333077 M409.78641251215805,334.4639669333077 L416.97876034646845,336.3252942989459 M416.97876034646845,336.3252942989459 L423.1891483519377,339.1227236149721 M423.1891483519377,339.1227236149721 L428.05685723369726,342.69416875487167 M428.05685723369726,342.69416875487167 L431.2987887583285,346.83255655247876 M431.2987887583285,346.83255655247876 L432.72595268008007,351.2977577700639 M432.72595268008007,351.2977577700639 L432.25458902812073,355.8304497502636 M432.25458902812073,355.8304497502636 L429.9112257617031,360.16714765423643 M429.9112257617031,360.16714765423643 L425.8313278728211,364.05553441206206 M425.8313278728211,364.05553441206206 L420.251597139822,367.26918433148876 M420.251597139822,367.26918433148876 L413.4963058232185,369.62082828202307 M413.4963058232185,369.62082828202307 L405.95845515222123,370.9733505586515 M405.95845515222123,370.9733505586515 L398.07683544169663,371.2478621387233 M398.07683544169663,371.2478621387233 L390.310369398987,370.4283470835282 M390.310369398987,370.4283470835282 L383.1112354827288,368.56261203270475 M383.1112354827288,368.56261203270475 L376.8983984339396,365.7594652258386 M376.9370096802916,462.38170505065426 L376.93315435098157,452.7339835084563 M376.93315435098157,452.7339835084563 L383.1366687574577,455.54136101829044 M383.1366687574577,455.54136101829044 L390.32499708548,457.4099115115478 M390.32499708548,457.4099115115478 L398.07980431154226,458.23066312148444 M398.07980431154226,458.23066312148444 L405.9495920029297,457.95573734254566 M405.9495920029297,457.95573734254566 L413.4761276980665,456.60117418781834 M413.4761276980665,456.60117418781834 L420.2212808248222,454.2459812883116 M420.2212808248222,454.2459812883116 L425.7926405700214,451.0274806043174 M425.7926405700214,451.0274806043174 L429.86642116008665,447.1332231780903 M429.86642116008665,447.1332231780903 L432.20627510884816,442.7899758889655 M432.20627510884816,442.7899758889655 L432.676939207675,438.2504364338344 M432.676939207675,438.2504364338344 L431.25192355208924,433.77848760514195 M431.25192355208924,433.77848760514195 L428.01486081209543,429.6338442068783 M428.01486081209543,429.6338442068783 L423.15445653992157,426.0569990239265 M423.15445653992157,426.0569990239265 L416.953383833927,423.2553390523052 M416.953383833927,423.2553390523052 L409.7718212414832,421.39119628075093 M409.7718212414832,421.39119628075093 L402.0265538427466,420.5725328171798 M402.0265538427466,420.5725328171798 L394.16689460873135,420.8467487959567 M394.16689460873135,420.8467487959567 L386.6487556899636,422.19796681456785 M386.6487556899636,422.19796681456785 L379.9083440608427,424.5479455703557 M379.9083440608427,424.5479455703557 L374.3369843135365,427.7605576019847 M374.3369843135365,427.7605576019847 L370.2584622234425,431.64960088604136 M370.2584622234425,431.64960088604136 L367.9102114998063,435.98950304066653 M367.9102114998063,435.98950304066653 L367.4294189476989,440.52833269725795 M367.4294189476989,440.52833269725795 L368.8448947791134,445.00236967023045 M368.8448947791134,445.00236967023045 L372.0751917830206,449.1514207862918 M372.0751917830206,449.1514207862918 L376.93315435098157,452.7339835084563 M377.18133589228506,375.27557366767064 L372.3754799034892,371.7409491882458 M372.3754799034892,371.7409491882458 L369.17980533982086,367.6474031102712 M369.17980533982086,367.6474031102712 L367.7794649065266,363.2332057553498 M367.7794649065266,363.2332057553498 L368.25504392558906,358.75506717393114 M368.25504392558906,358.75506717393114 L370.57805704124297,354.4731812294931 M370.57805704124297,354.4731812294931 L374.61279579097464,350.63611572686915 M374.61279579097464,350.63611572686915 L380.1243807472188,347.46643253907024 M380.1243807472188,347.46643253907024 L386.7925001046622,345.14785080876203 M386.7925001046622,345.14785080876203 L394.2300227183709,343.81468331900993 M394.2300227183709,343.81468331900993 L402.00540925579656,343.54413128622525 M402.00540925579656,343.54413128622525 L409.6676278728491,344.3518586737984 M409.6676278728491,344.3518586737984 L416.77217680248935,346.1910964759841 M416.77217680248935,346.1910964759841 L422.9067299584656,348.95532277700175 M422.9067299584656,348.95532277700175 L427.7149755360768,352.484366698174 M427.7149755360768,352.484366698174 L430.9172714377414,356.57361065678356 M430.9172714377414,356.57361065678356 L432.32694808763296,360.9857698949553 M432.32694808763296,360.9857698949553 L431.86128135215756,365.46460126950313 M431.86128135215756,365.46460126950313 L429.5464858017407,369.74975220677953 M429.5464858017407,369.74975220677953 L425.51638735530895,373.5919069324916 M425.51638735530895,373.5919069324916 L420.0048024010828,376.76733769372794 M420.0048024010828,376.76733769372794 L413.33204274263227,379.09100864854395 M413.33204274263227,379.09100864854395 L405.8863025622554,380.42744113412175 M405.8863025622554,380.42744113412175 L398.10100373732377,380.69868595979733 M398.10100373732377,380.69868595979733 L390.42944890065286,379.88892045247735 M390.42944890065286,379.88892045247735 L383.31827863350276,378.0453805287702 M383.31827863350276,378.0453805287702 L377.18133589228506,375.27557366767064 M377.2118523842013,452.5731307683565 L383.34060958081636,455.3466510867215 M383.34060958081636,455.3466510867215 L390.4422922941531,457.19266223550727 M390.4422922941531,457.19266223550727 L398.10361046152036,458.0035131163713 M398.10361046152036,458.0035131163713 L405.8785205487755,457.73190473299996 M405.8785205487755,457.73190473299996 L413.3143259427272,456.3936808868192 M413.3143259427272,456.3936808868192 L419.97818401382943,454.0668948784292 M419.97818401382943,454.0668948784292 L425.48241896608477,450.8872064079195 M425.48241896608477,450.8872064079195 L429.50714614734625,447.039898761974 M429.50714614734625,447.039898761974 L431.81886026555384,442.7489991661568 M431.81886026555384,442.7489991661568 L432.28391261004145,438.26415748779215 M432.28391261004145,438.26415748779215 L430.87612205631376,433.84607559947295 M430.87612205631376,433.84607559947295 L427.678100998155,429.751340845789 M427.678100998155,429.751340845789 L422.87626907006614,426.21755708840465 M422.87626907006614,426.21755708840465 L416.74989508965604,423.4496173674689 M416.74989508965604,423.4496173674689 L409.65481606575804,421.6079083689942 M409.65481606575804,421.6079083689942 L402.0028092338674,420.7990956215151 M402.0028092338674,420.7990956215151 L394.2377850145625,421.07001120735976 M394.2377850145625,421.07001120735976 L386.81017528472245,422.4049700358663 M386.81017528472245,422.4049700358663 L380.1509451466813,424.7266667856907 M380.1509451466813,424.7266667856907 L374.6467101924186,427.90060764429643 M374.6467101924186,427.90060764429643 L370.61735507581545,431.742826033091 M370.61735507581545,431.742826033091 L368.29744529491984,436.03046061421543 M368.29744529491984,436.03046061421543 L367.8225070863801,440.51460949481367 M367.8225070863801,440.51460949481367 L369.22098630763605,444.934729513525 M369.22098630763605,444.934729513525 L372.41240367587227,449.03376641536954 M372.41240367587227,449.03376641536954 L377.2118523842013,452.5731307683565 M377.2118523842013,452.5731307683565 L377.18133589228506,375.27557366767064" stroke="black"  stroke-width="4"  fill="red"/></svg>