<svg viewBox="0 0 800 800" xmlns="http://www.w3.org/2000/svg"><path d="M654.1351084193352,294.66565427024545 L654.1764841030249,284.59425185389097 M654.1764841030249,284.59425185389097 L671.2091508772021,295.29956105907917 M671.2091508772021,295.29956105907917 L686.4171162878743,306.89289464965964 M686.4171162878743,306.89289464965964 L699.6614244838552,319.27181021108765 M699.6614244838552,319.27181021108765 L710.8200780801922,332.3265609021234 M710.8200780801922,332.3265609021234 L719.7892107925231,345.9410444929866 M719.7892107925231,345.9410444929866 L726.4841488087718,359.9937195895903 M726.4841488087718,359.9937195895903 L730.8403294651075,374.3586864414619 M730.8403294651075,374.3586864414619 L732.8139404453639,388.9067463959866 M732.8139404453639,388.9067463959866 L732.3825450786835,403.50657912140537 M732.3825450786835,403.50657912140537 L729.5454432838949,418.0258808705646 M729.5454432838949,418.0258808705646 L724.3237777754105,432.33255097659725 M724.3237777754105,432.33255097659725 L716.7606199745755,446.2959510431706 M716.7606199745755,446.2959510431706 L706.9206255484189,459.78810100209574 M706.9206255484189,459.78810100209574 L694.8896705309903,472.6848970429914 M694.8896705309903,472.6848970429914 L680.7741285316672,484.86728978696806 M680.7741285316672,484.86728978696806 L664.7000783996145,496.22248129835924 M664.7000783996145,496.22248129835924 L646.8121454702373,506.64499533917706 M646.8121454702373,506.64499533917706 L627.2722839393175,516.0377473996234 M627.2722839393175,516.0377473996234 L606.2583009488944,524.3130299749903 M606.2583009488944,524.3130299749903 L583.9621845809463,531.3933717251172 M583.9621845809463,531.3933717251172 L560.5883761702426,537.2123801619658 M560.5883761702426,537.2123801619658 L536.3517622008037,541.7153832800585 M536.3517622008037,541.7153832800585 L511.4756363726125,544.8600351778975 M511.4756363726125,544.8600351778975 L486.18952979709303,546.616710377257 M486.18952979709303,546.616710377257 L460.72701944679375,546.9688777317167 M460.72701944679375,546.9688777317167 L435.3233708142396,545.9132080582602 M435.3233708142396,545.9132080582602 L410.2132584014702,543.4596483936721 M410.2132584014702,543.4596483936721 L385.6285301534846,539.6313212037992 M385.6285301534846,539.6313212037992 L361.7958733751111,534.464239525855 M361.7958733751111,534.464239525855 L338.9346665845386,528.0069810626829 M338.9346665845386,528.0069810626829 L317.25478573128294,520.3201652283313 M317.25478573128294,520.3201652283313 L296.9547023183682,511.475812012202 M296.9547023183682,511.475812012202 L278.2195385045263,501.5566035589976 M278.2195385045263,501.5566035589976 L261.2193468315264,490.6550697275053 M261.2193468315264,490.6550697275053 L246.10761730247208,478.87260512291635 M246.10761730247208,478.87260512291635 L233.019826728216,466.3184876108133 M233.019826728216,466.3184876108133 L222.0723148136799,453.108796040485 M222.0723148136799,453.108796040485 L213.36131689047664,439.3652319365411 M213.36131689047664,439.3652319365411 L206.9621769760459,425.21400165987745 M206.9621769760459,425.21400165987745 L202.9287672205766,410.78456655848527 M202.9287672205766,410.78456655848527 L201.2932346106833,396.20845505651437 M201.2932346106833,396.20845505651437 L202.0657978983308,381.6180011541966 M202.0657978983308,381.6180011541966 L205.23482745945907,367.1451697249403 M205.23482745945907,367.1451697249403 L210.7671841574682,352.9203820591618 M210.7671841574682,352.9203820591618 L218.60856811055905,339.0713174716716 M218.60856811055905,339.0713174716716 L228.68426805677734,325.72182410940445 M228.68426805677734,325.72182410940445 L240.89988902196555,312.990850316217 M240.89988902196555,312.990850316217 L255.1423824034289,300.9914524998491 M255.1423824034289,300.9914524998491 L271.2810808583354,289.82981520422646 M271.2810808583354,289.82981520422646 L289.1690215529392,279.6044192541345 M289.1690215529392,279.6044192541345 L308.6442491789793,270.40522477209566 M308.6442491789793,270.40522477209566 L329.5312920271878,262.3129435847916 M329.5312920271878,262.3129435847916 L351.642748898961,255.39843221565297 M351.642748898961,255.39843221565297 L374.780852528575,249.7220893980483 M374.780852528575,249.7220893980483 L398.7392352662413,245.33343014756508 M398.7392352662413,245.33343014756508 L423.30465973462327,242.27066751678746 M423.30465973462327,242.27066751678746 L448.2588247397742,240.5604665052934 M448.2588247397742,240.5604665052934 L473.38015170897813,240.2176788554729 M473.38015170897813,240.2176788554729 L498.4457070698147,241.24529442691218 M498.4457070698147,241.24529442691218 L523.2330363739536,243.6343802433621 M523.2330363739536,243.6343802433621 L547.5219587548867,247.36414469935346 M547.5219587548867,247.36414469935346 L571.0964785339158,252.40213704279626 M571.0964785339158,252.40213704279626 L593.7465473041361,258.70444577910985 M593.7465473041361,258.70444577910985 L615.2699195442142,266.21605242899193 M615.2699195442142,266.21605242899193 L635.4737801405593,274.8712698553949 M635.4737801405593,274.8712698553949 L654.1764841030249,284.59425185389097 M654.1351084193352,294.66565427024545 L635.4365568738865,284.9404882042224 M635.4365568738865,284.9404882042224 L615.2371753048326,276.28332500403906 M615.2371753048326,276.28332500403906 L593.7185687327835,268.77002848566116 M593.7185687327835,268.77002848566116 L571.0735100529891,262.4663010812892 M571.0735100529891,262.4663010812892 L547.5042006832977,257.42717411166154 M547.5042006832977,257.42717411166154 L523.2206433737274,253.6965693404536 M523.2206433737274,253.6965693404536 L498.4387869686934,251.3069451202861 M498.4387869686934,251.3069451202861 L473.3787646734853,250.27909793130664 M473.3787646734853,250.27909793130664 L448.26298282834006,250.62196284542378 M448.26298282834006,250.62196284542378 L423.31432680291556,252.3325493016488 M423.31432680291556,252.3325493016488 L398.75432723308705,255.3960020740587 M398.75432723308705,255.3960020740587 L374.80123802310067,259.785649914288 M374.80123802310067,259.785649914288 L351.66825026171625,265.46327082591495 M351.66825026171625,265.46327082591495 L329.5616866736677,272.37933822452595 M329.5616866736677,272.37933822452595 L308.6792713144899,280.47343929543854 M308.6792713144899,280.47343929543854 L289.2083642531135,289.6747010386895 M289.2083642531135,289.6747010386895 L271.3243984783216,299.90239291512876 M271.3243984783216,299.90239291512876 L255.1892933291083,311.0665340155865 M255.1892933291083,311.0665340155865 L240.94997874746375,323.06862084388143 M240.94997874746375,323.06862084388143 L228.73709255884876,335.8024445090624 M228.73709255884876,335.8024445090624 L218.6636575328717,349.15492279191636 M218.6636575328717,349.15492279191636 L210.82404674931487,363.0070803148176 M210.82404674931487,363.0070803148176 L205.29295377516019,377.23504091658543 M205.29295377516019,377.23504091658543 L202.1246651967297,391.71109654280207 M202.1246651967297,391.71109654280207 L201.35231146461885,406.30479669334784 M201.35231146461885,406.30479669334784 L202.98751825123787,420.8841470896552 M202.98751825123787,420.8841470896552 L207.02006771185918,435.3167843948676 M207.02006771185918,435.3167843948676 L213.41781869320855,449.4711511753812 M213.41781869320855,449.4711511753812 L222.12690980749673,463.21775767340796 M222.12690980749673,463.21775767340796 L233.07201271708598,476.43036996887906 M233.07201271708598,476.43036996887906 L246.15691259832147,488.9872600885392 M246.15691259832147,488.9872600885392 L261.2652949404701,500.77232407151433 M261.2652949404701,500.77232407151433 L278.2617126234953,511.6762605141937 M278.2617126234953,511.6762605141937 L296.99270959837884,521.5976530596522 M296.99270959837884,521.5976530596522 L317.28827122498365,530.4439520726828 M317.28827122498365,530.4439520726828 L338.9633168589687,538.1324577963237 M338.9633168589687,538.1324577963237 L361.8194197290931,544.5911349454427 M361.8194197290931,544.5911349454427 L385.64675138021175,549.7593512641158 M385.64675138021175,549.7593512641158 L410.2259830974426,553.5885187800905 M410.2259830974426,553.5885187800905 L435.3304791619014,556.0426168554137 M435.3304791619014,556.0426168554137 L460.7284444751073,557.0985181494384 M460.7284444751073,557.0985181494384 L486.185258074243,556.7462735296714 M486.185258074243,556.7462735296714 L511.46570815040803,554.9892128805476 M511.46570815040803,554.9892128805476 L536.3362710004848,551.8438708321048 M536.3362710004848,551.8438708321048 L560.5674677937077,547.3398791115193 M560.5674677937077,547.3398791115193 L583.9360555879143,541.5195925643854 M583.9360555879143,541.5195925643854 L606.2271966099293,534.4376947653817 M606.2271966099293,534.4376947653817 L627.2364957009579,526.1605922843678 M627.2364957009579,526.1605922843678 L646.7720079467726,516.7657729386863 M646.7720079467726,516.7657729386863 L664.6559659632383,506.3409629463022 M664.6559659632383,506.3409629463022 L680.7264515228512,494.9832676045727 M680.7264515228512,494.9832676045727 L694.8388711427071,482.7981858238829 M694.8388711427071,482.7981858238829 L706.8671734515037,469.8985398879672 M706.8671734515037,469.8985398879672 L716.7050077063436,456.4034049882148 M716.7050077063436,456.4034049882148 L724.266515981667,442.43691196972077 M724.266515981667,442.43691196972077 L729.4870558368202,428.1270689157177 M729.4870558368202,428.1270689157177 L732.3235641562728,413.60454296274054 M732.3235641562728,413.60454296274054 L732.7549015807831,399.0014639877044 M732.7549015807831,399.0014639877044 L730.7817666642795,384.45016514299317 M730.7817666642795,384.45016514299317 L726.4265897411492,370.0819960967804 M726.4265897411492,370.0819960967804 L719.7331721104738,356.0261845106603 M719.7331721104738,356.0261845106603 L710.7660609230111,342.40865854419974 M710.7660609230111,342.40865854419974 L699.6099101648967,329.35098714977914 M699.6099101648967,329.35098714977914 L686.3685622211831,316.9692990048314 M686.3685622211831,316.9692990048314 L671.1639867680451,305.3733660611385 M671.1639867680451,305.3733660611385 L654.1351084193352,294.66565427024545 M645.9477314088081,289.34301246873986 L662.7084838543321,299.9134370179032 M662.7084838543321,299.9134370179032 L677.608470394589,311.3831900458818 M677.608470394589,311.3831900458818 L690.5028865658987,323.6443678468564 M690.5028865658987,323.6443678468564 L701.2654561346724,336.58122666308844 M701.2654561346724,336.58122666308844 L709.7896513279968,350.07126216605354 M709.7896513279968,350.07126216605354 L715.9898214009081,363.98626745707094 M715.9898214009081,363.98626745707094 L719.8022261048491,378.19352667670876 M719.8022261048491,378.19352667670876 L721.1857330766175,392.55701355200347 M721.1857330766175,392.55701355200347 L720.1224348642377,406.9387006924649 M720.1224348642377,406.9387006924649 L716.6179343284236,421.1998613917089 M716.6179343284236,421.1998613917089 L710.7015316776071,435.2023981806946 M710.7015316776071,435.2023981806946 L702.4260626520427,448.8102318181196 M702.4260626520427,448.8102318181196 L691.8676197679717,461.8906288885193 M691.8676197679717,461.8906288885193 L679.124886385074,474.3155695296983 M679.124886385074,474.3155695296983 L664.3183086797819,485.96301678972793 M664.3183086797819,485.96301678972793 L647.5891011486517,496.7182386271187 M647.5891011486517,496.7182386271187 L629.0978822625316,506.4749818355949 M629.0978822625316,506.4749818355949 L609.0231389388971,515.1365895812877 M609.0231389388971,515.1365895812877 L587.5595101157226,522.6170428003471 M587.5595101157226,522.6170428003471 L564.915915103745,528.8419250387309 M564.915915103745,528.8419250387309 L541.3133607413793,533.7491886660606 M541.3133607413793,533.7491886660606 L516.9827719478902,537.289831870816 M516.9827719478902,537.289831870816 L492.16258287050715,539.4284823147341 M492.16258287050715,539.4284823147341 L467.09633030026043,540.1437474495334 M467.09633030026043,540.1437474495334 L442.0300777300137,539.4284823147341 M442.0300777300137,539.4284823147341 L417.2098886526306,537.289831870816 M417.2098886526306,537.289831870816 L392.87929985914167,533.7491886660606 M392.87929985914167,533.7491886660606 L369.2767454967759,528.8419250387309 M369.2767454967759,528.8419250387309 L346.63315048479836,522.6170428003471 M346.63315048479836,522.6170428003471 L325.16952166162383,515.1365895812877 M325.16952166162383,515.1365895812877 L305.0947783379893,506.47498183559486 M305.0947783379893,506.47498183559486 L286.60355945186853,496.7182386271182 M286.60355945186853,496.7182386271182 L269.87435192073883,485.96301678972793 M269.87435192073883,485.96301678972793 L255.06777421544695,474.31556952969817 M255.06777421544695,474.31556952969817 L242.32504083254895,461.89062888851925 M242.32504083254895,461.89062888851925 L231.76659794847814,448.8102318181195 M231.76659794847814,448.8102318181195 L223.49112892291376,435.2023981806945 M223.49112892291376,435.2023981806945 L217.5747262720974,421.1998613917089 M217.5747262720974,421.1998613917089 L214.07022573628322,406.93870069246486 M214.07022573628322,406.93870069246486 L213.0069275239034,392.5570135520034 M213.0069275239034,392.5570135520034 L214.39043449567185,378.19352667670864 M214.39043449567185,378.19352667670864 L218.20283919961275,363.98626745707094 M218.20283919961275,363.98626745707094 L224.40300927252397,350.0712621660535 M224.40300927252397,350.0712621660535 L232.92720446584846,336.5812266630884 M232.92720446584846,336.5812266630884 L243.6897740346221,323.6443678468564 M243.6897740346221,323.6443678468564 L256.5841902059318,311.38319004588175 M256.5841902059318,311.38319004588175 L271.4841767461887,299.9134370179032 M271.4841767461887,299.9134370179032 L288.2449291917131,289.3430124687397 M288.2449291917131,289.3430124687397 L306.70461626873487,279.7710681664341 M306.70461626873487,279.7710681664341 L326.6859618675408,271.2871590566428 M326.6859618675408,271.2871590566428 L347.99791532585084,263.97047483758325 M347.99791532585084,263.97047483758325 L370.43738625992955,257.8891384081725 M370.43738625992955,257.8891384081725 L393.79121184773464,253.09968064891538 M393.79121184773464,253.09968064891538 L417.8380257955753,249.64657534262545 M417.8380257955753,249.64657534262545 L442.350299594696,247.5618306626409 M442.350299594696,247.5618306626409 L467.0963303002604,246.86476721522982 M467.0963303002604,246.86476721522982 L491.84236100582484,247.5618306626409 M491.84236100582484,247.5618306626409 L516.3546348049456,249.64657534262545 M516.3546348049456,249.64657534262545 L540.4014487527863,253.09968064891538 M540.4014487527863,253.09968064891538 L563.7552743405913,257.8891384081725 M563.7552743405913,257.8891384081725 L586.1947452746701,263.97047483758325 M586.1947452746701,263.97047483758325 L607.5066987329801,271.2871590566428 M607.5066987329801,271.2871590566428 L627.4880443317861,279.77106816643413 M627.4880443317861,279.77106816643413 L645.9477314088081,289.34301246873986 M293.0660676381118,307.20155592214223 L278.0901121914894,317.1220128776044 M278.0901121914894,317.1220128776044 L264.79828994639865,327.81981094818974 M264.79828994639865,327.81981094818974 L253.3115713639407,339.20057152306725 M253.3115713639407,339.20057152306725 L243.73537001698116,351.16363876301693 M243.73537001698116,351.16363876301693 L236.1583940465574,363.6028343411204 M236.1583940465574,363.6028343411204 L230.65187178108275,376.4074122831142 M230.65187178108275,376.4074122831142 L227.26877522156605,389.46298713677925 M227.26877522156605,389.46298713677925 L226.04317798621636,402.6525431661921 M226.04317798621636,402.6525431661921 L226.98987497094228,415.85743759356774 M226.98987497094228,415.85743759356774 L230.1041024189349,428.9584759758338 M230.1041024189349,428.9584759758338 L235.3614568715131,441.8370075240367 M235.3614568715131,441.8370075240367 L242.7179281773456,454.3759870589465 M242.7179281773456,454.3759870589465 L252.11021897371143,466.4610798805479 M252.11021897371143,466.4610798805479 L263.4562365937626,477.98171874560524 M263.4562365937626,477.98171874560524 L276.65562778837585,488.8322172391309 M276.65562778837585,488.8322172391309 L291.5907475651133,498.9127043740947 M405.9961770460516,432.87537382886364 L291.5907475651133,498.9127043740947 M406.1583722195543,372.5099413900616 L398.7092865164873,378.39203062780666 M398.7092865164873,378.39203062780666 L392.9460699144505,384.8768361221999 M392.9460699144505,384.8768361221999 L389.01234414966245,391.8048691903938 M389.01234414966245,391.8048691903938 L387.0069166455263,399.0054405332118 M387.0069166455263,399.0054405332118 L386.98118441082505,406.30081759075694 M386.98118441082505,406.30081759075694 L388.9376771703712,413.51059011458096 M388.9376771703712,413.51059011458096 L392.8298086990627,420.4561209862888 M392.8298086990627,420.4561209862888 L398.5628607244804,426.96500070126666 M398.5628607244804,426.96500070126666 L405.9961770460516,432.87537382886364 M293.0660676381118,307.20155592214223 L406.1583722195543,372.5099413900616 M632.3857132479668,302.1983534988245 L615.0858149129572,293.6429972487459 M615.0858149129572,293.6429972487459 L596.4713610939953,286.07113810203737 M596.4713610939953,286.07113810203737 L576.7088828218626,279.54897096608653 M576.7088828218626,279.54897096608653 L555.9745449752014,274.13344047038834 M555.9745449752014,274.13344047038834 L534.4527730710374,269.8717162415895 M534.4527730710374,269.8717162415895 L512.334579605128,266.8008886390194 M512.334579605128,266.8008886390194 L489.815982693911,264.9476632936591 M489.815982693911,264.9476632936591 L467.0963303002604,264.32812857188435 M467.0963303002604,264.32812857188435 L444.3766779066098,264.9476632936591 M444.3766779066098,264.9476632936591 L421.85808099539287,266.8008886390194 M421.85808099539287,266.8008886390194 L399.7398875294834,269.8717162415895 M399.7398875294834,269.8717162415895 L378.21811562531946,274.1334404703882 M378.21811562531946,274.1334404703882 L357.4837777786582,279.54897096608653 M357.4837777786582,279.54897096608653 L337.7212995065256,286.0711381020373 M337.7212995065256,286.0711381020373 L319.1068456875637,293.6429972487459 M319.1068456875637,293.6429972487459 L301.80694735255406,302.1983534988245 M414.89939647466167,367.4778028984763 L301.80694735255406,302.1983534988245 M519.2932641258592,367.4778028984763 L509.0886226022561,363.1957135039461 M509.0886226022561,363.1957135039461 L497.85085482355015,359.88901209538983 M497.85085482355015,359.88901209538983 L485.85677225372274,357.6385892395563 M485.85677225372274,357.6385892395563 L473.4014720299411,356.49945901900406 M473.4014720299411,356.49945901900406 L460.79118857057983,356.49945901900406 M460.79118857057983,356.49945901900406 L448.33588834679813,357.6385892395563 M448.33588834679813,357.6385892395563 L436.34180577697066,359.88901209538983 M436.34180577697066,359.88901209538983 L425.1040379982647,363.1957135039461 M425.1040379982647,363.1957135039461 L414.89939647466167,367.4778028984763 M632.3857132479668,302.1983534988245 L519.2932641258592,367.4778028984763 M642.6019130354075,498.9127043740947 L657.5370328121451,488.8322172391309 M657.5370328121451,488.8322172391309 L670.7364240067584,477.98171874560524 M670.7364240067584,477.98171874560524 L682.0824416268094,466.461079880548 M682.0824416268094,466.461079880548 L691.4747324231753,454.3759870589465 M691.4747324231753,454.3759870589465 L698.8312037290077,441.83700752403684 M698.8312037290077,441.83700752403684 L704.088558181586,428.9584759758338 M704.088558181586,428.9584759758338 L707.2027856295786,415.85743759356774 M707.2027856295786,415.85743759356774 L708.1494826143046,402.6525431661921 M708.1494826143046,402.6525431661921 L706.9238853789548,389.46298713677925 M706.9238853789548,389.46298713677925 L703.5407888194381,376.40741228311424 M703.5407888194381,376.40741228311424 L698.0342665539636,363.6028343411204 M698.0342665539636,363.6028343411204 L690.4572905835396,351.163638763017 M690.4572905835396,351.163638763017 L680.88108923658,339.20057152306725 M680.88108923658,339.20057152306725 L669.3943706541222,327.81981094818974 M669.3943706541222,327.81981094818974 L656.1025484090314,317.1220128776044 M656.1025484090314,317.1220128776044 L641.126592962409,307.20155592214223 M528.0342883809666,372.5099413900616 L641.126592962409,307.20155592214223 M528.1964835544693,432.87537382886364 L535.6297998760405,426.96500070126666 M535.6297998760405,426.96500070126666 L541.3628519014582,420.4561209862889 M541.3628519014582,420.4561209862889 L545.2549834301497,413.51059011458096 M545.2549834301497,413.51059011458096 L547.2114761896959,406.30081759075694 M547.2114761896959,406.30081759075694 L547.1857439549947,399.0054405332118 M547.1857439549947,399.0054405332118 L545.1803164508585,391.80486919039384 M545.1803164508585,391.80486919039384 L541.2465906860705,384.87683612219996 M541.2465906860705,384.87683612219996 L535.4833740840336,378.39203062780666 M535.4833740840336,378.39203062780666 L528.0342883809666,372.5099413900616 M642.6019130354075,498.9127043740947 L528.1964835544693,432.87537382886364 M300.33162443907634,504.0033564710138 L317.67234841427137,512.7187445398732 M317.67234841427137,512.7187445398732 L336.3792250890394,520.4433077205923 M336.3792250890394,520.4433077205923 L356.2823991323175,527.1053586739957 M356.2823991323175,527.1053586739957 L377.2006460819063,532.6429206082092 M377.2006460819063,532.6429206082092 L398.9429251529849,537.0044346991111 M398.9429251529849,537.0044346991111 L421.3102925273276,540.1492208952145 M421.3102925273276,540.1492208952145 L444.0977673697203,542.0479128979929 M444.0977673697203,542.0479128979929 L467.09633030026043,542.6827870901851 M467.09633030026043,542.6827870901851 L490.09489323080055,542.0479128979929 M490.09489323080055,542.0479128979929 L512.8823680731932,540.1492208952145 M512.8823680731932,540.1492208952145 L535.2497354475361,537.0044346991111 M535.2497354475361,537.0044346991111 L556.9920145186145,532.6429206082092 M556.9920145186145,532.6429206082092 L577.9102614682034,527.1053586739957 M577.9102614682034,527.1053586739957 L597.8134355114814,520.4433077205923 M597.8134355114814,520.4433077205923 L616.5203121862494,512.7187445398732 M616.5203121862494,512.7187445398732 L633.8610361614444,504.0033564710138 M519.4554594031788,437.9365844279363 L633.8610361614444,504.0033564710138 M414.73720119734196,437.9365844279362 L424.9576119301692,442.2469578020187 M424.9576119301692,442.2469578020187 L436.2255442191241,445.57773353163077 M436.2255442191241,445.57773353163077 L448.2612210900374,447.84565430372896 M448.2612210900374,447.84565430372896 L460.76545622982934,448.99398578950616 M460.76545622982934,448.99398578950616 L473.4272043706915,448.99398578950616 M473.4272043706915,448.99398578950616 L485.9314395104835,447.84565430372896 M485.9314395104835,447.84565430372896 L497.96711638139675,445.57773353163077 M497.96711638139675,445.57773353163077 L509.23504867035166,442.2469578020187 M509.23504867035166,442.2469578020187 L519.4554594031788,437.9365844279363 M300.33162443907634,504.0033564710138 L414.73720119734196,437.9365844279362 M434.29008341757145,421.59323863501385 L442.4086162035273,425.3367926122193 M442.4086162035273,425.3367926122193 L451.76873927945877,427.9426426925028 M451.76873927945877,427.9426426925028 L461.8999780178286,429.2793073351529 M461.8999780178286,429.2793073351529 L472.2926825826923,429.2793073351529 M472.2926825826923,429.2793073351529 L482.42392132106215,427.9426426925028 M482.42392132106215,427.9426426925028 L491.7840443969936,425.3367926122193 M491.7840443969936,425.3367926122193 L499.9025771829495,421.59323863501385 M499.9025771829495,421.59323863501385 L506.3720222162459,416.9007120741718 M506.3720222162459,416.9007120741718 L510.8683790590019,411.4955301332011 M510.8683790590019,411.4955301332011 L513.1673079073348,405.6495405748052 M513.1673079073348,405.6495405748052 L513.1551512528081,399.65633656914855 M513.1551512528081,399.65633656914855 L510.83431686149555,393.81643756702294 M510.83431686149555,393.81643756702294 L506.32280090485557,388.42223043144196 M506.32280090485557,388.42223043144196 L499.84794563110466,383.743389238534 M499.84794563110466,383.743389238534 L491.7348230559416,380.0135206364406 M491.7348230559416,380.0135206364406 L482.38985908656844,377.4186453808637 M482.38985908656844,377.4186453808637 L472.28052591170484,376.0880713118916 M472.28052591170484,376.0880713118916 L461.912134688816,376.0880713118916 M461.912134688816,376.0880713118916 L451.80280151395243,377.4186453808637 M451.80280151395243,377.4186453808637 L442.45783754457926,380.0135206364406 M442.45783754457926,380.0135206364406 L434.3447149694159,383.7433892385342 M434.3447149694159,383.7433892385342 L427.86985969566535,388.42223043144196 M427.86985969566535,388.42223043144196 L423.3583437390253,393.81643756702294 M423.3583437390253,393.81643756702294 L421.03750934771267,399.65633656914855 M421.03750934771267,399.65633656914855 L421.0253526931861,405.6495405748052 M421.0253526931861,405.6495405748052 L423.32428154151904,411.4955301332011 M423.32428154151904,411.4955301332011 L427.82063838427496,416.9007120741718 M427.82063838427496,416.9007120741718 L434.29008341757145,421.59323863501385 M645.9477314088081,289.34301246873986 L646.264875452232,208.60251792006883 M646.264875452232,208.60251792006883 L663.0555110552862,219.15385852166258 M663.0555110552862,219.15385852166258 L677.9821208396493,230.60292374755014 M677.9821208396493,230.60292374755014 L690.8996394107614,242.84200905894215 M690.8996394107614,242.84200905894215 L701.6815606253513,255.755583462007 M701.6815606253513,255.755583462007 L710.2211601766869,269.2213668418708 M710.2211601766869,269.2213668418708 L716.4326264204972,283.1113858788294 M716.4326264204972,283.1113858788294 L720.2520959946389,297.2931653605002 M720.2520959946389,297.2931653605002 L721.6383528099086,311.63092446031106 M721.6383528099086,311.63092446031106 L720.5734465722014,325.9868836084401 M720.5734465722014,325.9868836084401 L717.0629791106346,340.22256392780906 M717.0629791106346,340.22256392780906 L711.1362921700465,354.2001134213032 M711.1362921700465,354.2001134213032 L702.8463057216004,367.7836935359873 M702.8463057216004,367.7836935359873 L692.2692390975919,380.84080449069086 M692.2692390975919,380.84080449069086 L679.5039442181908,393.24365070382373 M679.5039442181908,393.24365070382373 L664.6710763779222,404.8704080631586 M664.6710763779222,404.8704080631586 L647.9120981996289,415.6065437757487 M647.9120981996289,415.6065437757487 L629.3879130001621,425.34598842830917 M629.3879130001621,425.34598842830917 L609.2773265856285,433.9922517735033 M609.2773265856285,433.9922517735033 L587.7753277390404,441.45946251574577 M587.7753277390404,441.45946251574577 L565.0912131235823,447.67333166931184 M565.0912131235823,447.67333166931184 L541.4463903311289,452.5719176269346 M541.4463903311289,452.5719176269346 L517.0722042977588,456.10630214327216 M517.0722042977588,456.10630214327216 L492.2075238211492,458.2411731106465 M492.2075238211492,458.2411731106465 L467.09633030026043,458.95517437092144 M467.09633030026043,458.95517437092144 L441.9851367793716,458.2411731106465 M441.9851367793716,458.2411731106465 L417.1204563027619,456.10630214327216 M417.1204563027619,456.10630214327216 L392.7462702693919,452.5719176269346 M392.7462702693919,452.5719176269346 L369.1014474769385,447.67333166931184 M369.1014474769385,447.67333166931184 L346.4173328614805,441.45946251574577 M346.4173328614805,441.45946251574577 L324.9153340148924,433.9922517735033 M324.9153340148924,433.9922517735033 L304.8047476003586,425.34598842830906 M304.8047476003586,425.34598842830906 L286.2805624008914,415.6065437757484 M286.2805624008914,415.6065437757484 L269.5215842225987,404.8704080631586 M269.5215842225987,404.8704080631586 L254.68871638233017,393.2436507038236 M254.68871638233017,393.2436507038236 L241.92342150292896,380.84080449069074 M241.92342150292896,380.84080449069074 L231.34635487892055,367.78369353598725 M231.34635487892055,367.78369353598725 L223.05636843047424,354.2001134213031 M223.05636843047424,354.2001134213031 L217.12968148988628,340.22256392780906 M217.12968148988628,340.22256392780906 L213.61921402831936,325.98688360844 M213.61921402831936,325.98688360844 L212.55430779061217,311.63092446031095 M212.55430779061217,311.63092446031095 L213.94056460588203,297.2931653605002 M213.94056460588203,297.2931653605002 L217.76003418002372,283.1113858788294 M217.76003418002372,283.1113858788294 L223.971500423834,269.2213668418707 M223.971500423834,269.2213668418707 L232.5110999751695,255.755583462007 M232.5110999751695,255.755583462007 L243.29302118975932,242.84200905894215 M243.29302118975932,242.84200905894215 L256.2105397608716,230.60292374755014 M256.2105397608716,230.60292374755014 L271.1371495452348,219.1538585216625 M271.1371495452348,219.1538585216625 L287.9277851482889,208.60251792006858 M287.9277851482889,208.60251792006858 L306.42032612192213,199.0478700017933 M306.42032612192213,199.0478700017933 L326.43718178187487,190.5793032091218 M326.43718178187487,190.5793032091218 L347.78696441333716,183.27585955120702 M347.78696441333716,183.27585955120702 L370.2662270636423,177.20553453096528 M370.2662270636423,177.20553453096528 L393.6614341277813,172.42475306865384 M393.6614341277813,172.42475306865384 L417.7508333813376,168.97790543213722 M417.7508333813376,168.97790543213722 L442.30650055585977,166.8969396020148 M442.30650055585977,166.8969396020148 L467.0963303002604,166.2011398176274 M467.0963303002604,166.2011398176274 L491.88616004466104,166.8969396020149 M491.88616004466104,166.8969396020149 L516.4418272191833,168.97790543213722 M516.4418272191833,168.97790543213722 L540.5312264727395,172.42475306865384 M540.5312264727395,172.42475306865384 L563.9264335368784,177.20553453096528 M563.9264335368784,177.20553453096528 L586.4056961871836,183.27585955120702 M586.4056961871836,183.27585955120702 L607.755478818646,190.5793032091218 M607.755478818646,190.5793032091218 L627.7723344785986,199.0478700017933 M627.7723344785986,199.0478700017933 L646.264875452232,208.60251792006883 M295.55960767011186,410.27075647284 L313.4281526206296,419.6465138015434 M313.4281526206296,419.6465138015434 L332.84569852011003,427.9505301401288 M332.84569852011003,427.9505301401288 L353.6179665287997,435.09784751771025 M353.6179665287997,435.09784751771025 L375.5364088597302,441.0151910825281 M375.5364088597302,441.0151910825281 L398.3803776745502,445.64177316453134 M398.3803776745502,445.64177316453134 L421.91936651840706,448.9300253691183 M421.91936651840706,448.9300253691183 L445.91549437824443,450.8460837648471 M445.91549437824443,450.8460837648471 L470.1260048734855,451.3702271500753 M470.1260048734855,451.3702271500753 L494.30583776174234,450.4970410322258 M494.30583776174234,450.4970410322258 L518.2102884482034,448.23551485392113 M518.2102884482034,448.23551485392113 L541.597590870295,444.60897235771836 M541.597590870295,444.60897235771836 L564.2314431616642,439.65471183829544 M564.2314431616642,439.65471183829544 L585.883598091478,433.4236813495311 M585.883598091478,433.4236813495311 L606.3361983204625,425.97983682737936 M606.3361983204625,425.97983682737936 L625.3841066779096,417.39948565325335 M625.3841066779096,417.39948565325335 L642.8369149459977,407.77035244928754 M642.8369149459977,407.77035244928754 L658.5210290154303,397.1907038327509 M658.5210290154303,397.1907038327509 L672.281239599231,385.76817796711975 M672.281239599231,385.76817796711975 L683.9823482792588,373.6186751563551 M683.9823482792588,373.6186751563551 L693.5104286377903,360.86511172845024 M693.5104286377903,360.86511172845024 L700.7737923054108,347.63606251373886 M700.7737923054108,347.63606251373886 L705.7038834211332,334.0644706933727 M705.7038834211332,334.0644706933727 L708.2557240340268,320.2862145734806 M708.2557240340268,320.2862145734806 L708.40825544983,306.43877522836783 M708.40825544983,306.43877522836783 L706.1643351151426,292.65980224408264 M706.1643351151426,292.65980224408264 L701.5505880874532,279.0857685930158 M701.5505880874532,279.0857685930158 L694.6169206949057,265.8506182792763 M694.6169206949057,265.8506182792763 L685.4358900912462,253.0845206410457 M685.4358900912462,253.0845206410457 L674.1018194336002,240.91257599979627 M674.1018194336002,240.91257599979627 L660.729790743814,229.4536457349553 M660.729790743814,229.4536457349553 L645.4543309533692,218.81931750826 M645.4543309533692,218.81931750826 L628.428100076065,209.11280463404475 M628.428100076065,209.11280463404475 L609.8202750494024,200.42807304530515 M609.8202750494024,200.42807304530515 L589.8148661712473,192.8490023514055 M589.8148661712473,192.8490023514055 L568.6090221889522,186.44860840397942 M568.6090221889522,186.44860840397942 L546.4109946066217,181.2884579498773 M546.4109946066217,181.2884579498773 L523.4382759520969,177.41809254637542 M523.4382759520969,177.41809254637542 L499.9155650579689,174.87463236786243 M499.9155650579689,174.87463236786243 L476.0725786411272,173.68244781367645 M476.0725786411272,173.68244781367645 L452.1420072354109,173.85296634698568 M452.1420072354109,173.85296634698568 L428.3573416511256,175.3845463602053 M428.3573416511256,175.3845463602053 L404.9507608059446,178.26252161500682 M404.9507608059446,178.26252161500682 L382.1509062635626,182.45930249736517 M382.1509062635626,182.45930249736517 L360.1808629107769,187.9346419457674 M360.1808629107769,187.9346419457674 L339.25598540470656,194.63592798424474 M339.25598540470656,194.63592798424474 L319.58197783050537,202.49869563907555 M319.58197783050537,202.49869563907555 L301.35285286055284,211.447145124726 M301.35285286055284,211.447145124726 L284.7490653203102,221.39479328926595 M284.7490653203102,221.39479328926595 L269.93585092400485,232.24530066379066 M269.93585092400485,232.24530066379066 L257.0614220953787,243.89324027973257 M257.0614220953787,243.89324027973257 L246.2556205288292,256.2251354401111 M246.2556205288292,256.2251354401111 L237.62841420683685,269.1204383696452 M237.62841420683685,269.1204383696452 L231.2688095804913,282.4526814919663 M231.2688095804913,282.4526814919663 L227.24372638283705,296.090629448784 M227.24372638283705,296.090629448784 L225.59735271183126,309.8995813690425 M225.59735271183126,309.8995813690425 L226.35038082024147,323.7426490748968 M226.35038082024147,323.7426490748968 L229.49968590673683,337.48208714783044 M229.49968590673683,337.48208714783044 L235.0182441577406,350.9806927912196 M235.0182441577406,350.9806927912196 L242.855128466849,364.10318650672605 M242.855128466849,364.10318650672605 L252.93595010697737,376.71758669229513 M252.93595010697737,376.71758669229513 L265.16336753075285,388.69661348790675 M265.16336753075285,388.69661348790675 L279.4180214843344,399.91899268319423 M279.4180214843344,399.91899268319423 L295.55960767011186,410.27075647284 M295.55960767011186,410.27075647284 L295.6171317219664,425.49951888763803 M295.6171317219664,425.49951888763803 L294.16409961415354,424.64880726144156 M294.16409961415354,424.64880726144156 L292.7238497745653,423.79099078536746 M292.7238497745653,423.79099078536746 L291.2965059233902,422.9261234691613 M291.2965059233902,422.9261234691613 L291.5907475651133,498.9127043740947 M292.7767561398017,231.5360842448578 L293.0660676381118,307.20155592214223 M292.7767561398017,231.5360842448578 L295.64608291696015,229.8425442413322 M295.64608291696015,229.8425442413322 L298.564857638972,228.17746964103264 M298.564857638972,228.17746964103264 L301.53222776624386,226.54133423321588 M301.53222776624386,226.54133423321588 L301.80694735255406,302.1983534988245 M632.6604328342771,226.54133423321588 L632.3857132479668,302.1983534988245 M632.6604328342771,226.54133423321588 L635.6278029615489,228.17746964103264 M635.6278029615489,228.17746964103264 L638.5465776835606,229.8425442413322 M638.5465776835606,229.8425442413322 L641.415904460719,231.5360842448578 M641.415904460719,231.5360842448578 L641.126592962409,307.20155592214223 M642.8961546771307,422.9261234691613 L642.6019130354075,498.9127043740947 M642.8961546771307,422.9261234691613 L640.0285609863674,424.64880726144156 M640.0285609863674,424.64880726144156 L637.1097872190078,426.34304287178895 M637.1097872190078,426.34304287178895 L634.1406859101837,428.0083224333831 M634.1406859101837,428.0083224333831 L633.8610361614444,504.0033564710138 M300.05197469033703,428.0083224333831 L300.33162443907634,504.0033564710138 M300.05197469033703,428.0083224333831 L298.56118443644027,427.1793351909816 M298.56118443644027,427.1793351909816 L297.0828733815131,426.34304287178895 M297.0828733815131,426.34304287178895 L295.6171317219664,425.49951888763803 M414.6496542611775,362.05155127821354 L411.5816473467005,360.4542908989889 M411.5816473467005,360.4542908989889 L408.66054337805315,358.768545333677 M408.66054337805315,358.768545333677 L405.89403747572857,356.9987939926036 M300.05197469033703,428.0083224333831 L414.6496542611775,362.05155127821354 M405.89403747572857,356.9987939926036 L291.2965059233902,422.9261234691613 M405.89403747572857,356.9987939926036 L405.9961770460516,432.87537382886364 M406.0567746554065,296.73447469802954 L406.1583722195543,372.5099413900616 M292.7767561398017,231.5360842448578 L406.0567746554065,296.73447469802954 M406.0567746554065,296.73447469802954 L408.8250126113183,294.97439690637685 M408.8250126113183,294.97439690637685 L411.74611661529775,293.2983760993128 M411.74611661529775,293.2983760993128 L414.81239154536746,291.71078927696465 M414.81239154536746,291.71078927696465 L301.53222776624386,226.54133423321588 M414.81239154536746,291.71078927696465 L414.89939647466167,367.4778028984763 M519.3802690551533,291.71078927696465 L519.2932641258592,367.4778028984763 M632.6604328342771,226.54133423321588 L519.3802690551533,291.71078927696465 M523.925733518806,294.1255998136643 L525.3676479892026,294.97439690637685 M525.3676479892026,294.97439690637685 L526.7713417459165,295.84421056094845 M526.7713417459165,295.84421056094845 L528.1358859451143,296.73447469802954 M519.3802690551533,291.71078927696465 L520.9310578445454,292.4932633762735 M520.9310578445454,292.4932633762735 L522.4465439852231,293.2983760993128 M522.4465439852231,293.2983760993128 L523.925733518806,294.1255998136643 M528.1358859451143,296.73447469802954 L641.415904460719,231.5360842448578 M528.1358859451143,296.73447469802954 L528.0342883809666,372.5099413900616 M528.2986231247922,356.9987939926036 L528.1964835544693,432.87537382886364 M642.8961546771307,422.9261234691613 L528.2986231247922,356.9987939926036 M528.2986231247922,356.9987939926036 L525.5321172224676,358.768545333677 M525.5321172224676,358.768545333677 L522.6110132538204,360.4542908989889 M522.6110132538204,360.4542908989889 L519.5430063393434,362.05155127821354 M519.5430063393434,362.05155127821354 L634.1406859101837,428.0083224333831 M519.5430063393434,362.05155127821354 L519.4554594031788,437.9365844279363 M414.6496542611775,362.05155127821354 L414.73720119734196,437.9365844279362 M523.9446871830256,278.9410590651638 L532.9706244767106,285.10698822745815 M532.9706244767106,285.10698822745815 L540.0019882642539,292.08172378078973 M540.0019882642539,292.08172378078973 L544.8238482312561,299.6546297568749 M544.8238482312561,299.6546297568749 L547.2877322588627,307.5965632939225 M547.2877322588627,307.5965632939225 L547.3163487631427,315.6667252986689 M547.3163487631427,315.6667252986689 L544.906246192865,323.6199150827403 M544.906246192865,323.6199150827403 L540.1282293283022,331.2139758993481 M540.1282293283022,331.2139758993481 L533.1254821543218,338.21721331822766 M533.1254821543218,338.21721331822766 L524.1094834009932,344.41555365301355 M524.1094834009932,344.41555365301355 L513.3537193067089,349.6191971384815 M513.3537193067089,349.6191971384815 L501.18544343257804,353.6685679903783 M501.18544343257804,353.6685679903783 L487.97567023779715,356.43933327216183 M487.97567023779715,356.43933327216183 L474.1277574812484,357.84634894617994 M474.1277574812484,357.84634894617994 L460.0649031192724,357.84634894617994 M460.0649031192724,357.84634894617994 L446.2169903627237,356.43933327216183 M446.2169903627237,356.43933327216183 L433.00721716794277,353.6685679903783 M433.00721716794277,353.6685679903783 L420.83894129381196,349.6191971384815 M420.83894129381196,349.6191971384815 L410.0831771995275,344.41555365301343 M410.0831771995275,344.41555365301343 L401.0671784461991,338.21721331822766 M401.0671784461991,338.21721331822766 L394.0644312722187,331.2139758993481 M394.0644312722187,331.2139758993481 L389.2864144076559,323.6199150827403 M389.2864144076559,323.6199150827403 L386.8763118373782,315.6667252986689 M386.8763118373782,315.6667252986689 L386.90492834165826,307.5965632939225 M386.90492834165826,307.5965632939225 L389.36881236926473,299.6546297568749 M389.36881236926473,299.6546297568749 L394.19067233626697,292.08172378078973 M394.19067233626697,292.08172378078973 L401.22203612381026,285.10698822745815 M401.22203612381026,285.10698822745815 L410.24797341749536,278.9410590651638 M410.24797341749536,278.9410590651638 L420.99379919332256,273.7698267965401 M420.99379919332256,273.7698267965401 L433.1334585719608,269.74895793833275 M433.1334585719608,269.74895793833275 L446.29938862329686,266.9993476247675 M446.29938862329686,266.9993476247675 L460.09351974162274,265.6035882977982 M460.09351974162274,265.6035882977982 L474.09914085889807,265.6035882977982 M474.09914085889807,265.6035882977982 L487.893271977224,266.9993476247675 M487.893271977224,266.9993476247675 L501.0592020285601,269.74895793833275 M501.0592020285601,269.74895793833275 L513.1988614071983,273.7698267965401 M513.1988614071983,273.7698267965401 L523.9446871830256,278.9410590651638 M523.9446871830256,278.9410590651638 L523.925733518806,294.1255998136643 M434.29008341757145,421.59323863501385 L434.2791352290573,406.44194644787353 M434.2791352290573,406.44194644787353 L442.4003759960702,410.1842536123943 M442.4003759960702,410.1842536123943 L451.76362268533796,412.7892360418264 M451.76362268533796,412.7892360418264 L461.89824329061776,414.12545570237205 M461.89824329061776,414.12545570237205 L472.2944173099031,414.12545570237205 M472.2944173099031,414.12545570237205 L482.42903791518285,412.7892360418264 M482.42903791518285,412.7892360418264 L491.79228460445074,410.1842536123943 M491.79228460445074,410.1842536123943 L499.91352537146366,406.44194644787353 M499.91352537146366,406.44194644787353 L506.3851266982982,401.7509833416675 M506.3851266982982,401.7509833416675 L510.88298029234846,396.3476030987639 M510.88298029234846,396.3476030987639 L513.1826720485706,390.50356313734954 M513.1826720485706,390.50356313734954 L513.1705072855535,384.5123588651369 M513.1705072855535,384.5123588651369 L510.8488953753479,378.6744094579616 M510.8488953753479,378.6744094579616 L506.33587255627293,373.28200401679015 M506.33587255627293,373.28200401679015 L499.8588573803403,368.60472627396217 M499.8588573803403,368.60472627396217 L491.7430304327242,364.8761044800031 M491.7430304327242,364.8761044800031 L482.3949529611456,362.2820968716324 M482.3949529611456,362.2820968716324 L472.2822525304031,360.9519677827434 M472.2822525304031,360.9519677827434 L461.91040807011774,360.9519677827435 M461.91040807011774,360.9519677827435 L451.79770763937523,362.2820968716324 M451.79770763937523,362.2820968716324 L442.4496301677966,364.8761044800031 M442.4496301677966,364.8761044800031 L434.3338032201803,368.60472627396234 M434.3338032201803,368.60472627396234 L427.856788044248,373.28200401679015 M427.856788044248,373.28200401679015 L423.3437652251729,378.67440945796153 M423.3437652251729,378.67440945796153 L421.0221533149674,384.5123588651369 M421.0221533149674,384.5123588651369 L421.0099885519503,390.50356313734954 M421.0099885519503,390.50356313734954 L423.3096803081724,396.3476030987639 M423.3096803081724,396.3476030987639 L427.8075339022227,401.7509833416675 M427.8075339022227,401.7509833416675 L434.2791352290573,406.44194644787353 M417.84999441968614,415.92098962890987 L409.6539536099259,410.2105385197177 M409.6539536099259,410.2105385197177 L403.41984394683055,403.7294739044926 M403.41984394683055,403.7294739044926 L399.358745565439,396.69962214465716 M399.358745565439,396.69962214465716 L397.60712445352755,389.3611708842491 M397.60712445352755,389.3611708842491 L398.22243551217207,381.96437390517923 M398.22243551217207,381.96437390517923 L401.1814499730783,374.7609943830419 M401.1814499730783,374.7609943830419 L406.3813659907522,367.9957474654189 M406.3813659907522,367.9957474654189 L413.643576696508,361.8980392014045 M413.643576696508,361.8980392014045 L422.71995668942026,356.67429143053636 M422.71995668942026,356.67429143053636 L433.30142595214573,352.50107893838907 M433.30142595214573,352.50107893838907 L445.02847374023725,349.5192932099783 M445.02847374023725,349.5192932099783 L457.5032875604306,347.829506073499 M457.5032875604306,347.829506073499 L470.3030843297439,347.4886757066489 M470.3030843297439,347.4886757066489 L482.9942473055791,348.50828957188935 M482.9942473055791,348.50828957188935 L495.14679063512034,350.85398203142006 M495.14679063512034,350.85398203142006 L506.3486855455911,354.4466642412468 M506.3486855455911,354.4466642412468 L516.219663093963,359.1651100678907 M516.219663093963,359.1651100678907 L524.424010082668,364.84992437507924 M524.424010082668,364.84992437507924 L530.6819163708078,371.30881459543144 M530.6819163708078,371.30881459543144 L534.7790879260865,378.3229491388782 M534.7790879260865,378.3229491388782 L536.5741868676507,385.65426304580956 M536.5741868676507,385.65426304580956 L536.003886425108,393.05346645821805 M536.003886425108,393.05346645821805 L533.0853364589591,400.2684712070701 M533.0853364589591,400.2684712070701 L527.915873856572,407.05299210002386 M527.915873856572,407.05299210002386 L520.6699925886682,413.1750200466527 M520.6699925886682,413.1750200466527 L511.5936126652302,418.42484871544815 M511.5936126652302,418.42484871544815 L500.9958140673371,422.62238095219544 M500.9958140673371,422.62238095219544 L489.2383128767791,425.623440736723 M489.2383128767791,425.623440736723 L476.72303447809327,427.3248531579298 M476.72303447809327,427.3248531579298 L463.8782269560955,427.6680899754761 M463.8782269560955,427.6680899754761 L451.1435860324712,426.6413387073059 M451.1435860324712,426.6413387073059 L438.9549694910176,424.2799289620898 M438.9549694910176,424.2799289620898 L427.72927801743725,420.6650722980327 M427.72927801743725,420.6650722980327 L417.84999441968614,415.92098962890987 M417.84999441968614,415.92098962890987 L417.767649572465,339.99670355287617 M417.767649572465,339.99670355287617 L409.55792833280026,334.2958184676863 M409.55792833280026,334.2958184676863 L403.3134276516833,327.82561659607563 M403.3134276516833,327.82561659607563 L399.2455774519914,320.8075543651271 M399.2455774519914,320.8075543651271 L397.49106752150954,313.48141792142496 M397.49106752150954,313.48141792142496 L398.1074437882997,306.0970416771964 M398.1074437882997,306.0970416771964 L401.0714336115997,298.9057658284742 M401.0714336115997,298.9057658284742 L406.28005891410004,292.15189334233224 M406.28005891410004,292.15189334233224 L413.55441114025973,286.0644429368442 M413.55441114025973,286.0644429368442 L422.6459487018559,280.84948715062126 M422.6459487018559,280.84948715062126 L433.2450754360613,276.6833013891864 M433.2450754360613,276.6833013891864 L444.9916820634755,273.7065378699188 M444.9916820634755,273.7065378699188 L457.48729517079755,272.0195974146981 M457.48729517079755,272.0195974146981 L470.3084301713578,271.6793412748081 M470.3084301713578,271.6793412748081 L483.02075123351113,272.69723735754286 M483.02075123351113,272.69723735754286 L495.1935593080888,275.0389785191054 M495.1935593080888,275.0389785191054 L506.41414158844196,278.62561045516054 M506.41414158844196,278.62561045516054 L516.3015967655394,283.33611304123235 M516.3015967655394,283.33611304123235 L524.519651950324,289.01136162493464 M524.519651950324,289.01136162493464 L530.7880288041264,295.45938936167965 M530.7880288041264,295.45938936167965 L534.892072763319,302.46173456057676 M534.892072763319,302.46173456057676 L536.6902058612716,309.7807337345238 M536.6902058612716,309.7807337345238 L536.1189906721804,317.1675163838625 M536.1189906721804,317.1675163838625 L533.195600608515,324.37041732294284 M533.195600608515,324.37041732294284 L528.0175305212288,331.1435635583881 M528.0175305212288,331.1435635583881 L520.7595623192609,337.25533336136976 M520.7595623192609,337.25533336136976 L511.6680248276043,342.4963697398477 M511.6680248276043,342.4963697398477 L501.0525141725791,346.68687496094157 M501.0525141725791,346.68687496094157 L489.275352342857,349.68291231056423 M489.275352342857,349.68291231056423 L476.7391393916044,351.38147791436904 M476.7391393916044,351.38147791436904 L463.8728431758478,351.72414047677603 M463.8728431758478,351.72414047677603 L451.1168988272962,350.6991070746924 M451.1168988272962,350.6991070746924 L438.90789695493794,348.3416488115248 M438.90789695493794,348.3416488115248 L427.6634385642489,344.7328426810075 M427.6634385642489,344.7328426810075 L417.767649572465,339.99670355287617 M185.82298373543378,565.0457855212617 L185.6655152564038,539.7088200301062 M185.6655152564038,539.7088200301062 L193.747895438907,545.4113388199108 M193.747895438907,545.4113388199108 L199.8819240407035,551.8903402635383 M199.8819240407035,551.8903402635383 L203.8575503853904,558.9262916426328 M203.8575503853904,558.9262916426328 L205.53756482936836,566.2803907203242 M205.53756482936836,566.2803907203242 L204.8626231606061,573.7025446334135 M204.8626231606061,573.7025446334135 L201.8533703347304,580.9399350583012 M201.8533703347304,580.9399350583012 L196.6103483650182,587.7454676589381 M196.6103483650182,587.7454676589381 L189.3105377398859,593.8864466143882 M189.3105377398859,593.8864466143882 L180.20174600877095,599.1525048203209 M180.20174600877095,599.1525048203209 L169.59414743688507,603.3630112723898 M169.59414743688507,603.3630112723898 L157.84983210234336,606.3733356603904 M157.84983210234336,606.3733356603904 L145.37022862705038,608.0800167212305 M145.37022862705038,608.0800167212305 L132.58244198372,608.4242967244057 M132.58244198372,608.4242967244057 L119.92411699587092,607.3943811355414 M119.92411699587092,607.3943811355414 L107.82853211864875,605.0256790048563 M107.82853211864875,605.0256790048563 L96.7093785322474,601.3996585831883 M96.7093785322474,601.3996585831883 L86.94650827253673,596.6409018119372 M86.94650827253673,596.6409018119372 L78.87272440597872,590.9127905113259 M78.87272440597872,590.9127905113259 L72.76258384709786,584.4116529374834 M72.76258384709786,584.4116529374834 L68.82291090204563,577.3600114748136 M68.82291090204563,577.3600114748136 L67.18605955463613,569.9987873682201 M67.18605955463613,569.9987873682201 L67.9055445030238,562.5790357314162 M67.9055445030238,562.5790357314162 L70.9547052681794,555.3532504855898 M70.9547052681794,555.3532504855898 L76.22760982136941,548.5669585750842 M76.22760982136941,548.5669585750842 L83.54324197575176,542.4502573308356 M83.54324197575176,542.4502573308356 L92.65165735265106,537.2102349655752 M92.65165735265106,537.2102349655752 L103.24273248808453,533.0240062769909 M103.24273248808453,533.0240062769909 L114.95660889285818,530.0329226289714 M114.95660889285818,530.0329226289714 L127.3959687728547,528.337846880918 M127.3959687728547,528.337846880918 L140.1391425404653,527.9959690577991 M140.1391425404653,527.9959690577991 L152.75451034123182,529.0187596094676 M152.75451034123182,529.0187596094676 L164.81459547223398,531.3717715968166 M164.81459547223398,531.3717715968166 L175.91050115842586,534.9756558802413 M175.91050115842586,534.9756558802413 L185.6655152564038,539.7088200301062 M185.82298373543378,565.0457855212617 L176.07339410862807,560.3100230818295 M176.07339410862807,560.3100230818295 L164.98366894465113,556.7041596953458 M164.98366894465113,556.7041596953458 L152.93031120632463,554.3498551884132 M152.93031120632463,554.3498551884132 L140.32199057359662,553.3265027289 M140.32199057359662,553.3265027289 L127.5859461604079,553.6685683809588 M127.5859461604079,553.6685683809588 L115.15355760113493,555.3645753252879 M115.15355760113493,555.3645753252879 L103.44625930465344,558.357301792965 M103.44625930465344,558.357301792965 L92.86114680887584,562.5458289851844 M92.86114680887584,562.5458289851844 L83.75787648392861,567.7887272429548 M83.75787648392861,567.7887272429548 L76.44639664221609,573.9087838270615 M76.44639664221609,573.9087838270615 L71.17650937224818,580.698796238316 M71.17650937224818,580.698796238316 L68.12912646794501,587.9285404507297 M68.12912646794501,587.9285404507297 L67.41011712209462,595.3523546644791 M67.41011712209462,595.3523546644791 L69.04612315127127,602.7176066359734 M69.04612315127127,602.7176066359734 L72.98365616938372,609.7731040777902 M72.98365616938372,609.7731040777902 L79.0904330229074,616.2777944452208 M79.0904330229074,616.2777944452208 L87.15974255941632,622.0090343733566 M87.15974255941632,622.0090343733566 L96.91717975511511,626.7703890991643 M96.91717975511511,626.7703890991643 L108.03012695761913,630.3983883341004 M108.03012695761913,630.3983883341004 L120.11894480454202,632.7683827789501 M120.11894480454202,632.7683827789501 L132.7701745640395,633.7988601823727 M132.7701745640395,633.7988601823727 L145.5507818609471,633.4543923817092 M145.5507818609471,633.4543923817092 L158.02336884327377,631.7467802765365 M158.02336884327377,631.7467802765365 L169.761071818118,628.7348133207744 M169.761071818118,628.7348133207744 L180.36268904548544,624.5220086828841 M180.36268904548544,624.5220086828841 L189.46633509251137,619.2530749252376 M189.46633509251137,619.2530749252376 L196.76201093087505,613.1087409476827 M196.76201093087505,613.1087409476827 L202.00204893426366,606.2994880981038 M202.00204893426366,606.2994880981038 L205.0095685076706,599.0581388584992 M205.0095685076706,599.0581388584992 L205.68408444891875,591.631922399901 M205.68408444891875,591.631922399901 L204.00496372929507,584.273795364069 M204.00496372929507,584.273795364069 L200.03151771116794,577.2339878004948 M200.03151771116794,577.2339878004948 L193.9008797517148,570.7514332735678 M193.9008797517148,570.7514332735678 L185.82298373543378,565.0457855212617 M103.19255390346927,612.7524864280009 L96.73764582740273,607.9807014530589 M96.73764582740273,607.9807014530589 L92.28291394355495,602.4842413379303 M92.28291394355495,602.4842413379303 L90.05053575960693,596.5395769008444 M90.05053575960693,596.5395769008444 L90.1508895812886,590.4452076512306 M90.1508895812886,590.4452076512306 L92.57702069350393,584.5067800331195 M92.57702069350393,584.5067800331195 L97.2056820225788,579.0215813800561 M97.2056820225788,579.0215813800561 L103.80364336845133,574.263831834585 M103.80364336845133,574.263831834585 L112.03966480347822,570.4710709802945 M112.03966480347822,570.4710709802945 L121.5011763450994,567.8324494029516 M121.5011763450994,567.8324494029516 L131.71488552642433,566.4794520409538 M131.71488552642433,566.4794520409538 L142.17033083107935,566.4794361726883 M142.17033083107935,566.4794361726883 L152.34496732223056,567.832456727633 M152.34496732223056,567.832456727633 L161.7303216035487,570.4710737276837 M161.7303216035487,570.4710737276837 L169.8568591742349,574.2638318345851 M169.8568591742349,574.2638318345851 L176.31747136842012,579.021583518512 M176.31747136842012,579.021583518512 L180.7877806775802,584.5067898136044 M180.7877806775802,584.5067898136044 L183.04252417842483,590.4452088744256 M183.04252417842483,590.4452088744256 L182.96689407372494,596.5395781246906 M182.96689407372494,596.5395781246906 L180.56294803963337,602.4842511337828 M180.56294803963337,602.4842511337828 L175.94953923197772,607.98070359693 M175.94953923197772,607.98070359693 L169.3568768847041,612.7524864280009 M169.3568768847041,612.7524864280009 L161.11515137557367,616.5592805758516 M161.11515137557367,616.5592805758516 L151.6380624503621,619.2091559793805 M151.6380624503621,619.2091559793805 L141.40198788098525,620.5683987181368 M141.40198788098525,620.5683987181368 L130.92181882421204,620.5684146615378 M130.92181882421204,620.5684146615378 L120.72499728498951,619.2091486217602 M120.72499728498951,619.2091486217602 L111.3243904555087,616.5592778173819 M111.3243904555087,616.5592778173819 L103.19255390346927,612.7524864280009 M103.19255390346927,612.7524864280009 L102.98840031222284,587.3894077233878 M102.98840031222284,587.3894077233878 L111.12476573555853,591.1941201869543 M111.12476573555853,591.1941201869543 L120.53062479574089,593.8425442896596 M120.53062479574089,593.8425442896596 L130.73315727335375,595.2010683690415 M130.73315727335375,595.2010683690415 L141.2192078140668,595.2010524343428 M141.2192078140668,595.2010524343428 L151.46103738231744,593.8425516432634 M151.46103738231744,593.8425516432634 L160.94346440333277,591.1941229439178 M160.94346440333277,591.1941229439178 L169.18984212822969,587.3894077233878 M169.18984212822969,587.3894077233878 L175.78623704833737,582.620231810762 M175.78623704833737,582.620231810762 L180.40227205514748,577.1267835479691 M180.40227205514748,577.1267835479691 L182.80760748802598,571.1853613873416 M182.80760748802598,571.1853613873416 L182.88332238828102,565.0943266419265 M182.88332238828102,565.0943266419265 L180.62735682537513,559.1591585066135 M180.62735682537513,559.1591585066135 L176.15458178317584,553.6769565633361 M176.15458178317584,553.6769565633361 L169.69038509351446,548.9218119826855 M169.69038509351446,548.9218119826855 L161.55932448008002,545.1311329852683 M161.55932448008002,545.1311329852683 L152.1687349809765,542.4939628341889 M152.1687349809765,542.4939628341889 L141.98841237897824,541.1416843213882 M141.98841237897824,541.1416843213882 L131.52711331540172,541.1417001809505 M131.52711331540172,541.1417001809505 L121.30767426615103,542.4939555135245 M121.30767426615103,542.4939555135245 L111.8408421882167,545.1311302393855 M111.8408421882167,545.1311302393855 L103.60017504757099,548.9218119826857 M103.60017504757099,548.9218119826857 L96.99847530026284,553.6769544260517 M96.99847530026284,553.6769544260517 L92.36717075913839,559.1591487314844 M92.36717075913839,559.1591487314844 L89.9396254205821,565.094325419401 M89.9396254205821,565.094325419401 L89.83915907840509,571.1853601641649 M89.83915907840509,571.1853601641649 L92.07273419357011,577.1267737574719 M92.07273419357011,577.1267737574719 L96.52991425091165,582.6202296680625 M96.52991425091165,582.6202296680625 L102.98840031222284,587.3894077233878" stroke="black"  stroke-width="4"  fill="red"/></svg>