<svg version="1.1" xmlns="http://www.w3.org/2000/svg" viewBox="-44.00000099999999 -15.941022797294115 88.000002 32.168913780009106" fill="none" stroke="black" stroke-width="0.6%" vector-effect="non-scaling-stroke">
    <path d="M -6.37168 -10.56907 L -24.97406 -13.3088 A 39 5.73736 360 0 1 25.00796 -13.30464 L 6.3845 -10.56801" />
    <path d="M -6.37168 -10.56907 A 13 1.91245 360 0 1 6.3845 -10.56801" />
    <path d="M -29.92661 -12.58105 L -11.32423 -9.84131" />
    <path d="M -29.9549 -5.2281 A 39 5.73736 360 0 1 -39 -8.90208 A 39 5.73736 360 0 1 -29.92661 -12.58105 L -29.92661 -5.23225" />
    <path d="M -11.33145 -7.96473 L -29.9549 -5.2281" />
    <path d="M -11.33145 -7.96473 A 13 1.91245 360 0 1 -13 -8.90208 A 13 1.91245 360 0 1 -11.32423 -9.84131" />
    <path d="M -7.77377 -10.04699 A 11 1.61823 360 0 1 11 -8.90208 A 11 1.61823 360 0 1 -11 -8.90208 A 11 1.61823 360 0 1 -7.77377 -10.04699 Z" />
    <path d="M 6.37168 -7.23509 A 13 1.91245 360 0 1 -6.3845 -7.23615 L -6.3845 -3.24212" />
    <path d="M -25.00796 -4.49952 L -6.3845 -7.23615" />
    <path d="M 24.97406 -4.49536 A 39 5.73736 360 0 1 -25.00796 -4.49952" />
    <path d="M 6.37168 -7.23509 L 24.97406 -4.49536" />
    <path d="M 11.33145 -9.83943 A 13 1.91245 360 0 1 13 -8.90208 L 13 -7.71604" />
    <path d="M 13 -8.90208 A 13 1.91245 360 0 1 11.32423 -7.96284" />
    <path d="M 29.92661 -5.22311 L 11.32423 -7.96284" />
    <path d="M 29.9549 -12.57606 A 39 5.73736 360 0 1 39 -8.90208 A 39 5.73736 360 0 1 29.92661 -5.22311" />
    <path d="M 11.33145 -9.83943 L 29.9549 -12.57606 L 29.9549 -5.2281" />
    <path d="M -29.0103 -13.17467 A 41.05 6.03894 360 0 1 41.05 -8.90208 L 41.05 5.93472" />
    <path d="M 41.05 -8.90208 A 41.05 6.03894 360 0 1 -41.05 -8.90208 L -41.05 5.93472 A 41.05 6.03894 180 1 0 41.05 5.93472" />
    <path d="M -41.05 -8.90208 A 41.05 6.03894 360 0 1 -29.0103 -13.17467" />
    <path d="M 6.37168 -7.23509 L 6.37168 -3.2418" />
    <path d="M -41.05 4.05136 A 43 6.32581 180 0 0 -43 5.93472 L -43 8.90208" />
    <path d="M -43 5.93472 A 43 6.32581 180 1 0 43 5.93472 L 43 8.90208 A 43 6.32581 360 0 1 -43 8.90208" />
    <path d="M 43 5.93472 A 43 6.32581 180 0 0 41.05 4.05136" />
    <path d="M -13 -8.90208 L -13 -7.71954" />
</svg>