<svg version="1.1" xmlns="http://www.w3.org/2000/svg" viewBox="-44.000001 -11.856055226345815 88.000002 23.920809774520656" fill="none" stroke="black" stroke-width="0.6%" vector-effect="non-scaling-stroke">
    <path d="M 41.05 2.10973 A 43 4.60209 360 0 1 43 3.4799 A 43 4.60209 360 0 1 -43 3.4799 A 43 4.60209 360 0 1 -41.05 2.10973" />
    <path d="M -43 6.46267 A 43 4.60209 180 1 0 43 6.46267" />
    <path d="M -41.05 3.4799 A 41.05 4.39339 180 1 0 41.05 3.4799" />
    <path d="M -29.0103 -9.57102 A 41.05 4.39339 360 0 1 41.05 -6.46267 A 41.05 4.39339 360 0 1 -41.05 -6.46267 A 41.05 4.39339 360 0 1 -29.0103 -9.57102 Z" />
    <path d="M -27.56155 -9.41579 A 39 4.17399 360 0 1 39 -6.46267 A 39 4.17399 360 0 1 -39 -6.46267 A 39 4.17399 360 0 1 -27.56155 -9.41579 Z" />
    <path d="M -7.77377 -7.2956 A 11 1.17728 360 0 1 11 -6.46267 A 11 1.17728 360 0 1 -11 -6.46267 A 11 1.17728 360 0 1 -7.77377 -7.2956 Z" />
    <path d="M -9.18718 -7.44704 A 13 1.39133 360 0 1 13 -6.46267 L 13 -2.52739" />
    <path d="M 13 -6.46267 A 13 1.39133 360 0 1 -13 -6.46267 L -13 -2.52739" />
    <path d="M -13 -6.46267 A 13 1.39133 360 0 1 -9.18718 -7.44704" />
    <path d="M -43 3.4799 L -43 6.46267" />
    <path d="M 43 3.4799 L 43 6.46267" />
    <path d="M -41.05 -6.46267 L -41.05 3.4799" />
    <path d="M 41.05 -6.46267 L 41.05 3.4799" />
</svg>