<svg version="1.1" xmlns="http://www.w3.org/2000/svg" viewBox="-42.04982449426014 -7.388654846731257 84.10000199999999 14.777332451810327" fill="none" stroke="black" stroke-width="0.6%" vector-effect="non-scaling-stroke">
    <path d="M -41.04982 3.74221 A 41.05 2.64647 180 0 0 41.05018 3.74221" />
    <path d="M -29.0266 -5.61352 A 41.05 2.64647 360 0 1 41.05018 -3.74219 A 41.05 2.64647 360 0 1 -41.04982 -3.74219 A 41.05 2.64647 360 0 1 -29.0266 -5.61352 Z" />
    <path d="M -24.60318 -5.69304 A 39 2.5143 360 0 1 24.60344 -5.69304 L 5.91816 -4.48841" />
    <path d="M 30.2603 -5.32835 A 39 2.5143 360 0 1 39.00018 -3.74219 A 39 2.5143 360 0 1 30.26037 -2.15603 L 11.57504 -3.36066" />
    <path d="M 30.2603 -5.32835 L 30.2603 -2.15604" />
    <path d="M 24.60353 -1.79134 A 39 2.5143 360 0 1 -24.60308 -1.79133 L -5.91781 -2.99596 L -5.91781 -1.257" />
    <path d="M -30.26002 -5.32834 L -30.26002 -2.15603" />
    <path d="M -30.25995 -2.15603 A 39 2.5143 360 0 1 -38.99982 -3.74219 A 39 2.5143 360 0 1 -30.26002 -5.32834 L -11.57469 -4.12372" />
    <path d="M -11.57467 -3.36066 L -30.25995 -2.15603" />
    <path d="M -5.91784 -4.48841 L -24.60318 -5.69304" />
    <path d="M -5.91784 -4.48841 A 13 0.8381 360 0 1 5.91816 -4.48841" />
    <path d="M 11.57502 -4.12372 L 30.2603 -5.32835" />
    <path d="M 11.57502 -4.12372 A 13 0.8381 360 0 1 13.00018 -3.74219 L 13.00018 -3.26878" />
    <path d="M 13.00018 -3.74219 A 13 0.8381 360 0 1 11.57504 -3.36066" />
    <path d="M 5.91819 -2.99596 L 24.60353 -1.79134" />
    <path d="M 5.91819 -2.99596 A 13 0.8381 360 0 1 -5.91781 -2.99596" />
    <path d="M -11.57467 -3.36066 A 13 0.8381 360 0 1 -12.99982 -3.74219 L -12.99982 -3.26878" />
    <path d="M -12.99982 -3.74219 A 13 0.8381 360 0 1 -11.57469 -4.12372" />
    <path d="M 22.45079 -5.03001 A 1.75 0.11282 360 0 1 19.46335 -5.10979 A 1.75 0.11282 360 0 1 22.96335 -5.10979 A 1.75 0.11282 360 0 1 22.45079 -5.03001 Z" />
    <path d="M 22.45085 -2.29481 A 1.75 0.11282 360 0 1 19.46341 -2.37459 A 1.75 0.11282 360 0 1 22.96341 -2.37459 A 1.75 0.11282 360 0 1 22.45085 -2.29481 Z" />
    <path d="M -19.97556 -2.29481 A 1.75 0.11282 360 0 1 -22.96299 -2.37458 A 1.75 0.11282 360 0 1 -19.46299 -2.37458 A 1.75 0.11282 360 0 1 -19.97556 -2.29481 Z" />
    <path d="M -19.97562 -5.03001 A 1.75 0.11282 360 0 1 -22.96306 -5.10979 A 1.75 0.11282 360 0 1 -19.46306 -5.10979 A 1.75 0.11282 360 0 1 -19.97562 -5.03001 Z" />
    <path d="M -7.77801 -4.24364 A 11 0.70916 360 0 1 11.00018 -3.74219 A 11 0.70916 360 0 1 -10.99982 -3.74219 A 11 0.70916 360 0 1 -7.77801 -4.24364 Z" />
    <path d="M 5.91819 -2.99596 L 5.91819 -1.257" />
    <path d="M -41.04982 -3.74219 L -41.04982 3.74221" />
    <path d="M 41.05018 -3.74219 L 41.05018 3.74221" />
</svg>