<svg viewBox="0 0 800 800" xmlns="http://www.w3.org/2000/svg"><path d="M638.2298866775777,311.65235205427933 L638.6259200032382,210.82773549724496 M638.6259200032382,210.82773549724496 L660.9885555027863,224.8805557408162 M660.9885555027863,224.8805557408162 L680.8685851659271,240.12901199404507 M680.8685851659271,240.12901199404507 L698.0728034095707,256.42965779072665 M698.0728034095707,256.42965779072665 L712.4327228198199,273.6286229877028 M712.4327228198199,273.6286229877028 L723.8062024541398,291.563048613913 M723.8062024541398,291.563048613913 L732.0789539337092,310.0624931941285 M732.0789539337092,310.0624931941285 L737.165920735169,328.9505193999912 M737.165920735169,328.9505193999912 L739.0122091426791,348.04628731547626 M739.0122091426791,348.04628731547626 L737.5939120276664,367.16629499509156 M737.5939120276664,367.16629499509156 L732.9184901954062,386.12610911983126 M732.9184901954062,386.12610911983126 L725.0250224967685,404.74213128179457 M725.0250224967685,404.74213128179457 L713.9839904819306,422.8334446820057 M713.9839904819306,422.8334446820057 L699.8969069933154,440.2235792701259 M699.8969069933154,440.2235792701259 L682.8954281225348,456.7423302917247 M682.8954281225348,456.7423302917247 L663.1402488210101,472.2274461036124 M663.1402488210101,472.2274461036124 L640.8197763144249,486.5263860181126 M640.8197763144249,486.5263860181126 L616.1483099485865,499.4978813135984 M616.1483099485865,499.4978813135984 L589.3639925289061,511.01342129628466 M589.3639925289061,511.01342129628466 L560.7265201850661,520.9586381406491 M560.7265201850661,520.9586381406491 L530.5146450203645,529.2345899395083 M530.5146450203645,529.2345899395083 L499.0232490982905,535.7587796618791 M499.0232490982905,535.7587796618791 L466.5604495504704,540.4660554626672 M466.5604495504704,540.4660554626672 L433.44438417591016,543.3093868534859 M433.44438417591016,543.3093868534859 L400.00000000000006,544.2603306001802 M400.00000000000006,544.2603306001802 L366.5556158240899,543.3093868534859 M366.5556158240899,543.3093868534859 L333.4395504495296,540.4660554626672 M333.4395504495296,540.4660554626672 L300.9767509017096,535.7587796618791 M300.9767509017096,535.7587796618791 L269.48535497963564,529.2345899395083 M269.48535497963564,529.2345899395083 L239.27347981493398,520.9586381406491 M239.27347981493398,520.9586381406491 L210.63600747109396,511.01342129628466 M210.63600747109396,511.01342129628466 L183.85169005141356,499.4978813135984 M183.85169005141356,499.4978813135984 L159.18022368557425,486.526386018112 M159.18022368557425,486.526386018112 L136.85975117898988,472.2274461036124 M136.85975117898988,472.2274461036124 L117.10457187746533,456.7423302917247 M117.10457187746533,456.7423302917247 L100.10309300668473,440.2235792701259 M100.10309300668473,440.2235792701259 L86.0160095180695,422.83344468200556 M86.0160095180695,422.83344468200556 L74.97497750323146,404.74213128179457 M74.97497750323146,404.74213128179457 L67.08150980459385,386.12610911983126 M67.08150980459385,386.12610911983126 L62.40608797233364,367.16629499509145 M62.40608797233364,367.16629499509145 L60.98779085732093,348.04628731547626 M60.98779085732093,348.04628731547626 L62.83407926483096,328.9505193999912 M62.83407926483096,328.9505193999912 L67.92104606629078,310.06249319412836 M67.92104606629078,310.06249319412836 L76.19379754586032,291.5630486139129 M76.19379754586032,291.5630486139129 L87.56727718018021,273.6286229877028 M87.56727718018021,273.6286229877028 L101.92719659042945,256.42965779072654 M101.92719659042945,256.42965779072654 L119.13141483407287,240.12901199404507 M119.13141483407287,240.12901199404507 L139.01144449721374,224.8805557408162 M139.01144449721374,224.8805557408162 L161.3740799967621,210.8277354972448 M161.3740799967621,210.8277354972448 L186.00340094865047,198.10236203466755 M186.00340094865047,198.10236203466755 L212.66288290948648,186.82348749619285 M212.66288290948648,186.82348749619285 L241.0976258381662,177.09638411103396 M241.0976258381662,177.09638411103396 L271.03666857791507,169.01161180099942 M271.03666857791507,169.01161180099942 L302.19561338383033,162.64432018845187 M302.19561338383033,162.64432018845187 L334.27911919300783,158.05363052427495 M334.27911919300783,158.05363052427495 L366.9836246955977,155.282092778701 M366.9836246955977,155.282092778701 L400,154.3553906974474 M400,154.3553906974474 L433.01637530440235,155.2820927787011 M433.01637530440235,155.2820927787011 L465.72088080699217,158.05363052427495 M465.72088080699217,158.05363052427495 L497.8043866161697,162.64432018845187 M497.8043866161697,162.64432018845187 L528.963331422085,169.01161180099942 M528.963331422085,169.01161180099942 L558.9023741618338,177.09638411103396 M558.9023741618338,177.09638411103396 L587.3371170905136,186.82348749619285 M587.3371170905136,186.82348749619285 L613.9965990513496,198.10236203466755 M613.9965990513496,198.10236203466755 L638.6259200032382,210.82773549724496 M638.2298866775777,311.65235205427933 L613.641592014792,298.90537502395017 M613.641592014792,298.90537502395017 L587.02645322021,287.6073375956605 M587.02645322021,287.6073375956605 L558.6389494411521,277.86369646364216 M558.6389494411521,277.86369646364216 L528.7495965697716,269.7651706683568 M528.7495965697716,269.7651706683568 L497.64232683931294,263.38704217729037 M497.64232683931294,263.38704217729037 L465.61199938296085,258.78853655204557 M465.61199938296085,258.78853655204557 L432.96168130707804,256.0122789439457 M432.96168130707804,256.0122789439457 L400.00000000000006,255.08399852120448 M400.00000000000006,255.08399852120448 L367.0383186929221,256.01227894394566 M367.0383186929221,256.01227894394566 L334.3880006170392,258.78853655204557 M334.3880006170392,258.78853655204557 L302.3576731606871,263.38704217729037 M302.3576731606871,263.38704217729037 L271.2504034302286,269.7651706683568 M271.2504034302286,269.7651706683568 L241.36105055884792,277.86369646364216 M241.36105055884792,277.86369646364216 L212.9735467797901,287.6073375956604 M212.9735467797901,287.6073375956604 L186.3584079852081,298.90537502395017 M186.3584079852081,298.90537502395017 L161.77011332242125,311.65235205427985 M161.77011332242125,311.65235205427985 L139.44479441013618,325.72900857906615 M139.44479441013618,325.72900857906615 L119.59801052593446,341.00330437220964 M119.59801052593446,341.00330437220964 L102.42264141515346,357.3315442051898 M102.42264141515346,357.3315442051898 L88.08688739137222,374.5595921894942 M88.08688739137222,374.5595921894942 L76.7326439746584,392.5243093074056 M76.7326439746584,392.5243093074056 L68.47399861973395,411.0549623391482 M68.47399861973395,411.0549623391482 L63.395854110590676,429.97481338318977 M63.395854110590676,429.97481338318977 L61.55299960880927,449.10271595535755 M61.55299960880927,449.10271595535755 L62.969288742353456,468.2548585759738 M62.969288742353456,468.2548585759738 L67.6372594162143,487.2464983805412 M67.6372594162143,487.2464983805412 L75.51788464661303,505.8937303595846 M75.51788464661303,505.8937303595846 L86.54078806531294,524.0153370868586 M86.54078806531294,524.0153370868586 L100.60461519017599,541.4345566950349 M100.60461519017599,541.4345566950349 L117.57792041843248,557.9809042953162 M117.57792041843248,557.9809042953162 L137.3002699340442,573.4918623998329 M137.3002699340442,573.4918623998329 L159.5835663584626,587.8146414517289 M159.5835663584626,587.8146414517289 L184.21386604704506,600.807743164471 M184.21386604704506,600.807743164471 L210.95342440658388,612.3424487706766 M210.95342440658388,612.3424487706766 L239.54298217670606,622.3042058758269 M239.54298217670606,622.3042058758269 L269.7042584735849,630.5939133591019 M269.7042584735849,630.5939133591019 L301.1428716754729,637.1289417617929 M301.1428716754729,637.1289417617929 L333.551229147819,641.8440348607483 M333.551229147819,641.8440348607483 L366.6117358626165,644.6920869367298 M366.6117358626165,644.6920869367298 L400.00000000000006,645.6446093025527 M400.00000000000006,645.6446093025527 L433.3882641373836,644.69208693673 M433.3882641373836,644.69208693673 L466.44877085218104,641.8440348607483 M466.44877085218104,641.8440348607483 L498.85712832452714,637.1289417617929 M498.85712832452714,637.1289417617929 L530.2957415264151,630.5939133591019 M530.2957415264151,630.5939133591019 L560.4570178232939,622.3042058758269 M560.4570178232939,622.3042058758269 L589.0465755934163,612.3424487706766 M589.0465755934163,612.3424487706766 L615.786133952955,600.807743164471 M615.786133952955,600.807743164471 L640.4164336415402,587.8146414517275 M640.4164336415402,587.8146414517275 L662.6997300659559,573.4918623998329 M662.6997300659559,573.4918623998329 L682.4220795815676,557.9809042953162 M682.4220795815676,557.9809042953162 L699.3953848098241,541.4345566950349 M699.3953848098241,541.4345566950349 L713.4592119346871,524.0153370868586 M713.4592119346871,524.0153370868586 L724.482115353387,505.8937303595846 M724.482115353387,505.8937303595846 L732.3627405837858,487.2464983805412 M732.3627405837858,487.2464983805412 L737.0307112576465,468.2548585759738 M737.0307112576465,468.2548585759738 L738.4470003911908,449.1027159553576 M738.4470003911908,449.1027159553576 L736.6041458894094,429.97481338318977 M736.6041458894094,429.97481338318977 L731.526001380266,411.0549623391482 M731.526001380266,411.0549623391482 L723.2673560253417,392.52430930740564 M723.2673560253417,392.52430930740564 L711.9131126086279,374.5595921894943 M711.9131126086279,374.5595921894943 L697.5773585848467,357.3315442051899 M697.5773585848467,357.3315442051899 L680.4019894740655,341.0033043722097 M680.4019894740655,341.0033043722097 L660.5552055898639,325.72900857906626 M660.5552055898639,325.72900857906626 L638.2298866775777,311.65235205427933 M167.75497216039997,221.17658612805158 L147.76919748355414,234.36236813635315 M147.76919748355414,234.36236813635315 L130.03086488203655,248.5813794789119 M130.03086488203655,248.5813794789119 L114.70141612554698,263.70818201445684 M114.70141612554698,263.70818201445684 L101.92153430242172,279.60899351473233 M101.92153430242172,279.60899351473233 L91.80961084629439,296.1426906052692 M91.80961084629439,296.1426906052692 L84.46071180981141,313.16207769785177 M84.46071180981141,313.16207769785177 L79.94554122782216,330.51512050894894 M79.94554122782216,330.51512050894894 L78.30958386457706,348.04628731547626 M78.30958386457706,348.04628731547626 L79.57259718782541,365.5978823459993 M79.57259718782541,365.5978823459993 L83.72823731662129,383.0114751019575 M83.72823731662129,383.0114751019575 L90.74395037393924,400.1293562393985 M90.74395037393924,400.1293562393985 L100.56101606468667,416.7959491570958 M100.56101606468667,416.7959491570958 L113.09497358426472,432.85927867574895 M113.09497358426472,432.85927867574895 L128.2362776797156,448.1723761074322 M128.2362776797156,448.1723761074322 L145.85101190514672,462.5947593251443 M145.85101190514672,462.5947593251443 L165.7821812946214,475.99367524597073 M318.46036462046965,388.217731622868 L165.7821812946214,475.99367524597073 M318.46036462046965,388.217731622868 L308.5404715320044,380.3617919537288 M308.5404715320044,380.3617919537288 L300.8896355705808,371.71033980132495 M300.8896355705808,371.71033980132495 L295.6955613340957,362.478512006201 M295.6955613340957,362.478512006201 L293.08464681094,352.89547271506075 M293.08464681094,352.89547271506075 L293.11905582826483,343.19866254960294 M293.11905582826483,343.19866254960294 L295.7954056506093,333.6278777186099 M295.7954056506093,333.6278777186099 L301.04509949473527,324.41935412065254 M301.04509949473527,324.41935412065254 L308.7362713797464,315.79996487172946 M308.7362713797464,315.79996487172946 L318.6772512080059,307.9816946935463 M167.75497216039997,221.17658612805158 L318.6772512080059,307.9816946935463 M620.5801439876299,214.52658503279395 L597.4931274963069,203.15525612182722 M597.4931274963069,203.15525612182722 L572.6518775724927,193.09115408154605 M572.6518775724927,193.09115408154605 L546.2786288078465,184.42225616992533 M546.2786288078465,184.42225616992533 L518.6084701206562,177.2242450531437 M518.6084701206562,177.2242450531437 L489.88751241930777,171.5598115864204 M489.88751241930777,171.5598115864204 L460.3706553827907,167.47825059052707 M460.3706553827907,167.47825059052707 L430.3194774741957,165.0150550033764 M430.3194774741957,165.0150550033764 L400,164.1916069194197 M400,164.1916069194197 L369.68052252580435,165.0150550033764 M369.68052252580435,165.0150550033764 L339.62934461720937,167.47825059052707 M339.62934461720937,167.47825059052707 L310.11248758069235,171.5598115864204 M310.11248758069235,171.5598115864204 L281.39152987934375,177.2242450531437 M281.39152987934375,177.2242450531437 L253.72137119215355,184.42225616992533 M253.72137119215355,184.42225616992533 L227.3481224275074,193.091154081546 M227.3481224275074,193.091154081546 L202.5068725036932,203.15525612182722 M202.5068725036932,203.15525612182722 L179.41985601237027,214.52658503279386 M330.3423287227481,301.29315617945645 L179.41985601237027,214.52658503279386 M330.3423287227481,301.29315617945645 L343.96061274725747,295.60156077852884 M343.96061274725747,295.60156077852884 L358.95760597583563,291.20641808255436 M358.95760597583563,291.20641808255436 L374.96390174287717,288.2152424348944 M374.96390174287717,288.2152424348944 L391.5856922564445,286.7011547392232 M391.5856922564445,286.7011547392232 L408.4143077435556,286.7011547392232 M408.4143077435556,286.7011547392232 L425.03609825712294,288.2152424348944 M425.03609825712294,288.2152424348944 L441.0423940241644,291.20641808255436 M441.0423940241644,291.20641808255436 L456.0393872527426,295.60156077852884 M456.0393872527426,295.60156077852884 L469.65767127725195,301.29315617945645 M620.5801439876299,214.52658503279395 L469.65767127725195,301.29315617945645 M634.2178187053786,475.99367524597073 L654.1489880948534,462.5947593251444 M654.1489880948534,462.5947593251444 L671.7637223202845,448.1723761074322 M671.7637223202845,448.1723761074322 L686.9050264157353,432.85927867574895 M686.9050264157353,432.85927867574895 L699.4389839353133,416.7959491570958 M699.4389839353133,416.7959491570958 L709.2560496260609,400.1293562393985 M709.2560496260609,400.1293562393985 L716.2717626833787,383.0114751019576 M716.2717626833787,383.0114751019576 L720.4274028121747,365.59788234599944 M720.4274028121747,365.59788234599944 L721.6904161354231,348.04628731547626 M721.6904161354231,348.04628731547626 L720.054458772178,330.51512050894905 M720.054458772178,330.51512050894905 L715.5392881901887,313.16207769785177 M715.5392881901887,313.16207769785177 L708.1903891537057,296.1426906052692 M708.1903891537057,296.1426906052692 L698.0784656975784,279.60899351473233 M698.0784656975784,279.60899351473233 L685.298583874453,263.70818201445695 M685.298583874453,263.70818201445695 L669.9691351179634,248.5813794789119 M669.9691351179634,248.5813794789119 L652.2308025164459,234.36236813635324 M652.2308025164459,234.36236813635324 L632.2450278396001,221.17658612805158 M481.32274879199423,307.9816946935463 L632.2450278396001,221.17658612805158 M481.32274879199423,307.9816946935463 L491.26372862025363,315.79996487172946 M491.26372862025363,315.79996487172946 L498.95490050526485,324.41935412065254 M498.95490050526485,324.41935412065254 L504.2045943493908,333.6278777186099 M504.2045943493908,333.6278777186099 L506.88094417173517,343.19866254960294 M506.88094417173517,343.19866254960294 L506.9153531890601,352.89547271506075 M506.9153531890601,352.89547271506075 L504.30443866590434,362.478512006201 M504.30443866590434,362.478512006201 L499.1103644294193,371.71033980132495 M499.1103644294193,371.71033980132495 L491.45952846799565,380.3617919537288 M491.45952846799565,380.3617919537288 L481.5396353795304,388.217731622868 M634.2178187053786,475.99367524597073 L481.5396353795304,388.217731622868 M177.44706133307764,482.76014494452005 L200.58866964629692,494.34460996058067 M200.58866964629692,494.34460996058067 L225.55350694435825,504.6120887054958 M225.55350694435825,504.6120887054958 L252.11489340046262,513.467288902742 M252.11489340046262,513.467288902742 L280.03097444762136,520.8278258702869 M280.03097444762136,520.8278258702869 L309.0467932738693,526.6251630604361 M309.0467932738693,526.6251630604361 L338.8968444731761,530.8052247697647 M338.8968444731761,530.8052247697647 L369.30756467587725,533.3289744862798 M369.30756467587725,533.3289744862798 L400.00000000000006,534.1728522286671 M400.00000000000006,534.1728522286671 L430.69243532412287,533.3289744862798 M430.69243532412287,533.3289744862798 L461.10315552682397,530.8052247697647 M461.10315552682397,530.8052247697647 L490.9532067261308,526.6251630604361 M490.9532067261308,526.6251630604361 L519.9690255523788,520.827825870287 M519.9690255523788,520.827825870287 L547.8851065995374,513.467288902742 M547.8851065995374,513.467288902742 L574.4464930556418,504.6120887054958 M574.4464930556418,504.6120887054958 L599.4113303537032,494.3446099605808 M599.4113303537032,494.3446099605808 L622.5529386669225,482.76014494452005 M469.8745580041687,394.94498940440445 L622.5529386669225,482.76014494452005 M469.8745580041687,394.94498940440445 L456.2351874711501,400.67425441613557 M456.2351874711501,400.67425441613557 L441.1978584080904,405.10146015002357 M441.1978584080904,405.10146015002357 L425.135942946156,408.1159401456385 M425.135942946156,408.1159401456385 L408.44871690325783,409.64228241400764 M408.44871690325783,409.64228241400764 L391.55128309674217,409.64228241400764 M391.55128309674217,409.64228241400764 L374.8640570538441,408.1159401456385 M374.8640570538441,408.1159401456385 L358.8021415919096,405.10146015002357 M358.8021415919096,405.10146015002357 L343.7648125288499,400.67425441613557 M343.7648125288499,400.67425441613557 L330.12544199583135,394.94498940440434 M177.44706133307764,482.76014494452005 L330.12544199583135,394.94498940440434 M334.88623046614794,385.48906452400416 L324.0492447398533,377.9639718944424 M324.0492447398533,377.9639718944424 L315.80627951953375,369.42335425888035 M315.80627951953375,369.42335425888035 L310.43644667415606,360.1595165850694 M310.43644667415606,360.1595165850694 L308.12021928522176,350.48895958693515 M308.12021928522176,350.48895958693515 L308.9335780662624,340.7414733564382 M308.9335780662624,340.7414733564382 L312.8458466868134,331.24883027429024 M312.8458466868134,331.24883027429024 L319.7211214594738,322.33351758847766 M319.7211214594738,322.33351758847766 L329.3232611263817,314.29786060171455 M329.3232611263817,314.29786060171455 L341.32420924675296,307.4138987198178 M341.32420924675296,307.4138987198178 L355.315292260995,301.9143397471235 M355.315292260995,301.9143397471235 L370.82114518662723,297.9848604709345 M370.82114518662723,297.9848604709345 L387.31574976830416,295.75800852736484 M387.31574976830416,295.75800852736484 L404.240077767621,295.30885255182807 M404.240077767621,295.30885255182807 L421.0207680595761,296.6525275803602 M421.0207680595761,296.6525275803602 L437.08923889534094,299.7437508821364 M437.08923889534094,299.7437508821364 L451.900688843339,304.4782825748949 M451.900688843339,304.4782825748949 L464.95230919893186,310.69635565085895 M464.95230919893186,310.69635565085895 L475.8001980637418,318.1879085682653 M475.8001980637418,318.1879085682653 L484.074399972606,326.69951624769914 M484.074399972606,326.69951624769914 L489.4915843481698,335.9427916562022 M489.4915843481698,335.9427916562022 L491.8648830592389,345.6040111060216 M491.8648830592389,345.6040111060216 L491.1106075892101,355.35464558850003 M491.1106075892101,355.35464558850003 L487.2514547862961,364.86249753425017 M487.2514547862961,364.86249753425017 L480.41615477652977,373.80302567170236 M480.41615477652977,373.80302567170236 L470.8354500052854,381.8704992321362 M470.8354500052854,381.8704992321362 L458.8345019747952,388.7885818185907 M458.8345019747952,388.7885818185907 L444.82198419773533,394.31995742643807 M444.82198419773533,394.31995742643807 L429.2761565257955,398.2746522591809 M429.2761565257955,398.2746522591809 L412.72843601815066,400.5167131503908 M412.72843601815066,400.5167131503908 L395.7450245311205,400.96901739475413 M395.7450245311205,400.96901739475413 L378.90726276419394,399.61600477682856 M378.90726276419394,399.61600477682856 L362.7914403490489,396.5042190957355 M362.7914403490489,396.5042190957355 L347.94875379263294,391.7406773525901 M347.94875379263294,391.7406773525901 L334.88623046614794,385.48906452400416 M166.17433022338153,577.2643727839147 L146.27634327789494,563.8431032638734 M146.27634327789494,563.8431032638734 L128.69087166044744,549.3966367386327 M128.69087166044744,549.3966367386327 L113.57465251047955,534.0579433924693 M113.57465251047955,534.0579433924693 L101.0613848643572,517.9677360026719 M101.0613848643572,517.9677360026719 L91.2604389189965,501.2732255668049 M91.2604389189965,501.2732255668049 L84.25614368101986,484.1266389172895 M84.25614368101986,484.1266389172895 L80.10713166712748,466.68381142639157 M80.10713166712748,466.68381142639157 L78.84591333462612,449.10271595535755 M78.84591333462612,449.10271595535755 L80.4788331820306,431.5420489479347 M80.4788331820306,431.5420489479347 L84.98617781117355,414.1597721118546 M84.98617781117355,414.1597721118546 L92.32254895691676,397.11168066118825 M92.32254895691676,397.11168066118825 L102.4173702874246,380.55006760783516 M102.4173702874246,380.55006760783516 L115.17574288103168,364.6223801357993 M115.17574288103168,364.6223801357993 L130.47947983367175,349.4699838594501 M130.47947983367175,349.4699838594501 L148.1881380127954,335.22689157790927 M148.1881380127954,335.22689157790927 L168.14054829334316,322.01875844772303 M318.59649030631056,489.34162941101755 L166.17433022338153,577.2643727839147 M318.8126542990769,408.9706554379785 L308.8882657128267,416.8021053879049 M308.8882657128267,416.8021053879049 L301.20995014456014,425.4360170531856 M301.20995014456014,425.4360170531856 L295.96905487216736,434.6600465721406 M295.96905487216736,434.6600465721406 L293.2972215066076,444.246937359759 M293.2972215066076,444.246937359759 L293.2629271286107,453.9600552029745 M293.2629271286107,453.9600552029745 L295.869543203563,463.5592005944838 M295.869543203563,463.5592005944838 L301.0550041744672,472.80653458391544 M301.0550041744672,472.80653458391544 L308.69311820536706,481.47250952861043 M308.69311820536706,481.47250952861043 L318.59649030631056,489.34162941101755 M168.14054829334316,322.01875844772303 L318.8126542990769,408.9706554379785 M179.78598491068007,315.35747767194874 L202.83455644505318,303.9668494399956 M202.83455644505318,303.9668494399956 L227.6344933409584,293.88565473332454 M227.6344933409584,293.88565473332454 L253.96392776593464,285.20202473882773 M253.96392776593464,285.20202473882773 L281.58815712563074,277.9917748593628 M281.58815712563074,277.9917748593628 L310.26147354508174,272.3177061295681 M310.26147354508174,272.3177061295681 L339.7293936261788,268.2292001486609 M339.7293936261788,268.2292001486609 L369.73076522303865,265.7618124143801 M369.73076522303865,265.7618124143801 L400,264.93696274253875 M400,264.93696274253875 L430.26923477696135,265.7618124143801 M430.26923477696135,265.7618124143801 L460.27060637382124,268.2292001486609 M460.27060637382124,268.2292001486609 L489.7385264549183,272.3177061295681 M489.7385264549183,272.3177061295681 L518.4118428743693,277.9917748593628 M518.4118428743693,277.9917748593628 L546.0360722340655,285.20202473882773 M546.0360722340655,285.20202473882773 L572.3655066590417,293.8856547333246 M572.3655066590417,293.8856547333246 L597.1654435549468,303.9668494399957 M597.1654435549468,303.9668494399957 L620.21401508932,315.35747767194874 M330.45828361517005,402.27083623602977 L179.78598491068007,315.35747767194874 M469.54171638483,402.27083623602977 L455.94611951285697,396.5696376552659 M455.94611951285697,396.5696376552659 L440.97409611815027,392.1670767696949 M440.97409611815027,392.1670767696949 L424.99444027621223,389.1708513448505 M424.99444027621223,389.1708513448505 L408.40030774065144,387.6542071504862 M408.40030774065144,387.6542071504862 L391.5996922593486,387.6542071504862 M391.5996922593486,387.6542071504862 L375.00555972378777,389.1708513448505 M375.00555972378777,389.1708513448505 L359.02590388184973,392.1670767696949 M359.02590388184973,392.1670767696949 L344.05388048714303,396.5696376552659 M344.05388048714303,396.5696376552659 L330.45828361517005,402.27083623602977 M620.21401508932,315.35747767194874 L469.54171638483,402.27083623602977 M631.8594517066568,322.0187584477231 L651.8118619872047,335.2268915779094 M651.8118619872047,335.2268915779094 L669.5205201663283,349.4699838594501 M669.5205201663283,349.4699838594501 L684.8242571189683,364.6223801357994 M684.8242571189683,364.6223801357994 L697.5826297125755,380.55006760783516 M697.5826297125755,380.55006760783516 L707.6774510430834,397.1116806611883 M707.6774510430834,397.1116806611883 L715.0138221888266,414.1597721118546 M715.0138221888266,414.1597721118546 L719.5211668179695,431.5420489479348 M719.5211668179695,431.5420489479348 L721.154086665374,449.10271595535755 M721.154086665374,449.10271595535755 L719.8928683328726,466.6838114263916 M719.8928683328726,466.6838114263916 L715.7438563189802,484.12663891728954 M715.7438563189802,484.12663891728954 L708.7395610810037,501.2732255668049 M708.7395610810037,501.2732255668049 L698.9386151356429,517.9677360026719 M698.9386151356429,517.9677360026719 L686.4253474895205,534.0579433924693 M686.4253474895205,534.0579433924693 L671.3091283395526,549.3966367386327 M671.3091283395526,549.3966367386327 L653.7236567221051,563.8431032638734 M653.7236567221051,563.8431032638734 L633.8256697766186,577.2643727839147 M481.1873457009232,408.9706554379785 L631.8594517066568,322.0187584477231 M481.40350969368944,489.34162941101755 L491.306881794633,481.47250952861043 M491.306881794633,481.47250952861043 L498.9449958255328,472.80653458391555 M498.9449958255328,472.80653458391555 L504.1304567964371,463.5592005944838 M504.1304567964371,463.5592005944838 L506.73707287138933,453.9600552029745 M506.73707287138933,453.9600552029745 L506.70277849339243,444.246937359759 M506.70277849339243,444.246937359759 L504.03094512783275,434.6600465721406 M504.03094512783275,434.6600465721406 L498.7900498554399,425.4360170531856 M498.7900498554399,425.4360170531856 L491.11173428717336,416.8021053879049 M491.11173428717336,416.8021053879049 L481.1873457009232,408.9706554379785 M633.8256697766186,577.2643727839147 L481.40350969368944,489.34162941101755 M622.1802369474268,584.0421235146132 L599.0772554538903,595.6458903212465 M599.0772554538903,595.6458903212465 L574.1541429249601,605.9304640843723 M574.1541429249601,605.9304640843723 L547.637197620528,614.8003985148546 M547.637197620528,614.8003985148546 L519.7678652439965,622.1731761178728 M519.7678652439965,622.1731761178728 L490.8006701022276,627.9801501003751 M490.8006701022276,627.9801501003751 L461.00066598417965,632.1671579268743 M461.00066598417965,632.1671579268743 L430.64095000992626,634.6951004859898 M430.64095000992626,634.6951004859898 L400.00000000000006,635.540380050807 M400.00000000000006,635.540380050807 L369.3590499900738,634.6951004859898 M369.3590499900738,634.6951004859898 L338.9993340158204,632.1671579268743 M338.9993340158204,632.1671579268743 L309.1993298977725,627.9801501003751 M309.1993298977725,627.9801501003751 L280.2321347560035,622.1731761178728 M280.2321347560035,622.1731761178728 L252.36280237947204,614.8003985148546 M252.36280237947204,614.8003985148546 L225.84585707504,605.9304640843723 M225.84585707504,605.9304640843723 L200.92274454610978,595.6458903212465 M200.92274454610978,595.6458903212465 L177.81976305257322,584.0421235146132 M469.7578805160497,496.0801683340786 L622.1802369474268,584.0421235146132 M330.2421194839504,496.0801683340786 L343.8587326114836,501.81903696685396 M343.8587326114836,501.81903696685396 L358.8709574550439,506.2536612657555 M358.8709574550439,506.2536612657555 L374.9060476851421,509.2731913113474 M374.9060476851421,509.2731913113474 L391.5653977399215,510.80209022183345 M391.5653977399215,510.80209022183345 L408.43460226007863,510.80209022183345 M408.43460226007863,510.80209022183345 L425.09395231485803,509.2731913113474 M425.09395231485803,509.2731913113474 L441.1290425449562,506.2536612657555 M441.1290425449562,506.2536612657555 L456.14126738851644,501.81903696685396 M456.14126738851644,501.81903696685396 L469.7578805160497,496.0801683340786 M177.81976305257322,584.0421235146132 L330.2421194839504,496.0801683340786 M347.5420848636429,479.36910958691203 L359.58750017677727,485.0071429545553 M359.58750017677727,485.0071429545553 L373.4053344666187,489.0757146813038 M373.4053344666187,489.0757146813038 L388.3900319075377,491.3956859231672 M388.3900319075377,491.3956859231672 L403.8842362256031,491.864853057972 M403.8842362256031,491.864853057972 L419.2079690926303,490.4625372238512 M419.2079690926303,490.4625372238512 L433.68882605715646,487.2505302764389 M433.68882605715646,487.2505302764389 L446.69183044914433,482.3703058242091 M446.69183044914433,482.3703058242091 L457.64753955031017,476.03664034743093 M457.64753955031017,476.03664034743093 L466.07714290127296,468.5279729599677 M466.07714290127296,468.5279729599677 L471.61338255635707,460.1739563791586 M471.61338255635707,460.1739563791586 L474.01639451347546,451.34078488585095 M474.01639451347546,451.34078488585095 L473.18383822576385,442.41500761395866 M473.18383822576385,442.41500761395866 L469.1549061791752,433.78654873825315 M469.1549061791752,433.78654873825315 L462.1081054607918,425.83170251692707 M462.1081054607918,425.83170251692707 L452.3530692033728,418.89681478276015 M452.3530692033728,418.89681478276015 L440.3167182559269,413.2833859510472 M440.3167182559269,413.2833859510472 L426.5245098495312,409.2351644311309 M426.5245098495312,409.2351644311309 L411.5775688897467,406.92777030049336 M411.5775688897467,406.92777030049336 L396.12672317253714,406.4612325047386 M396.12672317253714,406.4612325047386 L380.8444539176717,407.8557752483638 M380.8444539176717,407.8557752483638 L366.39599612704967,411.0509507197479 M366.39599612704967,411.0509507197479 L353.4107243674326,415.9081956480146 M353.4107243674326,415.9081956480146 L342.4550152235936,422.2167069218218 M342.4550152235936,422.2167069218218 L334.00767918315216,429.7023948168772 M334.00767918315216,429.7023948168772 L328.43904036308516,438.03957997690105 M328.43904036308516,438.03957997690105 L325.9945648628515,446.86497840873955 M325.9945648628515,446.86497840873955 L326.7837626331887,455.79338500517355 M326.7837626331887,455.79338500517355 L330.7749382413159,464.43442096502565 M330.7749382413159,464.43442096502565 L337.7961130498801,472.40961733963303 M337.7961130498801,472.40961733963303 L347.5420848636429,479.36910958691203 M167.75497216039997,221.17658612805158 L168.14054829334316,322.01875844772303 M165.7821812946214,475.99367524597073 L166.17433022338153,577.2643727839147 M620.5801439876299,214.52658503279395 L620.21401508932,315.35747767194874 M179.41985601237027,214.52658503279386 L179.78598491068007,315.35747767194874 M634.2178187053786,475.99367524597073 L633.8256697766186,577.2643727839147 M632.2450278396001,221.17658612805158 L631.8594517066568,322.0187584477231 M177.44706133307764,482.76014494452005 L177.81976305257322,584.0421235146132 M622.5529386669225,482.76014494452005 L622.1802369474268,584.0421235146132 M318.6772512080059,307.9816946935463 L318.8126542990769,408.9706554379785 M318.46036462046965,388.217731622868 L318.59649030631056,489.34162941101755 M469.65767127725195,301.29315617945645 L469.54171638483,402.27083623602977 M330.3423287227481,301.29315617945645 L330.45828361517005,402.27083623602977 M481.5396353795304,388.217731622868 L481.40350969368944,489.34162941101755 M481.32274879199423,307.9816946935463 L481.1873457009232,408.9706554379785 M330.12544199583135,394.94498940440434 L330.2421194839504,496.0801683340786 M469.8745580041687,394.94498940440445 L469.7578805160497,496.0801683340786 M334.9804527654855,473.145318862563 L324.1591212229404,465.6092752968672 M324.1591212229404,465.6092752968672 L315.92804649307226,457.05622228404104 M315.92804649307226,457.05622228404104 L310.56594013617865,447.7788882800329 M310.56594013617865,447.7788882800329 L308.2530190472865,438.0942336117964 M308.2530190472865,438.0942336117964 L309.06515970411084,428.33252847048385 M309.06515970411084,428.33252847048385 L312.9717358642829,418.8260294488909 M312.9717358642829,418.8260294488909 L319.83704541000134,409.8976956393116 M319.83704541000134,409.8976956393116 L329.4252922303682,401.85029575213656 M329.4252922303682,401.85029575213656 L341.4088960643929,394.9562690639375 M341.4088960643929,394.9562690639375 L355.3797739641791,389.44866610123023 M355.3797739641791,389.44866610123023 L370.8632458717849,385.5134375491115 M370.8632458717849,385.5134375491115 L387.33404987451286,383.2833268087421 M387.33404987451286,383.2833268087421 L404.2339605186849,382.8335134762329 M404.2339605186849,382.8335134762329 L420.9904396044444,384.1791549668829 M420.9904396044444,384.1791549668829 L437.0357215942393,387.2749016008325 M437.0357215942393,387.2749016008325 L451.825787834893,392.01635946961443 M451.825787834893,392.01635946961443 L464.85855326330767,398.24352573148684 M464.85855326330767,398.24352573148684 L475.69075645138776,405.7460292117375 M475.69075645138776,405.7460292117375 L483.95297764530875,414.27007194547394 M483.95297764530875,414.27007194547394 L489.3622987618061,423.5268434552102 M489.3622987618061,423.5268434552102 L491.7321263276517,433.2021604711434 M491.7321263276517,433.2021604711434 L490.9788983252427,442.967013899499 M490.9788983252427,442.967013899499 L487.12528456258275,452.4887219540602 M487.12528456258275,452.4887219540602 L480.29983431621287,461.4422714960297 M480.29983431621287,461.4422714960297 L470.73296047854234,469.5214883110364 M470.73296047854234,469.5214883110364 L458.7493567338801,476.4496360834944 M458.7493567338801,476.4496360834944 L444.757105983477,481.98905603531523 M444.757105983477,481.98905603531523 L429.23377479301337,485.9495004244423 M429.23377479301337,485.9495004244423 L412.7100082850673,488.1948202815805 M412.7100082850673,488.1948202815805 L395.75118481079807,488.6477819179233 M395.75118481079807,488.6477819179233 L378.93779909612994,487.2928027340482 M378.93779909612994,487.2928027340482 L362.84530229782087,484.1764934921036 M362.84530229782087,484.1764934921036 L348.0240896727791,479.40602525023957 M348.0240896727791,479.40602525023957 L334.9804527654855,473.145318862563 M334.9804527654855,473.145318862563 L334.88623046614794,385.48906452400416 M347.5420848636429,479.36910958691203 L347.5304093873161,465.9076533047109 M347.5304093873161,465.9076533047109 L359.5785039533045,471.54443275564836 M359.5785039533045,471.54443275564836 L373.3994134340485,475.6120999094366 M373.3994134340485,475.6120999094366 L388.38744686770565,477.9315554568721 M388.38744686770565,477.9315554568721 L403.885101091118,478.40061831256094 M403.885101091118,478.40061831256094 L419.2122457481463,476.9986141728446 M419.2122457481463,476.9986141728446 L433.6963260802065,473.7873212710302 M433.6963260802065,473.7873212710302 L446.7022236080483,468.9081820081372 M446.7022236080483,468.9081820081372 L457.66036865976065,462.57592543693204 M457.66036865976065,462.57592543693204 L466.0918443171493,455.068929095224 M466.0918443171493,455.068929095224 L471.6293113210156,446.71677266630536 M471.6293113210156,446.71677266630536 L474.0328529628878,437.88556913272663 M474.0328529628878,437.88556913272663 L473.20010673987707,428.9617816181609 M473.20010673987707,428.9617816181609 L469.17027468526777,420.33524733474746 M469.17027468526777,420.33524733474746 L462.1219042996655,412.3821764254585 M462.1219042996655,412.3821764254585 L452.36469805037484,405.448837134885 M452.36469805037484,405.448837134885 L440.3256718813561,399.8366622052974 M440.3256718813561,399.8366622052974 L426.53039968094265,395.7893452462884 M426.53039968094265,395.7893452462884 L411.580139520299,393.4824668026331 M411.580139520299,393.4824668026331 L396.125863181125,393.0160332844378 M396.125863181125,393.0160332844378 L380.84020057685785,394.4102643382599 M380.84020057685785,394.4102643382599 L366.3885338279569,397.60472577401237 M366.3885338279569,397.60472577401237 L353.40037681890846,402.46088552655607 M353.40037681890846,402.46088552655607 L342.442231724485,408.7679879097012 M342.442231724485,408.7679879097012 L333.9930154911443,416.2520047726312 M333.9930154911443,416.2520047726312 L328.4231349130478,424.5873297907528 M328.4231349130478,424.5873297907528 L325.9781112875225,433.41076026747663 M325.9781112875225,433.41076026747663 L326.7674797098505,442.3371771050234 M326.7674797098505,442.3371771050234 L330.75953853415746,450.97628846511833 M330.75953853415746,450.97628846511833 L337.7822716130322,458.949709515615 M337.7822716130322,458.949709515615 L347.5304093873161,465.9076533047109" stroke="black"  stroke-width="4"  fill="red"/></svg>