<svg viewBox="0 0 800 800" xmlns="http://www.w3.org/2000/svg"><path d="M654.1126926154747,294.66565427024545 L654.1540682991644,284.59425185389097 M654.1540682991644,284.59425185389097 L671.1867350733414,295.29956105907917 M671.1867350733414,295.29956105907917 L686.3947004840136,306.89289464965964 M686.3947004840136,306.89289464965964 L699.6390086799946,319.27181021108765 M699.6390086799946,319.27181021108765 L710.7976622763315,332.3265609021234 M710.7976622763315,332.3265609021234 L719.7667949886626,345.9410444929866 M719.7667949886626,345.9410444929866 L726.4617330049111,359.9937195895903 M726.4617330049111,359.9937195895903 L730.817913661247,374.3586864414619 M730.817913661247,374.3586864414619 L732.7915246415032,388.9067463959866 M732.7915246415032,388.9067463959866 L732.360129274823,403.50657912140537 M732.360129274823,403.50657912140537 L729.5230274800343,418.0258808705646 M729.5230274800343,418.0258808705646 L724.3013619715499,432.33255097659725 M724.3013619715499,432.33255097659725 L716.738204170715,446.2959510431706 M716.738204170715,446.2959510431706 L706.8982097445582,459.78810100209574 M706.8982097445582,459.78810100209574 L694.8672547271298,472.6848970429914 M694.8672547271298,472.6848970429914 L680.7517127278065,484.86728978696806 M680.7517127278065,484.86728978696806 L664.6776625957539,496.22248129835924 M664.6776625957539,496.22248129835924 L646.7897296663766,506.64499533917706 M646.7897296663766,506.64499533917706 L627.2498681354568,516.0377473996234 M627.2498681354568,516.0377473996234 L606.2358851450338,524.3130299749903 M606.2358851450338,524.3130299749903 L583.9397687770858,531.3933717251172 M583.9397687770858,531.3933717251172 L560.5659603663819,537.2123801619658 M560.5659603663819,537.2123801619658 L536.329346396943,541.7153832800585 M536.329346396943,541.7153832800585 L511.4532205687519,544.8600351778975 M511.4532205687519,544.8600351778975 L486.1671139932324,546.616710377257 M486.1671139932324,546.616710377257 L460.70460364293314,546.9688777317167 M460.70460364293314,546.9688777317167 L435.30095501037897,545.9132080582602 M435.30095501037897,545.9132080582602 L410.1908425976096,543.4596483936721 M410.1908425976096,543.4596483936721 L385.60611434962397,539.6313212037992 M385.60611434962397,539.6313212037992 L361.7734575712505,534.464239525855 M361.7734575712505,534.464239525855 L338.912250780678,528.0069810626829 M338.912250780678,528.0069810626829 L317.23236992742227,520.3201652283313 M317.23236992742227,520.3201652283313 L296.9322865145076,511.475812012202 M296.9322865145076,511.475812012202 L278.1971227006657,501.5566035589976 M278.1971227006657,501.5566035589976 L261.19693102766587,490.6550697275053 M261.19693102766587,490.6550697275053 L246.08520149861147,478.87260512291635 M246.08520149861147,478.87260512291635 L232.9974109243554,466.3184876108133 M232.9974109243554,466.3184876108133 L222.04989900981928,453.108796040485 M222.04989900981928,453.108796040485 L213.33890108661603,439.3652319365411 M213.33890108661603,439.3652319365411 L206.93976117218529,425.21400165987745 M206.93976117218529,425.21400165987745 L202.90635141671598,410.78456655848527 M202.90635141671598,410.78456655848527 L201.2708188068227,396.20845505651437 M201.2708188068227,396.20845505651437 L202.0433820944702,381.6180011541966 M202.0433820944702,381.6180011541966 L205.21241165559846,367.1451697249403 M205.21241165559846,367.1451697249403 L210.74476835360758,352.9203820591618 M210.74476835360758,352.9203820591618 L218.58615230669844,339.0713174716716 M218.58615230669844,339.0713174716716 L228.66185225291673,325.72182410940445 M228.66185225291673,325.72182410940445 L240.87747321810494,312.990850316217 M240.87747321810494,312.990850316217 L255.1199665995683,300.9914524998491 M255.1199665995683,300.9914524998491 L271.2586650544747,289.82981520422646 M271.2586650544747,289.82981520422646 L289.1466057490786,279.6044192541345 M289.1466057490786,279.6044192541345 L308.6218333751187,270.40522477209566 M308.6218333751187,270.40522477209566 L329.5088762233272,262.3129435847916 M329.5088762233272,262.3129435847916 L351.62033309510036,255.39843221565297 M351.62033309510036,255.39843221565297 L374.7584367247144,249.7220893980483 M374.7584367247144,249.7220893980483 L398.71681946238067,245.33343014756508 M398.71681946238067,245.33343014756508 L423.28224393076266,242.27066751678746 M423.28224393076266,242.27066751678746 L448.2364089359136,240.5604665052934 M448.2364089359136,240.5604665052934 L473.3577359051175,240.2176788554729 M473.3577359051175,240.2176788554729 L498.4232912659541,241.24529442691218 M498.4232912659541,241.24529442691218 L523.210620570093,243.6343802433621 M523.210620570093,243.6343802433621 L547.4995429510261,247.36414469935346 M547.4995429510261,247.36414469935346 L571.0740627300552,252.40213704279626 M571.0740627300552,252.40213704279626 L593.7241315002755,258.70444577910985 M593.7241315002755,258.70444577910985 L615.2475037403536,266.21605242899193 M615.2475037403536,266.21605242899193 L635.4513643366986,274.8712698553949 M635.4513643366986,274.8712698553949 L654.1540682991644,284.59425185389097 M654.1126926154747,294.66565427024545 L635.414141070026,284.9404882042224 M635.414141070026,284.9404882042224 L615.214759500972,276.28332500403906 M615.214759500972,276.28332500403906 L593.6961529289229,268.77002848566116 M593.6961529289229,268.77002848566116 L571.0510942491286,262.4663010812892 M571.0510942491286,262.4663010812892 L547.4817848794371,257.42717411166154 M547.4817848794371,257.42717411166154 L523.1982275698667,253.6965693404536 M523.1982275698667,253.6965693404536 L498.4163711648328,251.3069451202861 M498.4163711648328,251.3069451202861 L473.3563488696247,250.27909793130664 M473.3563488696247,250.27909793130664 L448.24056702447945,250.62196284542378 M448.24056702447945,250.62196284542378 L423.29191099905495,252.3325493016488 M423.29191099905495,252.3325493016488 L398.73191142922644,255.3960020740587 M398.73191142922644,255.3960020740587 L374.77882221924006,259.785649914288 M374.77882221924006,259.785649914288 L351.64583445785564,265.46327082591495 M351.64583445785564,265.46327082591495 L329.53927086980707,272.37933822452595 M329.53927086980707,272.37933822452595 L308.65685551062927,280.47343929543854 M308.65685551062927,280.47343929543854 L289.1859484492529,289.6747010386895 M289.1859484492529,289.6747010386895 L271.301982674461,299.90239291512876 M271.301982674461,299.90239291512876 L255.16687752524768,311.0665340155865 M255.16687752524768,311.0665340155865 L240.92756294360314,323.06862084388143 M240.92756294360314,323.06862084388143 L228.71467675498815,335.8024445090624 M228.71467675498815,335.8024445090624 L218.64124172901109,349.15492279191636 M218.64124172901109,349.15492279191636 L210.80163094545426,363.0070803148176 M210.80163094545426,363.0070803148176 L205.27053797129958,377.23504091658543 M205.27053797129958,377.23504091658543 L202.10224939286908,391.71109654280207 M202.10224939286908,391.71109654280207 L201.32989566075824,406.30479669334784 M201.32989566075824,406.30479669334784 L202.96510244737726,420.8841470896552 M202.96510244737726,420.8841470896552 L206.99765190799857,435.3167843948676 M206.99765190799857,435.3167843948676 L213.39540288934793,449.4711511753812 M213.39540288934793,449.4711511753812 L222.10449400363612,463.21775767340796 M222.10449400363612,463.21775767340796 L233.04959691322537,476.43036996887906 M233.04959691322537,476.43036996887906 L246.13449679446086,488.9872600885392 M246.13449679446086,488.9872600885392 L261.2428791366094,500.77232407151433 M261.2428791366094,500.77232407151433 L278.2392968196348,511.6762605141937 M278.2392968196348,511.6762605141937 L296.9702937945182,521.5976530596522 M296.9702937945182,521.5976530596522 L317.26585542112304,530.4439520726828 M317.26585542112304,530.4439520726828 L338.9409010551081,538.1324577963237 M338.9409010551081,538.1324577963237 L361.7970039252325,544.5911349454427 M361.7970039252325,544.5911349454427 L385.62433557635114,549.7593512641158 M385.62433557635114,549.7593512641158 L410.203567293582,553.5885187800905 M410.203567293582,553.5885187800905 L435.3080633580408,556.0426168554137 M435.3080633580408,556.0426168554137 L460.7060286712467,557.0985181494384 M460.7060286712467,557.0985181494384 L486.1628422703824,556.7462735296714 M486.1628422703824,556.7462735296714 L511.4432923465474,554.9892128805476 M511.4432923465474,554.9892128805476 L536.3138551966242,551.8438708321048 M536.3138551966242,551.8438708321048 L560.545051989847,547.3398791115193 M560.545051989847,547.3398791115193 L583.9136397840537,541.5195925643854 M583.9136397840537,541.5195925643854 L606.2047808060686,534.4376947653817 M606.2047808060686,534.4376947653817 L627.2140798970973,526.1605922843678 M627.2140798970973,526.1605922843678 L646.749592142912,516.7657729386863 M646.749592142912,516.7657729386863 L664.6335501593776,506.3409629463022 M664.6335501593776,506.3409629463022 L680.7040357189907,494.9832676045727 M680.7040357189907,494.9832676045727 L694.8164553388465,482.7981858238829 M694.8164553388465,482.7981858238829 L706.8447576476432,469.8985398879672 M706.8447576476432,469.8985398879672 L716.6825919024831,456.4034049882148 M716.6825919024831,456.4034049882148 L724.2441001778063,442.43691196972077 M724.2441001778063,442.43691196972077 L729.4646400329596,428.1270689157177 M729.4646400329596,428.1270689157177 L732.3011483524123,413.60454296274054 M732.3011483524123,413.60454296274054 L732.7324857769225,399.0014639877044 M732.7324857769225,399.0014639877044 L730.759350860419,384.45016514299317 M730.759350860419,384.45016514299317 L726.4041739372885,370.0819960967804 M726.4041739372885,370.0819960967804 L719.7107563066132,356.0261845106603 M719.7107563066132,356.0261845106603 L710.7436451191504,342.40865854419974 M710.7436451191504,342.40865854419974 L699.5874943610362,329.35098714977914 M699.5874943610362,329.35098714977914 L686.3461464173224,316.9692990048314 M686.3461464173224,316.9692990048314 L671.1415709641846,305.3733660611385 M671.1415709641846,305.3733660611385 L654.1126926154747,294.66565427024545 M645.9253156049474,289.34301246873986 L662.6860680504715,299.9134370179032 M662.6860680504715,299.9134370179032 L677.5860545907284,311.3831900458818 M677.5860545907284,311.3831900458818 L690.4804707620382,323.6443678468564 M690.4804707620382,323.6443678468564 L701.2430403308118,336.58122666308844 M701.2430403308118,336.58122666308844 L709.7672355241363,350.07126216605354 M709.7672355241363,350.07126216605354 L715.9674055970474,363.98626745707094 M715.9674055970474,363.98626745707094 L719.7798103009884,378.19352667670876 M719.7798103009884,378.19352667670876 L721.1633172727569,392.55701355200347 M721.1633172727569,392.55701355200347 L720.100019060377,406.9387006924649 M720.100019060377,406.9387006924649 L716.595518524563,421.1998613917089 M716.595518524563,421.1998613917089 L710.6791158737466,435.2023981806946 M710.6791158737466,435.2023981806946 L702.4036468481821,448.8102318181196 M702.4036468481821,448.8102318181196 L691.8452039641112,461.8906288885193 M691.8452039641112,461.8906288885193 L679.1024705812133,474.3155695296983 M679.1024705812133,474.3155695296983 L664.2958928759214,485.96301678972793 M664.2958928759214,485.96301678972793 L647.566685344791,496.7182386271187 M647.566685344791,496.7182386271187 L629.075466458671,506.4749818355949 M629.075466458671,506.4749818355949 L609.0007231350364,515.1365895812877 M609.0007231350364,515.1365895812877 L587.5370943118619,522.6170428003471 M587.5370943118619,522.6170428003471 L564.8934992998843,528.8419250387309 M564.8934992998843,528.8419250387309 L541.2909449375186,533.7491886660606 M541.2909449375186,533.7491886660606 L516.9603561440297,537.289831870816 M516.9603561440297,537.289831870816 L492.14016706664654,539.4284823147341 M492.14016706664654,539.4284823147341 L467.0739144963998,540.1437474495334 M467.0739144963998,540.1437474495334 L442.0076619261531,539.4284823147341 M442.0076619261531,539.4284823147341 L417.18747284876997,537.289831870816 M417.18747284876997,537.289831870816 L392.85688405528106,533.7491886660606 M392.85688405528106,533.7491886660606 L369.2543296929153,528.8419250387309 M369.2543296929153,528.8419250387309 L346.61073468093775,522.6170428003471 M346.61073468093775,522.6170428003471 L325.1471058577632,515.1365895812877 M325.1471058577632,515.1365895812877 L305.0723625341286,506.47498183559486 M305.0723625341286,506.47498183559486 L286.5811436480079,496.7182386271182 M286.5811436480079,496.7182386271182 L269.8519361168783,485.96301678972793 M269.8519361168783,485.96301678972793 L255.04535841158634,474.31556952969817 M255.04535841158634,474.31556952969817 L242.30262502868834,461.89062888851925 M242.30262502868834,461.89062888851925 L231.74418214461753,448.8102318181195 M231.74418214461753,448.8102318181195 L223.46871311905315,435.2023981806945 M223.46871311905315,435.2023981806945 L217.55231046823678,421.1998613917089 M217.55231046823678,421.1998613917089 L214.0478099324226,406.93870069246486 M214.0478099324226,406.93870069246486 L212.9845117200428,392.5570135520034 M212.9845117200428,392.5570135520034 L214.36801869181124,378.19352667670864 M214.36801869181124,378.19352667670864 L218.18042339575214,363.98626745707094 M218.18042339575214,363.98626745707094 L224.38059346866336,350.0712621660535 M224.38059346866336,350.0712621660535 L232.90478866198785,336.5812266630884 M232.90478866198785,336.5812266630884 L243.6673582307615,323.6443678468564 M243.6673582307615,323.6443678468564 L256.56177440207125,311.38319004588175 M256.56177440207125,311.38319004588175 L271.46176094232817,299.9134370179032 M271.46176094232817,299.9134370179032 L288.2225133878525,289.3430124687397 M288.2225133878525,289.3430124687397 L306.68220046487426,279.7710681664341 M306.68220046487426,279.7710681664341 L326.6635460636802,271.2871590566428 M326.6635460636802,271.2871590566428 L347.97549952199023,263.97047483758325 M347.97549952199023,263.97047483758325 L370.41497045606894,257.8891384081725 M370.41497045606894,257.8891384081725 L393.76879604387403,253.09968064891538 M393.76879604387403,253.09968064891538 L417.81560999171467,249.64657534262545 M417.81560999171467,249.64657534262545 L442.3278837908354,247.5618306626409 M442.3278837908354,247.5618306626409 L467.07391449639977,246.86476721522982 M467.07391449639977,246.86476721522982 L491.81994520196423,247.5618306626409 M491.81994520196423,247.5618306626409 L516.332219001085,249.64657534262545 M516.332219001085,249.64657534262545 L540.3790329489257,253.09968064891538 M540.3790329489257,253.09968064891538 L563.7328585367306,257.8891384081725 M563.7328585367306,257.8891384081725 L586.1723294708095,263.97047483758325 M586.1723294708095,263.97047483758325 L607.4842829291194,271.2871590566428 M607.4842829291194,271.2871590566428 L627.4656285279254,279.77106816643413 M627.4656285279254,279.77106816643413 L645.9253156049474,289.34301246873986 M293.04365183425125,307.20155592214223 L278.06769638762887,317.1220128776044 M278.06769638762887,317.1220128776044 L264.7758741425381,327.81981094818974 M264.7758741425381,327.81981094818974 L253.28915556008008,339.20057152306725 M253.28915556008008,339.20057152306725 L243.71295421312055,351.16363876301693 M243.71295421312055,351.16363876301693 L236.13597824269678,363.6028343411204 M236.13597824269678,363.6028343411204 L230.62945597722214,376.4074122831142 M230.62945597722214,376.4074122831142 L227.24635941770543,389.46298713677925 M227.24635941770543,389.46298713677925 L226.02076218235575,402.6525431661921 M226.02076218235575,402.6525431661921 L226.96745916708167,415.85743759356774 M226.96745916708167,415.85743759356774 L230.0816866150743,428.9584759758338 M230.0816866150743,428.9584759758338 L235.3390410676525,441.8370075240367 M235.3390410676525,441.8370075240367 L242.695512373485,454.3759870589465 M242.695512373485,454.3759870589465 L252.08780316985082,466.4610798805479 M252.08780316985082,466.4610798805479 L263.43382078990203,477.98171874560524 M263.43382078990203,477.98171874560524 L276.63321198451524,488.8322172391309 M276.63321198451524,488.8322172391309 L291.5683317612527,498.9127043740947 M405.973761242191,432.87537382886364 L291.5683317612527,498.9127043740947 M406.13595641569367,372.5099413900616 L398.68687071262667,378.39203062780666 M398.68687071262667,378.39203062780666 L392.9236541105899,384.8768361221999 M392.9236541105899,384.8768361221999 L388.98992834580184,391.8048691903938 M388.98992834580184,391.8048691903938 L386.9845008416657,399.0054405332118 M386.9845008416657,399.0054405332118 L386.95876860696444,406.30081759075694 M386.95876860696444,406.30081759075694 L388.9152613665106,413.51059011458096 M388.9152613665106,413.51059011458096 L392.8073928952021,420.4561209862888 M392.8073928952021,420.4561209862888 L398.5404449206198,426.96500070126666 M398.5404449206198,426.96500070126666 L405.973761242191,432.87537382886364 M293.04365183425125,307.20155592214223 L406.13595641569367,372.5099413900616 M632.3632974441061,302.1983534988245 L615.0633991090965,293.6429972487459 M615.0633991090965,293.6429972487459 L596.4489452901346,286.07113810203737 M596.4489452901346,286.07113810203737 L576.6864670180021,279.54897096608653 M576.6864670180021,279.54897096608653 L555.9521291713409,274.13344047038834 M555.9521291713409,274.13344047038834 L534.4303572671768,269.8717162415895 M534.4303572671768,269.8717162415895 L512.3121638012674,266.8008886390194 M512.3121638012674,266.8008886390194 L489.7935668900504,264.9476632936591 M489.7935668900504,264.9476632936591 L467.07391449639977,264.32812857188435 M467.07391449639977,264.32812857188435 L444.3542621027492,264.9476632936591 M444.3542621027492,264.9476632936591 L421.83566519153226,266.8008886390194 M421.83566519153226,266.8008886390194 L399.7174717256228,269.8717162415895 M399.7174717256228,269.8717162415895 L378.19569982145885,274.1334404703882 M378.19569982145885,274.1334404703882 L357.46136197479757,279.54897096608653 M357.46136197479757,279.54897096608653 L337.698883702665,286.0711381020373 M337.698883702665,286.0711381020373 L319.084429883703,293.6429972487459 M319.084429883703,293.6429972487459 L301.7845315486934,302.1983534988245 M414.87698067080106,367.4778028984763 L301.7845315486934,302.1983534988245 M519.2708483219985,367.4778028984763 L509.0662067983955,363.1957135039461 M509.0662067983955,363.1957135039461 L497.82843901968954,359.88901209538983 M497.82843901968954,359.88901209538983 L485.8343564498621,357.6385892395563 M485.8343564498621,357.6385892395563 L473.3790562260805,356.49945901900406 M473.3790562260805,356.49945901900406 L460.7687727667192,356.49945901900406 M460.7687727667192,356.49945901900406 L448.3134725429375,357.6385892395563 M448.3134725429375,357.6385892395563 L436.31938997311005,359.88901209538983 M436.31938997311005,359.88901209538983 L425.0816221944041,363.1957135039461 M425.0816221944041,363.1957135039461 L414.87698067080106,367.4778028984763 M632.3632974441061,302.1983534988245 L519.2708483219985,367.4778028984763 M642.579497231547,498.9127043740947 L657.5146170082844,488.8322172391309 M657.5146170082844,488.8322172391309 L670.7140082028977,477.98171874560524 M670.7140082028977,477.98171874560524 L682.0600258229489,466.461079880548 M682.0600258229489,466.461079880548 L691.4523166193146,454.3759870589465 M691.4523166193146,454.3759870589465 L698.808787925147,441.83700752403684 M698.808787925147,441.83700752403684 L704.0661423777254,428.9584759758338 M704.0661423777254,428.9584759758338 L707.180369825718,415.85743759356774 M707.180369825718,415.85743759356774 L708.1270668104439,402.6525431661921 M708.1270668104439,402.6525431661921 L706.9014695750942,389.46298713677925 M706.9014695750942,389.46298713677925 L703.5183730155775,376.40741228311424 M703.5183730155775,376.40741228311424 L698.0118507501029,363.6028343411204 M698.0118507501029,363.6028343411204 L690.434874779679,351.163638763017 M690.434874779679,351.163638763017 L680.8586734327195,339.20057152306725 M680.8586734327195,339.20057152306725 L669.3719548502615,327.81981094818974 M669.3719548502615,327.81981094818974 L656.0801326051708,317.1220128776044 M656.0801326051708,317.1220128776044 L641.1041771585484,307.20155592214223 M528.011872577106,372.5099413900616 L641.1041771585484,307.20155592214223 M528.1740677506086,432.87537382886364 L535.6073840721799,426.96500070126666 M535.6073840721799,426.96500070126666 L541.3404360975976,420.4561209862889 M541.3404360975976,420.4561209862889 L545.232567626289,413.51059011458096 M545.232567626289,413.51059011458096 L547.1890603858353,406.30081759075694 M547.1890603858353,406.30081759075694 L547.163328151134,399.0054405332118 M547.163328151134,399.0054405332118 L545.1579006469979,391.80486919039384 M545.1579006469979,391.80486919039384 L541.2241748822098,384.87683612219996 M541.2241748822098,384.87683612219996 L535.4609582801729,378.39203062780666 M535.4609582801729,378.39203062780666 L528.011872577106,372.5099413900616 M642.579497231547,498.9127043740947 L528.1740677506086,432.87537382886364 M300.3092086352158,504.0033564710138 L317.64993261041076,512.7187445398732 M317.64993261041076,512.7187445398732 L336.35680928517877,520.4433077205923 M336.35680928517877,520.4433077205923 L356.2599833284569,527.1053586739957 M356.2599833284569,527.1053586739957 L377.1782302780457,532.6429206082092 M377.1782302780457,532.6429206082092 L398.9205093491243,537.0044346991111 M398.9205093491243,537.0044346991111 L421.287876723467,540.1492208952145 M421.287876723467,540.1492208952145 L444.0753515658597,542.0479128979929 M444.0753515658597,542.0479128979929 L467.0739144963998,542.6827870901851 M467.0739144963998,542.6827870901851 L490.07247742693994,542.0479128979929 M490.07247742693994,542.0479128979929 L512.8599522693327,540.1492208952145 M512.8599522693327,540.1492208952145 L535.2273196436754,537.0044346991111 M535.2273196436754,537.0044346991111 L556.9695987147538,532.6429206082092 M556.9695987147538,532.6429206082092 L577.8878456643429,527.1053586739957 M577.8878456643429,527.1053586739957 L597.7910197076209,520.4433077205923 M597.7910197076209,520.4433077205923 L616.4978963823888,512.7187445398732 M616.4978963823888,512.7187445398732 L633.8386203575839,504.0033564710138 M519.4330435993182,437.9365844279363 L633.8386203575839,504.0033564710138 M414.71478539348135,437.9365844279362 L424.9351961263086,442.2469578020187 M424.9351961263086,442.2469578020187 L436.2031284152635,445.57773353163077 M436.2031284152635,445.57773353163077 L448.2388052861768,447.84565430372896 M448.2388052861768,447.84565430372896 L460.74304042596873,448.99398578950616 M460.74304042596873,448.99398578950616 L473.4047885668309,448.99398578950616 M473.4047885668309,448.99398578950616 L485.90902370662286,447.84565430372896 M485.90902370662286,447.84565430372896 L497.94470057753614,445.57773353163077 M497.94470057753614,445.57773353163077 L509.21263286649105,442.2469578020187 M509.21263286649105,442.2469578020187 L519.4330435993182,437.9365844279363 M300.3092086352158,504.0033564710138 L414.71478539348135,437.9365844279362 M441.92735224040536,417.1709176538842 L448.67355896203213,420.2258761675136 M448.67355896203213,420.2258761675136 L456.49156113989073,422.25933939580113 M456.49156113989073,422.25933939580113 L464.9261321049149,423.15256093946135 M464.9261321049149,423.15256093946135 L473.4858573583779,422.8533577610723 M473.4858573583779,422.8533577610723 L481.6719670410354,421.3792126243183 M481.6719670410354,421.3792126243183 L489.0076347132418,418.816229160978 M489.0076347132418,418.816229160978 L495.0659255043162,415.3140309388956 M495.0659255043162,415.3140309388956 L499.4947552555227,411.0769124505296 M499.4947552555227,411.0769124505296 L502.0373505775234,406.3517925761211 M502.0373505775234,406.3517925761211 L502.5470286436562,401.4137063551015 M502.5470286436562,401.4137063551015 L500.99546921468055,396.5497293896624 M500.99546921468055,396.5497293896624 L497.4740750340812,392.0422667480699 M497.4740750340812,392.0422667480699 L492.18836554944676,388.1527080901656 M492.18836554944676,388.1527080901656 L485.44583696865203,385.10636527433945 M485.44583696865203,385.10636527433945 L477.63802660575146,383.07954399513346 M477.63802660575146,383.07954399513346 L469.21782630790784,382.1894690603236 M469.21782630790784,382.1894690603236 L460.6733584288454,382.4876026469136 M460.6733584288454,382.4876026469136 L452.49989753729955,383.9567070308105 M452.49989753729955,383.9567070308105 L445.1713723920698,386.5118333567305 M445.1713723920698,386.5118333567305 L439.1130815949042,390.00515803202757 M439.1130815949042,390.00515803202757 L434.67710930980064,394.23441938734305 M434.67710930980064,394.23441938734305 L432.1218652010083,398.9544985165819 M432.1218652010083,398.9544985165819 L431.59692977230327,403.89151515044654 M431.59692977230327,403.89151515044654 L433.1341185432169,408.75863871623096 M433.1341185432169,408.75863871623096 L436.64532090738993,413.2727432994747 M436.64532090738993,413.2727432994747 L441.92735224040536,417.1709176538842 M645.9253156049474,289.34301246873986 L646.2424596483714,208.60251792006883 M646.2424596483714,208.60251792006883 L663.0330952514255,219.15385852166258 M663.0330952514255,219.15385852166258 L677.9597050357886,230.60292374755014 M677.9597050357886,230.60292374755014 L690.8772236069009,242.84200905894215 M690.8772236069009,242.84200905894215 L701.6591448214907,255.755583462007 M701.6591448214907,255.755583462007 L710.1987443728262,269.2213668418708 M710.1987443728262,269.2213668418708 L716.4102106166365,283.1113858788294 M716.4102106166365,283.1113858788294 L720.2296801907783,297.2931653605002 M720.2296801907783,297.2931653605002 L721.6159370060481,311.63092446031106 M721.6159370060481,311.63092446031106 L720.5510307683409,325.9868836084401 M720.5510307683409,325.9868836084401 L717.040563306774,340.22256392780906 M717.040563306774,340.22256392780906 L711.113876366186,354.2001134213032 M711.113876366186,354.2001134213032 L702.8238899177397,367.7836935359873 M702.8238899177397,367.7836935359873 L692.2468232937313,380.84080449069086 M692.2468232937313,380.84080449069086 L679.4815284143301,393.24365070382373 M679.4815284143301,393.24365070382373 L664.6486605740616,404.8704080631586 M664.6486605740616,404.8704080631586 L647.8896823957682,415.6065437757487 M647.8896823957682,415.6065437757487 L629.3654971963016,425.34598842830917 M629.3654971963016,425.34598842830917 L609.2549107817679,433.9922517735033 M609.2549107817679,433.9922517735033 L587.7529119351798,441.45946251574577 M587.7529119351798,441.45946251574577 L565.0687973197217,447.67333166931184 M565.0687973197217,447.67333166931184 L541.4239745272683,452.5719176269346 M541.4239745272683,452.5719176269346 L517.0497884938983,456.10630214327216 M517.0497884938983,456.10630214327216 L492.1851080172886,458.2411731106465 M492.1851080172886,458.2411731106465 L467.0739144963998,458.95517437092144 M467.0739144963998,458.95517437092144 L441.962720975511,458.2411731106465 M441.962720975511,458.2411731106465 L417.0980404989013,456.10630214327216 M417.0980404989013,456.10630214327216 L392.7238544655313,452.5719176269346 M392.7238544655313,452.5719176269346 L369.0790316730779,447.67333166931184 M369.0790316730779,447.67333166931184 L346.39491705761986,441.45946251574577 M346.39491705761986,441.45946251574577 L324.89291821103177,433.9922517735033 M324.89291821103177,433.9922517735033 L304.78233179649806,425.34598842830906 M304.78233179649806,425.34598842830906 L286.25814659703076,415.6065437757484 M286.25814659703076,415.6065437757484 L269.499168418738,404.8704080631586 M269.499168418738,404.8704080631586 L254.66630057846956,393.2436507038236 M254.66630057846956,393.2436507038236 L241.90100569906835,380.84080449069074 M241.90100569906835,380.84080449069074 L231.32393907505994,367.78369353598725 M231.32393907505994,367.78369353598725 L223.03395262661363,354.2001134213031 M223.03395262661363,354.2001134213031 L217.10726568602567,340.22256392780906 M217.10726568602567,340.22256392780906 L213.59679822445875,325.98688360844 M213.59679822445875,325.98688360844 L212.53189198675156,311.63092446031095 M212.53189198675156,311.63092446031095 L213.91814880202142,297.2931653605002 M213.91814880202142,297.2931653605002 L217.7376183761631,283.1113858788294 M217.7376183761631,283.1113858788294 L223.94908461997338,269.2213668418707 M223.94908461997338,269.2213668418707 L232.48868417130888,255.755583462007 M232.48868417130888,255.755583462007 L243.2706053858987,242.84200905894215 M243.2706053858987,242.84200905894215 L256.18812395701104,230.60292374755014 M256.18812395701104,230.60292374755014 L271.11473374137415,219.1538585216625 M271.11473374137415,219.1538585216625 L287.90536934442827,208.60251792006858 M287.90536934442827,208.60251792006858 L306.3979103180616,199.0478700017933 M306.3979103180616,199.0478700017933 L326.41476597801426,190.5793032091218 M326.41476597801426,190.5793032091218 L347.76454860947655,183.27585955120702 M347.76454860947655,183.27585955120702 L370.2438112597817,177.20553453096528 M370.2438112597817,177.20553453096528 L393.6390183239207,172.42475306865384 M393.6390183239207,172.42475306865384 L417.728417577477,168.97790543213722 M417.728417577477,168.97790543213722 L442.28408475199916,166.8969396020148 M442.28408475199916,166.8969396020148 L467.07391449639977,166.2011398176274 M467.07391449639977,166.2011398176274 L491.86374424080043,166.8969396020149 M491.86374424080043,166.8969396020149 L516.4194114153227,168.97790543213722 M516.4194114153227,168.97790543213722 L540.5088106688789,172.42475306865384 M540.5088106688789,172.42475306865384 L563.9040177330179,177.20553453096528 M563.9040177330179,177.20553453096528 L586.383280383323,183.27585955120702 M586.383280383323,183.27585955120702 L607.7330630147854,190.5793032091218 M607.7330630147854,190.5793032091218 L627.7499186747381,199.0478700017933 M627.7499186747381,199.0478700017933 L646.2424596483714,208.60251792006883 M295.5371918662513,410.27075647284 L313.40573681676904,419.6465138015434 M313.40573681676904,419.6465138015434 L332.8232827162494,427.9505301401288 M332.8232827162494,427.9505301401288 L353.5955507249391,435.09784751771025 M353.5955507249391,435.09784751771025 L375.5139930558696,441.0151910825281 M375.5139930558696,441.0151910825281 L398.35796187068956,445.64177316453134 M398.35796187068956,445.64177316453134 L421.89695071454645,448.9300253691183 M421.89695071454645,448.9300253691183 L445.8930785743838,450.8460837648471 M445.8930785743838,450.8460837648471 L470.1035890696249,451.3702271500753 M470.1035890696249,451.3702271500753 L494.2834219578817,450.4970410322258 M494.2834219578817,450.4970410322258 L518.1878726443429,448.23551485392113 M518.1878726443429,448.23551485392113 L541.5751750664344,444.60897235771836 M541.5751750664344,444.60897235771836 L564.2090273578035,439.65471183829544 M564.2090273578035,439.65471183829544 L585.8611822876173,433.4236813495311 M585.8611822876173,433.4236813495311 L606.3137825166019,425.97983682737936 M606.3137825166019,425.97983682737936 L625.361690874049,417.39948565325335 M625.361690874049,417.39948565325335 L642.8144991421372,407.77035244928754 M642.8144991421372,407.77035244928754 L658.4986132115696,397.1907038327509 M658.4986132115696,397.1907038327509 L672.2588237953704,385.76817796711975 M672.2588237953704,385.76817796711975 L683.9599324753981,373.6186751563551 M683.9599324753981,373.6186751563551 L693.4880128339297,360.86511172845024 M693.4880128339297,360.86511172845024 L700.7513765015502,347.63606251373886 M700.7513765015502,347.63606251373886 L705.6814676172727,334.0644706933727 M705.6814676172727,334.0644706933727 L708.2333082301661,320.2862145734806 M708.2333082301661,320.2862145734806 L708.3858396459693,306.43877522836783 M708.3858396459693,306.43877522836783 L706.141919311282,292.65980224408264 M706.141919311282,292.65980224408264 L701.5281722835927,279.0857685930158 M701.5281722835927,279.0857685930158 L694.5945048910451,265.8506182792763 M694.5945048910451,265.8506182792763 L685.4134742873856,253.0845206410457 M685.4134742873856,253.0845206410457 L674.0794036297395,240.91257599979627 M674.0794036297395,240.91257599979627 L660.7073749399534,229.4536457349553 M660.7073749399534,229.4536457349553 L645.4319151495085,218.81931750826 M645.4319151495085,218.81931750826 L628.4056842722043,209.11280463404475 M628.4056842722043,209.11280463404475 L609.7978592455418,200.42807304530515 M609.7978592455418,200.42807304530515 L589.7924503673868,192.8490023514055 M589.7924503673868,192.8490023514055 L568.5866063850916,186.44860840397942 M568.5866063850916,186.44860840397942 L546.388578802761,181.2884579498773 M546.388578802761,181.2884579498773 L523.4158601482363,177.41809254637542 M523.4158601482363,177.41809254637542 L499.89314925410827,174.87463236786243 M499.89314925410827,174.87463236786243 L476.0501628372666,173.68244781367645 M476.0501628372666,173.68244781367645 L452.1195914315503,173.85296634698568 M452.1195914315503,173.85296634698568 L428.33492584726497,175.3845463602053 M428.33492584726497,175.3845463602053 L404.928345002084,178.26252161500682 M404.928345002084,178.26252161500682 L382.128490459702,182.45930249736517 M382.128490459702,182.45930249736517 L360.1584471069163,187.9346419457674 M360.1584471069163,187.9346419457674 L339.23356960084595,194.63592798424474 M339.23356960084595,194.63592798424474 L319.55956202664476,202.49869563907555 M319.55956202664476,202.49869563907555 L301.3304370566923,211.447145124726 M301.3304370566923,211.447145124726 L284.7266495164496,221.39479328926595 M284.7266495164496,221.39479328926595 L269.91343512014424,232.24530066379066 M269.91343512014424,232.24530066379066 L257.03900629151815,243.89324027973257 M257.03900629151815,243.89324027973257 L246.2332047249686,256.2251354401111 M246.2332047249686,256.2251354401111 L237.60599840297624,269.1204383696452 M237.60599840297624,269.1204383696452 L231.2463937766307,282.4526814919663 M231.2463937766307,282.4526814919663 L227.22131057897644,296.090629448784 M227.22131057897644,296.090629448784 L225.57493690797065,309.8995813690425 M225.57493690797065,309.8995813690425 L226.32796501638086,323.7426490748968 M226.32796501638086,323.7426490748968 L229.47727010287622,337.48208714783044 M229.47727010287622,337.48208714783044 L234.99582835388,350.9806927912196 M234.99582835388,350.9806927912196 L242.8327126629884,364.10318650672605 M242.8327126629884,364.10318650672605 L252.91353430311676,376.71758669229513 M252.91353430311676,376.71758669229513 L265.14095172689224,388.69661348790675 M265.14095172689224,388.69661348790675 L279.3956056804738,399.91899268319423 M279.3956056804738,399.91899268319423 L295.5371918662513,410.27075647284 M295.5371918662513,410.27075647284 L295.59471591810575,425.49951888763803 M295.59471591810575,425.49951888763803 L294.1416838102929,424.64880726144156 M294.1416838102929,424.64880726144156 L292.70143397070467,423.79099078536746 M292.70143397070467,423.79099078536746 L291.27409011952955,422.9261234691613 M291.27409011952955,422.9261234691613 L291.5683317612527,498.9127043740947 M292.75434033594115,231.5360842448578 L293.04365183425125,307.20155592214223 M292.75434033594115,231.5360842448578 L295.62366711309954,229.8425442413322 M295.62366711309954,229.8425442413322 L298.5424418351114,228.17746964103264 M298.5424418351114,228.17746964103264 L301.5098119623832,226.54133423321588 M301.5098119623832,226.54133423321588 L301.7845315486934,302.1983534988245 M632.6380170304164,226.54133423321588 L632.3632974441061,302.1983534988245 M632.6380170304164,226.54133423321588 L635.6053871576883,228.17746964103264 M635.6053871576883,228.17746964103264 L638.5241618797,229.8425442413322 M638.5241618797,229.8425442413322 L641.3934886568585,231.5360842448578 M641.3934886568585,231.5360842448578 L641.1041771585484,307.20155592214223 M642.8737388732701,422.9261234691613 L642.579497231547,498.9127043740947 M642.8737388732701,422.9261234691613 L640.0061451825068,424.64880726144156 M640.0061451825068,424.64880726144156 L637.0873714151471,426.34304287178895 M637.0873714151471,426.34304287178895 L634.1182701063232,428.0083224333831 M634.1182701063232,428.0083224333831 L633.8386203575839,504.0033564710138 M300.0295588864765,428.0083224333831 L300.3092086352158,504.0033564710138 M300.0295588864765,428.0083224333831 L298.5387686325797,427.1793351909816 M298.5387686325797,427.1793351909816 L297.0604575776524,426.34304287178895 M297.0604575776524,426.34304287178895 L295.59471591810575,425.49951888763803 M414.6272384573169,362.05155127821354 L411.5592315428399,360.4542908989889 M411.5592315428399,360.4542908989889 L408.63812757419254,358.768545333677 M408.63812757419254,358.768545333677 L405.87162167186796,356.9987939926036 M300.0295588864765,428.0083224333831 L414.6272384573169,362.05155127821354 M405.87162167186796,356.9987939926036 L291.27409011952955,422.9261234691613 M405.87162167186796,356.9987939926036 L405.973761242191,432.87537382886364 M406.0343588515459,296.73447469802954 L406.13595641569367,372.5099413900616 M292.75434033594115,231.5360842448578 L406.0343588515459,296.73447469802954 M406.0343588515459,296.73447469802954 L408.8025968074577,294.97439690637685 M408.8025968074577,294.97439690637685 L411.72370081143714,293.2983760993128 M411.72370081143714,293.2983760993128 L414.78997574150685,291.71078927696465 M414.78997574150685,291.71078927696465 L301.5098119623832,226.54133423321588 M414.78997574150685,291.71078927696465 L414.87698067080106,367.4778028984763 M519.3578532512928,291.71078927696465 L519.2708483219985,367.4778028984763 M632.6380170304164,226.54133423321588 L519.3578532512928,291.71078927696465 M523.9033177149454,294.1255998136643 L525.345232185342,294.97439690637685 M525.345232185342,294.97439690637685 L526.7489259420558,295.84421056094845 M526.7489259420558,295.84421056094845 L528.1134701412537,296.73447469802954 M519.3578532512928,291.71078927696465 L520.9086420406849,292.4932633762735 M520.9086420406849,292.4932633762735 L522.4241281813624,293.2983760993128 M522.4241281813624,293.2983760993128 L523.9033177149454,294.1255998136643 M528.1134701412537,296.73447469802954 L641.3934886568585,231.5360842448578 M528.1134701412537,296.73447469802954 L528.011872577106,372.5099413900616 M528.2762073209317,356.9987939926036 L528.1740677506086,432.87537382886364 M642.8737388732701,422.9261234691613 L528.2762073209317,356.9987939926036 M528.2762073209317,356.9987939926036 L525.509701418607,358.768545333677 M525.509701418607,358.768545333677 L522.5885974499597,360.4542908989889 M522.5885974499597,360.4542908989889 L519.5205905354828,362.05155127821354 M519.5205905354828,362.05155127821354 L634.1182701063232,428.0083224333831 M519.5205905354828,362.05155127821354 L519.4330435993182,437.9365844279363 M414.6272384573169,362.05155127821354 L414.71478539348135,437.9365844279362 M523.9222713791651,278.9410590651638 L532.9482086728499,285.10698822745815 M532.9482086728499,285.10698822745815 L539.9795724603932,292.08172378078973 M539.9795724603932,292.08172378078973 L544.8014324273955,299.6546297568749 M544.8014324273955,299.6546297568749 L547.265316455002,307.5965632939225 M547.265316455002,307.5965632939225 L547.2939329592821,315.6667252986689 M547.2939329592821,315.6667252986689 L544.8838303890043,323.6199150827403 M544.8838303890043,323.6199150827403 L540.1058135244416,331.2139758993481 M540.1058135244416,331.2139758993481 L533.1030663504612,338.21721331822766 M533.1030663504612,338.21721331822766 L524.0870675971327,344.41555365301355 M524.0870675971327,344.41555365301355 L513.3313035028483,349.6191971384815 M513.3313035028483,349.6191971384815 L501.16302762871743,353.6685679903783 M501.16302762871743,353.6685679903783 L487.95325443393654,356.43933327216183 M487.95325443393654,356.43933327216183 L474.1053416773878,357.84634894617994 M474.1053416773878,357.84634894617994 L460.0424873154118,357.84634894617994 M460.0424873154118,357.84634894617994 L446.1945745588631,356.43933327216183 M446.1945745588631,356.43933327216183 L432.98480136408216,353.6685679903783 M432.98480136408216,353.6685679903783 L420.81652548995135,349.6191971384815 M420.81652548995135,349.6191971384815 L410.0607613956669,344.41555365301343 M410.0607613956669,344.41555365301343 L401.04476264233847,338.21721331822766 M401.04476264233847,338.21721331822766 L394.0420154683581,331.2139758993481 M394.0420154683581,331.2139758993481 L389.2639986037953,323.6199150827403 M389.2639986037953,323.6199150827403 L386.8538960335176,315.6667252986689 M386.8538960335176,315.6667252986689 L386.88251253779765,307.5965632939225 M386.88251253779765,307.5965632939225 L389.3463965654041,299.6546297568749 M389.3463965654041,299.6546297568749 L394.16825653240636,292.08172378078973 M394.16825653240636,292.08172378078973 L401.19962031994964,285.10698822745815 M401.19962031994964,285.10698822745815 L410.22555761363475,278.9410590651638 M410.22555761363475,278.9410590651638 L420.97138338946195,273.7698267965401 M420.97138338946195,273.7698267965401 L433.11104276810016,269.74895793833275 M433.11104276810016,269.74895793833275 L446.27697281943625,266.9993476247675 M446.27697281943625,266.9993476247675 L460.07110393776213,265.6035882977982 M460.07110393776213,265.6035882977982 L474.07672505503746,265.6035882977982 M474.07672505503746,265.6035882977982 L487.8708561733634,266.9993476247675 M487.8708561733634,266.9993476247675 L501.0367862246995,269.74895793833275 M501.0367862246995,269.74895793833275 L513.1764456033377,273.7698267965401 M513.1764456033377,273.7698267965401 L523.9222713791651,278.9410590651638 M523.9222713791651,278.9410590651638 L523.9033177149454,294.1255998136643 M441.92735224040536,417.1709176538842 L441.92175929931585,407.0721616451551 M441.92175929931585,407.0721616451551 L448.66946591974835,410.1264417856963 M448.66946591974835,410.1264417856963 L456.48920695190196,412.1594535717101 M456.48920695190196,412.1594535717101 L464.9256542828196,413.0524768398656 M464.9256542828196,413.0524768398656 L473.487283819293,412.75334007625145 M473.487283819293,412.75334007625145 L481.6752144499785,411.27952218425355 M481.6752144499785,411.27952218425355 L489.0125134273864,408.7171077776045 M489.0125134273864,408.7171077776045 L495.07215080347487,405.2156873529936 M495.07215080347487,405.2156873529936 L499.5019641619765,400.97951020022055 M499.5019641619765,400.97951020022055 L502.0451232231324,396.255440492174 M502.0451232231324,396.255440492174 L502.5549128798508,391.318452236599 M502.5549128798508,391.318452236599 L501.0030069868471,386.4555572252139 M501.0030069868471,386.4555572252139 L497.48082896920914,381.9490976471649 M497.48082896920914,381.9490976471649 L492.193944214126,378.06040486777255 M492.193944214126,378.06040486777255 L485.44991736979824,375.01474042376134 M485.44991736979824,375.01474042376134 L477.64037268380997,372.9883705858485 M477.64037268380997,372.9883705858485 L469.21830240917035,372.0984939260789 M469.21830240917035,372.0984939260789 L460.6719370304193,372.39656109805185 M460.6719370304193,372.39656109805185 L452.496660814408,373.86533823793667 M452.496660814408,373.86533823793667 L445.1665075394915,376.419895508326 M445.1665075394915,376.419895508326 L439.10687015730645,379.91244238746367 M439.10687015730645,379.91244238746367 L434.6699110893869,384.14076240834936 M434.6699110893869,384.14076240834936 L432.11409761788053,388.8597913719732 M432.11409761788053,388.8597913719732 L431.5890438152786,393.7957100405517 M431.5890438152786,393.7957100405517 L433.12657266113115,398.66175165181573 M433.12657266113115,398.66175165181573 L436.63855433113395,403.1748531705324 M436.63855433113395,403.1748531705324 L441.92175929931585,407.0721616451551 M418.2712997188052,420.72069079076124 L410.1489795101966,415.06048282679217 M410.1489795101966,415.06048282679217 L403.970862205488,408.63641335944607 M403.970862205488,408.63641335944607 L399.94614478789657,401.6683459628099 M399.94614478789657,401.6683459628099 L398.210095986611,394.3943445596763 M398.210095986611,394.3943445596763 L398.8196684393889,387.06247010826627 M398.8196684393889,387.06247010826627 L401.7518755720057,379.9222757354262 M401.7518755720057,379.9222757354262 L406.9048624308882,373.21633155448063 M406.9048624308882,373.21633155448063 L414.10164488476136,367.17204314573087 M414.10164488476136,367.17204314573087 L423.0963467709206,361.9940362048616 M423.0963467709206,361.9940362048616 L433.58266753443513,357.8573521505041 M433.58266753443513,357.8573521505041 L445.20431953353034,354.9016563590017 M445.20431953353034,354.9016563590017 L457.5670488839031,353.2266508819217 M457.5670488839031,353.2266508819217 L470.2518595744055,352.8888022700747 M470.2518595744055,352.8888022700747 L482.82901257564936,353.89949508931466 M482.82901257564936,353.89949508931466 L494.87235117589904,356.22466770141614 M494.87235117589904,356.22466770141614 L505.9735428577882,359.78591102266626 M505.9735428577882,359.78591102266626 L515.755730056271,364.4630487701327 M515.755730056271,364.4630487701327 L523.8862076279128,370.09807366520084 M523.8862076279128,370.09807366520084 L530.0876951772399,376.50036120062975 M530.0876951772399,376.50036120062975 L534.1478394246956,383.45298955756766 M534.1478394246956,383.45298955756766 L535.9265870789503,390.7199799248443 M535.9265870789503,390.7199799248443 L535.3612187819001,398.054218220252 M535.3612187819001,398.054218220252 L532.4687511261383,405.20583206685376 M532.4687511261383,405.20583206685376 L527.3456720466809,411.9307091013796 M527.3456720466809,411.9307091013796 L520.1649264640364,417.99888677205166 M520.1649264640364,417.99888677205166 L511.17022464488406,423.2025130160369 M511.17022464488406,423.2025130160369 L500.6678671091787,427.3630863782945 M500.6678671091787,427.3630863782945 L489.0163073430235,430.3377151018766 M489.0163073430235,430.3377151018766 L476.61383843503427,432.02414011559773 M476.61383843503427,432.02414011559773 L463.88482345707195,432.3643525840396 M463.88482345707195,432.3643525840396 L451.26497148891775,431.3466486982444 M451.26497148891775,431.3466486982444 L439.18620602212934,429.00603696110704 M439.18620602212934,429.00603696110704 L428.0616441553568,425.42301163741325 M428.0616441553568,425.42301163741325 L418.2712997188052,420.72069079076124 M418.2712997188052,420.72069079076124 L418.1842575949922,339.7442489424558 M418.1842575949922,339.7442489424558 L410.04747611548424,334.0941506691663 M410.04747611548424,334.0941506691663 L403.8583744192271,327.68156130568826 M403.8583744192271,327.68156130568826 L399.82651929383866,320.72595347181084 M399.82651929383866,320.72595347181084 L398.0874161339184,313.46496678544656 M398.0874161339184,313.46496678544656 L398.69811387154743,306.1462189864509 M398.69811387154743,306.1462189864509 L401.6355796631024,299.01881618522845 M401.6355796631024,299.01881618522845 L406.79777234745495,292.3248928952929 M406.79777234745495,292.3248928952929 L414.0073889492163,286.2914453484418 M414.0073889492163,286.2914453484418 L423.01811341344063,281.12273008379526 M423.01811341344063,281.12273008379526 L433.5230995806105,276.99347212178617 M433.5230995806105,276.99347212178617 L445.1654270779263,274.04308397824315 M445.1654270779263,274.04308397824315 L457.5501433137652,272.37108697560063 M457.5501433137652,272.37108697560063 L470.25751066627765,272.0338452263299 M470.25751066627765,272.0338452263299 L482.85702988956484,273.04272263585796 M482.85702988956484,273.04272263585796 L494.9217902576833,275.36371937297525 M494.9217902576833,275.36371937297525 L506.04273612449464,278.91856855011383 M506.04273612449464,278.91856855011383 L515.8423414270355,283.58731160474093 M515.8423414270355,283.58731160474093 L523.9873093578115,289.21222710898496 M523.9873093578115,289.21222710898496 L530.1998646338047,295.6030347999844 M530.1998646338047,295.6030347999844 L534.2672729160927,302.54320377809876 M534.2672729160927,302.54320377809876 L536.0492271868925,309.7971795121456 M536.0492271868925,309.7971795121456 L535.4828912305678,317.1182911269718 M535.4828912305678,317.1182911269718 L532.5853066211178,324.2571132658966 M532.5853066211178,324.2571132658966 L527.4531283631545,330.9699691838783 M527.4531283631545,330.9699691838783 L520.2596058180297,337.02730570815584 M520.2596058180297,337.02730570815584 L511.24888142129134,342.2216399709191 M511.24888142129134,342.2216399709191 L500.72780129722986,346.3747869565176 M500.72780129722986,346.3747869565176 L489.0554593859784,349.3441078068802 M489.0554593859784,349.3441078068802 L476.63086188669615,351.02752421032346 M476.63086188669615,351.02752421032346 L463.87913262020584,351.3671297880727 M463.87913262020584,351.3671297880727 L451.23676217128394,350.3512413953839 M451.23676217128394,350.3512413953839 L439.13644860932936,348.0148057169018 M439.13644860932936,348.0148057169018 L427.99204922294376,344.438174796512 M427.99204922294376,344.438174796512 L418.1842575949922,339.7442489424558 M185.80056793157317,565.0457855212617 L185.67460725195122,544.7784824236202 M185.67460725195122,544.7784824236202 L193.75609020300698,550.4816278525841 M193.75609020300698,550.4816278525841 L199.8894403763765,556.961340874812 M199.8894403763765,556.961340874812 L203.86463046443285,563.9980645354292 M203.86463046443285,563.9980645354292 L205.54446608765022,571.3529702966055 M205.54446608765022,571.3529702966055 L204.86960960684027,578.7759378207517 M204.86960960684027,578.7759378207517 L201.86070359114524,586.0141210831008 M201.86070359114524,586.0141210831008 L196.6182786864835,592.8203987439218 M196.6182786864835,592.8203987439218 L189.3192953935642,598.9620496155198 M189.3192953935642,598.9620496155198 L180.21153326455317,604.2286837136228 M180.21153326455317,604.2286837136228 L169.60513150143635,608.4396504279681 M169.60513150143635,608.4396504279681 L157.862139234765,611.4503037764467 M157.862139234765,611.4503037764467 L145.38393968953605,613.1571712995343 M145.38393968953605,613.1571712995343 L132.59758956068293,613.5014889133204 M132.59758956068293,613.5014889133204 L119.94068425511011,612.471460808639 M119.94068425511011,612.471460808639 L107.84645338995773,610.1024998634535 M107.84645338995773,610.1024998634535 L96.72854163484374,606.4760831407963 M96.72854163484374,606.4760831407963 L86.96675847188192,601.7168060721245 M86.96675847188192,601.7168060721245 L78.89386986818573,595.9880681955802 M78.89386986818573,595.9880681955802 L72.78440234668665,589.4862190978193 M72.78440234668665,589.4862190978193 L68.84515757288943,582.4338053923826 M68.84515757288943,582.4338053923826 L67.2084753584968,575.0717746199028 M67.2084753584968,575.0717746199028 L67.9278651372208,567.6512093661084 M67.9278651372208,567.6512093661084 L70.97667016453084,560.4246312541559 M70.97667016453084,560.4246312541559 L76.24897098482984,553.6375942359384 M76.24897098482984,553.6375942359384 L83.56377229948765,547.5202210155668 M83.56377229948765,547.5202210155668 L92.67115820082392,542.2796226938113 M92.67115820082392,542.2796226938113 L103.26104027100348,538.0929336829637 M103.26104027100348,538.0929336829637 L114.97360046281625,535.1015210269204 M114.97360046281625,535.1015210269204 L127.4115654532867,533.4062587879404 M127.4115654532867,533.4062587879404 L140.15331271154776,533.0643433482741 M140.15331271154776,533.0643433482741 L152.76727044855818,534.0872464333675 M152.76727044855818,534.0872464333675 L164.82600950033023,536.4405172739898 M164.82600950033023,536.4405172739898 L175.9206785310262,540.0447979131019 M175.9206785310262,540.0447979131019 L185.67460725195122,544.7784824236202 M185.80056793157317,565.0457855212617 L176.05097830476745,560.3100230818295 M176.05097830476745,560.3100230818295 L164.96125314079052,556.7041596953458 M164.96125314079052,556.7041596953458 L152.90789540246402,554.3498551884132 M152.90789540246402,554.3498551884132 L140.299574769736,553.3265027289 M140.299574769736,553.3265027289 L127.56353035654729,553.6685683809588 M127.56353035654729,553.6685683809588 L115.13114179727432,555.3645753252879 M115.13114179727432,555.3645753252879 L103.42384350079283,558.357301792965 M103.42384350079283,558.357301792965 L92.83873100501523,562.5458289851844 M92.83873100501523,562.5458289851844 L83.735460680068,567.7887272429548 M83.735460680068,567.7887272429548 L76.42398083835548,573.9087838270615 M76.42398083835548,573.9087838270615 L71.15409356838757,580.698796238316 M71.15409356838757,580.698796238316 L68.1067106640844,587.9285404507297 M68.1067106640844,587.9285404507297 L67.38770131823401,595.3523546644791 M67.38770131823401,595.3523546644791 L69.02370734741066,602.7176066359734 M69.02370734741066,602.7176066359734 L72.96124036552311,609.7731040777902 M72.96124036552311,609.7731040777902 L79.0680172190468,616.2777944452208 M79.0680172190468,616.2777944452208 L87.1373267555557,622.0090343733566 M87.1373267555557,622.0090343733566 L96.8947639512545,626.7703890991643 M96.8947639512545,626.7703890991643 L108.00771115375852,630.3983883341004 M108.00771115375852,630.3983883341004 L120.09652900068141,632.7683827789501 M120.09652900068141,632.7683827789501 L132.7477587601789,633.7988601823727 M132.7477587601789,633.7988601823727 L145.5283660570865,633.4543923817092 M145.5283660570865,633.4543923817092 L158.00095303941316,631.7467802765365 M158.00095303941316,631.7467802765365 L169.7386560142574,628.7348133207744 M169.7386560142574,628.7348133207744 L180.34027324162483,624.5220086828841 M180.34027324162483,624.5220086828841 L189.44391928865076,619.2530749252376 M189.44391928865076,619.2530749252376 L196.73959512701444,613.1087409476827 M196.73959512701444,613.1087409476827 L201.97963313040304,606.2994880981038 M201.97963313040304,606.2994880981038 L204.98715270380998,599.0581388584992 M204.98715270380998,599.0581388584992 L205.66166864505814,591.631922399901 M205.66166864505814,591.631922399901 L203.98254792543446,584.273795364069 M203.98254792543446,584.273795364069 L200.00910190730733,577.2339878004948 M200.00910190730733,577.2339878004948 L193.8784639478542,570.7514332735678 M193.8784639478542,570.7514332735678 L185.80056793157317,565.0457855212617 M110.95919425683002,608.255472758896 L105.69000294912269,604.2914731698551 M105.69000294912269,604.2914731698551 L102.21560833722987,599.7011455316662 M102.21560833722987,599.7011455316662 L100.7369763260316,594.7518778818724 M100.7369763260316,594.7518778818724 L101.33886051996649,589.731535993138 M101.33886051996649,589.731535993138 L103.98490879230582,584.9318160058829 M103.98490879230582,584.9318160058829 L108.52026967341021,580.631205217068 M108.52026967341021,580.631205217068 L114.68073207876671,577.0789664665049 M114.68073207876671,577.0789664665049 L122.108320667479,574.4807456237188 M122.108320667479,574.4807456237188 L130.37197485736948,572.9868681485832 M130.37197485736948,572.9868681485832 L138.9925667913672,572.683701311496 M138.9925667913672,572.683701311496 L147.47037724709614,573.5887983691448 M147.47037724709614,573.5887983691448 L155.3140231720418,575.6497901398836 M155.3140231720418,575.6497901398836 L162.06848008665528,578.747512826957 M162.06848008665528,578.747512826957 L167.34153913126346,582.7026776912368 M167.34153913126346,582.7026776912368 L170.82639591044705,587.286194521554 M170.82639591044705,587.286194521554 L172.31968764166697,592.2322355847147 M172.31968764166697,592.2322355847147 L171.7333025046357,597.2536742497937 M171.7333025046357,597.2536742497937 L169.1000418916217,602.058563129686 M169.1000418916217,602.058563129686 L164.57182780385295,606.3672308084938 M164.57182780385295,606.3672308084938 L158.41123407032148,609.928568678299 M158.41123407032148,609.928568678299 L150.97626611292293,612.5348464197956 M150.97626611292293,612.5348464197956 L142.69967504602778,614.0338927969111 M142.69967504602778,614.0338927969111 L134.06355238126332,614.338156439873 M134.06355238126332,614.338156439873 L125.57117534055561,613.4298327305493 M125.57117534055561,613.4298327305493 L117.71726386045754,611.3620301843636 M117.71726386045754,611.3620301843636 L110.95919425683002,608.255472758896 M110.95919425683002,608.255472758896 L110.79941647371032,587.9692509234379 M110.79941647371032,587.9692509234379 L117.56049695758952,591.0744510034968 M117.56049695758952,591.0744510034968 L125.41791889314788,593.1413502759297 M125.41791889314788,593.1413502759297 L133.9141011394151,594.0492772570603 M133.9141011394151,594.0492772570603 L142.55410153051167,593.7451465036145 M142.55410153051167,593.7451465036145 L150.83441626920862,592.2467548995847 M150.83441626920862,592.2467548995847 L158.27273645041018,589.6416157715729 M158.27273645041018,589.6416157715729 L164.43611555830893,586.0818341855127 M164.43611555830893,586.0818341855127 L168.96638629831654,581.775050032819 M168.96638629831654,581.775050032819 L171.60085585221734,576.9722624582171 M171.60085585221734,576.9722624582171 L172.18753294807652,571.9530207670556 M172.18753294807652,571.9530207670556 L170.69360039268952,567.0091446547708 M170.69360039268952,567.0091446547708 L167.2072084068957,562.4276349482647 M167.2072084068957,562.4276349482647 L161.9318097712952,558.4742027131645 M161.9318097712952,558.4742027131645 L155.17434515964135,555.3778374652998 M155.17434515964135,555.3778374652998 L147.3271979429286,553.317749040627 M147.3271979429286,553.317749040627 L138.84559532641464,552.4130487454308 M138.84559532641464,552.4130487454308 L130.22113960366835,552.7160826813565 M130.22113960366835,552.7160826813565 L121.95377337934582,554.2093053285249 M121.95377337934582,554.2093053285249 L114.52283923802901,556.8063874722837 M114.52283923802901,556.8063874722837 L108.35959163503674,560.3570698424965 M108.35959163503674,560.3570698424965 L103.82216774347836,564.65579701966 M103.82216774347836,564.65579701966 L101.17489909369363,569.4534156467498 M101.17489909369363,569.4534156467498 L100.57270904597783,574.4715605499229 M100.57270904597783,574.4715605499229 L102.05196871123695,579.418663283095 M102.05196871123695,579.418663283095 L105.52788910145637,584.0069838697799 M105.52788910145637,584.0069838697799 L110.79941647371032,587.9692509234379" stroke="black"  stroke-width="4"  fill="red"/></svg>