<svg version="1.1" xmlns="http://www.w3.org/2000/svg" viewBox="-44.000001000000005 -8.930670456110125 88.000002 18.891386576290582" fill="none" stroke="black" stroke-width="0.6%" vector-effect="non-scaling-stroke">
    <path d="M -31.1271 4.44844 L -31.1271 -3.02329 L -25.47345 -2.53224 L -5.66326 -4.24895 L -11.31691 -4.73999 L -31.1271 -3.02329" />
    <path d="M -25.47345 4.93948 L -25.47345 -2.53224" />
    <path d="M -31.1271 4.44844 L -25.47345 4.93948 L -5.66326 3.22277 L -5.66326 -4.24895" />
    <path d="M -5.65045 -1.45664 A 43 3.73051 360 0 1 5.65045 -1.45664" />
    <path d="M 31.1271 -0.33223 A 43 3.73051 360 0 1 43 2.24152 A 43 3.73051 360 0 1 -43 2.24152 A 43 3.73051 360 0 1 -31.1271 -0.33223" />
    <path d="M 25.43823 4.94198 L 31.09829 4.45149 L 31.09829 -3.02023 L 11.3105 -4.73888 L 5.65045 -4.2484 L 25.43823 -2.52974 L 31.09829 -3.02023" />
    <path d="M 5.65045 3.22333 L 25.43823 4.94198 L 25.43823 -2.52974" />
    <path d="M 3.53353 2.54842 A 5 0.43378 360 0 1 -5 2.24152 A 5 0.43378 360 0 1 5 2.24152 A 5 0.43378 360 0 1 3.53353 2.54842 Z" />
    <path d="M -5.66326 1.26082 L -5.65045 1.25971 L -5.65045 -6.21202 L -25.43823 -7.93067 L -31.09829 -7.44018 L -11.3105 -5.72153 L -5.65045 -6.21202" />
    <path d="M 31.09829 0.03709 L 31.1271 0.0346 L 31.1271 -7.43713 L 25.47345 -7.92817 L 5.66326 -6.21146 L 11.31691 -5.72042 L 31.1271 -7.43713" />
    <path d="M -43 5.23021 A 43 3.73051 180 1 0 43 5.23021" />
    <path d="M 5.65045 3.22333 L 5.65045 -4.2484" />
    <path d="M -31.09829 -3.02578 L -31.09829 -7.44018" />
    <path d="M -11.3105 -4.73944 L -11.3105 -5.72153" />
    <path d="M 5.66326 -4.2495 L 5.66326 -6.21146" />
    <path d="M 11.31691 -4.73833 L 11.31691 -5.72042" />
    <path d="M -43 2.24152 L -43 5.23021" />
    <path d="M 43 2.24152 L 43 5.23021" />
</svg>