<svg version="1.1" xmlns="http://www.w3.org/2000/svg" viewBox="-42.100001 -7.41975722466522 84.200002 14.83951444933044" fill="none" stroke="black" stroke-width="0.6%" vector-effect="non-scaling-stroke">
    <path d="M -41.1 3.74203 A 41.1 2.67772 180 0 0 41.1 3.74203" />
    <path d="M -29.06209 -5.63547 A 41.1 2.67772 360 0 1 41.1 -3.74203 A 41.1 2.67772 360 0 1 -41.1 -3.74203 A 41.1 2.67772 360 0 1 -29.06209 -5.63547 Z" />
    <path d="M -24.60331 -5.71353 A 39 2.54091 360 0 1 24.60331 -5.71353 L 5.918 -4.49615" />
    <path d="M 30.26016 -5.34497 A 39 2.54091 360 0 1 39 -3.74203 A 39 2.54091 360 0 1 30.26016 -2.13909 L 11.57485 -3.35647" />
    <path d="M 30.26016 -5.34497 L 30.26016 -2.13909" />
    <path d="M 24.60331 -1.77054 A 39 2.54091 360 0 1 -24.60331 -1.77054 L -5.918 -2.98791 L -5.918 -1.23055" />
    <path d="M -30.26016 -5.34497 L -30.26016 -2.13909 A 39 2.54091 360 0 1 -39 -3.74203 A 39 2.54091 360 0 1 -30.26016 -5.34497 L -11.57485 -4.1276" />
    <path d="M -11.57485 -3.35647 L -30.26016 -2.13909" />
    <path d="M -5.918 -4.49615 L -24.60331 -5.71353" />
    <path d="M -5.918 -4.49615 A 13 0.84697 360 0 1 5.918 -4.49615" />
    <path d="M 11.57485 -4.1276 L 30.26016 -5.34497" />
    <path d="M 11.57485 -4.1276 A 13 0.84697 360 0 1 13 -3.74203 L 13 -3.26362" />
    <path d="M 13 -3.74203 A 13 0.84697 360 0 1 11.57485 -3.35647" />
    <path d="M 5.918 -2.98791 L 24.60331 -1.77054" />
    <path d="M 5.918 -2.98791 A 13 0.84697 360 0 1 -5.918 -2.98791" />
    <path d="M -11.57485 -3.35647 A 13 0.84697 360 0 1 -13 -3.74203 L -13 -3.26362" />
    <path d="M -13 -3.74203 A 13 0.84697 360 0 1 -11.57485 -4.1276" />
    <path d="M 22.45064 -5.04348 A 1.75 0.11401 360 0 1 19.4632 -5.1241 A 1.75 0.11401 360 0 1 22.9632 -5.1241 A 1.75 0.11401 360 0 1 22.45064 -5.04348 Z" />
    <path d="M 22.45064 -2.27934 A 1.75 0.11401 360 0 1 19.4632 -2.35996 A 1.75 0.11401 360 0 1 22.9632 -2.35996 A 1.75 0.11401 360 0 1 22.45064 -2.27934 Z" />
    <path d="M -19.97577 -2.27934 A 1.75 0.11401 360 0 1 -22.9632 -2.35996 A 1.75 0.11401 360 0 1 -19.4632 -2.35996 A 1.75 0.11401 360 0 1 -19.97577 -2.27934 Z" />
    <path d="M -19.97577 -5.04348 A 1.75 0.11401 360 0 1 -22.9632 -5.1241 A 1.75 0.11401 360 0 1 -19.4632 -5.1241 A 1.75 0.11401 360 0 1 -19.97577 -5.04348 Z" />
    <path d="M -7.88424 -4.2557 A 11.15 0.72644 360 0 1 11.15 -3.74203 A 11.15 0.72644 360 0 1 -11.15 -3.74203 A 11.15 0.72644 360 0 1 -7.88424 -4.2557 Z" />
    <path d="M 5.918 -2.98791 L 5.918 -1.23055" />
    <path d="M -41.1 -3.74203 L -41.1 3.74203" />
    <path d="M 41.1 -3.74203 L 41.1 3.74203" />
</svg>