<svg viewBox="0 0 800 800" xmlns="http://www.w3.org/2000/svg"><path d="M638.49647302979,295.35837742497847 L638.5333994793773,286.3699789155655 M638.5333994793773,286.3699789155655 L660.245665513108,300.01374710668614 M660.245665513108,300.01374710668614 L679.6319112134051,314.7892915196116 M679.6319112134051,314.7892915196116 L696.5150034466335,330.5660510301266 M696.5150034466335,330.5660510301266 L710.7394266189219,347.2041550857098 M710.7394266189219,347.2041550857098 L722.1727774946739,364.55563322806233 M722.1727774946739,364.55563322806233 L730.7071181882575,382.46558279624026 M730.7071181882575,382.46558279624026 L736.2601472595788,400.77354639145784 M736.2601472595788,400.77354639145784 L738.7760145523155,419.31486212929906 M738.7760145523155,419.31486212929906 L738.2261183136077,437.9221639893782 M738.2261183136077,437.9221639893782 L734.6095653329726,456.4268325148993 M734.6095653329726,456.4268325148993 L727.9533063559363,474.66050698626725 M727.9533063559363,474.66050698626725 L718.3122456270826,492.45669024615466 M718.3122456270826,492.45669024615466 L705.7688018173292,509.65227306587116 M705.7688018173292,509.65227306587116 L690.4324441966817,526.0890863902571 M690.4324441966817,526.0890863902571 L672.4387712818916,541.6154029166382 M672.4387712818916,541.6154029166382 L651.9485008295933,556.0874626848416 M651.9485008295933,556.0874626848416 L629.1459927358292,569.3708371182739 M629.1459927358292,569.3708371182739 L604.2376968833528,581.3417927807443 M604.2376968833528,581.3417927807443 L577.4502717322343,591.8885471163775 M577.4502717322343,591.8885471163775 L549.0284529376436,600.91236345424 M549.0284529376436,600.91236345424 L519.2328509834713,608.3286250190894 M519.2328509834713,608.3286250190894 L488.33739135186437,614.0676526958108 M488.33739135186437,614.0676526958108 L456.6267166629631,618.0754768989646 M456.6267166629631,618.0754768989646 L424.3934207087975,620.3143401378424 M424.3934207087975,620.3143401378424 L391.9352547639692,620.7631735655854 M391.9352547639692,620.7631735655854 L359.55212255360703,619.4177341583469 M359.55212255360703,619.4177341583469 L327.54317443465425,616.2906993550359 M327.54317443465425,616.2906993550359 L296.20395759462195,611.4115385982886 M296.20395759462195,611.4115385982886 L265.8234406684145,604.8261502811025 M265.8234406684145,604.8261502811025 L236.68127537909206,596.596446375386 M236.68127537909206,596.596446375386 L209.0450000084303,586.7996859216564 M209.0450000084303,586.7996859216564 L183.16761497465066,575.5276578957822 M183.16761497465066,575.5276578957822 L159.28510357557835,562.885740086577 M159.28510357557835,562.885740086577 L137.61423907645803,548.9918610843079 M137.61423907645803,548.9918610843079 L118.35068161749246,533.9752474838004 M118.35068161749246,533.9752474838004 L101.66712900788241,517.9751729761887 M101.66712900788241,517.9751729761887 L87.71188403471865,501.1395789849873 M87.71188403471865,501.1395789849873 L76.60762146069948,483.62357291235327 M76.60762146069948,483.62357291235327 L68.45038489608532,465.5880034547708 M68.45038489608532,465.5880034547708 L63.30884676584492,447.1978676757656 M63.30884676584492,447.1978676757656 L61.22398544768464,428.6207970209155 M61.22398544768464,428.6207970209155 L62.208826436316826,410.0254495473898 M62.208826436316826,410.0254495473898 L66.2485441710358,391.5800127785114 M66.2485441710358,391.5800127785114 L73.30089402765554,373.4507068758841 M73.30089402765554,373.4507068758841 L83.29665693425198,355.8002573078782 M83.29665693425198,355.8002573078782 L96.14059464356416,338.78650669538644 M96.14059464356416,338.78650669538644 L111.71237734428684,322.5610528598363 M111.71237734428684,322.5610528598363 L129.86789677073102,307.2679843743725 M129.86789677073102,307.2679843743725 L150.44058543307588,293.0426316723383 M150.44058543307588,293.0426316723383 L173.24310342847528,280.0105068732396 M173.24310342847528,280.0105068732396 L198.06899945562546,268.28626256385724 M198.06899945562546,268.28626256385724 L224.69459242740064,257.9727645053089 M224.69459242740064,257.9727645053089 L252.88099436849433,249.16031802516054 M252.88099436849433,249.16031802516054 L282.37610336538904,241.92590017014047 M282.37610336538904,241.92590017014047 L312.91685434223433,236.3326168796002 M312.91685434223433,236.3326168796002 L344.2314251831672,232.42916994846416 M344.2314251831672,232.42916994846416 L376.0415387813853,230.24954339743874 M376.0415387813853,230.24954339743874 L408.0647402626921,229.81266548008784 M408.0647402626921,229.81266548008784 L440.0168474973868,231.12234671357942 M440.0168474973868,231.12234671357942 L471.61428910883245,234.1672021956093 M471.61428910883245,234.1672021956093 L502.5763919182497,238.92073343275976 M502.5763919182497,238.92073343275976 L532.6278177244219,245.34158257348864 M532.6278177244219,245.34158257348864 L561.5008094834245,253.373785264127 M561.5008094834245,253.373785264127 L588.9375567174927,262.9472214985967 M588.9375567174927,262.9472214985967 L614.6922701695114,273.9781742484526 M614.6922701695114,273.9781742484526 L638.5333994793773,286.3699789155655 M638.49647302979,295.35837742497847 L614.659049620612,282.9646225222282 M614.659049620612,282.9646225222282 L588.9083335570299,271.93193231924704 M588.9083335570299,271.93193231924704 L561.4758395276874,262.35698713975745 M561.4758395276874,262.35698713975745 L532.6073191113085,254.32351766943555 M532.6073191113085,254.32351766943555 L502.56054342488346,247.9016553806149 M502.56054342488346,247.9016553806149 L471.60322876524253,243.14737379633576 M471.60322876524253,243.14737379633576 L440.0106715357527,240.1020375547166 M440.0106715357527,240.1020375547166 L408.06350237935254,238.79214950181301 M408.06350237935254,238.79214950181301 L376.04524973803143,239.22909641115825 M376.04524973803143,239.22909641115825 L344.24005272235496,241.40906713929712 M344.24005272235496,241.40906713929712 L312.93032342470394,245.31313032219373 M312.93032342470394,245.31313032219373 L282.3942967475977,250.90729635954958 M282.3942967475977,250.90729635954958 L252.90375349605955,258.14285547040924 M252.90375349605955,258.14285547040924 L224.72171865196236,266.9566913855007 M224.72171865196236,266.9566913855007 L198.1002555652645,277.27181448472874 M198.1002555652645,277.27181448472874 L173.27821550445566,288.9979047284128 M173.27821550445566,288.9979047284128 L150.47924499991367,302.03207964678523 M150.47924499991367,302.03207964678523 L129.90976325150996,316.25966809230033 M129.90976325150996,316.25966809230033 L111.75708080718067,331.5551377017038 M111.75708080718067,331.5551377017038 L96.18773881331049,347.7831363016323 M96.18773881331049,347.7831363016323 L83.34582248020547,364.79955227120433 M83.34582248020547,364.79955227120433 L73.35164207891467,382.4527636497494 M73.35164207891467,382.4527636497494 L66.30042006423503,400.58490280154217 M66.30042006423503,400.58490280154217 L62.26136364200562,419.03321859558105 M62.26136364200562,419.03321859558105 L61.27670968411309,437.63146478776156 M61.27670968411309,437.63146478776156 L63.361280224214966,456.2114275976225 M63.361280224214966,456.2114275976225 L68.50205057695405,474.60442277194693 M68.50205057695405,474.60442277194693 L76.65804757038313,492.6427929611487 M76.65804757038313,492.6427929611487 L87.76060838434643,510.1615157330551 M87.76060838434643,510.1615157330551 L101.71370340205715,526.9997177820046 M101.71370340205715,526.9997177820046 L118.39467616331189,543.0022680882249 M118.39467616331189,543.0022680882249 L137.6552463658805,558.0212028044464 M137.6552463658805,558.0212028044464 L159.32274269858024,571.9172272208361 M159.32274269858024,571.9172272208361 L183.20153532411965,584.5610953189066 M183.20153532411965,584.5610953189066 L209.07488480329528,595.8348608485747 M209.07488480329528,595.8348608485747 L236.70684488865774,605.6331302937043 M236.70684488865774,605.6331302937043 L265.8444550838444,613.8641010196745 M265.8444550838444,613.8641010196745 L296.2202194945163,620.4505025184311 M296.2202194945163,620.4505025184311 L327.5545308457507,625.3304136476731 M327.5545308457507,625.3304136476731 L359.55846654176725,628.4579292270744 M359.55846654176725,628.4579292270744 L391.936526559229,629.8035754608823 M391.936526559229,629.8035754608823 L424.38960832359953,629.3546730387534 M424.38960832359953,629.3546730387534 L456.6178560210341,627.1154656108902 M456.6178560210341,627.1154656108902 L488.3235659185515,623.1070251349656 M488.3235659185515,623.1070251349656 L519.2141908832712,617.3671146818953 M519.2141908832712,617.3671146818953 L549.0051335950843,609.9497118240374 M549.0051335950843,609.9497118240374 L577.4225120449712,600.9245060075808 M577.4225120449712,600.9245060075808 L604.2057569598235,590.3761265825394 M604.2057569598235,590.3761265825394 L629.1101712104507,578.4033249335911 M629.1101712104507,578.4033249335911 L651.909131819518,565.1179003270764 M651.909131819518,565.1179003270764 L672.3962210048219,550.6436047618954 M672.3962210048219,550.6436047618954 L690.3871072976033,535.1148870603945 M690.3871072976033,535.1148870603945 L705.7210974642244,518.6755289247475 M705.7210974642244,518.6755289247475 L718.2626133953595,501.47728070723315 M718.2626133953595,501.47728070723315 L727.9022019820259,483.67833560391585 M727.9022019820259,483.67833560391585 L734.5574563571552,465.4418278596869 M734.5574563571552,465.4418278596869 L738.1734796885382,446.93428029550546 M738.1734796885382,446.93428029550546 L738.7233242247128,428.3240797140425 M738.7233242247128,428.3240797140425 L736.2078818128182,409.7798718293486 M736.2078818128182,409.7798718293486 L730.6557485502931,391.469048857509 M730.6557485502931,391.469048857509 L722.1227647607554,373.5562985861545 M722.1227647607554,373.5562985861545 L710.6912180390943,356.2021037815251 M710.6912180390943,356.2021037815251 L696.4690285766758,339.56139171221656 M696.4690285766758,339.56139171221656 L679.5885782795233,323.7821564523672 M679.5885782795233,323.7821564523672 L660.2053580121562,309.0042909763171 M660.2053580121562,309.0042909763171 L638.49647302979,295.35837742497847 M628.0438685255483,292.42220833571383 L649.4095137629645,305.8940684582569 M649.4095137629645,305.8940684582569 L668.4031655451477,320.51211172814504 M668.4031655451477,320.51211172814504 L684.8402352559165,336.1388166747008 M684.8402352559165,336.1388166747008 L698.5597528595242,352.62666974935416 M698.5597528595242,352.62666974935416 L709.4259223933727,369.81954109522883 M709.4259223933727,369.81954109522883 L717.3295606184138,387.5540329418378 M717.3295606184138,387.5540329418378 L722.1894144474759,405.66100083358583 M722.1894144474759,405.66100083358583 L723.9530499622849,423.96708115413304 M723.9530499622849,423.96708115413304 L722.5976389909417,442.2963598016813 M722.5976389909417,442.2963598016813 L718.1303229511823,460.47203131607944 M718.1303229511823,460.47203131607944 L710.5884513021942,478.31809210391384 M710.5884513021942,478.31809210391384 L700.0393753006556,495.6611106934321 M700.0393753006556,495.6611106934321 L686.5800926864924,512.3319197490466 M686.5800926864924,512.3319197490466 L670.336398815054,528.167359233227 M670.336398815054,528.167359233227 L651.4618311569027,543.0118941991268 M651.4618311569027,543.0118941991268 L630.1364015865706,556.7192996785041 M630.1364015865706,556.7192996785041 L606.5648572030968,569.1541568509209 M606.5648572030968,569.1541568509209 L580.9747229318193,580.1932773485852 M580.9747229318193,580.1932773485852 L553.614113521008,589.7270305224669 M553.614113521008,589.7270305224669 L524.7493476647471,597.6605731359426 M524.7493476647471,597.6605731359426 L494.6621526758256,603.9148259108442 M494.6621526758256,603.9148259108442 L463.64689898016155,608.4273363635798 M463.64689898016155,608.4273363635798 L432.0075294254693,611.153022677156 M432.0075294254693,611.153022677156 L400.05449147835577,612.0646201841556 M400.05449147835577,612.0646201841556 L368.10145353124227,611.153022677156 M368.10145353124227,611.153022677156 L336.46208397655,608.4273363635798 M336.46208397655,608.4273363635798 L305.44683028088593,603.9148259108442 M305.44683028088593,603.9148259108442 L275.35963529196425,597.6605731359426 M275.35963529196425,597.6605731359426 L246.49486943570363,589.7270305224669 M246.49486943570363,589.7270305224669 L219.13426002489211,580.1932773485852 M219.13426002489211,580.1932773485852 L193.5441257536147,569.1541568509209 M193.5441257536147,569.1541568509209 L169.97258137013998,556.7192996785035 M169.97258137013998,556.7192996785035 L148.64715179980885,543.0118941991268 M148.64715179980885,543.0118941991268 L129.77258414165738,528.167359233227 M129.77258414165738,528.167359233227 L113.52889027021888,512.3319197490465 M113.52889027021888,512.3319197490465 L100.06960765605595,495.66111069343197 M100.06960765605595,495.66111069343197 L89.52053165451719,478.31809210391384 M89.52053165451719,478.31809210391384 L81.97866000552926,460.4720313160794 M81.97866000552926,460.4720313160794 L77.51134396576987,442.2963598016812 M77.51134396576987,442.2963598016812 L76.15593299442662,423.967081154133 M76.15593299442662,423.967081154133 L77.91956850923572,405.66100083358583 M77.91956850923572,405.66100083358583 L82.77942233829754,387.5540329418377 M82.77942233829754,387.5540329418377 L90.68306056333859,369.8195410952288 M90.68306056333859,369.8195410952288 L101.54923009718738,352.6266697493541 M101.54923009718738,352.6266697493541 L115.26874770079507,336.1388166747007 M115.26874770079507,336.1388166747007 L131.70581741156388,320.512111728145 M131.70581741156388,320.512111728145 L150.6994691937471,305.8940684582569 M150.6994691937471,305.8940684582569 L172.06511443116352,292.42220833571355 M172.06511443116352,292.42220833571355 L195.59645985844426,280.222898582769 M195.59645985844426,280.222898582769 L221.06752417250348,269.41027539542165 M221.06752417250348,269.41027539542165 L248.23476720993608,260.08526461216644 M248.23476720993608,260.08526461216644 L276.8393014007532,252.33468761104731 M276.8393014007532,252.33468761104731 L306.609399533368,246.23059193909498 M306.609399533368,246.23059193909498 L337.2628771870196,241.82965858738845 M337.2628771870196,241.82965858738845 L368.5096947855968,239.17268135842207 M368.5096947855968,239.17268135842207 L400.0544914783557,238.28428399159174 M400.0544914783557,238.28428399159174 L431.5992881711146,239.17268135842207 M431.5992881711146,239.17268135842207 L462.84610576969186,241.82965858738845 M462.84610576969186,241.82965858738845 L493.4995834233435,246.23059193909498 M493.4995834233435,246.23059193909498 L523.2696815559584,252.3346876110474 M523.2696815559584,252.3346876110474 L551.8742157467755,260.08526461216644 M551.8742157467755,260.08526461216644 L579.0414587842081,269.41027539542165 M579.0414587842081,269.41027539542165 L604.5125230982671,280.222898582769 M604.5125230982671,280.222898582769 L628.0438685255483,292.42220833571383 M178.196089094276,311.3341373133704 L159.10432567234096,323.97677514098336 M159.10432567234096,323.97677514098336 L142.15953605959965,337.61005913538247 M142.15953605959965,337.61005913538247 L127.51593705458595,352.1137135426378 M127.51593705458595,352.1137135426378 L115.30791329087685,367.3594628480231 M115.30791329087685,367.3594628480231 L105.64855302484341,383.2119936003099 M105.64855302484341,383.2119936003099 L98.62866090997954,399.5301712455445 M98.62866090997954,399.5301712455445 L94.31576804578748,416.16822297417445 M94.31576804578748,416.16822297417445 L92.7533134348248,432.97702382975683 M92.7533134348248,432.97702382975683 L93.960159079312,449.80537523566807 M93.960159079312,449.80537523566807 L97.93023308006684,466.501375454525 M97.93023308006684,466.501375454525 L104.63242627422954,482.9138154670302 M104.63242627422954,482.9138154670302 L114.01063427870446,498.8935323361048 M114.01063427870446,498.8935323361048 L125.98416473822249,514.2948172646609 M125.98416473822249,514.2948172646609 L140.44836439050346,528.9767626235227 M140.44836439050346,528.9767626235227 L157.27530071718667,542.8046808512985 M157.27530071718667,542.8046808512985 L176.314997025469,555.651295529638 M322.1623209809896,471.4930817355267 L176.314997025469,555.651295529638 M322.3691263098305,394.5632268568894 L312.87282563586666,402.0593727833843 M312.87282563586666,402.0593727833843 L305.52571565879686,410.32362222585226 M305.52571565879686,410.32362222585226 L300.510889623456,419.15272266805033 M300.510889623456,419.15272266805033 L297.9543103780846,428.3291474330974 M297.9543103780846,428.3291474330974 L297.9215007503922,437.6263938094098 M297.9215007503922,437.6263938094098 L300.41568624061495,446.8145465367106 M300.41568624061495,446.8145465367106 L305.3774779625002,455.665949939696 M305.3774779625002,455.665949939696 L312.6861268987431,463.96088474203873 M312.6861268987431,463.96088474203873 L322.1623209809896,471.4930817355267 M178.196089094276,311.3341373133704 L322.3691263098305,394.5632268568894 M610.7697804410993,304.9580530693401 L588.7153993916979,294.05510288985795 M588.7153993916979,294.05510288985795 L564.9851923195399,284.405523041067 M564.9851923195399,284.405523041067 L539.7914571971673,276.0936719044839 M539.7914571971673,276.0936719044839 L513.3587733127288,269.1921193340967 M513.3587733127288,269.1921193340967 L485.92225068389166,263.76097796398295 M485.92225068389166,263.76097796398295 L457.725396455503,259.8475154685797 M457.725396455503,259.8475154685797 L429.01809897020416,257.48576529530476 M429.01809897020416,257.48576529530476 L400.0544914783557,256.6962303293561 M400.0544914783557,256.6962303293561 L371.0908839865073,257.48576529530476 M371.0908839865073,257.48576529530476 L342.38358650120847,259.8475154685797 M342.38358650120847,259.8475154685797 L314.1867322728198,263.76097796398295 M314.1867322728198,263.76097796398295 L286.7502096439828,269.1921193340967 M286.7502096439828,269.1921193340967 L260.3175257595441,276.0936719044838 M260.3175257595441,276.0936719044838 L235.12379063717165,284.40552304106694 M235.12379063717165,284.40552304106694 L211.3935835650136,294.05510288985795 M211.3935835650136,294.05510288985795 L189.33920251561216,304.9580530693401 M333.5124240567256,388.15026032261227 L189.33920251561216,304.9580530693401 M466.59655889998595,388.15026032261227 L453.58740333592806,382.6931581080411 M453.58740333592806,382.6931581080411 L439.2611915728891,378.4790922836687 M439.2611915728891,378.4790922836687 L423.9708101521618,375.6111497365176 M423.9708101521618,375.6111497365176 L408.09245657554044,374.15944036709055 M408.09245657554044,374.15944036709055 L392.0165263811711,374.15944036709055 M392.0165263811711,374.15944036709055 L376.1381728045497,375.6111497365176 M376.1381728045497,375.6111497365176 L360.84779138382237,378.4790922836687 M360.84779138382237,378.4790922836687 L346.5215796207835,382.6931581080411 M346.5215796207835,382.6931581080411 L333.5124240567256,388.15026032261227 M610.7697804410993,304.9580530693401 L466.59655889998595,388.15026032261227 M623.7939859312426,555.6512955296381 L642.8336822395249,542.8046808512986 M642.8336822395249,542.8046808512986 L659.6606185662081,528.9767626235227 M659.6606185662081,528.9767626235227 L674.124818218489,514.2948172646609 M674.124818218489,514.2948172646609 L686.0983486780071,498.8935323361048 M686.0983486780071,498.8935323361048 L695.4765566824819,482.9138154670302 M695.4765566824819,482.9138154670302 L702.1787498766448,466.501375454525 M702.1787498766448,466.501375454525 L706.1488238773995,449.80537523566807 M706.1488238773995,449.80537523566807 L707.3556695218867,432.97702382975683 M707.3556695218867,432.97702382975683 L705.793214910924,416.16822297417445 M705.793214910924,416.16822297417445 L701.480322046732,399.53017124554464 M701.480322046732,399.53017124554464 L694.460429931868,383.21199360030994 M694.460429931868,383.21199360030994 L684.8010696658348,367.3594628480232 M684.8010696658348,367.3594628480232 L672.5930459021256,352.1137135426378 M672.5930459021256,352.1137135426378 L657.9494468971118,337.6100591353826 M657.9494468971118,337.6100591353826 L641.0046572843705,323.9767751409835 M641.0046572843705,323.9767751409835 L621.9128938624356,311.3341373133704 M477.73985664688104,394.5632268568894 L621.9128938624356,311.3341373133704 M477.9466619757219,471.4930817355268 L487.42285605796843,463.96088474203873 M487.42285605796843,463.96088474203873 L494.7315049942113,455.6659499396961 M494.7315049942113,455.6659499396961 L499.69329671609654,446.8145465367106 M499.69329671609654,446.8145465367106 L502.1874822063193,437.62639380940993 M502.1874822063193,437.62639380940993 L502.1546725786269,428.3291474330974 M502.1546725786269,428.3291474330974 L499.59809333325546,419.15272266805044 M499.59809333325546,419.15272266805044 L494.58326729791463,410.32362222585226 M494.58326729791463,410.32362222585226 L487.2361573208448,402.0593727833843 M487.2361573208448,402.0593727833843 L477.73985664688104,394.5632268568894 M623.7939859312426,555.6512955296381 L477.9466619757219,471.4930817355268 M187.45810682387315,562.1388444305611 L209.56454219439553,573.2457735509606 M209.56454219439553,573.2457735509606 L233.4125921005942,583.0899922374531 M233.4125921005942,583.0899922374531 L258.78571995442684,591.5801413730194 M258.78571995442684,591.5801413730194 L285.45289529660903,598.6372370343682 M285.45289529660903,598.6372370343682 L313.17057337863054,604.1955720507449 M313.17057337863054,604.1955720507449 L341.6851343023648,608.2033032724268 M341.6851343023648,608.2033032724268 L370.73526190025893,610.6230059253518 M370.73526190025893,610.6230059253518 L400.05449147835577,611.4320928090813 M400.05449147835577,611.4320928090813 L429.3737210564526,610.6230059253518 M429.3737210564526,610.6230059253518 L458.4238486543468,608.2033032724268 M458.4238486543468,608.2033032724268 L486.9384095780809,604.1955720507449 M486.9384095780809,604.1955720507449 L514.6560876601025,598.6372370343682 M514.6560876601025,598.6372370343682 L541.3232630022846,591.5801413730194 M541.3232630022846,591.5801413730194 L566.6963908561172,583.0899922374531 M566.6963908561172,583.0899922374531 L590.5444407623161,573.2457735509606 M590.5444407623161,573.2457735509606 L612.6508761328384,562.1388444305611 M466.8033643612418,477.9431040107427 L612.6508761328384,562.1388444305611 M333.3056185954697,477.9431040107427 L346.33488053151854,483.43625740667056 M346.33488053151854,483.43625740667056 L360.6995532507315,487.6810087190293 M360.6995532507315,487.6810087190293 L376.0429690678059,490.57125437073114 M376.0429690678059,490.57125437073114 L391.9837166182167,492.03469180978897 M391.9837166182167,492.03469180978897 L408.1252663384949,492.03469180978897 M408.1252663384949,492.03469180978897 L424.06601388890556,490.57125437073114 M424.06601388890556,490.57125437073114 L439.40942970597996,487.6810087190293 M439.40942970597996,487.6810087190293 L453.77410242519295,483.43625740667056 M453.77410242519295,483.43625740667056 L466.8033643612418,477.9431040107427 M187.45810682387315,562.1388444305611 L333.3056185954697,477.9431040107427 M427.8973223180071,416.90731719798436 L420.4226570831245,413.53081176003457 M420.4226570831245,413.53081176003457 L411.76660691146765,411.2842595815028 M411.76660691146765,411.2842595815028 L402.4313942233383,410.2976736980494 M402.4313942233383,410.2976736980494 L392.9583631335866,410.6281347188679 M392.9583631335866,410.6281347188679 L383.8967948637074,412.2565231124044 M383.8967948637074,412.2565231124044 L375.77227586597394,415.08861928885176 M375.77227586597394,415.08861928885176 L369.0563832145175,418.9604776196112 M369.0563832145175,418.9604776196112 L364.139419548734,423.64780966705007 M364.139419548734,423.64780966705007 L361.3077289691404,428.87885296888 M361.3077289691404,428.87885296888 L360.7269165730038,434.3500129389113 M360.7269165730038,434.3500129389113 L362.43199812464854,439.74341561959596 M362.43199812464854,439.74341561959596 L366.3250615316018,444.74535876393617 M366.3250615316018,444.74535876393617 L372.18070180083305,449.06459859588387 M372.18070180083305,449.06459859588387 L379.65891317920705,452.4494077736998 M379.65891317920705,452.4494077736998 L388.32478941793687,454.70236140451806 M388.32478941793687,454.70236140451806 L397.67385705678953,455.6919799617516 M397.67385705678953,455.6919799617516 L407.16159798036574,455.3604880789317 M407.16159798036574,455.3604880789317 L416.2353611210847,453.7272414527065 M416.2353611210847,453.7272414527065 L424.3667663232101,450.8875726312698 M424.3667663232101,450.8875726312698 L431.0826589702245,447.00716204865165 M431.0826589702245,447.00716204865165 L435.9927364265695,442.3122573609801 M435.9927364265695,442.3122573609801 L438.81223213847346,437.07635582862866 M438.81223213847346,437.07635582862866 L439.3783347094115,431.60416499937446 M439.3783347094115,431.60416499937446 L437.6593982136931,426.21379498685553 M437.6593982136931,426.21379498685553 L433.7565087385962,421.21825329310354 M433.7565087385962,421.21825329310354 L427.8973223180071,416.90731719798436 M628.0438685255483,292.42220833571383 L628.3115683987555,224.2695168331248 M628.3115683987555,224.2695168331248 L649.7024378214412,237.7252810289644 M649.7024378214412,237.7252810289644 L668.7185620970829,252.3258756571563 M668.7185620970829,252.3258756571563 L685.1751323602814,267.9339472343804 M685.1751323602814,267.9339472343804 L698.910984511549,284.40216166683507 M698.910984511549,284.40216166683507 L709.7901566975238,301.5745782086717 M709.7901566975238,301.5745782086717 L717.7033298678002,319.2879960984603 M717.7033298678002,319.2879960984603 L722.569147018979,337.37347384998236 M722.569147018979,337.37347384998236 L724.3351035636915,355.65785486297966 M724.3351035636915,355.65785486297966 L722.9783351709505,373.96543405301514 M722.9783351709505,373.96543405301514 L718.5059823914592,392.11961498331846 M718.5059823914592,392.11961498331846 L710.9554297486595,409.94460109434715 M710.9554297486595,409.94460109434715 L700.3940996014062,427.26716391248874 M700.3940996014062,427.26716391248874 L686.9190967372856,443.9183331496789 M686.9190967372856,443.9183331496789 L670.6563587950297,459.7351379259068 M670.6563587950297,459.7351379259068 L651.7595997624085,474.56222280163473 M651.7595997624085,474.56222280163473 L630.4090409570615,488.25353085237214 M630.4090409570615,488.25353085237214 L606.8096699152918,500.6737982656519 M606.8096699152918,500.6737982656519 L581.189280734123,511.6999771693781 M581.189280734123,511.6999771693781 L553.7962834628775,521.2225615387644 M553.7962834628775,521.2225615387644 L524.8973153148197,529.1468156405535 M524.8973153148197,529.1468156405535 L494.7744418739273,535.3937496133589 M494.7744418739273,535.3937496133589 L463.72238809683785,539.9009814506776 M463.72238809683785,539.9009814506776 L432.0454637137126,542.623480132002 M432.0454637137126,542.623480132002 L400.05449147835577,543.5340116801234 M400.05449147835577,543.5340116801234 L368.06351924299895,542.623480132002 M368.06351924299895,542.623480132002 L336.3865948598737,539.9009814506776 M336.3865948598737,539.9009814506776 L305.33454108278426,535.3937496133589 M305.33454108278426,535.3937496133589 L275.21166764189184,529.1468156405535 M275.21166764189184,529.1468156405535 L246.31269949383415,521.2225615387644 M246.31269949383415,521.2225615387644 L218.91970222258846,511.6999771693781 M218.91970222258846,511.6999771693781 L193.29931304141965,500.6737982656519 M193.29931304141965,500.6737982656519 L169.69994199964916,488.25353085237157 M169.69994199964916,488.25353085237157 L148.34938319430296,474.5622228016346 M148.34938319430296,474.5622228016346 L129.45262416168168,459.7351379259068 M129.45262416168168,459.7351379259068 L113.18988621942577,443.9183331496788 M113.18988621942577,443.9183331496788 L99.71488335530523,427.2671639124886 M99.71488335530523,427.2671639124886 L89.15355320805207,409.94460109434704 M89.15355320805207,409.94460109434704 L81.6030005652525,392.11961498331834 M81.6030005652525,392.11961498331834 L77.13064778576108,373.9654340530151 M77.13064778576108,373.9654340530151 L75.77387939302002,355.6578548629796 M75.77387939302002,355.6578548629796 L77.53983593773262,337.37347384998236 M77.53983593773262,337.37347384998236 L82.40565308891132,319.2879960984603 M82.40565308891132,319.2879960984603 L90.31882625918774,301.5745782086716 M90.31882625918774,301.5745782086716 L101.19799844516234,284.402161666835 M101.19799844516234,284.402161666835 L114.93385059642998,267.9339472343803 M114.93385059642998,267.9339472343803 L131.39042085962853,252.3258756571563 M131.39042085962853,252.3258756571563 L150.40654513527016,237.7252810289644 M150.40654513527016,237.7252810289644 L171.7974145579562,224.26951683312453 M171.7974145579562,224.26951683312453 L195.35649177226446,212.08479534189468 M195.35649177226446,212.08479534189468 L220.85752994418817,201.2851123128666 M220.85752994418817,201.2851123128666 L248.05670440518466,191.97126901473123 M248.05670440518466,191.97126901473123 L276.6948266058078,184.2299793717718 M276.6948266058078,184.2299793717718 L306.49985466827064,178.13320155727456 M306.49985466827064,178.13320155727456 L337.1892784071818,173.73754612024277 M337.1892784071818,173.73754612024277 L368.4727241848456,171.0837560925171 M368.4727241848456,171.0837560925171 L400.0544914783557,170.1964245391178 M400.0544914783557,170.1964245391178 L431.6362587718658,171.0837560925171 M431.6362587718658,171.0837560925171 L462.91970454952974,173.73754612024277 M462.91970454952974,173.73754612024277 L493.60912828844084,178.13320155727456 M493.60912828844084,178.13320155727456 L523.4141563509036,184.2299793717719 M523.4141563509036,184.2299793717719 L552.0522785515268,191.97126901473123 M552.0522785515268,191.97126901473123 L579.2514530125234,201.2851123128666 M579.2514530125234,201.2851123128666 L604.7524911844471,212.08479534189468 M604.7524911844471,212.08479534189468 L628.3115683987555,224.2695168331248 M176.0149612556063,478.1684070861974 L176.314997025469,555.651295529638 M177.90108054965063,234.17868096858837 L178.196089094276,311.3341373133704 M177.90108054965063,234.17868096858837 L158.78378975435947,246.80424024287123 M158.78378975435947,246.80424024287123 L141.8162960290382,260.4191239589097 M141.8162960290382,260.4191239589097 L127.15302477332324,274.9032221914098 M127.15302477332324,274.9032221914098 L114.92854421038317,290.12843561124146 M114.92854421038317,290.12843561124146 L105.25609908037563,305.95963586792686 M105.25609908037563,305.95963586792686 L98.22662190582264,322.25588065568996 M98.22662190582264,322.25588065568996 L93.90774148794947,338.87159486154763 M93.90774148794947,338.87159486154763 L92.3429630051221,355.6578548629796 M92.3429630051221,355.6578548629796 L93.5511821719075,372.46366528389245 M93.5511821719075,372.46366528389245 L97.52632755589974,389.1373275923467 M97.52632755589974,389.1373275923467 L104.23725676785375,405.5278341175008 M104.23725676785375,405.5278341175008 L113.62779825943574,421.486219642392 M113.62779825943574,421.486219642392 L125.61715883091739,436.86696764969605 M125.61715883091739,436.86696764969605 L140.10055127915814,451.52935564932653 M140.10055127915814,451.52935564932653 L156.94987674078797,465.3388723090411 M156.94987674078797,465.3388723090411 L176.0149612556063,478.1684070861974 M189.0590732230684,227.8112155704303 L189.33920251561216,304.9580530693401 M611.0499097336431,227.8112155704303 L610.7697804410993,304.9580530693401 M611.0499097336431,227.8112155704303 L588.9661140831961,216.92301209128263 M588.9661140831961,216.92301209128263 L565.2042979947362,207.28649284608736 M565.2042979947362,207.28649284608736 L539.9770400534517,198.98589859153333 M539.9770400534517,198.98589859153333 L513.5092151302292,192.09369775036072 M513.5092151302292,192.09369775036072 L486.03624161088595,186.66991876227712 M486.03624161088595,186.66991876227712 L457.80194514487073,182.7617629891548 M457.80194514487073,182.7617629891548 L429.0565402588587,180.40321607261635 M429.0565402588587,180.40321607261635 L400.0544914783557,179.61475207260753 M400.0544914783557,179.61475207260753 L371.05244269785277,180.40321607261635 M371.05244269785277,180.40321607261635 L342.30703781184076,182.7617629891548 M342.30703781184076,182.7617629891548 L314.07274134582553,186.66991876227712 M314.07274134582553,186.66991876227712 L286.59976782648226,192.09369775036063 M286.59976782648226,192.09369775036063 L260.13194290325987,198.98589859153333 M260.13194290325987,198.98589859153333 L234.90468496197525,207.28649284608736 M234.90468496197525,207.28649284608736 L211.14286887351534,216.92301209128254 M211.14286887351534,216.92301209128254 L189.0590732230684,227.8112155704303 M624.0940217011052,478.1684070861974 L643.1591062159237,465.3388723090411 M643.1591062159237,465.3388723090411 L660.0084316775533,451.52935564932665 M660.0084316775533,451.52935564932665 L674.491824125794,436.8669676496961 M674.491824125794,436.8669676496961 L686.4811846972757,421.4862196423921 M686.4811846972757,421.4862196423921 L695.8717261888578,405.52783411750084 M695.8717261888578,405.52783411750084 L702.5826554008117,389.1373275923467 M702.5826554008117,389.1373275923467 L706.5578007848039,372.46366528389245 M706.5578007848039,372.46366528389245 L707.7660199515894,355.65785486297966 M707.7660199515894,355.65785486297966 L706.201241468762,338.87159486154775 M706.201241468762,338.87159486154775 L701.8823610508889,322.25588065568996 M701.8823610508889,322.25588065568996 L694.8528838763359,305.95963586792686 M694.8528838763359,305.95963586792686 L685.1804387463283,290.12843561124146 M685.1804387463283,290.12843561124146 L672.9559581833882,274.9032221914098 M672.9559581833882,274.9032221914098 L658.2926869276732,260.4191239589097 M658.2926869276732,260.4191239589097 L641.325193202352,246.80424024287123 M641.325193202352,246.80424024287123 L622.2079024070608,234.17868096858845 M622.2079024070608,234.17868096858845 L621.9128938624356,311.3341373133704 M624.0940217011052,478.1684070861974 L623.7939859312426,555.6512955296381 M187.17295028670154,484.64733640632767 L209.30893935662195,495.7395174844685 M209.30893935662195,495.7395174844685 L233.18891320081505,505.57067429046975 M233.18891320081505,505.57067429046975 L258.59604329286316,514.0495653773831 M258.59604329286316,514.0495653773831 L285.2989863512139,521.0973082941795 M285.2989863512139,521.0973082941795 L313.0538667176909,526.6482800999052 M313.0538667176909,526.6482800999052 L341.60671896256054,530.6507039861434 M341.60671896256054,530.6507039861434 L370.69587019181887,533.0672030057925 M370.69587019181887,533.0672030057925 L400.05449147835577,533.875218796616 M400.05449147835577,533.875218796616 L429.4131127648926,533.0672030057925 M429.4131127648926,533.0672030057925 L458.502263994151,530.6507039861434 M458.502263994151,530.6507039861434 L487.0551162390206,526.6482800999052 M487.0551162390206,526.6482800999052 L514.8099966054976,521.0973082941796 M514.8099966054976,521.0973082941796 L541.5129396638483,514.0495653773833 M541.5129396638483,514.0495653773833 L566.9200697558965,505.57067429046987 M566.9200697558965,505.57067429046987 L590.8000436000896,495.7395174844685 M590.8000436000896,495.7395174844685 L612.93603267001,484.6473364063278 M612.93603267001,484.6473364063278 L612.6508761328384,562.1388444305611 M187.17295028670154,484.64733640632767 L187.45810682387315,562.1388444305611 M322.058170105265,394.1223603594548 L176.0149612556063,478.1684070861974 M322.058170105265,394.1223603594548 L312.56933566000674,386.60023419554864 M312.56933566000674,386.60023419554864 L305.2509530447209,378.31639608210156 M305.2509530447209,378.31639608210156 L300.28257121325936,369.4768407875575 M300.28257121325936,369.4768407875575 L297.7850969143315,360.300994565481 M297.7850969143315,360.300994565481 L297.81799422430595,351.0162087334744 M297.81799422430595,351.0162087334744 L300.37802902299126,341.852090395156 M300.37802902299126,341.852090395156 L305.39958689995245,333.0348379121599 M305.39958689995245,333.0348379121599 L312.7565333418253,324.7816849533331 M312.7565333418253,324.7816849533331 L322.2655281131853,317.2956096153852 M177.90108054965063,234.17868096858837 L322.2655281131853,317.2956096153852 M333.4237058492496,310.8912625987 L189.0590732230684,227.8112155704303 M333.4237058492496,310.8912625987 L346.45021956371164,305.44149813214176 M346.45021956371164,305.44149813214176 L360.7955359849949,301.2331005179858 M360.7955359849949,301.2331005179858 L376.1062998720093,298.36901648808373 M376.1062998720093,298.36901648808373 L392.00581484034893,296.919260531028 M392.00581484034893,296.919260531028 L408.1031681163625,296.919260531028 M408.1031681163625,296.919260531028 L424.00268308470214,298.36901648808373 M424.00268308470214,298.36901648808373 L439.31344697171664,301.2331005179859 M439.31344697171664,301.2331005179859 L453.6587633929999,305.44149813214176 M453.6587633929999,305.44149813214176 L466.68527710746196,310.8912625987 M611.0499097336431,227.8112155704303 L466.68527710746196,310.8912625987 M477.84345484352616,317.2956096153852 L622.2079024070608,234.17868096858845 M477.84345484352616,317.2956096153852 L487.3524496148862,324.7816849533331 M487.3524496148862,324.7816849533331 L494.70939605675903,333.03483791215996 M494.70939605675903,333.03483791215996 L499.7309539337202,341.8520903951561 M499.7309539337202,341.8520903951561 L502.29098873240554,351.0162087334744 M502.29098873240554,351.0162087334744 L502.32388604237997,360.300994565481 M502.32388604237997,360.300994565481 L499.8264117434521,369.4768407875575 M499.8264117434521,369.4768407875575 L494.8580299119906,378.31639608210156 M494.8580299119906,378.31639608210156 L487.5396472967047,386.60023419554864 M487.5396472967047,386.60023419554864 L478.0508128514465,394.1223603594548 M624.0940217011052,478.1684070861974 L478.0508128514465,394.1223603594548 M466.89263524850594,400.56376286945186 L612.93603267001,484.6473364063278 M466.89263524850594,400.56376286945186 L453.8459614288444,406.0495782765747 M453.8459614288444,406.0495782765747 L439.46208126608013,410.28866117385786 M439.46208126608013,410.28866117385786 L424.0981412502309,413.17504815946756 M424.0981412502309,413.17504815946756 L408.1360655623229,414.6365321079036 M408.1360655623229,414.6365321079036 L391.97291739438856,414.6365321079036 M391.97291739438856,414.6365321079036 L376.0108417064806,413.17504815946756 M376.0108417064806,413.17504815946756 L360.6469016906314,410.28866117385786 M360.6469016906314,410.28866117385786 L346.263021527867,406.0495782765747 M346.263021527867,406.0495782765747 L333.21634770820555,400.56376286945186 M187.17295028670154,484.64733640632767 L333.21634770820555,400.56376286945186 M427.9344811869474,339.6096974015628 L433.80149395478867,343.9148502774289 M433.80149395478867,343.9148502774289 L437.7096016599329,348.903692480404 M437.7096016599329,348.903692480404 L439.4308427716112,354.28683608028564 M439.4308427716112,354.28683608028564 L438.86399409958005,359.75169354604185 M438.86399409958005,359.75169354604185 L436.04074157351675,364.98058095348364 M436.04074157351675,364.98058095348364 L431.1241121256631,369.6691983957853 M431.1241121256631,369.6691983957853 L424.3992515085525,373.5444140073884 M424.3992515085525,373.5444140073884 L416.2569835390839,376.3802820494103 M416.2569835390839,376.3802820494103 L407.17109570885094,378.01134297916184 M407.17109570885094,378.01134297916184 L397.6706756103711,378.3423912721368 M397.6706756103711,378.3423912721368 L388.30911454516587,377.35409701487777 M388.30911454516587,377.35409701487777 L379.6316598706673,375.1041586060225 M379.6316598706673,375.1041586060225 L372.1434601957413,371.72388033916167 M372.1434601957413,371.72388033916167 L366.28000305620407,367.41042378203935 M366.28000305620407,367.41042378203935 L362.381747678946,362.4151801713217 M362.381747678946,362.4151801713217 L360.67439853806945,357.0290039235737 M360.67439853806945,357.0290039235737 L361.25599634665747,351.56517731014026 M361.25599634665747,351.56517731014026 L364.091476330661,346.3411481007019 M364.091476330661,346.3411481007019 L369.0150103910561,341.6601032479507 M369.0150103910561,341.6601032479507 L375.7398710126325,337.7934398309741 M375.7398710126325,337.7934398309741 L383.8752343746334,334.9651443832708 M383.8752343746334,334.9651443832708 L392.9488947437589,333.33894165370276 M392.9488947437589,333.33894165370276 L402.4345656970098,333.0089242158321 M402.4345656970098,333.0089242158321 L411.782234784728,333.99418581960146 M411.782234784728,333.99418581960146 L420.449837132417,336.2377228190022 M420.449837132417,336.2377228190022 L427.9344811869474,339.6096974015628 M322.058170105265,394.1223603594548 L322.1623209809896,471.4930817355267 M322.2655281131853,317.2956096153852 L322.3691263098305,394.5632268568894 M333.4237058492496,310.8912625987 L333.5124240567256,388.15026032261227 M466.68527710746196,310.8912625987 L466.59655889998595,388.15026032261227 M477.84345484352616,317.2956096153852 L477.73985664688104,394.5632268568894 M478.0508128514465,394.1223603594548 L477.9466619757219,471.4930817355268 M466.89263524850594,400.56376286945186 L466.8033643612418,477.9431040107427 M333.21634770820555,400.56376286945186 L333.3056185954697,477.9431040107427 M427.892684422809,426.5550344161899 L427.8973223180071,416.90731719798436 M427.892684422809,426.5550344161899 L420.41926466979794,423.1779651611627 M420.41926466979794,423.1779651611627 L411.76465635534,420.9310377751213 M411.76465635534,420.9310377751213 L402.4309983833147,419.9442870988281 M402.4309983833147,419.9442870988281 L392.95954490836283,420.2748033189388 M392.95954490836283,420.2748033189388 L383.89948588514426,421.90346369557955 M383.89948588514426,421.90346369557955 L375.77632040048707,424.7360328327849 M375.77632040048707,424.7360328327849 L369.0615470638027,428.60853761530996 M369.0615470638027,428.60853761530996 L364.1454034645374,433.29665203621676 M364.1454034645374,433.29665203621676 L361.31418584845756,438.5285681647387 M361.31418584845756,438.5285681647387 L360.7334714797718,444.0006406888666 M360.7334714797718,444.0006406888666 L362.4382700062,449.39494261667807 M362.4382700062,449.39494261667807 L366.330685389127,454.39771944019026 M366.330685389127,454.39771944019026 L372.1853500147871,458.717678932498 M372.1853500147871,458.717678932498 L379.6623147293411,462.1030519280815 M379.6623147293411,462.1030519280815 L388.32674583578836,464.3563807669409 M388.32674583578836,464.3563807669409 L397.67425414060244,465.34616411726563 M397.67425414060244,465.34616411726563 L407.1604125465064,465.0146170350682 M407.1604125465064,465.0146170350682 L416.2326623759449,463.38109842533567 M416.2326623759449,463.38109842533567 L424.3627117697839,460.5409566425117 M424.3627117697839,460.5409566425117 L431.0774851020292,456.6598996074167 M431.0774851020292,456.6598996074167 L435.98674478706937,451.9642125456468 M435.98674478706937,451.9642125456468 L438.80577160007755,446.7274381861985 M438.80577160007755,446.7274381861985 L439.3717810464312,441.2543348027618 M439.3717810464312,441.2543348027618 L437.6531321938597,435.86306554336886 M437.6531321938597,435.86306554336886 L433.7508940178732,430.86669017097813 M433.7508940178732,430.86669017097813 L427.892684422809,426.5550344161899 M427.9344811869474,339.6096974015628 L427.9391330206028,329.9329855017146 M427.9391330206028,329.9329855017146 L433.80712555218366,334.2374122234171 M433.80712555218366,334.2374122234171 L437.71588651736676,339.22541322188295 M437.71588651736676,339.22541322188295 L439.4374161406154,344.60764945419663 M439.4374161406154,344.60764945419663 L438.87047406766794,350.07158612180456 M438.87047406766794,350.07158612180456 L436.0467512357899,355.29959281415194 M436.0467512357899,355.29959281415194 L431.12930155931576,359.98742080937615 M431.12930155931576,359.98742080937615 L424.4033182616431,363.8619841225736 M424.4033182616431,363.8619841225736 L416.2596904052219,366.69737492517936 M416.2596904052219,366.69737492517936 L407.17228471009054,368.3281614108978 M407.17228471009054,368.3281614108978 L397.670277331582,368.6591540050946 M397.670277331582,368.6591540050946 L388.30715223991064,367.6710260318114 M388.30715223991064,367.6710260318114 L379.628248085124,365.42146622512627 M379.628248085124,365.42146622512627 L372.138797996752,362.04175687532774 M372.138797996752,362.04175687532774 L366.27436228076414,357.72902648559904 M366.27436228076414,357.72902648559904 L362.375456933335,352.7346240895904 M362.375456933335,352.7346240895904 L360.6678239196631,347.3493552142424 M360.6678239196631,347.3493552142424 L361.24952005416503,341.8864493973146 M361.24952005416503,341.8864493973146 L364.0854744269486,336.6633008952298 M364.0854744269486,336.6633008952298 L369.0098310215379,331.98304547749063 M369.0098310215379,331.98304547749063 L375.73581432367934,328.1170343452942 M375.73581432367934,328.1170343452942 L383.87253526706246,325.2892161249429 M383.87253526706246,325.2892161249429 L392.947709418119,323.6632878316685 M392.947709418119,323.6632878316685 L402.43496272639527,323.33332609093395 M402.43496272639527,323.33332609093395 L411.7841912018,324.31842141555853 M411.7841912018,324.31842141555853 L420.45323973991003,326.5615798229873 M420.45323973991003,326.5615798229873 L427.9391330206028,329.9329855017146 M376.92528917069296,455.9810737848931 L383.1309215278047,458.79034596031687 M383.1309215278047,458.79034596031687 L390.3217037043955,460.6601574656272 M390.3217037043955,460.6601574656272 L398.07915796823227,461.4814629561752 M398.07915796823227,461.4814629561752 L405.95163190762975,461.20635164565 M405.95163190762975,461.20635164565 L413.48073679404047,459.8508743614753 M413.48073679404047,459.8508743614753 L420.22819261881324,457.49409200530636 M420.22819261881324,457.49409200530636 L425.80145467291146,454.2734191378836 M425.80145467291146,454.2734191378836 L429.87662662769947,450.3765332966406 M429.87662662769947,450.3765332966406 L432.2172802065732,446.0303543420985 M432.2172802065732,446.0303543420985 L432.6881058553877,441.4877504930085 M432.6881058553877,441.4877504930085 L431.2626044313422,437.0127826646956 M431.2626044313422,437.0127826646956 L428.0244369783595,432.86534102381574 M428.0244369783595,432.86534102381574 L423.162373352267,429.2860807861178 M423.162373352267,429.2860807861178 L416.95918312225285,426.4825290550106 M416.95918312225285,426.4825290550106 L409.77516786335394,424.61712751175463 M409.77516786335394,424.61712751175463 L402.0272550936461,423.7979112289325 M402.0272550936461,423.7979112289325 L394.16491138127,424.07231237851954 M394.16491138127,424.07231237851954 L386.6442047383175,425.42444282631635 M386.6442047383175,425.42444282631635 L379.9014912396171,427.7760083885279 M379.9014912396171,427.7760083885279 L374.3282291834122,430.9907896105081 M374.3282291834122,430.9907896105081 L370.24831490015833,434.88245865934215 M370.24831490015833,434.88245865934215 L367.8992630793204,439.2252907791231 M367.8992630793204,439.2252907791231 L367.4183072075756,443.76718446889777 M367.4183072075756,443.76718446889777 L368.8342671406458,448.24424150285057 M368.8342671406458,448.24424150285057 L372.0656676754288,452.39609310187825 M372.0656676754288,452.39609310187825 L376.92528917069296,455.9810737848931 M376.92528917069296,455.9810737848931 L376.9214318821216,446.3284493133104 M376.9214318821216,446.3284493133104 L383.128098887161,449.1372535199689 M383.128098887161,449.1372535199689 L390.32008029182253,451.0067536023164 M390.32008029182253,451.0067536023164 L398.0788284765926,451.82792231458836 M398.0788284765926,451.82792231458836 L405.95261555925146,451.55285681958566 M405.95261555925146,451.55285681958566 L413.4829762065144,450.1976052818586 M413.4829762065144,450.1976052818586 L420.2315571902337,447.8412154837449 M420.2315571902337,447.8412154837449 L425.80574827579534,444.6210791719489 M425.80574827579534,444.6210791719489 L429.881599143125,440.72484270133464 M429.881599143125,440.72484270133464 L432.22264219530666,436.3793881931616 M432.22264219530666,436.3793881931616 L432.69354548354517,431.83754176417233 M432.69354548354517,431.83754176417233 L431.2678056413107,427.36332031087903 M431.2678056413107,427.36332031087903 L428.0290978403604,423.2165706231855 M428.0290978403604,423.2165706231855 L423.1662235322485,419.6379077033436 M423.1662235322485,419.6379077033436 L416.96199946855216,416.8348239405255 M416.96199946855216,416.8348239405255 L409.7767872377861,414.96973381986584 M409.7767872377861,414.96973381986584 L402.0275837284396,414.150654315146 M402.0275837284396,414.150654315146 L394.16393025039014,414.4250096492696 M394.16393025039014,414.4250096492696 L386.64197064670077,415.776914350897 M386.64197064670077,415.776914350897 L379.8981335702245,418.128087355487 M379.8981335702245,418.128087355487 L374.3239424825547,421.3423320223308 M374.3239424825547,421.3423320223308 L370.243347705587,425.23335170097073 M370.243347705587,425.23335170097073 L367.8939036113269,429.5754593746616 M367.8939036113269,429.5754593746616 L367.41286672257263,434.1165956443946 M367.41286672257263,434.1165956443946 L368.8290618925394,438.5929063031537 M368.8290618925394,438.5929063031537 L372.061000519086,442.7440659486277 M372.061000519086,442.7440659486277 L376.9214318821216,446.3284493133104 M376.8905271951346,368.99139444220026 L372.0236071593752,365.41181119396197 M372.0236071593752,365.41181119396197 L368.78735733871895,361.26621215739175 M368.78735733871895,361.26621215739175 L367.36927745607426,356.7958994373111 M367.36927745607426,356.7958994373111 L367.8509634647291,352.26084985512864 M367.8509634647291,352.26084985512864 L370.2035504691339,347.92456387966837 M370.2035504691339,347.92456387966837 L374.28959737875,344.03876257756656 M374.28959737875,344.03876257756656 L379.8712318832569,340.8288296941617 M379.8712318832569,340.8288296941617 L386.62407108037416,338.4808112991818 M386.62407108037416,338.4808112991818 L394.1560694196634,337.1307207022566 M394.1560694196634,337.1307207022566 L402.0302167537559,336.8567335428267 M402.0302167537559,336.8567335428267 L409.789761682802,337.6747138937596 M409.789761682802,337.6747138937596 L416.98456406696556,339.5373014101092 M416.98456406696556,339.5373014101092 L423.1970712223093,342.3366245585111 M423.1970712223093,342.3366245585111 L428.066440731814,345.91048740019454 M428.066440731814,345.91048740019454 L431.3094778171979,350.0516765085015 M431.3094778171979,350.0516765085015 L432.7371278798262,354.51990003710074 M432.7371278798262,354.51990003710074 L432.26560255328684,359.0556597737858 M432.26560255328684,359.0556597737858 L429.9214390423769,363.3952925613263 M429.9214390423769,363.3952925613263 L425.8401487202936,367.2863106204861 M425.8401487202936,367.2863106204861 L420.25851421790605,370.502135109413 M420.25851421790605,370.502135109413 L413.50091843566395,372.85537026300545 M413.50091843566395,372.85537026300545 L405.9604966013767,374.20880767363434 M405.9604966013767,374.20880767363434 L398.07618858105315,374.4835049891913 M398.07618858105315,374.4835049891913 L390.3070734688506,373.66343544468634 M390.3070734688506,373.66343544468634 L383.1054838204704,371.7964379961597 M383.1054838204704,371.7964379961597 L376.8905271951346,368.99139444220026 M376.8905271951346,368.99139444220026 L376.88665830227643,359.30973096546944 M376.88665830227643,359.30973096546944 L372.0189259640774,355.73075043551734 M372.0189259640774,355.73075043551734 L368.7821364353107,351.5858496063123 M368.7821364353107,351.5858496063123 L367.36382061080724,347.1162900050797 M367.36382061080724,347.1162900050797 L367.8455878826352,342.5820046842495 M367.8455878826352,342.5820046842495 L370.1985683421413,338.24644969634454 M370.1985683421413,338.24644969634454 L374.2852977929141,334.3613036263253 M374.2852977929141,334.3613036263253 L379.8678641224954,331.1519121403688 M379.8678641224954,331.1519121403688 L386.62183027481296,328.8042898450889 M386.62183027481296,328.8042898450889 L394.1550853404041,327.45442703099786 M394.1550853404041,327.45442703099786 L402.0305463761146,327.1804861003517 M402.0305463761146,327.1804861003517 L409.7913859236801,327.9983284392268 M409.7913859236801,327.9983284392268 L416.987388877325,329.8606017231936 M416.987388877325,329.8606017231936 L423.20093297449006,332.6594526804162 M423.20093297449006,332.6594526804162 L428.0711156043577,336.23271281292784 M428.0711156043577,336.23271281292784 L431.3146946642404,340.3732037208963 M431.3146946642404,340.3732037208963 L432.74258386438004,344.84067413397634 M432.74258386438004,344.84067413397634 L432.27098066749915,349.37566960817765 M432.27098066749915,349.37566960817765 L429.9264265142417,353.71457140283013 M429.9264265142417,353.71457140283013 L425.84445523931106,357.6049342215953 M425.84445523931106,357.6049342215953 L420.2618889118505,360.8202173036867 M420.2618889118505,360.8202173036867 L413.50316458610035,363.17305634926777 M413.50316458610035,363.17305634926777 L405.9614832127563,364.52626597173054 M405.9614832127563,364.52626597173054 L398.07585809798053,364.80091705737243 M398.07585809798053,364.80091705737243 L390.305445171604,363.9809855282536 M390.305445171604,363.9809855282536 L383.10265268735446,362.11430231913556 M383.10265268735446,362.11430231913556 L376.88665830227643,359.30973096546944 M377.20027154844826,446.16751482856006 L383.33214335234345,448.9424446376746 M383.33214335234345,448.9424446376746 L390.4374351094015,450.7893939211553 M390.4374351094015,450.7893939211553 L398.1026467247508,451.60065687284805 M398.1026467247508,451.60065687284805 L405.8815079868988,451.32891045929836 M405.8815079868988,451.32891045929836 L413.32109222423924,449.9900065336823 M413.32109222423924,449.9900065336823 L419.98833683851757,447.66203806294163 M419.98833683851757,447.66203806294163 L425.49536901861273,444.48073368882535 M425.49536901861273,444.48073368882535 L429.52214154841346,440.6314708581632 M429.52214154841346,440.6314708581632 L431.8350304695037,436.3383906461638 M431.8350304695037,436.3383906461638 L432.3003191515343,431.8512697911091 M432.3003191515343,431.8512697911091 L430.89181316487844,427.43094265312953 M430.89181316487844,427.43094265312953 L427.69216688657303,423.33412697336803 M427.69216688657303,423.33412697336803 L422.8878946887523,419.79854736271943 M422.8878946887523,419.79854736271943 L416.758407312202,417.029200987069 M416.758407312202,417.029200987069 L409.65972260054843,415.1865560402331 M409.65972260054843,415.1865560402331 L402.00382705265525,414.37733225769574 M402.00382705265525,414.37733225769574 L394.23485668241176,414.64838552164196 M394.23485668241176,414.64838552164196 L386.8034722741832,415.9840227703163 M386.8034722741832,415.9840227703163 L380.1408579448611,418.3068993961527 M380.1408579448611,418.3068993961527 L374.63382576275757,421.4824532374542 M374.63382576275757,421.4824532374542 L370.60242294571896,425.3266242246275 M370.60242294571896,425.3266242246275 L368.28133419694115,429.61643776266794 M368.28133419694115,429.61643776266794 L367.806154626906,434.10286546787955 M367.806154626906,434.10286546787955 L369.2053445491122,438.52523177202 M369.2053445491122,438.52523177202 L372.39838378152905,442.6263517862749 M372.39838378152905,442.6263517862749 L377.20027154844826,446.16751482856006 M377.169739548186,368.8306754514913 L372.36144124464823,365.294254691551 M372.36144124464823,365.294254691551 L369.16414265331144,361.19862829157853 M369.16414265331144,361.19862829157853 L367.76309057320714,356.7821876610995 M367.76309057320714,356.7821876610995 L368.23891127942215,352.30177330947487 M368.23891127942215,352.30177330947487 L370.56310494005925,348.0177113295525 M370.56310494005925,348.0177113295525 L374.5998941261649,344.1786958472238 M374.5998941261649,344.1786958472238 L380.1142800454884,341.00740184045856 M380.1142800454884,341.00740184045856 L386.78578811167466,338.68764181717756 M386.78578811167466,338.68764181717756 L394.2270904414556,337.35379681760804 M394.2270904414556,337.35379681760804 L402.006428395904,337.08310729147775 M402.006428395904,337.08310729147775 L409.6725409185431,337.8912451625341 M409.6725409185431,337.8912451625341 L416.78070034850316,339.73141765723017 M416.78070034850316,339.73141765723017 L422.91837105724045,342.49704872581884 M422.91837105724045,342.49704872581884 L427.7290601639717,346.0278860914915 M427.7290601639717,346.0278860914915 L430.9329834582396,350.1192081857809 M430.9329834582396,350.1192081857809 L432.3433764995651,354.5336096637484 M432.3433764995651,354.5336096637484 L431.8774731143159,359.0147171605764 M431.8774731143159,359.0147171605764 L429.56150119504605,363.30204579259214 M429.56150119504605,363.30204579259214 L425.529354670422,367.1461530843296 M425.529354670422,367.1461530843296 L420.01496875311756,370.3231975854237 M420.01496875311756,370.3231975854237 L413.3388180277436,372.64804941953383 M413.3388180277436,372.64804941953383 L405.88929395516357,373.9851610741855 M405.88929395516357,373.9851610741855 L398.10003867582844,374.2565437452809 M398.10003867582844,374.2565437452809 L390.42458518894557,373.4463667187144 M390.42458518894557,373.4463667187144 L383.30980105654123,371.6018899161778 M383.30980105654123,371.6018899161778 L377.169739548186,368.8306754514913 M377.20027154844826,446.16751482856006 L377.169739548186,368.8306754514913" stroke="black"  stroke-width="4"  fill="red"/></svg>