<svg viewBox="0 0 800 800" xmlns="http://www.w3.org/2000/svg"><path d="M638.6772865832705,301.32841793176954 L638.9945500242166,220.5575264226224 M638.9945500242166,220.5575264226224 L661.3916703294257,234.6462651053581 M661.3916703294257,234.6462651053581 L681.302334768743,249.9336883490529 M681.302334768743,249.9336883490529 L698.5330408570655,266.2759814059524 M698.5330408570655,266.2759814059524 L712.9150431519437,283.51887941852686 M712.9150431519437,283.51887941852686 L724.3059839994412,301.49910601047554 M724.3059839994412,301.49910601047554 L732.5914018564018,320.0457832705075 M732.5914018564018,320.0457832705075 L737.6861125932419,338.9820225123047 M737.6861125932419,338.9820225123047 L739.5351417469495,358.12652165173995 M739.5351417469495,358.12652165173995 L738.1145494223431,377.2953102369065 M738.1145494223431,377.2953102369065 L733.4318120697709,396.3034845333341 M733.4318120697709,396.3034845333341 L725.526072823275,414.9669783109173 M725.526072823275,414.9669783109173 L714.4679256663296,433.1044142311701 M714.4679256663296,433.1044142311701 L700.3590433064254,450.53887345105727 M700.3590433064254,450.53887345105727 L683.3312876323852,467.0997187545907 M683.3312876323852,467.0997187545907 L663.5456035131922,482.62428660525677 M663.5456035131922,482.62428660525677 L641.1906900827141,496.95964939433696 M641.1906900827141,496.95964939433696 L616.481177724641,509.9641803454295 M616.481177724641,509.9641803454295 L589.6555762299979,521.5090432742643 M589.6555762299979,521.5090432742643 L560.9739811400065,531.4795808678163 M560.9739811400065,531.4795808678163 L530.715572586401,539.7766009159399 M530.715572586401,539.7766009159399 L499.1756848397745,546.3173977841232 M499.1756848397745,546.3173977841232 L466.66290705470146,551.0366549451637 M466.66290705470146,551.0366549451637 L433.4958640379531,553.8872230680156 M433.4958640379531,553.8872230680156 L400.00000000000006,554.8405870581364 M400.00000000000006,554.8405870581364 L366.504135962047,553.8872230680156 M366.504135962047,553.8872230680156 L333.33709294529854,551.0366549451637 M333.33709294529854,551.0366549451637 L300.82431516022564,546.3173977841232 M300.82431516022564,546.3173977841232 L269.2844274135991,539.7766009159399 M269.2844274135991,539.7766009159399 L239.02601885999357,531.4795808678163 M239.02601885999357,531.4795808678163 L210.3444237700021,521.5090432742643 M210.3444237700021,521.5090432742643 L183.51882227535899,509.9641803454295 M183.51882227535899,509.9641803454295 L158.80930991728502,496.95964939433634 M158.80930991728502,496.95964939433634 L136.45439648680792,482.62428660525666 M136.45439648680792,482.62428660525666 L116.66871236761489,467.0997187545907 M116.66871236761489,467.0997187545907 L99.6409566935746,450.5388734510572 M99.6409566935746,450.5388734510572 L85.53207433367038,433.1044142311701 M85.53207433367038,433.1044142311701 L74.47392717672511,414.9669783109173 M74.47392717672511,414.9669783109173 L66.56818793022921,396.30348453333403 M66.56818793022921,396.30348453333403 L61.88545057765691,377.2953102369064 M61.88545057765691,377.2953102369064 L60.46485825305052,358.12652165173995 M60.46485825305052,358.12652165173995 L62.31388740675811,338.98202251230464 M62.31388740675811,338.98202251230464 L67.40859814359817,320.04578327050746 M67.40859814359817,320.04578327050746 L75.69401600055869,301.4991060104755 M75.69401600055869,301.4991060104755 L87.08495684805632,283.5188794185268 M87.08495684805632,283.5188794185268 L101.46695914293451,266.2759814059523 M101.46695914293451,266.2759814059523 L118.69766523125708,249.93368834905277 M118.69766523125708,249.93368834905277 L138.60832967057445,234.6462651053581 M138.60832967057445,234.6462651053581 L161.00544997578385,220.55752642262206 M161.00544997578385,220.55752642262206 L185.6727730388181,207.79962174226722 M185.6727730388181,207.79962174226722 L212.37340911668502,196.49190931227395 M212.37340911668502,196.49190931227395 L240.8520637504817,186.73993220792258 M240.8520637504817,186.73993220792258 L270.8373558659296,178.6344834753455 M270.8373558659296,178.6344834753455 L302.04444642519206,172.25090628233022 M302.04444642519206,172.25090628233022 L334.1775356417046,167.6484742026393 M334.1775356417046,167.6484742026393 L366.93259037083817,164.86984686677704 M366.93259037083817,164.86984686677704 L400,163.94077422557731 M400,163.94077422557731 L433.06740962916183,164.86984686677704 M433.06740962916183,164.86984686677704 L465.82246435829546,167.6484742026393 M465.82246435829546,167.6484742026393 L497.955553574808,172.25090628233022 M497.955553574808,172.25090628233022 L529.1626441340704,178.6344834753455 M529.1626441340704,178.6344834753455 L559.1479362495184,186.73993220792258 M559.1479362495184,186.73993220792258 L587.626590883315,196.49190931227395 M587.626590883315,196.49190931227395 L614.327226961182,207.7996217422673 M614.327226961182,207.7996217422673 L638.9945500242166,220.5575264226224 M638.6772865832705,301.32841793176954 L614.0428297187714,288.553229329373 M614.0428297187714,288.553229329373 L587.3777170273003,277.23018561637014 M587.3777170273003,277.23018561637014 L558.9369057873513,267.4649774583403 M558.9369057873513,267.4649774583403 L528.9914203680386,259.34852521278515 M528.9914203680386,259.34852521278515 L497.8257268809942,252.95627793774193 M497.8257268809942,252.95627793774193 L465.73523903310326,248.3475926670016 M465.73523903310326,248.3475926670016 L433.02359405604693,245.56518918436257 M433.02359405604693,245.56518918436257 L400,244.63485378380977 M400,244.63485378380977 L366.97640594395307,245.56518918436248 M366.97640594395307,245.56518918436248 L334.26476096689674,248.3475926670016 M334.26476096689674,248.3475926670016 L302.17427311900593,252.95627793774193 M302.17427311900593,252.95627793774193 L271.0085796319615,259.34852521278515 M271.0085796319615,259.34852521278515 L241.06309421264882,267.4649774583403 M241.06309421264882,267.4649774583403 L212.6222829726998,277.23018561637014 M212.6222829726998,277.23018561637014 L185.95717028122868,288.5532293293729 M185.95717028122868,288.5532293293729 L161.32271341672828,301.32841793177005 M161.32271341672828,301.32841793177005 L138.9554874293034,315.43622678439357 M138.9554874293034,315.43622678439357 L119.07145614498972,330.74432286162147 M119.07145614498972,330.74432286162147 L101.86386102203898,347.10869238522315 M101.86386102203898,347.10869238522315 L87.50121750994555,364.37485788106756 M87.50121750994555,364.37485788106756 L76.12568665903939,382.37931891604063 M76.12568665903939,382.37931891604063 L67.85156905757952,400.9509641650253 M67.85156905757952,400.9509641650253 L62.76392568080655,419.9126644666952 M62.76392568080655,419.9126644666952 L60.91764724021107,439.08287246799705 M60.91764724021107,439.08287246799705 L62.3366307789027,458.2773700775916 M62.3366307789027,458.2773700775916 L67.01339882068709,477.311005915025 M67.01339882068709,477.311005915025 L74.9088497894179,495.9994684619083 M74.9088497894179,495.9994684619083 L85.95247396957234,514.1611398734613 M85.95247396957234,514.1611398734613 L100.04272552205066,531.6188678510068 M100.04272552205066,531.6188678510068 L117.04791118563793,548.2017910712398 M117.04791118563793,548.2017910712398 L136.80729529073318,563.7470333240223 M136.80729529073318,563.7470333240223 L159.1324269245103,578.1014679090144 M159.1324269245103,578.1014679090144 L183.8089606565544,591.1232844028199 M183.8089606565544,591.1232844028199 L210.5987057032363,602.6834801680077 M210.5987057032363,602.6834801680077 L239.24191649747488,612.6672502424236 M239.24191649747488,612.6672502424236 L269.4597903982022,620.9752750510081 M269.4597903982022,620.9752750510081 L300.95739403419435,627.524743022591 M300.95739403419435,627.524743022591 L333.42655841989625,632.250254132219 M333.42655841989625,632.250254132219 L366.54909355594776,635.1045988677398 M366.54909355594776,635.1045988677398 L400.00000000000006,636.0592257744227 M400.00000000000006,636.0592257744227 L433.4509064440523,635.1045988677398 M433.4509064440523,635.1045988677398 L466.57344158010375,632.250254132219 M466.57344158010375,632.250254132219 L499.04260596580576,627.524743022591 M499.04260596580576,627.524743022591 L530.5402096017979,620.9752750510081 M530.5402096017979,620.9752750510081 L560.7580835025251,612.6672502424236 M560.7580835025251,612.6672502424236 L589.4012942967637,602.6834801680077 M589.4012942967637,602.6834801680077 L616.1910393434456,591.12328440282 M616.1910393434456,591.12328440282 L640.8675730754926,578.101467909013 M640.8675730754926,578.101467909013 L663.1927047092669,563.7470333240223 M663.1927047092669,563.7470333240223 L682.9520888143621,548.2017910712398 M682.9520888143621,548.2017910712398 L699.9572744779493,531.6188678510068 M699.9572744779493,531.6188678510068 L714.0475260304277,514.1611398734613 M714.0475260304277,514.1611398734613 L725.0911502105822,495.9994684619083 M725.0911502105822,495.9994684619083 L732.9866011793131,477.31100591502513 M732.9866011793131,477.31100591502513 L737.6633692210972,458.2773700775916 M737.6633692210972,458.2773700775916 L739.082352759789,439.08287246799716 M739.082352759789,439.08287246799716 L737.2360743191936,419.9126644666953 M737.2360743191936,419.9126644666953 L732.1484309424205,400.9509641650253 M732.1484309424205,400.9509641650253 L723.8743133409606,382.3793189160407 M723.8743133409606,382.3793189160407 L712.4987824900545,364.37485788106767 M712.4987824900545,364.37485788106767 L698.1361389779611,347.1086923852232 M698.1361389779611,347.1086923852232 L680.9285438550103,330.74432286162147 M680.9285438550103,330.74432286162147 L661.0445125706967,315.43622678439357 M661.0445125706967,315.43622678439357 L638.6772865832705,301.32841793176954 M165.7355446724623,567.5278817532331 L145.80019934521738,554.0769476757107 M145.80019934521738,554.0769476757107 L128.18170475157888,539.5985484111332 M128.18170475157888,539.5985484111332 L113.03709265894776,524.2259476056608 M113.03709265894776,524.2259476056608 L100.50031367718725,508.10016867711255 M100.50031367718725,508.10016867711255 L90.68094407733639,491.36874771017045 M90.68094407733639,491.36874771017045 L83.66347207504282,474.1842478098408 M83.66347207504282,474.1842478098408 L79.50664126754003,456.7028487078037 M79.50664126754003,456.7028487078037 L78.2430242281722,439.08287246799705 M78.2430242281722,439.08287246799705 L79.87897848518094,421.48336645869375 M79.87897848518094,421.48336645869375 L84.39475474625914,404.06264180992315 M84.39475474625914,404.06264180992315 L91.74487058864986,386.97683848607653 M91.74487058864986,386.97683848607653 L101.8586181729471,370.37858661584403 M101.8586181729471,370.37858661584403 L114.64092129124242,354.4156598834859 M114.64092129124242,354.4156598834859 L129.97337188666813,339.22973703922935 M129.97337188666813,339.22973703922935 L147.7152637192898,324.95512782424305 M147.7152637192898,324.95512782424305 L167.70512545656842,311.71776590103224 M165.7355446724623,567.5278817532331 L159.77478957841424,570.9674135044788 M159.77478957841424,570.9674135044788 L171.44207228411753,577.7616801197162 M171.44207228411753,577.7616801197162 L177.40283905855813,574.3206123500457 M622.5971609414419,574.3206123500457 L599.4508136504885,585.9500240777988 M599.4508136504885,585.9500240777988 L574.480924290718,596.2573260333861 M574.480924290718,596.2573260333861 L547.9142155781187,605.1468614627772 M547.9142155781187,605.1468614627772 L519.9925859081468,612.5359309488904 M519.9925859081468,612.5359309488904 L490.97103665191514,618.3557363807545 M490.97103665191514,618.3557363807545 L461.11511827667675,622.5519958477846 M461.11511827667675,622.5519958477846 L430.6984395603978,625.0855240718839 M430.6984395603978,625.0855240718839 L400.00000000000006,625.9326713249562 M400.00000000000006,625.9326713249562 L369.30156043960227,625.0855240718839 M369.30156043960227,625.0855240718839 L338.8848817233233,622.5519958477846 M338.8848817233233,622.5519958477846 L309.0289633480849,618.3557363807545 M309.0289633480849,618.3557363807545 L280.0074140918533,612.5359309488904 M280.0074140918533,612.5359309488904 L252.08578442188133,605.1468614627771 M252.08578442188133,605.1468614627771 L225.519075709282,596.2573260333861 M225.519075709282,596.2573260333861 L200.5491863495115,585.9500240777988 M200.5491863495115,585.9500240777988 L177.40283905855813,574.3206123500457 M622.5971609414419,574.3206123500457 L628.5579277158826,577.7616801197163 M628.5579277158826,577.7616801197163 L640.2252104215858,570.9674135044788 M640.2252104215858,570.9674135044788 L634.2644553275378,567.5278817532331 M632.2948745434317,311.7177659010323 L652.2847362807103,324.95512782424316 M652.2847362807103,324.95512782424316 L670.0266281133319,339.22973703922935 M670.0266281133319,339.22973703922935 L685.3590787087576,354.41565988348594 M685.3590787087576,354.41565988348594 L698.1413818270529,370.37858661584403 M698.1413818270529,370.37858661584403 L708.2551294113503,386.97683848607653 M708.2551294113503,386.97683848607653 L715.6052452537409,404.06264180992326 M715.6052452537409,404.06264180992326 L720.1210215148192,421.48336645869387 M720.1210215148192,421.48336645869387 L721.7569757718278,439.08287246799716 M721.7569757718278,439.08287246799716 L720.49335873246,456.7028487078037 M720.49335873246,456.7028487078037 L716.3365279249573,474.1842478098408 M716.3365279249573,474.1842478098408 L709.3190559226637,491.36874771017045 M709.3190559226637,491.36874771017045 L699.4996863228127,508.10016867711255 M699.4996863228127,508.10016867711255 L686.9629073410523,524.2259476056608 M686.9629073410523,524.2259476056608 L671.8182952484214,539.5985484111332 M671.8182952484214,539.5985484111332 L654.1998006547826,554.0769476757107 M654.1998006547826,554.0769476757107 L634.2644553275378,567.5278817532331 M632.2948745434317,311.7177659010323 L638.1518974021797,308.33658805124935 M638.1518974021797,308.33658805124935 L626.4846105995927,301.66206163329673 M626.4846105995927,301.66206163329673 L620.627576363977,305.0417433856386 M179.37242363602314,305.0417433856386 L202.46426791124978,293.6259060007128 M202.46426791124978,293.6259060007128 L227.31077097572953,283.5223989156345 M227.31077097572953,283.5223989156345 L253.68964811827902,274.8195488263524 M253.68964811827902,274.8195488263524 L281.3657555850228,267.5933393555137 M281.3657555850228,267.5933393555137 L310.0929235150442,261.9067109040292 M310.0929235150442,261.9067109040292 L339.6161899098129,257.8091546716249 M339.6161899098129,257.8091546716249 L369.67391139418515,255.3363050778825 M369.67391139418515,255.3363050778825 L400,254.5096294870921 M400,254.5096294870921 L430.32608860581485,255.3363050778825 M430.32608860581485,255.3363050778825 L460.3838100901871,257.8091546716249 M460.3838100901871,257.8091546716249 L489.9070764849559,261.9067109040292 M489.9070764849559,261.9067109040292 L518.6342444149773,267.5933393555137 M518.6342444149773,267.5933393555137 L546.310351881721,274.8195488263524 M546.310351881721,274.8195488263524 L572.6892290242706,283.5223989156345 M572.6892290242706,283.5223989156345 L597.5357320887503,293.6259060007129 M597.5357320887503,293.6259060007129 L620.627576363977,305.0417433856386 M179.37242363602314,305.0417433856386 L173.51538940040743,301.66206163329673 M173.51538940040743,301.66206163329673 L161.84810259782046,308.33658805124924 M161.84810259782046,308.33658805124924 L167.70512545656842,311.71776590103224 M165.4213948779544,486.4001099094956 L145.45946705399638,472.9670591911785 M145.45946705399638,472.9670591911785 L127.81753011498051,458.5079271254011 M127.81753011498051,458.5079271254011 L112.6528223753885,443.155803679633 M112.6528223753885,443.155803679633 L100.09946861515175,427.0515277525237 M100.09946861515175,427.0515277525237 L90.26718534690059,410.3424415805126 M90.26718534690059,410.3424415805126 L83.24056637458,393.18090694378253 M83.24056637458,393.18090694378253 L79.07842562019118,375.72289655291775 M79.07842562019118,375.72289655291775 L77.81337044647051,358.12652165173995 M77.81337044647051,358.12652165173995 L79.45175789292557,340.5506168440621 M79.45175789292557,340.5506168440621 L83.97380336903564,323.153280500599 M83.97380336903564,323.153280500599 L91.33395516324981,306.090441780842 M91.33395516324981,306.090441780842 L101.46140313843898,289.5145238170401 M101.46140313843898,289.5145238170401 L114.2609372025612,273.5730990017022 M114.2609372025612,273.5730990017022 L129.61398545378688,258.40765227695476 M129.61398545378688,258.40765227695476 L147.37964942632615,244.15230891039897 M147.37964942632615,244.15230891039897 L167.39623937370393,230.93282893513592 M165.4213948779544,486.4001099094956 L159.45260991649093,489.83507127281 M159.45260991649093,489.83507127281 L171.13547174389169,496.620312849192 M171.13547174389169,496.620312849192 L177.10426843280902,493.18381545060885 M622.8957315671911,493.18381545060885 L599.7184403371298,504.7977853713831 M599.7184403371298,504.7977853713831 L574.7151253009295,515.0914110007307 M574.7151253009295,515.0914110007307 L548.1128148460675,523.9691587900265 M548.1128148460675,523.9691587900265 L520.1537349057844,531.3484355678218 M520.1537349057844,531.3484355678218 L491.0932333272271,537.1605314152121 M491.0932333272271,537.1605314152121 L461.1972223634563,541.351233883689 M461.1972223634563,541.351233883689 L430.7396842997081,543.881407771951 M430.7396842997081,543.881407771951 L400.00000000000006,544.7274335466859 M400.00000000000006,544.7274335466859 L369.260315700292,543.881407771951 M369.260315700292,543.881407771951 L338.80277763654374,541.351233883689 M338.80277763654374,541.351233883689 L308.9067666727729,537.1605314152121 M308.9067666727729,537.1605314152121 L279.8462650942157,531.3484355678216 M279.8462650942157,531.3484355678216 L251.8871851539326,523.9691587900265 M251.8871851539326,523.9691587900265 L225.28487469907068,515.0914110007307 M225.28487469907068,515.0914110007307 L200.28155966287028,504.7977853713831 M200.28155966287028,504.7977853713831 L177.10426843280902,493.18381545060885 M622.8957315671911,493.18381545060885 L628.8645282561083,496.6203128491921 M628.8645282561083,496.6203128491921 L640.5473900835092,489.83507127281007 M640.5473900835092,489.83507127281007 L634.5786051220456,486.4001099094956 M632.6037606262961,230.932828935136 L652.6203505736738,244.15230891039897 M652.6203505736738,244.15230891039897 L670.3860145462131,258.40765227695476 M670.3860145462131,258.40765227695476 L685.7390627974388,273.5730990017022 M685.7390627974388,273.5730990017022 L698.5385968615611,289.5145238170402 M698.5385968615611,289.5145238170402 L708.6660448367502,306.0904417808421 M708.6660448367502,306.0904417808421 L716.0261966309644,323.153280500599 M716.0261966309644,323.153280500599 L720.5482421070745,340.5506168440622 M720.5482421070745,340.5506168440622 L722.1866295535294,358.12652165173995 M722.1866295535294,358.12652165173995 L720.9215743798088,375.72289655291786 M720.9215743798088,375.72289655291786 L716.7594336254201,393.1809069437826 M716.7594336254201,393.1809069437826 L709.7328146530995,410.3424415805126 M709.7328146530995,410.3424415805126 L699.9005313848481,427.05152775252384 M699.9005313848481,427.05152775252384 L687.3471776246116,443.155803679633 M687.3471776246116,443.155803679633 L672.1824698850195,458.5079271254011 M672.1824698850195,458.5079271254011 L654.5405329460036,472.9670591911785 M654.5405329460036,472.9670591911785 L634.5786051220456,486.4001099094956 M632.6037606262961,230.932828935136 L638.468536122342,227.556221088389 M638.468536122342,227.556221088389 L626.7856701761305,220.8907189204403 M626.7856701761305,220.8907189204403 L620.92088325778,224.2658307059496 M179.07911674222007,224.26583070594953 L202.20175931485701,212.86543372295267 M202.20175931485701,212.86543372295267 L227.0813583197987,202.77560162715173 M227.0813583197987,202.77560162715173 L253.49533523287687,194.08453795646196 M253.49533523287687,194.08453795646196 L281.20823681292836,186.86812013084065 M281.20823681292836,186.86812013084065 L309.9735703248982,181.18920039622986 M309.9735703248982,181.18920039622986 L339.53604028283434,177.09720052037218 M339.53604028283434,177.09720052037218 L369.6336617834905,174.6277048682147 M369.6336617834905,174.6277048682147 L400,173.80215062282275 M400,173.80215062282275 L430.3663382165095,174.6277048682147 M430.3663382165095,174.6277048682147 L460.46395971716566,177.09720052037218 M460.46395971716566,177.09720052037218 L490.02642967510184,181.18920039622986 M490.02642967510184,181.18920039622986 L518.7917631870716,186.86812013084074 M518.7917631870716,186.86812013084074 L546.5046647671231,194.08453795646204 M546.5046647671231,194.08453795646204 L572.9186416802014,202.77560162715173 M572.9186416802014,202.77560162715173 L597.798240685143,212.86543372295267 M597.798240685143,212.86543372295267 L620.92088325778,224.2658307059496 M179.07911674222007,224.26583070594953 L173.21432982386958,220.8907189204403 M173.21432982386958,220.8907189204403 L161.531463877658,227.55622108838892 M161.531463877658,227.55622108838892 L167.39623937370393,230.93282893513592 M167.39623937370393,230.93282893513592 L167.70512545656842,311.71776590103224 M165.4213948779544,486.4001099094956 L165.7355446724623,567.5278817532331 M161.84810259782046,308.33658805124924 L161.531463877658,227.55622108838892 M173.51538940040743,301.66206163329673 L173.21432982386958,220.8907189204403 M179.07911674222007,224.26583070594953 L179.37242363602314,305.0417433856386 M620.92088325778,224.2658307059496 L620.627576363977,305.0417433856386 M626.4846105995927,301.66206163329673 L626.7856701761305,220.8907189204403 M638.1518974021797,308.33658805124935 L638.468536122342,227.556221088389 M632.6037606262961,230.932828935136 L632.2948745434317,311.7177659010323 M634.5786051220456,486.4001099094956 L634.2644553275378,567.5278817532331 M640.2252104215858,570.9674135044788 L640.5473900835092,489.83507127281007 M628.5579277158826,577.7616801197163 L628.8645282561083,496.6203128491921 M622.8957315671911,493.18381545060885 L622.5971609414419,574.3206123500457 M177.10426843280902,493.18381545060885 L177.40283905855813,574.3206123500457 M171.44207228411753,577.7616801197162 L171.13547174389169,496.620312849192 M159.77478957841424,570.9674135044788 L159.45260991649093,489.83507127281" stroke="black"  stroke-width="4"  fill="red"/>
<path d="M475.7462544171899,402.0911073665446 L638.1518974021797,308.33658805124935 M475.7462544171899,402.0911073665446 L475.750458338514,398.724297566199 M481.3442871849781,395.4954169835824 L475.750458338514,398.724297566199 M481.4346701131227,328.0842677242727 L481.3442871849781,395.4954169835824 M481.4346701131227,328.0842677242727 L475.8346348673934,331.30953393421055 M475.8346348673934,331.30953393421055 L475.84727748504287,321.18439463617364 M475.84727748504287,321.18439463617364 L638.468536122342,227.556221088389 M638.1518974021797,308.33658805124935 L638.468536122342,227.556221088389 M638.1518974021797,308.33658805124935 L626.4846105995927,301.66206163329673 M626.4846105995927,301.66206163329673 L464.07875979742465,395.3750345047887 M464.07875979742465,395.3750345047887 L475.7462544171899,402.0911073665446 M626.4846105995927,301.66206163329673 L626.7856701761305,220.8907189204403 M638.468536122342,227.556221088389 L626.7856701761305,220.8907189204403 M475.8346348673934,331.30953393421055 L464.15351004493857,324.60135401566276 M464.16420289065974,314.477346781487 L475.84727748504287,321.18439463617364 M464.15351004493857,324.60135401566276 L464.16420289065974,314.477346781487 M469.75354874660206,321.37752086235565 L473.8443550727685,323.4969894568027 M473.8443550727685,323.4969894568027 L477.74148428982403,325.7345195516896 M477.74148428982403,325.7345195516896 L481.4346701131227,328.0842677242727 M464.15351004493857,324.60135401566276 L469.75354874660206,321.37752086235565 M469.6761476737136,388.78115179948406 L473.76240894445453,390.9029966947258 M473.76240894445453,390.9029966947258 L477.65520707345684,393.1430350994815 M477.65520707345684,393.1430350994815 L481.3442871849781,395.4954169835824 M469.75354874660206,321.37752086235565 L469.6761476737136,388.78115179948406 M475.750458338514,398.724297566199 L464.0823153828091,392.00859931138683 M464.0823153828091,392.00859931138683 L469.6761476737136,388.78115179948406 M464.07875979742465,395.3750345047887 L464.0823153828091,392.00859931138683 M626.7856701761305,220.8907189204403 L464.16420289065974,314.477346781487" stroke="black"  stroke-width="4"  fill="red"/>
<path d="M335.9212402025754,395.37503450478863 L173.51538940040743,301.66206163329673 M335.9212402025754,395.37503450478863 L335.917684617191,392.00859931138683 M330.3238523262864,388.78115179948406 L335.917684617191,392.00859931138683 M330.246451253398,321.37752086235565 L330.3238523262864,388.78115179948406 M330.246451253398,321.37752086235565 L335.84648995506143,324.60135401566276 M335.84648995506143,324.60135401566276 L335.83579710934026,314.477346781487 M335.83579710934026,314.477346781487 L173.21432982386958,220.8907189204403 M173.51538940040743,301.66206163329673 L173.21432982386958,220.8907189204403 M173.51538940040743,301.66206163329673 L161.84810259782046,308.33658805124924 M161.84810259782046,308.33658805124924 L324.2537455828101,402.09110736654446 M324.2537455828101,402.09110736654446 L335.9212402025754,395.37503450478863 M161.84810259782046,308.33658805124924 L161.531463877658,227.55622108838892 M173.21432982386958,220.8907189204403 L161.531463877658,227.55622108838892 M335.84648995506143,324.60135401566276 L324.1653651326067,331.30953393421055 M324.15272251495725,321.18439463617364 L335.83579710934026,314.477346781487 M324.1653651326067,331.30953393421055 L324.15272251495725,321.18439463617364 M318.56532988687735,328.0842677242727 L322.25851571017597,325.7345195516896 M322.25851571017597,325.7345195516896 L326.15564492723155,323.49698945680257 M326.15564492723155,323.49698945680257 L330.246451253398,321.37752086235565 M324.1653651326067,331.30953393421055 L318.56532988687735,328.0842677242727 M330.3238523262864,388.78115179948406 L326.2375910555455,390.9029966947258 M326.2375910555455,390.9029966947258 L322.3447929265433,393.1430350994815 M322.3447929265433,393.1430350994815 L318.65571281502196,395.4954169835824 M318.56532988687735,328.0842677242727 L318.65571281502196,395.4954169835824 M324.24954166148603,398.724297566199 L318.65571281502196,395.4954169835824 M335.917684617191,392.00859931138683 L324.24954166148603,398.724297566199 M324.2537455828101,402.09110736654446 L324.24954166148603,398.724297566199 M161.531463877658,227.55622108838892 L324.15272251495725,321.18439463617364" stroke="black"  stroke-width="4"  fill="red"/>
<path d="M324.0683305511352,476.1651876481403 L159.77478957841424,570.9674135044788 M324.0683305511352,476.1651876481403 L324.0641060229585,472.7942571428357 M318.43915506240376,476.03965904945625 L324.0641060229585,472.7942571428357 M318.3482899833761,408.53857791736436 L318.43915506240376,476.03965904945625 M318.3482899833761,408.53857791736436 L323.97951663454694,405.29679046928135 M323.97951663454694,405.29679046928135 L323.9668119690633,395.1591981402429 M323.9668119690633,395.1591981402429 L159.45260991649093,489.83507127281 M159.77478957841424,570.9674135044788 L159.45260991649093,489.83507127281 M159.77478957841424,570.9674135044788 L171.44207228411753,577.7616801197162 M171.44207228411753,577.7616801197162 L335.7358250609881,482.91718127724005 M335.7358250609881,482.91718127724005 L324.0683305511352,476.1651876481403 M171.44207228411753,577.7616801197162 L171.13547174389169,496.620312849192 M159.45260991649093,489.83507127281 L171.13547174389169,496.620312849192 M323.97951663454694,405.29679046928135 L335.6606413465747,412.0408909662082 M335.64988645294574,401.9021665221742 L323.9668119690633,395.1591981402429 M335.6606413465747,412.0408909662082 L335.64988645294574,401.9021665221742 M335.6606413465747,412.0408909662082 L330.0294112106037,415.2841234604647 M330.0294112106037,415.2841234604647 L325.9362949652516,413.1517447463909 M325.9362949652516,413.1517447463909 L322.0391657952865,410.9012361996315 M322.0391657952865,410.9012361996315 L318.3482899833761,408.53857791736436 M330.0294112106037,415.2841234604647 L330.1072944349935,482.7927231162908 M318.43915506240376,476.03965904945625 L322.1259302942963,478.40495111031925 M322.1259302942963,478.40495111031925 L326.0187283764171,480.65796803436854 M326.0187283764171,480.65796803436854 L330.1072944349935,482.7927231162908 M335.7322488687266,479.54587616267605 L330.1072944349935,482.7927231162908 M324.0641060229585,472.7942571428357 L335.7322488687266,479.54587616267605 M335.7358250609881,482.91718127724005 L335.7322488687266,479.54587616267605 M171.13547174389169,496.620312849192 L335.64988645294574,401.9021665221742" stroke="black"  stroke-width="4"  fill="red"/>
<path d="M464.264174939012,482.91718127724005 L628.5579277158826,577.7616801197163 M464.264174939012,482.91718127724005 L464.26775113127354,479.5458761626761 M469.8927055650066,482.7927231162908 L464.26775113127354,479.5458761626761 M469.97058878939634,415.2841234604647 L469.8927055650066,482.7927231162908 M469.97058878939634,415.2841234604647 L464.3393586534254,412.0408909662082 M464.3393586534254,412.0408909662082 L464.3501135470544,401.9021665221742 M464.3501135470544,401.9021665221742 L628.8645282561083,496.6203128491921 M628.5579277158826,577.7616801197163 L628.8645282561083,496.6203128491921 M628.5579277158826,577.7616801197163 L640.2252104215858,570.9674135044788 M640.2252104215858,570.9674135044788 L475.9316694488648,476.1651876481403 M475.9316694488648,476.1651876481403 L464.264174939012,482.91718127724005 M640.2252104215858,570.9674135044788 L640.5473900835092,489.83507127281007 M628.8645282561083,496.6203128491921 L640.5473900835092,489.83507127281007 M464.3393586534254,412.0408909662082 L476.0204833654531,405.2967904692814 M476.03318803093674,395.1591981402429 L464.3501135470544,401.9021665221742 M476.0204833654531,405.2967904692814 L476.03318803093674,395.1591981402429 M476.0204833654531,405.2967904692814 L481.651710016624,408.53857791736436 M481.651710016624,408.53857791736436 L477.96083420471354,410.9012361996315 M477.96083420471354,410.9012361996315 L474.0637050347484,413.1517447463909 M474.0637050347484,413.1517447463909 L469.97058878939634,415.2841234604647 M469.8927055650066,482.7927231162908 L473.9812716235829,480.6579680343686 M473.9812716235829,480.6579680343686 L477.8740697057038,478.40495111031925 M477.8740697057038,478.40495111031925 L481.5608449375963,476.0396590494563 M481.651710016624,408.53857791736436 L481.5608449375963,476.0396590494563 M475.9358939770416,472.7942571428357 L481.5608449375963,476.0396590494563 M464.26775113127354,479.5458761626761 L475.9358939770416,472.7942571428357 M475.9316694488648,476.1651876481403 L475.9358939770416,472.7942571428357 M640.5473900835092,489.83507127281007 L476.03318803093674,395.1591981402429" stroke="black"  stroke-width="4"  fill="red"/>
<path d="M475.73364545241066,392.00859931138683 L475.7378479742159,388.6417905055114 M475.7378479742159,388.6417905055114 L487.76286964741774,396.885016388718 M487.76286964741774,396.885016388718 L497.13054898785015,406.209525572467 M497.13054898785015,406.209525572467 L503.5545435635097,416.3337163096282 M503.5545435635097,416.3337163096282 L506.8370536664252,426.95124611840504 M506.8370536664252,426.95124611840504 L506.87511304901085,437.74019074417293 M506.87511304901085,437.74019074417293 L503.66413121655637,448.3727430290355 M503.66413121655637,448.3727430290355 L497.2984470964295,458.5251668073155 M497.2984470964295,458.5251668073155 L487.96882728338613,467.8877142990385 M487.96882728338613,467.8877142990385 L475.9570236709525,476.17419581241563 M475.9570236709525,476.17419581241563 L461.6273966292392,483.1308738536932 M461.6273966292392,483.1308738536932 L445.4159366310457,488.5444171744026 M445.4159366310457,488.5444171744026 L427.81693309865824,492.24860990994654 M427.81693309865824,492.24860990994654 L409.3677634976432,494.12962654257586 M409.3677634976432,494.12962654257586 L390.6322365023569,494.12962654257586 M390.6322365023569,494.12962654257586 L372.1830669013418,492.24860990994654 M372.1830669013418,492.24860990994654 L354.58406336895433,488.5444171744026 M354.58406336895433,488.5444171744026 L338.3726033707609,483.1308738536932 M338.3726033707609,483.1308738536932 L324.0429763290474,476.1741958124155 M324.0429763290474,476.1741958124155 L312.031172716614,467.8877142990385 M312.031172716614,467.8877142990385 L302.70155290357053,458.5251668073155 M302.70155290357053,458.5251668073155 L296.33586878344363,448.3727430290355 M296.33586878344363,448.3727430290355 L293.12488695098926,437.74019074417293 M293.12488695098926,437.74019074417293 L293.16294633357484,426.95124611840504 M293.16294633357484,426.95124611840504 L296.4454564364904,416.3337163096282 M296.4454564364904,416.3337163096282 L302.86945101214985,406.209525572467 M302.86945101214985,406.209525572467 L312.2371303525823,396.885016388718 M312.2371303525823,396.885016388718 L324.2621520257843,388.64179050551127 M324.2621520257843,388.64179050551127 L338.5785613008352,381.7283681533836 M338.5785613008352,381.7283681533836 L354.75196192813013,376.35286331112405 M354.75196192813013,376.35286331112405 L372.2926549506365,372.676903786506 M372.2926549506365,372.676903786506 L390.670296041433,370.8109097630538 M390.670296041433,370.8109097630538 L409.32970395856705,370.8109097630538 M409.32970395856705,370.8109097630538 L427.7073450493636,372.676903786506 M427.7073450493636,372.676903786506 L445.24803807186987,376.35286331112405 M445.24803807186987,376.35286331112405 L461.4214386991649,381.7283681533836 M461.4214386991649,381.7283681533836 L475.7378479742159,388.6417905055114 M475.73364545241066,392.00859931138683 L461.4180313414419,385.0947910005313 M461.4180313414419,385.0947910005313 L445.2455283806172,379.7189859363645 M445.2455283806172,379.7189859363645 L427.7058084428999,376.0428210483922 M427.7058084428999,376.0428210483922 L409.32918657956316,374.1767227592298 M409.32918657956316,374.1767227592298 L390.67081342043696,374.1767227592297 M390.67081342043696,374.1767227592297 L372.2941915571001,376.0428210483922 M372.2941915571001,376.0428210483922 L354.75447161938285,379.7189859363645 M354.75447161938285,379.7189859363645 L338.58196865855814,385.0947910005313 M338.58196865855814,385.0947910005313 L324.2663545475891,392.008599311387 M324.2663545475891,392.008599311387 L312.242001442693,400.2522851636495 M312.242001442693,400.2522851636495 L302.87484369660467,409.5773143511558 M302.87484369660467,409.5773143511558 L296.4512077040333,419.70206932701717 M296.4512077040333,419.70206932701717 L293.16888198770965,430.32019046511823 M293.16888198770965,430.32019046511823 L293.1308268347669,441.10973554323533 M293.1308268347669,441.10973554323533 L296.3416322297639,451.74287915867484 M296.3416322297639,451.74287915867484 L302.70696424701276,461.8958671780069 M302.70696424701276,461.8958671780069 L312.0360666953884,471.25893467665134 M312.0360666953884,471.25893467665134 L324.04720320849543,479.5458761626763 M324.04720320849543,479.5458761626763 L338.37603361721295,486.50294016626606 M338.37603361721295,486.50294016626606 L354.58659171929463,491.91678371202954 M354.58659171929463,491.91678371202954 L372.1846156866709,495.6211818132599 M372.1846156866709,495.6211818132599 L390.6327581110384,497.5023027128392 M390.6327581110384,497.5023027128392 L409.3672418889616,497.5023027128392 M409.3672418889616,497.5023027128392 L427.81538431332916,495.6211818132599 M427.81538431332916,495.6211818132599 L445.4134082807054,491.91678371202954 M445.4134082807054,491.91678371202954 L461.6239663827871,486.50294016626606 M461.6239663827871,486.50294016626606 L475.95279679150553,479.54587616267577 M475.95279679150553,479.54587616267577 L487.9639333046116,471.25893467665134 M487.9639333046116,471.25893467665134 L497.29303575298724,461.8958671780069 M497.29303575298724,461.8958671780069 L503.6583677702362,451.74287915867484 M503.6583677702362,451.74287915867484 L506.8691731652332,441.10973554323533 M506.8691731652332,441.10973554323533 L506.83111801229046,430.32019046511834 M506.83111801229046,430.32019046511834 L503.5487922959668,419.70206932701717 M503.5487922959668,419.70206932701717 L497.12515630339533,409.5773143511558 M497.12515630339533,409.5773143511558 L487.757998557307,400.2522851636495 M487.757998557307,400.2522851636495 L475.73364545241066,392.00859931138683 M464.0965416710503,398.724297566199 L450.7972685312261,392.4014531425629 M450.7972685312261,392.4014531425629 L435.6698312494874,387.6438713645715 M435.6698312494874,387.6438713645715 L419.2592546115047,384.621961395916 M419.2592546115047,384.621961395916 L402.15608205914293,383.44388618121593 M402.15608205914293,383.44388618121593 L384.97537962838237,384.151788109837 M384.97537962838237,384.151788109837 L368.33496918797806,386.7203491469819 M368.33496918797806,386.7203491469819 L352.8335265254516,391.057644385069 M352.8335265254516,391.057644385069 L339.02934946802236,397.00834691722923 M339.02934946802236,397.00834691722923 L327.420466534286,404.3591453401126 M327.420466534286,404.3591453401126 L318.4267359976944,412.84618027408555 M318.4267359976944,412.84618027408555 L312.37466638967754,422.16434210221394 M312.37466638967754,422.16434210221394 L309.48538789770606,431.97805021517166 M309.48538789770606,431.97805021517166 L309.86632818843754,441.93322584646126 M309.86632818843754,441.93322584646126 L313.50690160326195,451.66997233313367 M313.50690160326195,451.66997233313367 L320.2784244099235,460.83562165580906 M320.2784244099235,460.83562165580906 L329.93835482127685,469.09758451937313 M329.93835482127685,469.09758451937313 L342.1387612516365,476.1555396097424 M342.1387612516365,476.1555396097424 L356.4386960743922,481.75255348804103 M356.4386960743922,481.75255348804103 L372.3201304418233,485.6846313794129 M372.3201304418233,485.6846313794129 L389.2068821389772,487.8083196048679 M389.2068821389772,487.8083196048679 L406.48571953814167,488.0460939973932 M406.48571953814167,488.0460939973932 L423.5289358030321,486.389275519615 M423.5289358030321,486.389275519615 L439.7175437677097,482.8983497570125 M439.7175437677097,482.8983497570125 L454.46403048174756,477.70069432539873 M454.46403048174756,477.70069432539873 L467.2339674515225,470.98580665806486 M467.2339674515225,470.98580665806486 L477.5655094377146,462.9982064068217 M477.5655094377146,462.9982064068217 L485.0861659535467,454.02835528834527 M485.0861659535467,454.02835528834527 L489.5260930743586,444.4018883472512 M489.5260930743586,444.4018883472512 L490.72757585728783,434.4676418604631 M490.72757585728783,434.4676418604631 L488.6503533941161,424.58492323265966 M488.6503533941161,424.58492323265966 L483.37257952059804,415.1104776383297 M483.37257952059804,415.1104776383297 L475.0875946675963,406.38567182528766 M475.0875946675963,406.38567182528766 L464.0965416710503,398.724297566199 M464.0965416710503,398.724297566199 L475.7378479742159,388.6417905055114" stroke="black"  stroke-width="4"  fill="red"/>
<path d="M475.7378479742159,388.6417905055114 L475.813573201319,327.97527329222646 M475.7378479742159,388.6417905055114 L487.76286964741774,396.885016388718 M487.76286964741774,396.885016388718 L497.13054898785015,406.209525572467 M497.13054898785015,406.209525572467 L503.5545435635097,416.3337163096282 M503.5545435635097,416.3337163096282 L506.8370536664252,426.95124611840504 M506.8370536664252,426.95124611840504 L506.87511304901085,437.74019074417293 M506.87511304901085,437.74019074417293 L503.66413121655637,448.3727430290355 M503.66413121655637,448.3727430290355 L497.2984470964295,458.5251668073155 M497.2984470964295,458.5251668073155 L487.96882728338613,467.8877142990385 M487.96882728338613,467.8877142990385 L475.9570236709525,476.17419581241563 M475.9570236709525,476.17419581241563 L461.6273966292392,483.1308738536932 M461.6273966292392,483.1308738536932 L445.4159366310457,488.5444171744026 M445.4159366310457,488.5444171744026 L427.81693309865824,492.24860990994654 M427.81693309865824,492.24860990994654 L409.3677634976432,494.12962654257586 M409.3677634976432,494.12962654257586 L390.6322365023569,494.12962654257586 M390.6322365023569,494.12962654257586 L372.1830669013418,492.24860990994654 M372.1830669013418,492.24860990994654 L354.58406336895433,488.5444171744026 M354.58406336895433,488.5444171744026 L338.3726033707609,483.1308738536932 M338.3726033707609,483.1308738536932 L324.0429763290474,476.1741958124155 M324.0429763290474,476.1741958124155 L312.031172716614,467.8877142990385 M312.031172716614,467.8877142990385 L302.70155290357053,458.5251668073155 M302.70155290357053,458.5251668073155 L296.33586878344363,448.3727430290355 M296.33586878344363,448.3727430290355 L293.12488695098926,437.74019074417293 M293.12488695098926,437.74019074417293 L293.16294633357484,426.95124611840504 M293.16294633357484,426.95124611840504 L296.4454564364904,416.3337163096282 M296.4454564364904,416.3337163096282 L302.86945101214985,406.209525572467 M302.86945101214985,406.209525572467 L312.2371303525823,396.885016388718 M312.2371303525823,396.885016388718 L324.2621520257843,388.64179050551127 M324.2621520257843,388.64179050551127 L338.5785613008352,381.7283681533836 M338.5785613008352,381.7283681533836 L354.75196192813013,376.35286331112405 M354.75196192813013,376.35286331112405 L372.2926549506365,372.676903786506 M372.2926549506365,372.676903786506 L390.670296041433,370.8109097630538 M390.670296041433,370.8109097630538 L409.32970395856705,370.8109097630538 M409.32970395856705,370.8109097630538 L427.7073450493636,372.676903786506 M427.7073450493636,372.676903786506 L445.24803807186987,376.35286331112405 M445.24803807186987,376.35286331112405 L461.4214386991649,381.7283681533836 M461.4214386991649,381.7283681533836 L475.7378479742159,388.6417905055114 M475.813573201319,327.97527329222646 L487.8506418299427,336.2101935442481 M487.8506418299427,336.2101935442481 L497.2277198115263,345.5253130369781 M497.2277198115263,345.5253130369781 L503.6581757352806,355.63931531356593 M503.6581757352806,355.63931531356593 L506.9440083424414,366.24616746317514 M506.9440083424414,366.24616746317514 L506.9821439793388,377.0242696707128 M506.9821439793388,377.0242696707128 L503.76798295397896,387.6461442260635 M503.76798295397896,387.6461442260635 L497.39595431452415,397.78837941160623 M497.39595431452415,397.78837941160623 L488.0570121152456,407.1415370343299 M488.0570121152456,407.1415370343299 L476.03318803093646,415.41971271424615 M476.03318803093646,415.41971271424615 L461.68920643296553,422.3694213328254 M461.68920643296553,422.3694213328254 L445.46149512661924,427.77754340396535 M445.46149512661924,427.77754340396535 L427.8448407574792,431.4780277890907 M427.8448407574792,431.4780277890907 L409.37716239741644,433.357161640711 M409.37716239741644,433.357161640711 L390.62283760258356,433.357161640711 M390.62283760258356,433.357161640711 L372.1551592425208,431.4780277890907 M372.1551592425208,431.4780277890907 L354.53850487338076,427.77754340396535 M354.53850487338076,427.77754340396535 L338.3107935670346,422.3694213328254 M338.3107935670346,422.3694213328254 L323.9668119690629,415.4197127142458 M323.9668119690629,415.4197127142458 L311.9429878847545,407.14153703432976 M311.9429878847545,407.14153703432976 L302.60404568547597,397.78837941160623 M302.60404568547597,397.78837941160623 L296.23201704602104,387.6461442260635 M296.23201704602104,387.6461442260635 L293.0178560206613,377.0242696707128 M293.0178560206613,377.0242696707128 L293.05599165755865,366.24616746317514 M293.05599165755865,366.24616746317514 L296.3418242647194,355.63931531356593 M296.3418242647194,355.63931531356593 L302.7722801884737,345.5253130369781 M302.7722801884737,345.5253130369781 L312.1493581700573,336.2101935442481 M312.1493581700573,336.2101935442481 L324.1864267986815,327.9752732922263 M324.1864267986815,327.9752732922263 L338.517164147623,321.0688201606444 M338.517164147623,321.0688201606444 L354.7067398287824,315.69873639028646 M354.7067398287824,315.69873639028646 L372.2649668590564,312.0264850842788 M372.2649668590564,312.0264850842788 L390.66097339659916,310.16237377172337 M390.66097339659916,310.16237377172337 L409.33902660340084,310.1623737717234 M409.33902660340084,310.1623737717234 L427.7350331409436,312.0264850842788 M427.7350331409436,312.0264850842788 L445.2932601712176,315.69873639028646 M445.2932601712176,315.69873639028646 L461.4828358523771,321.0688201606444 M461.4828358523771,321.0688201606444 L475.813573201319,327.97527329222646 M375.75177551327795,385.598153987107 L370.65704358821256,381.8493426148806 M370.65704358821256,381.8493426148806 L367.2693100558229,377.50775627343126 M367.2693100558229,377.50775627343126 L365.78485133888717,372.8261047761283 M365.78485133888717,372.8261047761283 L366.28908300328385,368.07665558311515 M366.28908300328385,368.07665558311515 L368.7517893116089,363.5353664610738 M368.7517893116089,363.5353664610738 L373.0290960321644,359.46585896037584 M373.0290960321644,359.46585896037584 L378.87199661426786,356.10417223353966 M378.87199661426786,356.10417223353966 L385.9409243863557,353.6451480427779 M385.9409243863557,353.6451480427779 L393.8254827376807,352.2312300175548 M393.8254827376807,352.2312300175548 L402.06820565278997,351.94428972693214 M402.06820565278997,351.94428972693214 L410.1909617657823,352.8009412544131 M410.1909617657823,352.8009412544131 L417.72254044740913,354.7515851863263 M417.72254044740913,354.7515851863263 L424.2258439573051,357.6832501248564 M424.2258439573051,357.6832501248564 L429.32313944095404,361.4260719849297 M429.32313944095404,361.4260719849297 L432.71797635658675,365.76304094146485 M432.71797635658675,365.76304094146485 L434.2124509869816,370.44250496526394 M434.2124509869816,370.44250496526394 L433.7188532409573,375.19269772064183 M433.7188532409573,375.19269772064183 L431.26496275239833,379.7374910991444 M431.26496275239833,379.7374910991444 L426.9926341586033,383.81246076927044 M426.9926341586033,383.81246076927044 L421.1497335787169,387.18031626095495 M421.1497335787169,387.18031626095495 L414.07582768238757,389.6448026227715 M414.07582768238757,389.6448026227715 L406.182453509724,391.06222490615477 M406.182453509724,391.06222490615477 L397.929096671937,391.3499087608426 M397.929096671937,391.3499087608426 L389.7963246421665,390.49106975766955 M389.7963246421665,390.49106975766955 L382.2576425778311,388.5358084367454 M382.2576425778311,388.5358084367454 L375.75177551327795,385.598153987107 M375.7760416677569,446.3226946121066 L382.2753997774477,449.2633012430011 M382.2753997774477,449.2633012430011 L389.8065375127888,451.22052717721135 M389.8065375127888,451.22052717721135 L397.9311695002958,452.0802290471424 M397.9311695002958,452.0802290471424 L406.17626536803886,451.79225616487196 M406.17626536803886,451.79225616487196 L414.06173956371737,450.37340975858905 M414.06173956371737,450.37340975858905 L421.1285671001745,447.90644694311044 M421.1285671001745,447.90644694311044 L426.96562315842107,444.5352065913727 M426.96562315842107,444.5352065913727 L431.23368072805744,440.4561403721858 M431.23368072805744,440.4561403721858 L433.68512105257827,435.9067768353762 M433.68512105257827,435.9067768353762 L434.17823037765146,431.151805913541 M434.17823037765146,431.151805913541 L432.6852556391117,426.4676334070171 M432.6852556391117,426.4676334070171 L429.2938180485742,422.12629929154446 M429.2938180485742,422.12629929154446 L424.2016225539385,418.37970927990244 M424.2016225539385,418.37970927990244 L417.70482287293885,415.4450921881604 M417.70482287293885,415.4450921881604 L410.1807743166985,413.492483664579 M410.1807743166985,413.492483664579 L402.0661382185839,412.634969280581 M402.0661382185839,412.634969280581 L393.8316550103949,412.92219859530525 M393.8316550103949,412.92219859530525 L385.95497900832856,414.33754072702203 M385.95497900832856,414.33754072702203 L378.8931196420795,416.7990413458719 M378.8931196420795,416.7990413458719 L373.05606358162464,420.16411290387674 M373.05606358162464,420.16411290387674 L368.78303783927146,424.2377169280574 M368.78303783927146,424.2377169280574 L366.3227993227045,428.7835761919951 M366.3227993227045,428.7835761919951 L365.81907734236546,433.53780354798323 M365.81907734236546,433.53780354798323 L367.3020561948185,438.2241635382555 M367.3020561948185,438.2241635382555 L370.68640460572294,442.5701150602651 M370.68640460572294,442.5701150602651 L375.7760416677569,446.3226946121066 M375.7760416677569,446.3226946121066 L375.75177551327795,385.598153987107" stroke="black"  stroke-width="4"  fill="red"/>
<path d="M323.9668119690633,415.419712714246 L338.3107935670346,422.3694213328254 M338.3107935670346,422.3694213328254 L354.53850487338076,427.77754340396535 M354.53850487338076,427.77754340396535 L372.1551592425208,431.4780277890907 M372.1551592425208,431.4780277890907 L390.62283760258356,433.357161640711 M390.62283760258356,433.357161640711 L409.37716239741644,433.357161640711 M409.37716239741644,433.357161640711 L427.8448407574792,431.4780277890907 M427.8448407574792,431.4780277890907 L445.46149512661924,427.77754340396535 M445.46149512661924,427.77754340396535 L461.68920643296553,422.3694213328254 M461.68920643296553,422.3694213328254 L476.03318803093657,415.41971271424603 M476.03318803093657,415.41971271424603 L488.0570121152456,407.1415370343299 M488.0570121152456,407.1415370343299 L497.39595431452415,397.78837941160623 M497.39595431452415,397.78837941160623 L503.76798295397896,387.6461442260635 M503.76798295397896,387.6461442260635 L506.9821439793388,377.0242696707128 M506.9821439793388,377.0242696707128 L506.9440083424414,366.24616746317514 M506.9440083424414,366.24616746317514 L503.6581757352806,355.63931531356593 M503.6581757352806,355.63931531356593 L497.2277198115263,345.5253130369781 M497.2277198115263,345.5253130369781 L487.8506418299427,336.2101935442481 M487.8506418299427,336.2101935442481 L475.813573201319,327.97527329222646 M475.813573201319,327.97527329222646 L461.4828358523771,321.0688201606444 M461.4828358523771,321.0688201606444 L445.2932601712176,315.69873639028646 M445.2932601712176,315.69873639028646 L427.7350331409436,312.0264850842788 M427.7350331409436,312.0264850842788 L409.33902660340084,310.1623737717234 M409.33902660340084,310.1623737717234 L390.66097339659916,310.16237377172337 M390.66097339659916,310.16237377172337 L372.2649668590564,312.0264850842788 M372.2649668590564,312.0264850842788 L354.7067398287824,315.69873639028646 M354.7067398287824,315.69873639028646 L338.517164147623,321.0688201606444 M338.517164147623,321.0688201606444 L324.18642679868117,327.97527329222646 M324.18642679868117,327.97527329222646 L312.1493581700573,336.2101935442481 M312.1493581700573,336.2101935442481 L302.7722801884737,345.5253130369781 M302.7722801884737,345.5253130369781 L296.3418242647194,355.63931531356593 M296.3418242647194,355.63931531356593 L293.05599165755865,366.24616746317514 M293.05599165755865,366.24616746317514 L293.0178560206613,377.0242696707128 M293.0178560206613,377.0242696707128 L296.23201704602104,387.6461442260635 M296.23201704602104,387.6461442260635 L302.60404568547597,397.78837941160623 M302.60404568547597,397.78837941160623 L311.9429878847545,407.14153703432976 M311.9429878847545,407.14153703432976 L323.9668119690633,415.419712714246 M475.813573201319,327.97527329222646 L475.8177845985638,324.60135401566276 M475.8177845985638,324.60135401566276 L487.8555232102716,332.83581138613727 M487.8555232102716,332.83581138613727 L497.23312389158815,342.1504075805744 M497.23312389158815,342.1504075805744 L503.663939160246,352.26384204137645 M503.663939160246,352.26384204137645 L506.9499565481746,362.8700991102621 M506.9499565481746,362.8700991102621 L506.98809642814035,373.647597053481 M506.98809642814035,373.647597053481 L503.773758596379,384.26887652153687 M503.773758596379,384.26887652153687 L497.4013771128,394.41054387894627 M497.4013771128,394.41054387894627 L488.0619164568906,403.7631781867454 M488.0619164568906,403.7631781867454 L476.037423863139,412.0408909662082 M476.037423863139,412.0408909662082 L461.69264394653027,418.99021116451905 M461.69264394653027,418.99021116451905 L445.4640288343269,424.3980310978741 M445.4640288343269,424.3980310978741 L427.8463928249587,428.0983088085353 M427.8463928249587,428.0983088085353 L409.37768511154775,429.9773377285985 M409.37768511154775,429.9773377285985 L390.62231488845225,429.9773377285985 M390.62231488845225,429.9773377285985 L372.1536071750414,428.0983088085353 M372.1536071750414,428.0983088085353 L354.53597116567323,424.3980310978741 M354.53597116567323,424.3980310978741 L338.30735605346985,418.99021116451905 M338.30735605346985,418.99021116451905 L323.9625761368609,412.04089096620817 M323.9625761368609,412.04089096620817 L311.9380835431094,403.76317818674534 M311.9380835431094,403.76317818674534 L302.5986228872001,394.41054387894616 M302.5986228872001,394.41054387894616 L296.2262414036211,384.26887652153687 M296.2262414036211,384.26887652153687 L293.0119035718597,373.647597053481 M293.0119035718597,373.647597053481 L293.05004345182545,362.8700991102621 M293.05004345182545,362.8700991102621 L296.3360608397541,352.26384204137645 M296.3360608397541,352.26384204137645 L302.7668761084119,342.1504075805744 M302.7668761084119,342.1504075805744 L312.14447678972846,332.8358113861372 M312.14447678972846,332.8358113861372 L324.18221540143645,324.6013540156627 M324.18221540143645,324.6013540156627 L338.5137495954401,317.6952892854499 M338.5137495954401,317.6952892854499 L354.7042248393896,312.32550763626284 M354.7042248393896,312.32550763626284 L372.2634270091002,308.6534629923914 M372.2634270091002,308.6534629923914 L390.6604549255712,306.7894566048345 M390.6604549255712,306.7894566048345 L409.3395450744288,306.7894566048345 M409.3395450744288,306.7894566048345 L427.7365729908998,308.6534629923914 M427.7365729908998,308.6534629923914 L445.2957751606104,312.32550763626284 M445.2957751606104,312.32550763626284 L461.48625040455994,317.6952892854499 M461.48625040455994,317.6952892854499 L475.8177845985638,324.60135401566276 M335.67497561384744,405.29679046928135 L323.9668119690633,415.419712714246 M335.67497561384744,405.29679046928135 L349.00030368347615,411.6462104206116 M349.00030368347615,411.6462104206116 L364.1767337797255,416.4272967164512 M364.1767337797255,416.4272967164512 L380.6540270574369,419.4657020735011 M380.6540270574369,419.4657020735011 L397.83404066411964,420.6505376827614 M397.83404066411964,420.6505376827614 L415.09274181248423,419.9385512656425 M415.09274181248423,419.9385512656425 L431.80318528265377,417.3557309441153 M431.80318528265377,417.3557309441153 L447.35864836965203,412.9963527530259 M447.35864836965203,412.9963527530259 L461.1949437685097,407.01942770677897 M461.1949437685097,407.01942770677897 L472.81108775529333,399.64273764944784 M472.81108775529333,399.64273764944784 L481.7875651717471,391.13473256823687 M481.7875651717471,391.13473256823687 L487.8014095367714,381.80454325235985 M487.8014095367714,381.80454325235985 L490.63768563840364,371.990589254608 M490.63768563840364,371.990589254608 L490.19690009324523,362.0481590160833 M490.19690009324523,362.0481590160833 L486.4981633179707,352.336513842855 M486.4981633179707,352.336513842855 L479.6780546126671,343.205889369805 M479.6780546126671,343.205889369805 L469.9852668197715,334.9849519290098 M469.9852668197715,334.9849519290098 L457.7712862359692,327.9691316318721 M457.7712862359692,327.9691316318721 L443.47755111370776,322.4101676339631 M443.47755111370776,322.4101676339631 L427.61949909175183,318.5072710938775 M427.61949909175183,318.5072710938775 L410.7680722277138,316.4001838257869 M410.7680722277138,316.4001838257869 L393.52943197590935,316.16430479833605 M393.52943197590935,316.16430479833605 L376.5234705052886,317.80806987062067 M376.5234705052886,317.80806987062067 L360.36180981848275,321.2726660609842 M360.36180981848275,321.2726660609842 L345.626175549443,326.4340716516209 M345.626175549443,326.4340716516209 L332.84768555349433,333.10736269071765 M332.84768555349433,333.10736269071765 L322.48788876957633,341.05317769322824 M322.48788876957633,341.05317769322824 L314.9220912820228,349.9860878859478 M314.9220912820228,349.9860878859478 L310.4257055511149,359.58467926464476 M310.4257055511149,359.58467926464476 L309.1640027392614,369.50295873158876 M309.1640027392614,369.50295873158876 L311.18572438881336,379.3827184734431 M311.18572438881336,379.3827184734431 L316.4209120397756,388.8664547074649 M316.4209120397756,388.8664547074649 L324.6829524995197,397.61033529190655 M324.6829524995197,397.61033529190655 L335.67497561384744,405.29679046928135" stroke="black"  stroke-width="4"  fill="red"/>
<path d="M429.1493517844357,428.9919736849148 L421.32393920483014,425.4562399567718 M421.32393920483014,425.4562399567718 L412.26170507724487,423.10374545405136 M412.26170507724487,423.10374545405136 L402.4884386371644,422.0706343969035 M402.4884386371644,422.0706343969035 L392.57088664554396,422.4166792178867 M392.57088664554396,422.4166792178867 L383.0841054284171,424.12185874102096 M383.0841054284171,424.12185874102096 L374.5783446370672,427.08751014462763 M374.5783446370672,427.08751014462763 L367.54731009521043,431.1419564212325 M367.54731009521043,431.1419564212325 L362.39961931416025,436.05033212065865 M362.39961931416025,436.05033212065865 L359.4350529415554,441.52805902107457 M359.4350529415554,441.52805902107457 L358.8269868978961,447.25722568696517 M358.8269868978961,447.25722568696517 L360.6120798591717,452.90496798183926 M360.6120798591717,452.90496798183926 L364.6878250431079,458.1427902617033 M364.6878250431079,458.1427902617033 L370.81824024204246,462.6657144855984 M370.81824024204246,462.6657144855984 L378.6473649546705,466.21014257163966 M378.6473649546705,466.21014257163966 L387.7198850924366,468.5693396587547 M387.7198850924366,468.5693396587547 L397.50765501220286,469.6056260503488 M397.50765501220286,469.6056260503488 L407.44060538237505,469.258501874361 M407.44060538237505,469.258501874361 L416.94015229351515,467.5482355813584 M416.94015229351515,467.5482355813584 L425.45312162190845,464.57465530632345 M425.45312162190845,464.57465530632345 L432.4841561591163,460.5112544695208 M432.4841561591163,460.5112544695208 L437.62463839784135,455.5949499036458 M437.62463839784135,455.5949499036458 L440.57643907973,450.1121362356297 M440.57643907973,450.1121362356297 L441.16910675386515,444.3818902176431 M441.16910675386515,444.3818902176431 L439.3695103198632,438.7373232513377 M439.3695103198632,438.7373232513377 L435.2834791246255,433.5062035540914 M435.2834791246255,433.5062035540914 L429.1493517844357,428.9919736849148 M429.1493517844357,428.9919736849148 L444.6857466067824,415.53593993625 M444.6857466067824,415.53593993625 L460.2152428812678,402.0858802010361 M460.2152428812678,402.0858802010361 L475.7378479742159,388.6417905055114 M475.7378479742159,388.6417905055114 L487.76286964741774,396.885016388718 M487.76286964741774,396.885016388718 L497.13054898785015,406.209525572467 M497.13054898785015,406.209525572467 L503.5545435635097,416.3337163096282 M503.5545435635097,416.3337163096282 L506.8370536664252,426.95124611840504 M506.8370536664252,426.95124611840504 L506.87511304901085,437.74019074417293 M506.87511304901085,437.74019074417293 L503.66413121655637,448.3727430290355 M503.66413121655637,448.3727430290355 L497.2984470964295,458.5251668073155 M497.2984470964295,458.5251668073155 L487.96882728338613,467.8877142990385 M487.96882728338613,467.8877142990385 L475.9570236709525,476.17419581241563 M475.9570236709525,476.17419581241563 L461.6273966292392,483.1308738536932 M461.6273966292392,483.1308738536932 L445.4159366310457,488.5444171744026 M445.4159366310457,488.5444171744026 L427.81693309865824,492.24860990994654 M427.81693309865824,492.24860990994654 L409.3677634976432,494.12962654257586 M409.3677634976432,494.12962654257586 L390.6322365023569,494.12962654257586 M390.6322365023569,494.12962654257586 L372.1830669013418,492.24860990994654 M372.1830669013418,492.24860990994654 L354.58406336895433,488.5444171744026 M354.58406336895433,488.5444171744026 L338.3726033707609,483.1308738536932 M338.3726033707609,483.1308738536932 L324.0429763290474,476.1741958124155 M324.0429763290474,476.1741958124155 L312.031172716614,467.8877142990385 M312.031172716614,467.8877142990385 L302.70155290357053,458.5251668073155 M302.70155290357053,458.5251668073155 L296.33586878344363,448.3727430290355 M296.33586878344363,448.3727430290355 L293.12488695098926,437.74019074417293 M293.12488695098926,437.74019074417293 L293.16294633357484,426.95124611840504 M293.16294633357484,426.95124611840504 L296.4454564364904,416.3337163096282 M296.4454564364904,416.3337163096282 L302.86945101214985,406.209525572467 M302.86945101214985,406.209525572467 L312.2371303525823,396.885016388718 M312.2371303525823,396.885016388718 L324.2621520257843,388.64179050551127 M324.2621520257843,388.64179050551127 L338.5785613008352,381.7283681533836 M338.5785613008352,381.7283681533836 L354.75196192813013,376.35286331112405 M354.75196192813013,376.35286331112405 L372.2926549506365,372.676903786506 M372.2926549506365,372.676903786506 L390.670296041433,370.8109097630538 M390.670296041433,370.8109097630538 L409.32970395856705,370.8109097630538 M409.32970395856705,370.8109097630538 L427.7073450493636,372.676903786506 M427.7073450493636,372.676903786506 L445.24803807186987,376.35286331112405 M445.24803807186987,376.35286331112405 L461.4214386991649,381.7283681533836 M461.4214386991649,381.7283681533836 L475.7378479742159,388.6417905055114 M424.19624659584304,431.8513325393739 L417.70089044393154,428.9160618118499 M417.70089044393154,428.9160618118499 L410.1785132045177,426.96301830807727 M410.1785132045177,426.96301830807727 L402.06567934995155,426.10531287897504 M402.06567934995155,426.10531287897504 L393.8330249511155,426.39260618654436 M393.8330249511155,426.39260618654436 L385.95809844240796,427.80826362970754 M385.95809844240796,427.80826362970754 L378.8978079137663,430.2703125542918 M378.8978079137663,430.2703125542918 L373.06204904841184,433.6361335469536 M373.06204904841184,433.6361335469536 L368.7899734710749,437.7106445806014 M368.7899734710749,437.7106445806014 L366.3302826811801,442.2575157165984 M366.3302826811801,442.2575157165984 L365.8266738240821,447.0128010012649 M365.8266738240821,447.0128010012649 L367.30932421836206,451.700203493454 M367.30932421836206,451.700203493454 L370.69292129854887,456.0471215039263 M370.69292129854887,456.0471215039263 L375.7814275523156,459.80053536227723 M375.7814275523156,459.80053536227723 L382.27934099590254,462.74179563028423 M382.27934099590254,462.74179563028423 L389.8088042638453,464.69945654571114 M389.8088042638453,464.69945654571114 L397.9316295654316,465.5593494612321 M397.9316295654316,465.5593494612321 L406.17489190734426,465.2713125859515 M406.17489190734426,465.2713125859515 L414.05861269957177,463.85215086744415 M414.05861269957177,463.85215086744415 L421.1238691904686,461.38463974501786 M421.1238691904686,461.38463974501786 L426.95962805361677,458.01264995725234 M426.95962805361677,458.01264995725234 L431.22673766619187,453.93267672738415 M431.22673766619187,453.93267672738415 L433.67763417413147,449.38230131773616 M433.67763417413147,449.38230131773616 L434.1706350924372,444.6262724670573 M434.1706350924372,444.6262724670573 L432.6779932544399,439.9410574591028 M432.6779932544399,439.9410574591028 L429.28731014519235,435.5987568561941 M429.28731014519235,435.5987568561941 L424.19624659584304,431.8513325393739 M424.2016225539386,418.3797092799025 L429.2938180485742,422.12629929154446 M429.2938180485742,422.12629929154446 L432.6852556391117,426.4676334070171 M432.6852556391117,426.4676334070171 L434.17823037765146,431.151805913541 M434.17823037765146,431.151805913541 L433.68512105257827,435.9067768353762 M433.68512105257827,435.9067768353762 L431.23368072805744,440.4561403721858 M431.23368072805744,440.4561403721858 L426.96562315842107,444.5352065913727 M426.96562315842107,444.5352065913727 L421.1285671001745,447.90644694311044 M421.1285671001745,447.90644694311044 L414.06173956371737,450.37340975858905 M414.06173956371737,450.37340975858905 L406.17626536803886,451.79225616487196 M406.17626536803886,451.79225616487196 L397.9311695002958,452.0802290471424 M397.9311695002958,452.0802290471424 L389.8065375127888,451.22052717721135 M389.8065375127888,451.22052717721135 L382.2753997774477,449.2633012430011 M382.2753997774477,449.2633012430011 L375.7760416677568,446.3226946121066 M375.7760416677568,446.3226946121066 L370.68640460572294,442.5701150602651 M370.68640460572294,442.5701150602651 L367.3020561948185,438.2241635382555 M367.3020561948185,438.2241635382555 L365.81907734236546,433.53780354798323 M365.81907734236546,433.53780354798323 L366.3227993227045,428.7835761919951 M366.3227993227045,428.7835761919951 L368.78303783927146,424.2377169280574 M368.78303783927146,424.2377169280574 L373.05606358162464,420.16411290387674 M373.05606358162464,420.16411290387674 L378.8931196420795,416.7990413458719 M378.8931196420795,416.7990413458719 L385.95497900832856,414.33754072702203 M385.95497900832856,414.33754072702203 L393.8316550103949,412.92219859530525 M393.8316550103949,412.92219859530525 L402.0661382185839,412.634969280581 M402.0661382185839,412.634969280581 L410.1807743166985,413.492483664579 M410.1807743166985,413.492483664579 L417.70482287293885,415.4450921881604 M417.70482287293885,415.4450921881604 L424.2016225539386,418.3797092799025 M424.19624659584304,431.8513325393739 L424.2016225539386,418.3797092799025" stroke="black"  stroke-width="4"  fill="red"/>
<path d="M429.19149620674534,341.323440568972 L435.33449994338554,345.83111274385004 M435.33449994338554,345.83111274385004 L439.42644949009264,351.0546357711674 M439.42644949009264,351.0546357711674 L441.22865974582186,356.6910085825922 M441.22865974582186,356.6910085825922 L440.63514586606976,362.41293917329347 M440.63514586606976,362.41293917329347 L437.6790843227664,367.88779940513916 M437.6790843227664,367.88779940513916 L432.5311710208916,372.79697475679484 M432.5311710208916,372.79697475679484 L425.4899652942345,376.8544849283847 M425.4899652942345,376.8544849283847 L416.9646757575672,379.82375543589853 M416.9646757575672,379.82375543589853 L407.45137740619,381.5315433311409 M407.45137740619,381.5315433311409 L397.50404671611454,381.87816451320145 M397.50404671611454,381.87816451320145 L387.7021071465335,380.84337976745826 M387.7021071465335,380.84337976745826 L378.6164551121367,378.4876016909955 M378.6164551121367,378.4876016909955 L370.7760019882033,374.94831128105653 M370.7760019882033,374.94831128105653 L364.6367211406761,370.4319448102902 M364.6367211406761,370.4319448102902 L360.55508738659023,365.2017192457127 M360.55508738659023,365.2017192457127 L358.76742259580556,359.5621711272087 M358.76742259580556,359.5621711272087 L359.37637942831174,353.84131988129855 M359.37637942831174,353.84131988129855 L362.3452436231157,348.37154638262854 M362.3452436231157,348.37154638262854 L367.500386338377,343.4702998437685 M367.500386338377,343.4702998437685 L374.5415920697099,339.4217441717895 M374.5415920697099,339.4217441717895 L383.05965219830324,336.4604024820635 M383.05965219830324,336.4604024820635 L392.56014789486363,334.75770132227944 M392.56014789486363,334.75770132227944 L402.4920356231051,334.4121594879224 M402.4920356231051,334.4121594879224 L412.2794297207416,335.4437689206985 M412.2794297207416,335.4437689206985 L421.3547659636444,337.7928444581088 M421.3547659636444,337.7928444581088 L429.19149620674534,341.323440568972 M429.19149620674534,341.323440568972 L444.7437058461206,336.8707564196245 M444.7437058461206,336.8707564196245 L460.28439298887116,332.42136479020365 M460.28439298887116,332.42136479020365 L475.813573201319,327.97527329222646 M475.813573201319,327.97527329222646 L461.4828358523771,321.0688201606444 M461.4828358523771,321.0688201606444 L445.2932601712176,315.69873639028646 M445.2932601712176,315.69873639028646 L427.7350331409436,312.0264850842788 M427.7350331409436,312.0264850842788 L409.33902660340084,310.1623737717234 M409.33902660340084,310.1623737717234 L390.66097339659916,310.16237377172337 M390.66097339659916,310.16237377172337 L372.2649668590564,312.0264850842788 M372.2649668590564,312.0264850842788 L354.7067398287824,315.69873639028646 M354.7067398287824,315.69873639028646 L338.517164147623,321.0688201606444 M338.517164147623,321.0688201606444 L324.186426798681,327.9752732922266 M324.186426798681,327.9752732922266 L312.1493581700573,336.2101935442481 M312.1493581700573,336.2101935442481 L302.7722801884737,345.5253130369781 M302.7722801884737,345.5253130369781 L296.3418242647194,355.63931531356593 M296.3418242647194,355.63931531356593 L293.05599165755865,366.24616746317514 M293.05599165755865,366.24616746317514 L293.0178560206613,377.0242696707128 M293.0178560206613,377.0242696707128 L296.23201704602104,387.6461442260635 M296.23201704602104,387.6461442260635 L302.60404568547597,397.78837941160623 M302.60404568547597,397.78837941160623 L311.9429878847545,407.14153703432976 M311.9429878847545,407.14153703432976 L323.9668119690635,415.41971271424603 M323.9668119690635,415.41971271424603 L338.3107935670346,422.3694213328254 M338.3107935670346,422.3694213328254 L354.53850487338076,427.77754340396535 M354.53850487338076,427.77754340396535 L372.1551592425208,431.4780277890907 M372.1551592425208,431.4780277890907 L390.62283760258356,433.357161640711 M390.62283760258356,433.357161640711 L409.37716239741644,433.357161640711 M409.37716239741644,433.357161640711 L427.8448407574792,431.4780277890907 M427.8448407574792,431.4780277890907 L445.46149512661924,427.77754340396535 M445.46149512661924,427.77754340396535 L461.68920643296553,422.3694213328254 M461.68920643296553,422.3694213328254 L476.0331880309369,415.41971271424586 M476.0331880309369,415.41971271424586 L488.0570121152456,407.1415370343299 M488.0570121152456,407.1415370343299 L497.39595431452415,397.78837941160623 M497.39595431452415,397.78837941160623 L503.76798295397896,387.6461442260635 M503.76798295397896,387.6461442260635 L506.9821439793388,377.0242696707128 M506.9821439793388,377.0242696707128 L506.9440083424414,366.24616746317514 M506.9440083424414,366.24616746317514 L503.6581757352806,355.63931531356593 M503.6581757352806,355.63931531356593 L497.2277198115263,345.5253130369781 M497.2277198115263,345.5253130369781 L487.8506418299427,336.2101935442481 M487.8506418299427,336.2101935442481 L475.813573201319,327.97527329222646 M375.74637643074675,372.087286132559 L370.65051092837814,368.3393152077178 M370.65051092837814,368.3393152077178 L367.262024226941,363.99870246662203 M367.262024226941,363.99870246662203 L365.7772362500528,359.31810114018094 M365.7772362500528,359.31810114018094 L366.2815813176608,354.56971765584683 M366.2815813176608,354.56971765584683 L368.7448366966238,350.029447844879 M368.7448366966238,350.029447844879 L373.0230959108259,345.96085401984203 M373.0230959108259,345.96085401984203 L378.86729686530265,342.59992223438485 M378.86729686530265,342.59992223438485 L385.93779731626455,340.14145037744225 M385.93779731626455,340.14145037744225 L393.8241094436617,338.7278499797794 M393.8241094436617,338.7278499797794 L402.0686656446161,338.4409741520336 M402.0686656446161,338.4409741520336 L410.1932284127479,339.2974332311448 M410.1932284127479,339.2974332311448 L417.726482502898,341.24763898755134 M417.726482502898,341.24763898755134 L424.23123307688087,344.17864548798946 M424.23123307688087,344.17864548798946 L429.32966327903205,347.9206269118305 M429.32966327903205,347.9206269118305 L432.7252565258669,352.25662227661024 M432.7252565258669,352.25662227661024 L434.2200648749149,356.93503613362105 M434.2200648749149,356.93503613362105 L433.72635845949185,361.6841631789351 M433.72635845949185,361.6841631789351 L431.2719228247603,366.2279372398387 M431.2719228247603,366.2279372398387 L426.9986439533908,370.3019932241327 M426.9986439533908,370.3019932241327 L421.15444300113325,373.6690937629516 M421.15444300113325,373.6690937629516 L414.0789622098598,376.1330277807789 M414.0789622098598,376.1330277807789 L406.1838303366574,377.55013243007744 M406.1838303366574,377.55013243007744 L397.92863547920876,377.8377518205041 M397.92863547920876,377.8377518205041 L389.7940523355952,376.9791052697735 M389.7940523355952,376.9791052697735 L382.25369170058235,375.0242821329531 M382.25369170058235,375.0242821329531 L375.74637643074675,372.087286132559 M375.75177551327795,385.598153987107 L382.2576425778311,388.5358084367454 M382.2576425778311,388.5358084367454 L389.7963246421665,390.49106975766955 M389.7963246421665,390.49106975766955 L397.929096671937,391.3499087608426 M397.929096671937,391.3499087608426 L406.182453509724,391.06222490615477 M406.182453509724,391.06222490615477 L414.07582768238757,389.6448026227715 M414.07582768238757,389.6448026227715 L421.1497335787169,387.18031626095495 M421.1497335787169,387.18031626095495 L426.9926341586033,383.81246076927044 M426.9926341586033,383.81246076927044 L431.26496275239833,379.7374910991444 M431.26496275239833,379.7374910991444 L433.7188532409573,375.19269772064183 M433.7188532409573,375.19269772064183 L434.2124509869816,370.44250496526394 M434.2124509869816,370.44250496526394 L432.71797635658675,365.76304094146485 M432.71797635658675,365.76304094146485 L429.32313944095404,361.4260719849297 M429.32313944095404,361.4260719849297 L424.22584395730496,357.6832501248564 M424.22584395730496,357.6832501248564 L417.72254044740913,354.7515851863263 M417.72254044740913,354.7515851863263 L410.1909617657823,352.8009412544131 M410.1909617657823,352.8009412544131 L402.06820565278997,351.94428972693214 M402.06820565278997,351.94428972693214 L393.8254827376807,352.2312300175548 M393.8254827376807,352.2312300175548 L385.9409243863557,353.6451480427779 M385.9409243863557,353.6451480427779 L378.87199661426786,356.10417223353966 M378.87199661426786,356.10417223353966 L373.0290960321644,359.46585896037584 M373.0290960321644,359.46585896037584 L368.7517893116089,363.5353664610738 M368.7517893116089,363.5353664610738 L366.28908300328385,368.07665558311515 M366.28908300328385,368.07665558311515 L365.78485133888717,372.8261047761283 M365.78485133888717,372.8261047761283 L367.2693100558229,377.50775627343126 M367.2693100558229,377.50775627343126 L370.65704358821256,381.8493426148806 M370.65704358821256,381.8493426148806 L375.75177551327795,385.598153987107 M375.75177551327795,385.598153987107 L375.74637643074675,372.087286132559" stroke="black"  stroke-width="4"  fill="red"/></svg>